<svg width="35" height="37" viewBox="0 0 35 37" fill="none" xmlns="http://www.w3.org/2000/svg">
<path d="M25.375 35.4118V26.3022C25.3745 25.9027 25.2952 25.5072 25.1418 25.1384C24.9883 24.7695 24.7637 24.4345 24.4806 24.1526C24.1976 23.8706 23.8618 23.6472 23.4924 23.4952C23.1229 23.3431 22.7271 23.2653 22.3276 23.2663H12.1724C11.7729 23.2653 11.3771 23.3431 11.0076 23.4952C10.6382 23.6472 10.3024 23.8706 10.0194 24.1526C9.73634 24.4345 9.51167 24.7695 9.35821 25.1384C9.20475 25.5072 9.1255 25.9027 9.125 26.3022V35.4118M25.375 1.54486V6.06045C25.3745 6.45995 25.2952 6.85544 25.1418 7.22429C24.9883 7.59314 24.7637 7.92813 24.4806 8.21008C24.1976 8.49204 23.8618 8.71544 23.4924 8.86751C23.1229 9.01958 22.7271 9.09734 22.3276 9.09633H12.1724C11.7729 9.09734 11.3771 9.01958 11.0076 8.86751C10.6382 8.71544 10.3024 8.49204 10.0194 8.21008C9.73634 7.92813 9.51167 7.59314 9.35821 7.22429C9.20475 6.85544 9.1255 6.45995 9.125 6.06045V1.00001M25.375 1.54486C24.5822 1.18558 23.7219 0.999814 22.8515 1.00001H9.125M25.375 1.54486C26.0326 1.8431 26.6387 2.25986 27.1606 2.77795L31.7144 7.31839C32.2799 7.88106 32.7287 8.54983 33.0351 9.28634C33.3415 10.0228 33.4995 10.8126 33.5 11.6103V29.3362C33.499 30.1352 33.3406 30.9262 33.0338 31.664C32.7271 32.4018 32.278 33.0719 31.7122 33.6361C31.1464 34.2003 30.475 34.6475 29.7363 34.9522C28.9977 35.2569 28.2062 35.413 27.4072 35.4118H7.09471C6.29568 35.4133 5.50419 35.2574 4.76544 34.9529C4.02668 34.6485 3.35514 34.2015 2.78917 33.6375C2.2232 33.0735 1.77389 32.4035 1.4669 31.6658C1.15991 30.9281 1.00125 30.1371 1 29.3381V7.07178C1.0015 6.27291 1.16034 5.48217 1.46745 4.74469C1.77455 4.00722 2.2239 3.33745 2.78985 2.77364C3.35579 2.20982 4.02725 1.763 4.76588 1.45868C5.50451 1.15436 6.29584 0.998503 7.09471 1.00001H9.125" stroke="black" stroke-width="2" stroke-linecap="round" stroke-linejoin="round"/>
</svg>
