<svg width="33" height="35" viewBox="0 0 33 35" fill="none" xmlns="http://www.w3.org/2000/svg">
<path d="M29.5485 34.2931L18.3343 22.378C17.4443 23.1345 16.4208 23.7334 15.2638 24.1747C14.1068 24.616 12.8756 24.8367 11.5702 24.8367C8.33648 24.8367 5.59998 23.6464 3.3607 21.2659C1.12142 18.8854 0.00118763 15.9779 9.41816e-07 12.5433C-0.00118575 9.10877 1.11905 6.20124 3.3607 3.82074C5.60235 1.44025 8.33886 0.25 11.5702 0.25C14.8016 0.25 17.5387 1.44025 19.7815 3.82074C22.0243 6.20124 23.144 9.10877 23.1404 12.5433C23.1404 13.9303 22.9327 15.2384 22.5174 16.4678C22.1021 17.6971 21.5384 18.7846 20.8264 19.7302L32.0406 31.6453L29.5485 34.2931ZM11.5702 21.0541C13.7952 21.0541 15.6868 20.227 17.2449 18.5728C18.8031 16.9185 19.5815 14.9087 19.5803 12.5433C19.5792 10.178 18.8007 8.1688 17.2449 6.51582C15.6892 4.86284 13.7976 4.03509 11.5702 4.03257C9.34279 4.03005 7.45181 4.8578 5.89725 6.51582C4.34268 8.17385 3.56362 10.183 3.56006 12.5433C3.5565 14.9037 4.33556 16.9135 5.89725 18.5728C7.45893 20.232 9.34991 21.0592 11.5702 21.0541Z" fill="#858585"/>
</svg>
