<svg width="165" height="165" viewBox="0 0 165 165" fill="none" xmlns="http://www.w3.org/2000/svg">
<path d="M82 5V32.5M82 79.5V32.5M82 32.5L109 12.5M82 32.5L55.5 12.5" stroke="#B98D6D" stroke-width="10" stroke-linecap="round" stroke-linejoin="round"/>
<path d="M145.446 36.6654L123.482 53.2132M85.9432 81.4947L123.482 53.2132M123.482 53.2132L155.703 62.7432M123.482 53.2132L123.51 20.013" stroke="#B98D6D" stroke-width="10" stroke-linecap="round" stroke-linejoin="round"/>
<path d="M14.8002 123.923L37.7994 108.847M77.107 83.0806L37.7994 108.847M37.7994 108.847L6.27073 97.2305M37.7994 108.847L35.6006 141.974" stroke="#B98D6D" stroke-width="10" stroke-linecap="round" stroke-linejoin="round"/>
<path d="M82 160L82 132.5M82 85.5L82 132.5M82 132.5L55 152.5M82 132.5L108.5 152.5" stroke="#B98D6D" stroke-width="10" stroke-linecap="round" stroke-linejoin="round"/>
<path d="M154.045 117.947L128.91 106.79M85.9525 87.7206L128.91 106.79M128.91 106.79L136.235 139.582M128.91 106.79L157.942 90.6836" stroke="#B98D6D" stroke-width="10" stroke-linecap="round" stroke-linejoin="round"/>
<path d="M13.25 44.8824L37.0657 58.6324M87 87L37.0657 58.6324M37.0657 58.6324L33.2452 25.2497M37.0657 58.6324L6.49519 71.582" stroke="#B98D6D" stroke-width="10" stroke-linecap="round" stroke-linejoin="round"/>
</svg>
