<svg width="356" height="180" viewBox="0 0 356 180" fill="none" xmlns="http://www.w3.org/2000/svg">
<mask id="path-1-inside-1_802_12040" fill="white">
<path fill-rule="evenodd" clip-rule="evenodd" d="M77.1307 0C57.7889 0 42.1093 15.6796 42.1093 35.0213V41.7101L1.00211 41.7102C-0.0529756 41.7102 -0.38968 43.1319 0.553342 43.6051L42.1093 64.4577V144.088C42.1093 163.43 57.7888 179.109 77.1306 179.109H320.917C340.258 179.109 355.938 163.43 355.938 144.088V35.0214C355.938 15.6796 340.258 0 320.917 0H77.1307Z"/>
</mask>
<path fill-rule="evenodd" clip-rule="evenodd" d="M77.1307 0C57.7889 0 42.1093 15.6796 42.1093 35.0213V41.7101L1.00211 41.7102C-0.0529756 41.7102 -0.38968 43.1319 0.553342 43.6051L42.1093 64.4577V144.088C42.1093 163.43 57.7888 179.109 77.1306 179.109H320.917C340.258 179.109 355.938 163.43 355.938 144.088V35.0214C355.938 15.6796 340.258 0 320.917 0H77.1307Z" fill="#EEEDE6"/>
<path d="M42.1093 41.7101L42.1093 46.7131L47.1123 46.7131V41.7101H42.1093ZM1.00211 41.7102V46.7132H1.00213L1.00211 41.7102ZM0.553342 43.6051L2.79719 39.1335L2.79719 39.1335L0.553342 43.6051ZM42.1093 64.4577H47.1123V61.3706L44.3531 59.986L42.1093 64.4577ZM47.1123 35.0213C47.1123 18.4427 60.552 5.00305 77.1307 5.00305V-5.00305C55.0258 -5.00305 37.1062 12.9165 37.1062 35.0213H47.1123ZM47.1123 41.7101V35.0213H37.1062V41.7101H47.1123ZM1.00213 46.7132L42.1093 46.7131L42.1093 36.707L1.0021 36.7071L1.00213 46.7132ZM2.79719 39.1335C6.56934 41.0263 5.22242 46.7132 1.00211 46.7132V36.7071C-5.32837 36.7071 -7.3487 45.2375 -1.6905 48.0768L2.79719 39.1335ZM44.3531 59.986L2.79719 39.1335L-1.69051 48.0768L39.8654 68.9293L44.3531 59.986ZM47.1123 144.088V64.4577H37.1062V144.088H47.1123ZM77.1306 174.106C60.552 174.106 47.1123 160.667 47.1123 144.088H37.1062C37.1062 166.193 55.0257 184.112 77.1306 184.112V174.106ZM320.917 174.106H77.1306V184.112H320.917V174.106ZM350.935 144.088C350.935 160.667 337.495 174.106 320.917 174.106V184.112C343.022 184.112 360.941 166.193 360.941 144.088H350.935ZM350.935 35.0214V144.088H360.941V35.0214H350.935ZM320.917 5.00305C337.495 5.00305 350.935 18.4427 350.935 35.0214H360.941C360.941 12.9165 343.022 -5.00305 320.917 -5.00305V5.00305ZM77.1307 5.00305H320.917V-5.00305H77.1307V5.00305Z" fill="black" mask="url(#path-1-inside-1_802_12040)"/>
<path d="M134.501 38.1873C134.725 38.0943 135.022 38.0478 135.394 38.0478C135.766 38.0292 136.073 38.0571 136.314 38.1315C136.519 38.1873 136.714 38.243 136.9 38.2988C137.885 38.5591 138.694 39.0054 139.327 39.6376C139.512 39.8235 139.689 40.0466 139.856 40.307C140.042 40.5487 140.135 40.7067 140.135 40.7811C140.135 40.8183 140.154 40.8927 140.191 41.0042C140.247 41.0972 140.293 41.2273 140.331 41.3947C140.386 41.5806 140.424 41.748 140.442 41.8967C140.498 42.1384 140.517 42.5289 140.498 43.0681C140.498 43.5888 140.461 43.9792 140.386 44.2396C140.089 45.4667 139.261 46.4336 137.904 47.1402C137.625 47.2889 137.467 47.3726 137.43 47.3912C137.411 47.4284 137.393 48.293 137.374 49.9851C137.374 51.6771 137.393 52.5324 137.43 52.551C137.449 52.5696 138.285 52.5789 139.94 52.5789C141.335 52.5789 142.143 52.5975 142.367 52.6347C142.59 52.6533 142.804 52.7741 143.008 52.9973C143.585 53.6109 143.557 54.2337 142.924 54.8659C142.701 55.0891 142.46 55.2192 142.199 55.2564C141.958 55.2936 141.242 55.3308 140.052 55.368C138.657 55.3866 137.067 55.4238 135.282 55.4795C131.619 55.5725 129.648 55.5539 129.37 55.4238C128.793 55.1448 128.458 54.7544 128.365 54.2523C128.291 53.7317 128.486 53.2948 128.951 52.9415L129.258 52.7183H131.852C133.581 52.7183 134.464 52.6998 134.501 52.6626C134.557 52.6068 134.594 51.7236 134.613 50.0129C134.65 48.3023 134.641 47.4191 134.585 47.3633C134.548 47.3261 134.446 47.2889 134.278 47.2518C133.702 47.103 133.116 46.7869 132.521 46.3035C131.926 45.82 131.499 45.3087 131.238 44.7695C131.015 44.2674 130.885 43.691 130.848 43.0402C130.829 42.3895 130.922 41.8595 131.127 41.4505C131.164 41.3575 131.182 41.2738 131.182 41.1995C131.182 40.9949 131.471 40.558 132.047 39.8886C132.642 39.2006 133.023 38.8566 133.191 38.8566C133.246 38.8566 133.274 38.8473 133.274 38.8287C133.274 38.7916 133.423 38.6986 133.72 38.5498C134.037 38.3825 134.297 38.2616 134.501 38.1873ZM136.733 41.1716C136.138 40.9856 135.571 40.9856 135.031 41.1716C134.492 41.3575 134.12 41.6829 133.916 42.1477C133.841 42.3337 133.786 42.4638 133.748 42.5382C133.581 42.8543 133.581 43.1983 133.748 43.5702C133.916 43.942 134.176 44.2117 134.529 44.379C135.161 44.6579 135.794 44.7044 136.426 44.5185C137.058 44.3139 137.449 43.9606 137.597 43.4586C137.988 42.2314 137.7 41.4691 136.733 41.1716ZM147.459 35.4261C147.961 35.3145 148.37 35.4354 148.686 35.7886C148.835 35.9374 148.928 36.1233 148.965 36.3465C149.021 36.5696 149.058 36.9972 149.076 37.6294C149.076 37.6852 149.076 37.7503 149.076 37.8247C149.095 38.6056 149.141 39.0612 149.216 39.1913C149.309 39.3029 149.597 39.3494 150.08 39.3308C150.136 39.3308 150.183 39.3308 150.22 39.3308C150.926 39.2936 151.903 39.2657 153.148 39.2471C154.357 39.2285 155.064 39.2378 155.268 39.275C155.491 39.3122 155.724 39.4423 155.965 39.6655C156.505 40.2047 156.523 40.7811 156.021 41.3947C155.779 41.655 155.454 41.8131 155.045 41.8688C154.654 41.9246 153.492 41.9711 151.559 42.0083C149.718 42.0455 148.621 42.0548 148.267 42.0362C147.914 42.0176 147.617 41.9339 147.375 41.7852C147.319 41.748 147.254 41.7201 147.18 41.7015C146.919 41.5713 146.733 41.2366 146.622 40.6974C146.51 40.1582 146.417 39.1541 146.343 37.6852C146.287 36.3279 146.659 35.5748 147.459 35.4261ZM153.846 43.7096C155.891 43.5981 157.053 43.6167 157.332 43.7654C157.927 44.1001 158.187 44.5556 158.113 45.1321C158.057 45.7085 157.685 46.0989 156.997 46.3035C156.904 46.3221 156.458 46.3314 155.659 46.3314C154.357 46.35 152.869 46.415 151.196 46.5266C150.787 46.5638 150.108 46.601 149.16 46.6382C148.379 46.6753 147.747 46.7125 147.263 46.7497C145.943 46.8613 145.125 46.8427 144.809 46.6939C144.512 46.5638 144.279 46.3592 144.112 46.0803C143.963 45.8014 143.926 45.5225 144 45.2436C144.093 44.8903 144.242 44.6486 144.446 44.5185C144.651 44.3697 144.995 44.2674 145.478 44.2117C145.962 44.1373 146.799 44.0722 147.989 44.0164C149.011 43.9792 149.625 43.9513 149.829 43.9328C149.978 43.8956 150.582 43.8491 151.642 43.7933C152.684 43.7561 153.418 43.7282 153.846 43.7096ZM153.706 47.8375C155.064 47.7445 155.91 47.8561 156.244 48.1721C156.598 48.4697 156.774 49.2692 156.774 50.5708C156.774 51.9281 156.625 52.8206 156.328 53.2483C156.049 53.6759 155.408 53.9641 154.403 54.1129C153.585 54.2244 152.711 54.2988 151.782 54.336C151.038 54.3546 150.555 54.3825 150.331 54.4197C150.09 54.4569 149.792 54.4755 149.439 54.4755C149.048 54.4755 148.825 54.5034 148.77 54.5591C148.751 54.6149 148.742 54.773 148.742 55.0333C148.742 55.275 148.76 55.4145 148.797 55.4516C148.89 55.5446 150.173 55.6004 152.646 55.619C152.795 55.619 153.009 55.619 153.288 55.619C154.72 55.6376 155.566 55.6562 155.826 55.6748C156.086 55.712 156.291 55.8049 156.439 55.9537C156.477 55.9909 156.495 56.0095 156.495 56.0095C156.942 56.4185 157.053 56.8462 156.83 57.2924C156.774 57.404 156.746 57.4784 156.746 57.5156C156.746 57.5527 156.653 57.6457 156.467 57.7945C156.3 57.9618 156.151 58.0734 156.021 58.1292C155.742 58.2779 154.301 58.3523 151.698 58.3523C149.095 58.3523 147.635 58.2779 147.319 58.1292C146.892 57.9246 146.594 57.6829 146.427 57.404C146.259 57.1251 146.138 56.6695 146.064 56.0373C145.934 54.5498 145.925 53.6294 146.036 53.2762C146.222 52.6998 146.464 52.3279 146.761 52.1605C147.077 51.9932 147.738 51.9002 148.742 51.8816C149.56 51.8444 150.248 51.8072 150.806 51.7701C152.219 51.6585 153.213 51.5748 153.79 51.519C153.976 51.519 154.078 51.5004 154.097 51.4633C154.134 51.4447 154.152 51.3052 154.152 51.0449C154.171 50.7846 154.162 50.6358 154.125 50.5986C154.087 50.5615 153.492 50.5522 152.34 50.5708C151.205 50.5708 150.118 50.5894 149.076 50.6265C148.035 50.6637 147.319 50.6544 146.929 50.5986C146.557 50.5429 146.259 50.3941 146.036 50.1524C145.85 49.9293 145.748 49.6597 145.729 49.3436C145.711 49.0275 145.785 48.7579 145.953 48.5347C145.953 48.5347 145.962 48.5254 145.98 48.5068C146.185 48.2465 146.455 48.0885 146.789 48.0327C147.124 47.9769 148.165 47.9397 149.913 47.9211C149.95 47.9211 149.978 47.9211 149.997 47.9211C152.005 47.9025 153.241 47.8746 153.706 47.8375ZM172.067 38.773C172.253 38.6428 172.532 38.6149 172.904 38.6893C173.276 38.7637 173.545 38.9031 173.713 39.1076C173.731 39.1076 173.741 39.1169 173.741 39.1355C173.908 39.3215 174.001 39.6469 174.02 40.1117C174.057 40.558 174.066 42.0362 174.047 44.5463C174.047 44.6579 174.047 44.7509 174.047 44.8253C174.01 48.3395 174.001 50.5708 174.02 51.519C174.02 52.7276 174.001 53.4435 173.964 53.6666C173.889 54.1129 173.694 54.4569 173.378 54.6986C173.062 54.9217 172.718 54.9961 172.346 54.9217C171.974 54.8473 171.677 54.6242 171.454 54.2523C171.323 54.0664 171.258 51.612 171.258 46.8892C171.258 42.1663 171.314 39.6934 171.426 39.4702C171.556 39.1913 171.77 38.9589 172.067 38.773ZM163.142 39.2192C163.774 39.1076 164.481 39.2006 165.262 39.4981C166.061 39.777 166.684 40.1675 167.131 40.6695C167.595 41.1716 167.865 41.8688 167.939 42.7613C168.032 43.6538 167.912 44.4534 167.577 45.1599C167.317 45.6992 167.019 46.1268 166.684 46.4429C166.35 46.759 165.913 47.0286 165.373 47.2518C164.555 47.5864 163.626 47.605 162.584 47.3075C161.543 46.9914 160.753 46.4708 160.214 45.7457C159.786 45.1878 159.554 44.5463 159.516 43.8212C159.479 43.096 159.6 42.4267 159.879 41.8131C160.176 41.1809 160.613 40.623 161.19 40.1396C161.766 39.6376 162.417 39.3308 163.142 39.2192ZM164.537 42.1199C163.979 41.9525 163.468 42.0176 163.003 42.3151C162.538 42.6126 162.305 43.0217 162.305 43.5423C162.305 43.9885 162.556 44.3325 163.059 44.5742C163.561 44.7974 164.053 44.7974 164.537 44.5742C165.039 44.3511 165.29 43.9235 165.29 43.2913C165.29 42.6591 165.039 42.2686 164.537 42.1199ZM168.246 49.5946C168.692 49.5388 169.046 49.5481 169.306 49.6225C169.529 49.6783 169.743 49.7898 169.948 49.9572C170.133 50.1245 170.254 50.3569 170.31 50.6544C170.384 50.9333 170.366 51.1844 170.254 51.4075C170.05 51.8351 169.715 52.114 169.25 52.2442C168.804 52.3558 167.921 52.4115 166.601 52.4115C165.745 52.4115 164.778 52.4301 163.7 52.4673C161.376 52.5789 160.084 52.5975 159.823 52.5231C159.284 52.3744 158.931 52.0676 158.763 51.6027C158.615 51.1193 158.726 50.6823 159.098 50.2918C159.303 50.0687 159.526 49.9386 159.767 49.9014C160.009 49.8642 160.716 49.827 161.887 49.7898C163.282 49.7712 164.183 49.7433 164.593 49.7061C165.057 49.669 165.699 49.6411 166.517 49.6225C167.409 49.6225 167.986 49.6132 168.246 49.5946ZM191.031 37.6573C191.329 37.5458 191.636 37.5365 191.952 37.6294C192.286 37.7224 192.509 37.8805 192.621 38.1036C192.788 38.4383 192.872 39.0147 192.872 39.8328C192.872 40.5766 192.918 40.9949 193.011 41.0879C193.104 41.1809 193.523 41.2366 194.267 41.2552C194.936 41.2738 195.364 41.3296 195.55 41.4226C195.754 41.497 195.94 41.6922 196.107 42.0083C196.2 42.2128 196.228 42.4545 196.191 42.7334C196.172 43.0124 196.098 43.2262 195.968 43.3749C195.763 43.5981 195.55 43.7468 195.326 43.8212C195.122 43.877 194.713 43.9142 194.099 43.9328L192.928 43.9606L193.318 44.1559C193.857 44.4348 194.257 44.7137 194.518 44.9926C194.778 45.2715 195.01 45.662 195.215 46.164C195.345 46.4801 195.373 46.9264 195.299 47.5028C195.224 48.0606 195.085 48.5254 194.88 48.8973C194.731 49.139 194.462 49.4272 194.071 49.7619C193.681 50.078 193.411 50.2361 193.262 50.2361C193.151 50.2361 193.03 50.2733 192.9 50.3476C192.77 50.422 192.705 50.4871 192.705 50.5429C192.686 50.8404 192.686 51.1658 192.705 51.519C192.742 51.8537 192.779 52.0397 192.816 52.0769C192.872 52.1326 193.355 52.1512 194.267 52.1326C195.159 52.114 195.708 52.1326 195.912 52.1884C196.377 52.2814 196.693 52.5231 196.86 52.9136C197.028 53.2855 197.009 53.6666 196.805 54.0571C196.619 54.4476 196.284 54.7265 195.801 54.8938C195.633 54.931 194.36 54.9589 191.98 54.9775C189.599 54.9961 188.093 54.9775 187.461 54.9217C186.643 54.8473 186.067 54.6056 185.732 54.1966C185.397 53.7689 185.407 53.2948 185.76 52.7741C185.964 52.4766 186.178 52.3 186.401 52.2442C186.624 52.1884 187.229 52.1605 188.214 52.1605C188.289 52.1605 188.409 52.1605 188.577 52.1605C189.339 52.1791 189.776 52.1698 189.888 52.1326C190.018 52.0769 190.064 51.9095 190.027 51.6306C190.009 51.5748 189.999 51.5376 189.999 51.519C189.962 51.1844 189.943 50.924 189.943 50.7381C189.943 50.4406 189.841 50.2733 189.637 50.2361C189.488 50.1989 189.265 50.0873 188.967 49.9014C188.67 49.6968 188.428 49.5016 188.242 49.3157C187.852 48.9066 187.591 48.4232 187.461 47.8654C187.35 47.2889 187.405 46.759 187.629 46.2756C187.666 46.2012 187.703 46.1268 187.74 46.0525C187.759 45.9967 187.787 45.9409 187.824 45.8851C187.842 45.8479 187.935 45.6806 188.103 45.3831C188.27 45.1042 188.428 44.8996 188.577 44.7695C188.726 44.6207 188.939 44.472 189.218 44.3232C189.59 44.1373 189.767 44.0257 189.748 43.9885C189.748 43.9328 189.441 43.9142 188.828 43.9328C187.861 43.9699 187.257 43.9049 187.015 43.7375C186.68 43.533 186.466 43.2727 186.373 42.9566C186.28 42.6405 186.336 42.3337 186.541 42.0362C186.764 41.7015 186.987 41.497 187.21 41.4226C187.433 41.3296 187.917 41.2738 188.66 41.2552C189.386 41.2181 189.823 41.1809 189.971 41.1437C190.139 41.0879 190.213 40.967 190.194 40.7811C190.157 40.5208 190.157 40.0559 190.194 39.3866C190.25 38.6986 190.297 38.3267 190.334 38.2709C190.39 38.1965 190.418 38.1408 190.418 38.1036C190.418 38.0664 190.492 37.992 190.641 37.8805C190.789 37.7689 190.92 37.6945 191.031 37.6573ZM191.952 46.5824C191.617 46.5266 191.375 46.5173 191.226 46.5545C191.208 46.5731 191.106 46.5917 190.92 46.6103C190.678 46.6475 190.501 46.7404 190.39 46.8892C190.297 47.0193 190.278 47.1774 190.334 47.3633C190.39 47.605 190.613 47.7445 191.003 47.7817C191.394 47.8189 191.747 47.7538 192.063 47.5864C192.398 47.4191 192.537 47.2146 192.482 46.9728C192.426 46.7683 192.249 46.6382 191.952 46.5824ZM199.175 40.1675C199.324 40.0931 199.519 40.0931 199.761 40.1675C200.003 40.2233 200.198 40.3348 200.347 40.5022C200.533 40.7067 200.644 40.9391 200.681 41.1995C200.719 41.4598 200.756 42.2128 200.793 43.4586C200.812 44.9461 200.839 45.7457 200.877 45.8572C200.914 45.9502 201.072 46.0153 201.351 46.0525C201.648 46.071 202.253 46.0803 203.164 46.0803C203.573 46.0803 203.861 46.1082 204.028 46.164C204.214 46.2012 204.4 46.2942 204.586 46.4429C204.939 46.7404 205.107 47.1216 205.088 47.5864C205.07 48.0513 204.874 48.4139 204.502 48.6742C204.279 48.8229 204.066 48.9159 203.861 48.9531C203.656 48.9903 203.21 49.0182 202.522 49.0368C201.797 49.0368 201.351 49.0554 201.183 49.0925C201.035 49.1297 200.942 49.2227 200.905 49.3715C200.886 49.5016 200.895 50.3662 200.932 51.9653C200.97 53.2483 200.979 54.0571 200.96 54.3918C200.942 54.7265 200.867 55.0054 200.737 55.2285C200.533 55.619 200.263 55.8514 199.928 55.9258C199.594 56.0188 199.25 55.9351 198.896 55.6748C198.636 55.4516 198.469 55.2657 198.394 55.117C198.339 54.9496 198.292 54.5963 198.255 54.0571C198.162 51.8072 198.115 49.669 198.115 47.6422C198.115 45.8572 198.097 44.4162 198.06 43.3192C198.023 41.7201 198.078 40.9205 198.227 40.9205C198.264 40.9205 198.283 40.8927 198.283 40.8369C198.283 40.7811 198.366 40.6788 198.534 40.5301C198.701 40.3627 198.831 40.2698 198.924 40.2512C199.036 40.214 199.12 40.1861 199.175 40.1675ZM216.905 35.956C217.481 35.8816 217.909 36.0211 218.188 36.3744C218.355 36.5975 218.458 36.802 218.495 36.9879C218.532 37.1553 218.55 37.6387 218.55 38.4383C218.55 38.5498 218.55 38.7079 218.55 38.9124C218.532 39.4888 218.569 39.8235 218.662 39.9165C218.755 40.0095 219.08 40.0559 219.638 40.0559C219.806 40.0559 219.945 40.0559 220.057 40.0559C220.912 40.0559 221.414 40.0931 221.563 40.1675C222.102 40.4464 222.381 40.8648 222.399 41.4226C222.437 41.9804 222.204 42.4081 221.702 42.7056C221.553 42.7799 221.405 42.8264 221.256 42.845C221.126 42.845 220.707 42.845 220.001 42.845C219.071 42.845 218.588 42.8636 218.55 42.9008C218.532 42.938 218.513 43.533 218.495 44.6858C218.458 45.9874 218.383 46.7497 218.272 46.9728C217.955 47.5121 217.509 47.7445 216.933 47.6701C216.375 47.5771 215.994 47.2239 215.789 46.6103C215.734 46.4243 215.715 44.8067 215.734 41.7573C215.734 41.5713 215.734 41.311 215.734 40.9763C215.752 38.9496 215.771 37.7503 215.789 37.3784C215.826 36.988 215.929 36.6997 216.096 36.5138C216.133 36.4766 216.161 36.4487 216.18 36.4301C216.384 36.1512 216.626 35.9932 216.905 35.956ZM206.585 37.4621C206.79 37.3505 207.032 37.3133 207.31 37.3505C207.608 37.3691 207.859 37.4528 208.064 37.6015C208.268 37.7689 208.38 38.0292 208.398 38.3825C208.435 38.7172 208.445 39.8142 208.426 41.6736C208.408 42.6591 208.408 43.1704 208.426 43.2076C208.445 43.2448 208.937 43.2634 209.904 43.2634C210.871 43.2634 211.559 43.2448 211.968 43.2076C212.359 43.1704 212.647 43.1797 212.833 43.2355C213.037 43.2913 213.242 43.4214 213.446 43.626C213.651 43.8305 213.753 43.9699 213.753 44.0443C213.753 44.1001 213.772 44.1373 213.809 44.1559C213.846 44.1745 213.865 44.2674 213.865 44.4348C213.865 44.6021 213.846 44.7137 213.809 44.7695C213.809 44.7881 213.8 44.816 213.781 44.8531C213.763 44.8903 213.735 44.9368 213.697 44.9926C213.679 45.0484 213.66 45.0949 213.642 45.1321C213.456 45.5039 213.195 45.7364 212.861 45.8293C212.526 45.9037 211.717 45.9502 210.434 45.9688C208.742 45.9874 207.608 45.9502 207.032 45.8572C206.455 45.7642 206.093 45.5504 205.944 45.2157C205.925 45.1228 205.897 45.0577 205.86 45.0205C205.749 44.816 205.684 44.5556 205.665 44.2396C205.646 43.9049 205.637 43.0217 205.637 41.5899C205.656 39.7491 205.693 38.7451 205.749 38.5777C205.897 38.0385 206.176 37.6666 206.585 37.4621ZM212.08 48.8136C212.396 48.795 213.381 48.7857 215.036 48.7857C216.282 48.7857 217.016 48.795 217.24 48.8136C217.481 48.8322 217.658 48.8787 217.77 48.9531C218.086 49.1204 218.29 49.325 218.383 49.5667C218.495 49.7898 218.56 50.171 218.578 50.7102C218.578 51.1937 218.597 51.6399 218.634 52.049C218.653 52.3651 218.643 52.7927 218.606 53.3319C218.569 53.648 218.532 54.1129 218.495 54.7265C218.42 55.5446 218.29 56.1489 218.104 56.5394C217.937 56.9299 217.658 57.2181 217.267 57.404C217.063 57.497 216.087 57.5527 214.339 57.5713C212.591 57.5899 211.42 57.5527 210.825 57.4598C210.304 57.3854 209.895 57.2459 209.598 57.0414C209.319 56.8369 209.114 56.5301 208.984 56.121C208.91 55.8793 208.919 55.2936 209.012 54.3639C209.03 54.0292 209.049 53.2576 209.068 52.049C209.068 51.0821 209.077 50.4778 209.096 50.2361C209.133 49.9943 209.235 49.7712 209.402 49.5667C209.607 49.3064 209.83 49.1483 210.072 49.0925C210.313 49.0182 210.983 48.9252 212.08 48.8136ZM215.817 51.519C215.761 51.4447 215.111 51.4168 213.865 51.4354C212.619 51.454 211.959 51.5097 211.885 51.6027C211.847 51.6399 211.82 52.1698 211.801 53.1925C211.801 54.1966 211.82 54.7172 211.857 54.7544C211.894 54.7916 212.507 54.8195 213.697 54.838C213.958 54.838 214.246 54.8473 214.562 54.8659C214.897 54.8659 215.139 54.8659 215.287 54.8659C215.455 54.8659 215.548 54.8659 215.566 54.8659C215.641 54.8659 215.687 54.8195 215.706 54.7265C215.743 54.6149 215.78 54.2988 215.817 53.7782C215.91 52.3837 215.91 51.6306 215.817 51.519ZM230.518 37.7689C230.666 37.7131 230.936 37.6945 231.326 37.7131C231.717 37.7317 231.986 37.7596 232.135 37.7968C232.544 37.9641 232.842 38.2337 233.028 38.6056C233.102 38.7544 233.139 39.4237 233.139 40.6137C233.158 41.7852 233.139 42.5196 233.084 42.8171C233.046 43.0031 233.009 43.4028 232.972 44.0164C232.935 44.63 232.898 45.0577 232.86 45.2994C232.786 45.7457 232.591 46.0896 232.275 46.3314C231.977 46.5545 231.67 46.6475 231.354 46.6103C231.057 46.5545 230.787 46.3778 230.545 46.0803C230.304 45.7828 230.192 45.4017 230.211 44.9368C230.211 44.6207 230.192 44.4441 230.155 44.4069C230.136 44.3883 229.746 44.3976 228.984 44.4348C228.24 44.4534 227.701 44.4813 227.366 44.5185C225.469 44.7416 224.521 44.3046 224.521 43.2076C224.521 42.2779 225.256 41.8038 226.724 41.7852C227.078 41.7852 227.366 41.7666 227.589 41.7294C227.849 41.7108 228.314 41.6829 228.984 41.6457C229.616 41.6085 229.997 41.562 230.127 41.5063C230.276 41.4505 230.36 41.3203 230.378 41.1158C230.415 40.8369 230.397 40.6788 230.322 40.6416C230.267 40.5859 230.053 40.5766 229.681 40.6137C229.328 40.6323 228.937 40.6416 228.509 40.6416C228.138 40.6416 227.515 40.6602 226.641 40.6974C225.86 40.7532 225.376 40.7532 225.19 40.6974C224.651 40.5115 224.363 40.1303 224.326 39.5539C224.289 38.9775 224.53 38.5591 225.051 38.2988C225.348 38.1315 225.925 38.0385 226.78 38.0199C227.394 38.0013 227.812 37.9734 228.035 37.9362C228.24 37.899 228.686 37.8712 229.374 37.8526C230.043 37.8154 230.425 37.7875 230.518 37.7689ZM238.104 37.9641C238.364 37.8712 238.652 37.8898 238.968 38.0199C239.285 38.1315 239.536 38.3267 239.722 38.6056C239.796 38.7172 239.833 39.0147 239.833 39.4981C239.852 39.963 239.852 41.5806 239.833 44.3511C239.833 48.0885 239.815 50.2826 239.777 50.9333C239.759 51.5469 239.731 52.4023 239.694 53.4993C239.675 54.5405 239.619 55.1448 239.526 55.3122C239.285 55.777 238.913 56.0281 238.411 56.0652C237.927 56.1024 237.527 55.9072 237.211 55.4795C236.97 55.1448 236.877 54.6428 236.932 53.9734C236.932 53.9362 236.932 53.8991 236.932 53.8619C236.951 53.6016 236.895 53.4528 236.765 53.4156C236.654 53.3598 236.226 53.3226 235.482 53.3041C235.333 53.3041 235.213 53.2948 235.12 53.2762C233.892 53.2576 233.018 53.2483 232.498 53.2483C231.587 53.2483 230.945 53.1367 230.573 52.9136C230.22 52.6905 230.043 52.3093 230.043 51.7701C230.043 51.2866 230.22 50.924 230.573 50.6823C230.945 50.4406 231.438 50.3662 232.052 50.4592C232.461 50.515 233.381 50.5429 234.813 50.5429C236.244 50.5243 236.97 50.4778 236.988 50.4034C237.044 50.329 237.091 49.3715 237.128 47.5307C237.165 45.6713 237.174 43.9699 237.156 42.4267C237.174 41.4226 237.165 40.6602 237.128 40.1396C237.109 39.6004 237.146 39.182 237.239 38.8845C237.351 38.5684 237.453 38.3639 237.546 38.2709C237.658 38.178 237.844 38.0757 238.104 37.9641ZM233 46.8613C233.874 46.7311 234.571 46.7869 235.092 47.0286C235.612 47.2703 235.873 47.6608 235.873 48.2C235.873 48.386 235.854 48.4882 235.817 48.5068C235.78 48.5254 235.752 48.5905 235.733 48.7021C235.64 49.0368 235.417 49.2599 235.064 49.3715C234.729 49.483 233.976 49.5574 232.805 49.5946C230.796 49.6504 229.746 49.7061 229.653 49.7619C229.616 49.7805 229.597 49.9943 229.597 50.4034C229.597 50.7381 229.579 51.2029 229.541 51.798C229.486 52.5789 229.448 53.1274 229.43 53.4435C229.393 53.9455 229.346 54.2988 229.29 54.5034C229.235 54.7079 229.114 54.9031 228.928 55.0891C228.537 55.4795 228.11 55.6004 227.645 55.4516C227.18 55.3029 226.873 54.9496 226.724 54.3918C226.613 54.0013 226.594 53.4528 226.669 52.7462C226.855 51.2215 226.901 50.329 226.808 50.0687C226.771 49.9758 226.706 49.9293 226.613 49.9293C226.538 49.9107 226.167 49.9293 225.497 49.9851C224.865 50.0222 224.409 50.0129 224.131 49.9572C223.87 49.9014 223.629 49.7712 223.405 49.5667C223.127 49.325 222.987 48.9996 222.987 48.5905C222.987 48.1629 223.127 47.8282 223.405 47.5864C223.573 47.4377 223.749 47.3447 223.935 47.3075C224.14 47.2518 224.577 47.2146 225.246 47.196C227.087 47.103 228.277 47.0286 228.816 46.9728C229.132 46.9357 229.867 46.9171 231.02 46.9171C232.172 46.9171 232.833 46.8985 233 46.8613ZM255.81 38.2988C256.163 38.1501 256.517 38.178 256.87 38.3825C257.223 38.5684 257.465 38.8659 257.595 39.275C257.651 39.4981 257.688 40.8276 257.707 43.2634C257.725 45.6806 257.707 47.5864 257.651 48.981C257.632 49.2413 257.604 49.7247 257.567 50.4313C257.549 51.1379 257.539 51.6213 257.539 51.8816C257.502 52.9415 257.465 53.5458 257.428 53.6945C257.391 53.8619 257.372 54.0106 257.372 54.1408C257.372 54.7544 257.093 55.182 256.535 55.4238C255.996 55.6655 255.522 55.5632 255.113 55.117C254.89 54.8752 254.76 54.6521 254.722 54.4476C254.704 54.2244 254.713 53.4807 254.75 52.2163C254.862 48.7765 254.918 45.6062 254.918 42.7056C254.918 40.6974 254.955 39.5074 255.029 39.1355C255.104 38.7637 255.364 38.4848 255.81 38.2988ZM248.447 40.5859C249.637 40.5487 250.371 40.558 250.65 40.6137C250.929 40.6509 251.199 40.7997 251.459 41.06C251.775 41.3761 251.887 41.7387 251.794 42.1477C251.72 42.5568 251.459 42.8822 251.013 43.1239C250.883 43.1983 250.371 43.2448 249.479 43.2634C247.564 43.3377 246.43 43.4214 246.076 43.5144C245.983 43.5516 245.928 43.6167 245.909 43.7096C245.909 43.784 245.9 44.0722 245.881 44.5742C245.844 45.3552 245.807 45.9409 245.769 46.3314C245.695 47.354 245.658 48.0234 245.658 48.3395C245.677 48.637 245.723 48.8043 245.797 48.8415C245.909 48.8787 246.839 48.9066 248.586 48.9252C250.037 48.9252 250.892 48.9438 251.152 48.981C251.431 49.0182 251.682 49.1297 251.905 49.3157C252.222 49.6132 252.324 49.9943 252.212 50.4592C252.101 50.924 251.831 51.2587 251.403 51.4633C250.846 51.7236 248.726 51.7701 245.044 51.6027C244.449 51.5841 244.012 51.5004 243.733 51.3517C243.473 51.2029 243.25 50.9426 243.064 50.5708C242.99 50.4034 242.943 50.0315 242.925 49.4551C242.906 48.8601 242.934 48.3023 243.008 47.7817C243.045 47.5028 243.073 46.5824 243.092 45.0205C243.129 43.6074 243.176 42.7334 243.231 42.3988C243.287 42.0455 243.455 41.7294 243.733 41.4505C244.18 40.9856 244.896 40.7532 245.881 40.7532C246.141 40.7532 246.392 40.7346 246.634 40.6974C246.894 40.6602 247.499 40.623 248.447 40.5859ZM272.897 35.7886C273.065 35.7329 273.297 35.7515 273.595 35.8444C273.892 35.9188 274.115 36.0304 274.264 36.1791C274.45 36.3651 274.552 36.5603 274.571 36.7648C274.608 36.9694 274.627 37.5644 274.627 38.5498C274.627 39.7398 274.655 40.3534 274.71 40.3906C274.766 40.4278 275.259 40.4464 276.188 40.4464C277.025 40.4464 277.546 40.4743 277.75 40.5301C277.974 40.5673 278.187 40.7253 278.392 41.0042C278.634 41.3017 278.745 41.6178 278.727 41.9525C278.727 42.2686 278.606 42.5475 278.364 42.7892C278.215 42.938 278.029 43.031 277.806 43.0681C277.583 43.1053 277.062 43.1425 276.244 43.1797C275.259 43.2169 274.747 43.2634 274.71 43.3192C274.673 43.3749 274.655 43.7375 274.655 44.4069C274.655 45.0577 274.673 45.5597 274.71 45.913C274.803 46.8799 274.617 47.5121 274.152 47.8096C273.725 48.1071 273.279 48.1443 272.814 47.9211C272.367 47.698 272.089 47.3168 271.977 46.7776C271.921 46.4243 271.893 44.6951 271.893 41.5899C271.893 38.4662 271.921 36.8206 271.977 36.6533C272.182 36.2256 272.488 35.9374 272.897 35.7886ZM263.666 36.9043C263.814 36.8671 264.428 36.8485 265.506 36.8485C266.324 36.8485 266.817 36.8578 266.985 36.8764C267.152 36.8764 267.319 36.9229 267.487 37.0158C267.821 37.1646 268.063 37.3784 268.212 37.6573C268.36 37.9362 268.481 38.3732 268.574 38.9682C268.76 40.5115 268.667 41.5806 268.295 42.1756C267.942 42.752 267.17 43.096 265.98 43.2076C265.664 43.2448 265.348 43.282 265.032 43.3192C264.809 43.3563 264.586 43.3749 264.363 43.3749C264.047 43.3749 263.861 43.4028 263.805 43.4586C263.749 43.5144 263.721 43.691 263.721 43.9885C263.721 44.0257 263.712 44.0908 263.693 44.1838C263.693 44.5185 263.749 44.7137 263.861 44.7695C263.991 44.8253 264.428 44.8531 265.172 44.8531C265.339 44.8531 265.469 44.8531 265.562 44.8531C266.715 44.8531 267.421 44.8253 267.682 44.7695C268.165 44.6951 268.565 44.7788 268.881 45.0205C269.216 45.2622 269.383 45.5969 269.383 46.0246C269.383 46.3778 269.281 46.666 269.076 46.8892C268.89 47.0937 268.584 47.2611 268.156 47.3912C267.84 47.4842 266.817 47.5214 265.088 47.5028C263.377 47.4842 262.429 47.4284 262.243 47.3354C261.76 47.0937 261.425 46.6753 261.239 46.0803C261.053 45.4853 260.96 44.5928 260.96 43.4028C260.96 42.6591 261.035 42.1199 261.183 41.7852C261.351 41.4319 261.639 41.1902 262.048 41.06C262.234 41.0042 262.699 40.9205 263.442 40.809C263.814 40.7718 264.084 40.7346 264.251 40.6974C264.493 40.6602 264.79 40.623 265.144 40.5859C265.497 40.5487 265.711 40.5022 265.785 40.4464C265.86 40.3906 265.888 40.2512 265.869 40.028C265.85 39.7677 265.776 39.619 265.646 39.5818C265.534 39.5446 265.079 39.5446 264.279 39.5818C263.368 39.6376 262.754 39.6748 262.438 39.6934C261.732 39.7491 261.22 39.5167 260.904 38.9961C260.607 38.4755 260.7 37.9641 261.183 37.4621C261.444 37.1832 261.946 37.0251 262.689 36.9879C263.154 36.9508 263.48 36.9229 263.666 36.9043ZM269.411 49.0925C269.802 48.981 270.341 48.9624 271.029 49.0368C271.717 49.1111 272.274 49.2506 272.702 49.4551C273 49.6039 273.316 49.8363 273.65 50.1524C274.004 50.4499 274.18 50.6544 274.18 50.766C274.18 50.8032 274.19 50.8311 274.208 50.8497C274.264 50.8683 274.348 51.017 274.459 51.2959C274.571 51.5748 274.655 51.8165 274.71 52.0211C274.803 52.3186 274.85 52.709 274.85 53.1925C274.85 53.6573 274.813 54.0013 274.738 54.2244C274.608 54.6521 274.496 54.9496 274.403 55.117C274.348 55.2099 274.32 55.275 274.32 55.3122C274.32 55.3866 274.227 55.5632 274.041 55.8421C273.855 56.121 273.688 56.3348 273.539 56.4836C273.26 56.7997 272.842 57.0879 272.284 57.3482C272.116 57.4226 271.996 57.4784 271.921 57.5156C271.828 57.5713 271.735 57.5992 271.642 57.5992C271.549 57.5992 271.438 57.6271 271.308 57.6829C271.084 57.7759 270.638 57.7945 269.969 57.7387C269.299 57.7015 268.751 57.6085 268.323 57.4598C267.524 57.1995 266.882 56.7532 266.399 56.121C265.934 55.5074 265.674 54.8473 265.618 54.1408C265.562 53.4156 265.711 52.6719 266.064 51.9095C266.417 51.1286 266.957 50.4685 267.682 49.9293C268.147 49.576 268.723 49.2971 269.411 49.0925ZM271.252 51.9932C270.992 51.9188 270.648 51.9095 270.22 51.9653C269.811 52.0211 269.513 52.1047 269.327 52.2163C269.086 52.3651 268.853 52.6254 268.63 52.9973C268.426 53.3505 268.333 53.6666 268.351 53.9455C268.351 54.3546 268.574 54.6707 269.021 54.8938C269.467 55.117 269.96 55.182 270.499 55.0891C271.057 54.9961 271.456 54.7544 271.698 54.3639C271.996 53.8805 272.098 53.3877 272.005 52.8857C271.912 52.3837 271.661 52.0862 271.252 51.9932ZM114.876 73.2709C115.155 73.178 115.443 73.2058 115.74 73.3546C116.057 73.4848 116.289 73.6986 116.438 73.9961C116.531 74.1448 116.596 75.4092 116.633 77.7892C116.689 80.1692 116.689 81.7683 116.633 82.5864C116.596 83.0141 116.577 84.2041 116.577 86.1565C116.577 88.0716 116.54 89.1222 116.466 89.3081C116.261 89.9403 115.88 90.2657 115.322 90.2843C114.764 90.3215 114.327 90.0333 114.011 89.4197C113.881 89.1408 113.816 86.5934 113.816 81.7776C113.835 76.9432 113.918 74.3773 114.067 74.0798C114.253 73.6707 114.523 73.4011 114.876 73.2709ZM102.883 74.6934C103.496 74.6004 103.961 74.7398 104.277 75.1117C104.445 75.3348 104.538 75.5394 104.556 75.7253C104.593 75.9113 104.621 76.4412 104.64 77.3151C104.64 77.4081 104.64 77.5382 104.64 77.7056C104.64 78.3563 104.658 78.7375 104.696 78.8491C104.733 78.9606 104.863 79.0257 105.086 79.0443C105.142 79.0443 105.188 79.0443 105.226 79.0443C105.467 79.0629 105.681 79.0908 105.867 79.128C106.09 79.1838 106.388 79.2117 106.76 79.2117C107.131 79.1931 107.336 79.1652 107.373 79.128C107.429 79.0722 107.466 78.7654 107.485 78.2076C107.522 77.6312 107.531 77.1663 107.513 76.8131C107.457 76.0879 107.615 75.5115 107.987 75.0838C108.359 74.6562 108.777 74.5632 109.242 74.8049C109.335 74.8607 109.409 74.8886 109.465 74.8886C109.502 74.8886 109.577 74.9537 109.688 75.0838C109.818 75.214 109.911 75.3255 109.967 75.4185C110.134 75.716 110.209 76.2273 110.19 76.9525C110.19 77.1199 110.19 77.4267 110.19 77.8729C110.19 78.3192 110.181 78.6353 110.162 78.8212C110.162 79.4906 110.134 80.3273 110.079 81.3314C110.041 82.3168 110.014 82.8282 109.995 82.8654C109.976 82.9025 109.939 83.3674 109.883 84.2599C109.828 85.4127 109.725 86.1937 109.577 86.6027C109.446 86.9932 109.167 87.2814 108.74 87.4673C108.498 87.5975 107.624 87.644 106.118 87.6068C104.631 87.5696 103.682 87.4859 103.273 87.3558C102.604 87.1326 102.176 86.7887 101.99 86.3238C101.823 85.8404 101.776 84.8735 101.851 83.4232C101.888 82.7724 101.916 81.2942 101.934 78.9885C101.953 76.7387 102 75.5487 102.074 75.4185C102.13 75.307 102.213 75.1954 102.325 75.0838C102.437 74.9537 102.511 74.8886 102.548 74.8886C102.585 74.8886 102.632 74.8607 102.688 74.8049C102.725 74.7677 102.79 74.7305 102.883 74.6934ZM107.234 82.2239C107.178 82.1495 106.741 82.1123 105.923 82.1123C105.123 82.1123 104.696 82.1495 104.64 82.2239C104.603 82.2796 104.575 82.5586 104.556 83.0606C104.538 83.5626 104.538 83.9159 104.556 84.1204C104.575 84.4179 104.621 84.5853 104.696 84.6225C104.77 84.6597 105.04 84.7061 105.504 84.7619C106.174 84.8177 106.602 84.827 106.787 84.7898C106.992 84.734 107.131 84.6039 107.206 84.3993C107.243 84.2506 107.271 83.8694 107.29 83.2558C107.308 82.6236 107.29 82.2796 107.234 82.2239ZM127.248 70.6213C127.75 70.3796 128.234 70.4818 128.699 70.9281C129.033 71.2442 129.182 71.5789 129.145 71.9322C129.126 72.2855 128.931 72.7038 128.559 73.1873C128.373 73.429 128.289 73.6056 128.308 73.7172C128.345 73.8101 128.513 73.9775 128.81 74.2192C129.089 74.4237 129.312 74.6097 129.479 74.777C129.554 74.8514 129.796 75.0652 130.205 75.4185C130.948 76.0507 131.385 76.5899 131.515 77.0362C131.664 77.4638 131.543 77.8543 131.153 78.2076C130.781 78.5423 130.381 78.6631 129.954 78.5702C129.526 78.4586 129.005 78.1239 128.392 77.5661C127.629 76.8595 127.146 76.4319 126.941 76.2831C126.755 76.1158 126.635 76.0414 126.579 76.06C126.467 76.0972 126.049 76.6643 125.324 77.7613C124.506 78.9513 123.808 79.4162 123.232 79.1559C122.823 78.9513 122.563 78.784 122.451 78.6538C122.302 78.4493 122.219 78.2076 122.2 77.9287C122.181 77.6312 122.246 77.3709 122.395 77.1477C122.748 76.5527 123.371 75.5952 124.264 74.275C125.082 73.0664 125.603 72.3505 125.826 72.1274C125.919 72.0158 126.058 71.8206 126.244 71.5417C126.542 71.0954 126.876 70.7886 127.248 70.6213ZM130.567 80.7178C131.683 80.6806 132.399 80.6713 132.715 80.6899C133.031 80.7085 133.254 80.7549 133.384 80.8293C133.923 81.1454 134.184 81.5545 134.165 82.0565C134.147 82.5586 133.858 82.9583 133.3 83.2558C133.189 83.3116 132.743 83.3581 131.962 83.3953C130.511 83.4325 128.829 83.4975 126.913 83.5905C125.872 83.6463 124.924 83.6928 124.069 83.73C123.715 83.73 123.251 83.7486 122.674 83.7857C122.116 83.8043 121.8 83.8136 121.726 83.8136C120.759 83.8508 120.145 83.5905 119.885 83.0327C119.625 82.4935 119.699 81.9914 120.108 81.5266C120.313 81.3221 120.527 81.2012 120.75 81.164C120.991 81.1082 121.651 81.071 122.73 81.0525C123.994 81.0153 124.868 80.9781 125.352 80.9409C125.854 80.9037 126.402 80.8851 126.997 80.8851C127.592 80.8851 128.066 80.8665 128.42 80.8293C128.717 80.7921 129.433 80.7549 130.567 80.7178ZM127.081 84.6504C127.527 84.4086 127.918 84.3808 128.252 84.5667C128.364 84.6225 128.485 84.7154 128.615 84.8456C128.764 84.9758 128.838 85.0594 128.838 85.0966C128.838 85.1338 128.866 85.1803 128.922 85.2361C129.07 85.3662 129.08 85.6451 128.95 86.0728C128.819 86.4819 128.596 86.8723 128.28 87.2442C128.057 87.5231 127.945 87.709 127.945 87.802C127.945 87.8764 128.057 87.9973 128.28 88.1646C128.299 88.2018 128.494 88.3226 128.866 88.5272C128.94 88.583 129.024 88.648 129.117 88.7224C129.228 88.7782 129.312 88.8247 129.368 88.8619C129.442 88.8991 129.498 88.9269 129.535 88.9455C129.591 88.9827 130.009 89.2337 130.79 89.6986C131.515 90.1448 131.999 90.4888 132.241 90.7305C132.482 90.9909 132.603 91.2884 132.603 91.6231C132.603 91.8648 132.52 92.1158 132.352 92.3761C132.185 92.6364 132.018 92.7666 131.85 92.7666C131.794 92.7666 131.729 92.7945 131.655 92.8502C131.432 93.0176 131.088 92.9897 130.623 92.7666C130.028 92.4691 129.693 92.2645 129.619 92.153C129.582 92.1344 129.526 92.1065 129.452 92.0693C129.433 92.0507 129.349 92.0042 129.201 91.9299C129.145 91.8927 129.033 91.8276 128.866 91.7346C128.773 91.6788 128.661 91.6045 128.531 91.5115C128.494 91.4929 128.438 91.465 128.364 91.4278C127.992 91.2419 127.536 90.963 126.997 90.5911C126.57 90.2936 126.291 90.117 126.16 90.0612C126.049 89.9868 125.956 89.9775 125.882 90.0333C125.807 90.0705 125.547 90.3308 125.101 90.8142C124.654 91.3163 124.273 91.7532 123.957 92.1251C123.511 92.6829 123.111 93.0176 122.758 93.1292C122.349 93.2593 122.116 93.2779 122.061 93.1849C122.042 93.1477 121.977 93.1199 121.865 93.1013C121.586 93.0455 121.363 92.8317 121.196 92.4598C121.029 92.0879 121.01 91.7811 121.14 91.5394C121.196 91.4278 121.224 91.3627 121.224 91.3441C121.224 91.307 121.28 91.1954 121.391 91.0095C121.521 90.8235 121.605 90.712 121.642 90.6748C121.679 90.6562 121.8 90.5167 122.005 90.2564C122.284 89.9031 122.711 89.4011 123.288 88.7503C123.474 88.5644 123.576 88.4528 123.594 88.4156C123.594 88.4156 123.604 88.397 123.622 88.3598C123.66 88.3226 123.706 88.2762 123.762 88.2204C123.818 88.1646 123.855 88.1181 123.873 88.0809C124.357 87.5045 124.729 87.0862 124.989 86.8258C125.008 86.8072 125.045 86.7608 125.101 86.6864C125.175 86.5934 125.268 86.4819 125.38 86.3517C125.491 86.2215 125.593 86.11 125.686 86.017C126.133 85.4964 126.43 85.1617 126.579 85.0129C126.746 84.8642 126.913 84.7433 127.081 84.6504ZM139.718 70.9002C139.959 70.8258 140.201 70.8258 140.443 70.9002C140.833 71.0118 141.094 71.2163 141.224 71.5138C141.354 71.8113 141.438 72.3877 141.475 73.243C141.475 73.336 141.475 73.4662 141.475 73.6335C141.493 74.0984 141.54 74.368 141.614 74.4423C141.707 74.4981 142.014 74.4981 142.535 74.4423C142.702 74.4423 142.842 74.433 142.953 74.4144C143.734 74.3587 144.292 74.619 144.627 75.1954C144.775 75.4185 144.812 75.6974 144.738 76.0321C144.664 76.3668 144.515 76.6271 144.292 76.8131C144.069 76.9804 143.892 77.092 143.762 77.1477C143.632 77.1849 143.362 77.2128 142.953 77.2314C142.209 77.2872 141.8 77.3151 141.726 77.3151C141.001 77.3709 139.337 77.4267 136.733 77.4824C136.027 77.501 135.516 77.4174 135.199 77.2314C134.883 77.0269 134.725 76.6922 134.725 76.2273C134.725 75.7067 134.911 75.3348 135.283 75.1117C135.674 74.8886 136.343 74.7584 137.291 74.7212C138.295 74.6841 138.797 74.5818 138.797 74.4144C138.797 74.3587 138.779 73.9775 138.742 73.2709C138.704 72.5644 138.723 72.0995 138.797 71.8764C138.853 71.6719 138.965 71.4766 139.132 71.2907C139.318 71.1047 139.513 70.9746 139.718 70.9002ZM139.244 77.5382C139.244 77.4824 139.327 77.4545 139.495 77.4545C139.662 77.4359 139.82 77.4545 139.969 77.5103C140.062 77.5475 140.257 77.5847 140.554 77.6219C141.242 77.6963 141.856 77.9566 142.395 78.4028C142.934 78.8491 143.269 79.3697 143.399 79.9647C143.399 79.9833 143.427 80.1228 143.483 80.3831C143.65 80.9781 143.585 81.6475 143.288 82.3912C142.99 83.135 142.581 83.6835 142.061 84.0368C141.038 84.7433 139.941 84.9014 138.769 84.5109C137.598 84.1204 136.799 83.3395 136.371 82.1681C136.315 81.9635 136.287 81.6382 136.287 81.1919C136.287 80.7271 136.315 80.3924 136.371 80.1878C136.613 79.5556 136.882 79.035 137.18 78.626C137.477 78.1983 137.738 77.9845 137.961 77.9845C138.016 77.9845 138.295 77.8822 138.797 77.6777C138.909 77.6405 139.011 77.6219 139.104 77.6219C139.197 77.6219 139.244 77.594 139.244 77.5382ZM140.554 80.4946C140.406 80.3831 140.173 80.3366 139.857 80.3552C139.541 80.3738 139.327 80.4482 139.216 80.5783C139.123 80.6713 139.067 80.8479 139.048 81.1082C139.048 81.35 139.086 81.5266 139.16 81.6382C139.272 81.7683 139.457 81.8613 139.718 81.9171C139.978 81.9543 140.192 81.9171 140.359 81.8055C140.582 81.6568 140.713 81.4336 140.75 81.1361C140.805 80.8386 140.74 80.6248 140.554 80.4946ZM141.28 85.4313C141.428 85.3755 141.521 85.3569 141.559 85.3755C141.596 85.3755 141.717 85.4034 141.921 85.4592C142.349 85.5894 142.609 85.8032 142.702 86.1007C142.795 86.3796 142.832 87.049 142.814 88.1088C142.814 88.9269 142.814 89.4104 142.814 89.5591C142.814 89.7079 142.851 89.8009 142.925 89.838C143 89.8938 143.836 89.931 145.435 89.9496C146.663 89.9682 147.443 89.9961 147.778 90.0333C148.113 90.0519 148.336 90.117 148.448 90.2285C148.503 90.2843 148.55 90.3122 148.587 90.3122C148.661 90.3122 148.773 90.4423 148.922 90.7027C149.089 90.9816 149.173 91.1861 149.173 91.3163C149.173 91.5394 149.089 91.7718 148.922 92.0135C148.754 92.2738 148.541 92.4691 148.28 92.5992L147.946 92.7666H145.184C143.362 92.7666 142.312 92.748 142.033 92.7108C140.675 92.5249 139.987 91.8369 139.969 90.6469C139.969 88.1181 140.052 86.6678 140.22 86.2959C140.313 86.1286 140.443 85.9612 140.61 85.7939C140.778 85.6079 140.908 85.515 141.001 85.515C141.038 85.515 141.131 85.4871 141.28 85.4313ZM147.443 71.7927C148.02 71.7369 148.448 71.8578 148.726 72.1553C149.005 72.4528 149.145 72.8712 149.145 73.4104V74.9165C149.145 76.0879 149.163 76.7666 149.201 76.9525C149.219 77.0083 149.284 77.0455 149.396 77.0641C149.452 77.0827 149.768 77.092 150.344 77.092C150.716 77.1106 151.004 77.1291 151.209 77.1477C151.413 77.1663 151.525 77.1756 151.543 77.1756C151.86 77.1756 152.129 77.2965 152.352 77.5382C152.575 77.7799 152.687 78.0774 152.687 78.4307C152.687 78.8584 152.52 79.2488 152.185 79.6021C151.98 79.7881 151.794 79.8903 151.627 79.9089C151.497 79.9275 151.051 79.9368 150.288 79.9368C149.842 79.9368 149.554 80.0391 149.424 80.2436C149.294 80.4482 149.229 80.8386 149.229 81.415L149.256 82.7817C149.256 83.5998 149.238 84.139 149.201 84.3993C149.182 84.5853 149.08 84.7805 148.894 84.9851C148.671 85.1896 148.373 85.2918 148.001 85.2918C147.704 85.2918 147.434 85.2268 147.192 85.0966C146.969 84.9479 146.821 84.7526 146.746 84.5109C146.709 84.3993 146.681 84.3343 146.663 84.3157C146.607 84.2227 146.57 83.7765 146.551 82.9769L146.467 79.5463C146.412 78.877 146.384 77.6219 146.384 75.7811V73.0757C146.384 72.7038 146.486 72.4063 146.69 72.1832C146.895 71.9601 147.146 71.8299 147.443 71.7927ZM168.654 70.175C168.84 70.0821 169.1 70.0914 169.435 70.2029C169.863 70.3517 170.142 70.5841 170.272 70.9002C170.402 71.1977 170.486 71.7927 170.523 72.6852C170.541 73.2616 170.569 73.5963 170.607 73.6893C170.662 73.7637 170.811 73.7823 171.053 73.7451C171.983 73.6335 172.633 73.7823 173.005 74.1913C173.358 74.5818 173.489 74.9723 173.396 75.3627C173.303 75.7346 172.949 76.2366 172.336 76.8688C171.964 77.2593 171.778 77.4917 171.778 77.5661C171.778 77.6219 171.936 77.752 172.252 77.9566C172.959 78.4214 173.6 78.8956 174.177 79.379C174.455 79.6207 174.623 79.9182 174.679 80.2715C174.734 80.6248 174.669 80.9502 174.483 81.2477C174.316 81.4708 174.065 81.6382 173.73 81.7497C173.396 81.8427 173.126 81.8334 172.922 81.7218C172.81 81.666 172.736 81.6382 172.698 81.6382C172.661 81.6382 172.401 81.4801 171.917 81.164C171.434 80.8479 171.071 80.5969 170.83 80.411C170.662 80.2994 170.551 80.2157 170.495 80.1599C170.421 80.1228 170.356 80.0856 170.3 80.0484C170.002 79.7695 169.77 79.6393 169.603 79.6579C169.435 79.6765 169.175 79.8624 168.822 80.2157C167.91 81.0896 167.288 81.666 166.953 81.945C166.618 82.2239 166.349 82.3912 166.144 82.447C165.605 82.6143 165.159 82.4935 164.805 82.0844C164.452 81.6753 164.387 81.2105 164.61 80.6899C164.703 80.4667 165.131 79.974 165.893 79.2117C166.655 78.4307 167.315 77.8171 167.873 77.3709C168.227 77.092 168.385 76.8967 168.347 76.7852C168.329 76.6736 168.124 76.655 167.734 76.7294C167.511 76.7852 166.618 76.8595 165.056 76.9525C164.35 76.9897 163.857 76.7573 163.578 76.2552C163.318 75.7532 163.392 75.2419 163.801 74.7212C164.062 74.4052 165.084 74.1913 166.869 74.0798C167.39 74.024 167.659 73.9868 167.678 73.9682C167.715 73.931 167.734 73.4383 167.734 72.49C167.734 71.6533 167.78 71.114 167.873 70.8723C167.985 70.6306 168.245 70.3982 168.654 70.175ZM173.786 83.6463C174.92 83.6091 175.673 83.637 176.045 83.73C176.436 83.8229 176.724 84.0554 176.91 84.4272C177.04 84.6875 177.04 85.0315 176.91 85.4592C176.798 85.8869 176.64 86.1007 176.436 86.1007C176.399 86.1007 176.38 86.1193 176.38 86.1565C176.38 86.3052 175.72 86.3982 174.4 86.4354C173.582 86.454 172.977 86.4726 172.587 86.4912C172.196 86.5097 171.871 86.5469 171.611 86.6027C171.35 86.6585 171.192 86.7236 171.136 86.798C171.099 86.8537 171.09 86.9467 171.109 87.0769C171.202 87.7276 171.248 88.8061 171.248 90.3122C171.248 91.8183 171.202 92.655 171.109 92.8224C170.941 93.1199 170.69 93.3151 170.356 93.4081C170.039 93.501 169.714 93.4731 169.379 93.3244C168.989 93.157 168.738 92.8224 168.626 92.3203C168.533 91.8369 168.468 90.7027 168.431 88.9176C168.412 87.4859 168.375 86.7422 168.32 86.6864C168.264 86.6306 167.65 86.6027 166.479 86.6027C165.326 86.5841 164.489 86.6027 163.969 86.6585C163.522 86.6957 163.206 86.6957 163.02 86.6585C162.834 86.6213 162.648 86.5004 162.462 86.2959C162.109 85.9612 161.97 85.5615 162.044 85.0966C162.137 84.6318 162.407 84.2971 162.853 84.0925C163.095 83.981 165.252 83.8973 169.324 83.8415C171.425 83.8043 172.522 83.7672 172.615 83.73C172.689 83.7114 173.08 83.6835 173.786 83.6463ZM191.291 70.7608C191.57 70.6306 191.868 70.6213 192.184 70.7329C192.5 70.8258 192.751 71.0118 192.937 71.2907C193.067 71.4952 193.142 71.8299 193.16 72.2947C193.197 72.7596 193.207 73.9124 193.188 75.7532C193.169 78.7654 193.123 80.5504 193.049 81.1082C192.993 81.666 192.779 82.0937 192.407 82.3912C192.203 82.54 191.933 82.5957 191.598 82.5586C191.264 82.5214 190.985 82.4005 190.762 82.196C190.557 81.9914 190.436 81.7776 190.399 81.5545C190.362 81.3314 190.362 80.8944 190.399 80.2436C190.473 78.9978 190.464 78.3285 190.371 78.2355C190.26 78.1239 189.702 78.096 188.698 78.1518C187.749 78.189 187.061 77.9659 186.634 77.4824C186.225 76.999 186.253 76.4598 186.717 75.8648C186.866 75.6416 187.043 75.5115 187.247 75.4743C187.452 75.4185 187.982 75.3906 188.837 75.3906C189.841 75.372 190.362 75.3441 190.399 75.307C190.436 75.2512 190.455 74.6283 190.455 73.4383C190.436 72.3784 190.473 71.709 190.566 71.4301C190.659 71.1512 190.901 70.9281 191.291 70.7608ZM181.167 72.741C181.26 72.6852 181.53 72.6573 181.976 72.6573C182.441 72.6573 182.71 72.6852 182.785 72.741C182.822 72.7782 182.906 72.8154 183.036 72.8526C183.501 72.9455 184.058 73.2988 184.709 73.9124C185.379 74.526 185.713 75.0002 185.713 75.3348C185.713 75.3906 185.741 75.465 185.797 75.558C185.964 75.9113 186.048 76.4598 186.048 77.2035C186.048 77.9287 185.964 78.4958 185.797 78.9049C185.741 79.0164 185.713 79.0908 185.713 79.128C185.713 79.1652 185.648 79.2953 185.518 79.5185C185.407 79.723 185.332 79.8531 185.295 79.9089C185.239 79.9647 185.211 80.0112 185.211 80.0484C185.211 80.1414 185.016 80.3738 184.626 80.7457C184.235 81.1175 183.984 81.3035 183.873 81.3035C183.817 81.3035 183.789 81.3221 183.789 81.3592C183.789 81.3964 183.77 81.415 183.733 81.415C183.696 81.415 183.603 81.4522 183.454 81.5266C182.394 82.01 181.269 81.9821 180.079 81.4429C178.908 80.8851 178.127 80.0484 177.737 78.9328C177.644 78.5981 177.588 78.1146 177.569 77.4824C177.551 76.8316 177.597 76.4505 177.709 76.3389C177.727 76.3017 177.755 76.2181 177.792 76.0879C177.811 75.9577 177.848 75.8462 177.904 75.7532C177.923 75.6974 177.978 75.5766 178.071 75.3906C178.257 75.0002 178.518 74.619 178.852 74.2471C179.187 73.8752 179.54 73.5684 179.912 73.3267C180.042 73.2523 180.237 73.1501 180.498 73.0199C180.758 72.8898 180.907 72.8247 180.944 72.8247C180.981 72.8247 181.056 72.7968 181.167 72.741ZM182.701 75.7811C182.218 75.5394 181.762 75.5394 181.334 75.7811C180.907 76.0228 180.581 76.4412 180.358 77.0362C180.247 77.3709 180.256 77.7242 180.386 78.096C180.516 78.4679 180.73 78.7282 181.028 78.877C181.307 79.0071 181.641 79.0536 182.032 79.0164C182.422 78.9792 182.683 78.877 182.813 78.7096C183.222 78.2076 183.408 77.6498 183.371 77.0362C183.352 76.404 183.129 75.9856 182.701 75.7811ZM182.757 84.2599C183.203 84.1483 184.923 84.1483 187.917 84.2599C188.791 84.2971 189.544 84.3157 190.176 84.3157C190.752 84.3157 191.152 84.3622 191.375 84.4551C191.598 84.5295 191.803 84.7061 191.989 84.9851C192.156 85.2454 192.258 85.4964 192.296 85.7381C192.351 85.9798 192.389 86.5469 192.407 87.4394C192.519 90.0612 192.416 91.7067 192.1 92.3761C191.877 92.841 191.505 93.092 190.985 93.1292C190.464 93.1663 190.055 92.9711 189.758 92.5434C189.683 92.4133 189.637 92.2274 189.618 91.9856C189.618 91.7625 189.618 91.0188 189.618 89.7544C189.637 88.4714 189.637 87.7276 189.618 87.5231C189.618 87.3 189.581 87.1791 189.506 87.1605C189.414 87.1233 188.93 87.0955 188.056 87.0769C187.182 87.0397 186.466 87.0304 185.909 87.049C184.57 87.0676 183.659 87.049 183.175 86.9932C182.692 86.9188 182.311 86.7422 182.032 86.4633C181.827 86.2587 181.697 85.9891 181.641 85.6544C181.604 85.3197 181.669 85.0873 181.837 84.9572C181.874 84.92 181.892 84.8735 181.892 84.8177C181.892 84.7433 181.985 84.6411 182.171 84.5109C182.376 84.3808 182.571 84.2971 182.757 84.2599ZM214.962 72.6573C215.148 72.6201 215.381 72.6294 215.66 72.6852C216.106 72.7596 216.431 73.0571 216.636 73.5777C216.71 73.7451 216.747 75.0002 216.747 77.343C216.747 79.6672 216.72 81.0896 216.664 81.6103C216.589 82.3354 216.385 82.8468 216.05 83.1443C215.716 83.4418 215.148 83.6184 214.349 83.6742C214.312 83.6928 214.265 83.7021 214.209 83.7021C213.931 83.7207 213.763 83.8043 213.707 83.9531C213.67 84.1018 213.652 84.6132 213.652 85.4871C213.652 85.6544 213.652 85.7939 213.652 85.9054C213.652 87.1884 213.68 87.8578 213.735 87.9136C213.791 87.9508 214.479 87.9601 215.799 87.9415C215.911 87.9229 216.06 87.9136 216.245 87.9136C217.733 87.8764 218.616 87.8764 218.895 87.9136C219.193 87.9508 219.453 88.0902 219.676 88.3319C219.695 88.3691 219.713 88.397 219.732 88.4156C220.085 88.7875 220.141 89.2152 219.899 89.6986C219.676 90.182 219.276 90.4702 218.7 90.5632C218.44 90.619 217.454 90.6562 215.743 90.6748C214.219 90.712 212.861 90.7491 211.671 90.7863C209.143 90.8793 207.534 90.9258 206.846 90.9258C206.177 90.9258 205.731 90.8793 205.508 90.7863C204.987 90.5632 204.699 90.182 204.643 89.6428C204.606 89.085 204.82 88.6666 205.284 88.3877C205.693 88.146 206.419 88.0716 207.46 88.1646C207.943 88.2204 208.343 88.2297 208.659 88.1925C208.957 88.1553 209.384 88.1181 209.942 88.0809C210.017 88.0809 210.109 88.0809 210.221 88.0809C210.574 88.0809 210.779 88.0158 210.835 87.8857C210.89 87.7369 210.9 87.2628 210.863 86.4633C210.863 86.2401 210.853 86.0542 210.835 85.9054C210.835 85.8869 210.835 85.8404 210.835 85.766C210.797 84.7991 210.76 84.232 210.723 84.0647C210.704 83.8973 210.602 83.8136 210.416 83.8136C210.398 83.8136 210.388 83.8136 210.388 83.8136C209.756 83.8136 209.217 83.6742 208.771 83.3953C208.343 83.1164 208.055 82.7166 207.906 82.196C207.795 81.7683 207.711 80.318 207.655 77.845C207.599 75.372 207.627 74.0147 207.739 73.773C207.943 73.3081 208.278 73.0292 208.743 72.9362C209.226 72.8247 209.635 72.9362 209.97 73.2709C210.175 73.4569 210.295 73.6521 210.333 73.8566C210.388 74.0612 210.426 74.5074 210.444 75.1954C210.463 75.9577 210.509 76.3854 210.584 76.4784C210.677 76.5713 211.03 76.5899 211.643 76.5341C211.978 76.497 212.406 76.4598 212.926 76.4226C213.466 76.404 213.763 76.3482 213.819 76.2552C213.893 76.1437 213.931 75.6974 213.931 74.9165C213.931 74.0798 213.94 73.6149 213.958 73.5219C214.033 73.2988 214.163 73.1129 214.349 72.9641C214.535 72.7968 214.739 72.6945 214.962 72.6573ZM213.819 79.4069C213.763 79.3511 213.642 79.3139 213.456 79.2953C213.27 79.2767 213.159 79.286 213.122 79.3232C213.103 79.3418 212.722 79.379 211.978 79.4348C211.197 79.5092 210.751 79.6021 210.639 79.7137C210.528 79.8067 210.509 80.1414 210.584 80.7178L210.612 80.8851L212.201 80.8572C212.276 80.8572 212.378 80.8572 212.508 80.8572C213.27 80.8572 213.707 80.8293 213.819 80.7735C213.949 80.7178 214.005 80.5132 213.986 80.1599C213.986 80.1042 213.977 80.067 213.958 80.0484C213.94 79.6765 213.893 79.4627 213.819 79.4069ZM235.246 73.2988C235.358 73.243 235.507 73.2151 235.693 73.2151C235.879 73.1966 235.99 73.2058 236.027 73.243C236.065 73.2802 236.148 73.3174 236.278 73.3546C236.39 73.3918 236.511 73.4755 236.641 73.6056C236.79 73.7358 236.883 73.8566 236.92 73.9682C236.939 74.0612 236.966 74.1262 237.004 74.1634C237.115 74.3122 237.124 74.7863 237.031 75.5859C236.976 76.0507 236.92 79.9833 236.864 87.3837C236.846 88.3133 236.808 88.9548 236.753 89.3081C236.697 89.6428 236.585 89.8938 236.418 90.0612C236.065 90.4145 235.656 90.526 235.191 90.3959C234.726 90.2843 234.4 89.9868 234.215 89.5034C234.159 89.3918 234.131 88.7131 234.131 87.4673C234.149 86.2215 234.187 84.9479 234.242 83.6463C234.242 83.5905 234.242 83.5068 234.242 83.3953C234.28 83.042 234.224 82.8375 234.075 82.7817C233.926 82.7073 233.406 82.6329 232.513 82.5586C232.234 82.54 232.011 82.5214 231.844 82.5028C230.747 82.4284 230.096 82.3354 229.891 82.2239C229.352 81.9078 229.092 81.4615 229.111 80.8851C229.148 80.3087 229.455 79.9368 230.031 79.7695C230.235 79.6951 230.747 79.6858 231.565 79.7416C232.848 79.7974 233.592 79.8253 233.796 79.8253C234.001 79.8253 234.122 79.7974 234.159 79.7416C234.215 79.6486 234.252 78.7654 234.27 77.092C234.289 76.1995 234.307 75.5673 234.326 75.1954C234.345 74.8049 234.391 74.4609 234.466 74.1634C234.54 73.8473 234.624 73.6521 234.717 73.5777C234.828 73.4848 235.005 73.3918 235.246 73.2988ZM225.457 74.777C225.866 74.7027 226.219 74.6841 226.517 74.7212C226.833 74.7584 227.102 74.7863 227.326 74.8049C227.549 74.8235 227.735 74.9165 227.883 75.0838C228.051 75.2326 228.181 75.3906 228.274 75.558C228.385 75.7253 228.469 75.9763 228.525 76.311C228.581 76.6457 228.618 76.999 228.636 77.3709C228.655 77.7427 228.664 78.2169 228.664 78.7933C228.664 79.9461 228.571 80.7642 228.385 81.2477C228.218 81.7125 227.883 82.0193 227.381 82.1681C227.307 82.1867 227.242 82.2146 227.186 82.2518C227.149 82.2889 226.898 82.3261 226.433 82.3633C225.968 82.3819 225.708 82.4098 225.652 82.447C225.596 82.4656 225.215 82.4935 224.509 82.5307C223.821 82.5493 223.449 82.5864 223.393 82.6422C223.356 82.6794 223.337 83.1629 223.337 84.0925C223.356 85.0036 223.384 85.4964 223.421 85.5708C223.458 85.6265 224.211 85.6544 225.68 85.6544C227.149 85.6544 227.911 85.6916 227.967 85.766C228.041 85.8218 228.097 85.8497 228.134 85.8497C228.172 85.8497 228.274 85.9147 228.441 86.0449C228.832 86.3982 228.952 86.8258 228.804 87.3279C228.674 87.8299 228.348 88.1646 227.828 88.3319C227.381 88.4807 226.452 88.5179 225.038 88.4435C224.165 88.4063 223.393 88.3691 222.724 88.3319C222.129 88.3133 221.701 88.2483 221.441 88.1367C221.199 88.0251 220.985 87.802 220.799 87.4673C220.725 87.3186 220.66 86.2494 220.604 84.2599C220.567 82.2703 220.595 81.2291 220.688 81.1361C220.725 81.0989 220.743 81.0525 220.743 80.9967C220.743 80.9223 220.808 80.8014 220.939 80.6341C221.087 80.4482 221.217 80.318 221.329 80.2436C221.534 80.0949 221.766 79.9926 222.026 79.9368C222.305 79.8624 222.779 79.7974 223.449 79.7416C223.932 79.7044 224.248 79.6672 224.397 79.63C224.583 79.5928 224.834 79.5556 225.15 79.5185C225.596 79.4813 225.857 79.4069 225.931 79.2953C226.005 79.1838 226.024 78.8863 225.987 78.4028C225.931 77.9752 225.875 77.7242 225.819 77.6498C225.782 77.5754 225.652 77.5475 225.429 77.5661C225.15 77.6033 224.732 77.6405 224.174 77.6777C223.616 77.7334 223.123 77.7892 222.696 77.845C222.268 77.9194 221.952 77.938 221.747 77.9008C221.561 77.8636 221.375 77.752 221.19 77.5661C220.818 77.1756 220.688 76.7201 220.799 76.1995C220.911 75.6788 221.217 75.3534 221.719 75.2233C221.812 75.2047 221.878 75.1768 221.915 75.1396C221.97 75.121 222.138 75.0931 222.417 75.0559C222.733 75.0187 222.928 74.9909 223.002 74.9723C223.151 74.9537 223.504 74.9258 224.062 74.8886C224.49 74.8514 224.955 74.8142 225.457 74.777ZM251.986 70.454C252.209 70.4168 252.441 70.4447 252.683 70.5376C252.943 70.612 253.148 70.7236 253.297 70.8723C253.464 71.0954 253.566 71.3465 253.603 71.6254C253.659 71.9043 253.687 72.4249 253.687 73.1873C253.687 73.9868 253.706 74.4423 253.743 74.5539C253.799 74.6469 254.012 74.6748 254.384 74.6376C255.909 74.5632 256.764 74.5632 256.95 74.6376C257.062 74.6934 257.183 74.777 257.313 74.8886C257.443 75.0002 257.508 75.0838 257.508 75.1396C257.508 75.1768 257.536 75.2047 257.592 75.2233C257.648 75.2419 257.685 75.307 257.703 75.4185C257.741 75.5301 257.768 75.5952 257.787 75.6137C257.824 75.6509 257.843 75.7439 257.843 75.8927C257.843 76.0414 257.815 76.153 257.759 76.2273C257.703 76.3389 257.675 76.4226 257.675 76.4784C257.675 76.5341 257.61 76.6271 257.48 76.7573C257.35 76.8874 257.229 76.9897 257.118 77.0641C256.895 77.1756 256.169 77.2686 254.942 77.343C254.254 77.3988 253.873 77.4545 253.799 77.5103C253.668 77.6219 253.622 78.1797 253.659 79.1838C253.715 80.318 253.641 81.0339 253.436 81.3314C253.139 81.7218 252.748 81.8985 252.265 81.8613C251.781 81.8241 251.391 81.5824 251.093 81.1361C251 80.9874 250.944 79.3604 250.926 76.2552C250.926 73.1501 250.972 71.5045 251.065 71.3186C251.307 70.8351 251.614 70.5469 251.986 70.454ZM244.232 72.0716C245.515 71.9415 246.324 71.9508 246.659 72.0995C247.198 72.3412 247.533 72.7131 247.663 73.2151C247.811 73.7172 247.774 74.4144 247.551 75.307C247.533 75.3441 247.486 75.5301 247.412 75.8648C247.3 76.404 247.151 76.999 246.965 77.6498C246.761 78.4307 246.631 78.9792 246.575 79.2953C246.538 79.4813 246.501 79.6114 246.463 79.6858C246.426 79.7416 246.408 79.8346 246.408 79.9647C246.408 80.0949 246.343 80.2901 246.212 80.5504C246.101 80.8107 245.98 80.9967 245.85 81.1082C245.515 81.4243 245.134 81.5359 244.706 81.4429C244.279 81.35 243.962 81.0896 243.758 80.662C243.628 80.3831 243.628 79.974 243.758 79.4348C243.832 79.1187 243.925 78.7468 244.037 78.3192C244.037 78.282 244.055 78.1983 244.093 78.0681C244.13 77.9194 244.158 77.8171 244.176 77.7613C244.214 77.5568 244.251 77.3802 244.288 77.2314C244.306 77.0641 244.334 76.9153 244.372 76.7852C244.558 76.1902 244.688 75.6045 244.762 75.028L244.79 74.777H243.87C243.237 74.777 242.689 74.7956 242.224 74.8328C241.685 74.8886 241.276 74.8793 240.997 74.8049C240.736 74.7119 240.513 74.526 240.327 74.2471C240.234 74.0984 240.179 73.8845 240.16 73.6056C240.141 73.3267 240.179 73.1408 240.272 73.0478C240.327 72.992 240.355 72.9455 240.355 72.9083C240.355 72.8526 240.439 72.7503 240.606 72.6015C240.811 72.4342 241.034 72.3226 241.276 72.2669C241.536 72.1925 241.973 72.1553 242.587 72.1553C243.275 72.1553 243.823 72.1274 244.232 72.0716ZM250.145 82.6422C251.763 82.5678 252.692 82.605 252.934 82.7538C253.064 82.8282 253.194 82.949 253.325 83.1164C253.473 83.2837 253.557 83.4139 253.576 83.5068C253.594 83.5812 253.622 83.6649 253.659 83.7579C253.696 83.8508 253.715 84.4086 253.715 85.4313C253.715 86.0449 253.706 86.5283 253.687 86.8816C253.668 87.2163 253.603 87.5417 253.492 87.8578C253.399 88.1553 253.287 88.3784 253.157 88.5272C253.046 88.6573 252.841 88.7782 252.544 88.8898C252.246 88.9827 251.93 89.0478 251.595 89.085C251.279 89.1222 250.824 89.1501 250.229 89.1687C249.225 89.2059 248.546 89.243 248.193 89.2802C247.858 89.3174 247.458 89.336 246.993 89.336C246.621 89.336 246.398 89.3639 246.324 89.4197C246.268 89.4569 246.24 89.6428 246.24 89.9775C246.24 90.0147 246.24 90.0612 246.24 90.117C246.222 90.3773 246.315 90.526 246.519 90.5632C246.742 90.6004 247.495 90.619 248.778 90.619C249.132 90.619 249.41 90.619 249.615 90.619C249.708 90.619 249.847 90.619 250.033 90.619C251.465 90.6376 252.311 90.6562 252.571 90.6748C252.832 90.6934 253.036 90.7863 253.185 90.9537C253.204 90.9723 253.213 90.9909 253.213 91.0095C253.548 91.3627 253.668 91.7439 253.576 92.153C253.501 92.5806 253.241 92.906 252.795 93.1292C252.46 93.3151 251.112 93.3802 248.75 93.3244C246.389 93.2872 245.004 93.1756 244.595 92.9897C244.223 92.8038 243.953 92.5527 243.786 92.2367C243.619 91.9391 243.507 91.5022 243.451 90.9258C243.34 89.2523 243.433 88.1739 243.73 87.6905C243.972 87.3 244.241 87.0397 244.539 86.9095C244.836 86.7794 245.338 86.705 246.045 86.6864C246.659 86.6678 247.04 86.6399 247.189 86.6027C247.337 86.5655 247.793 86.5469 248.555 86.5469C249.968 86.5469 250.786 86.4912 251.01 86.3796C251.065 86.3424 251.093 86.1658 251.093 85.8497C251.075 85.5522 251.028 85.3755 250.954 85.3197C250.879 85.2454 250.684 85.2361 250.368 85.2918C250.126 85.329 249.159 85.3662 247.467 85.4034C245.794 85.4406 244.864 85.4406 244.678 85.4034C244.083 85.3104 243.693 85.0222 243.507 84.5388C243.321 84.0554 243.423 83.5905 243.814 83.1443C244 82.9583 244.204 82.8468 244.427 82.8096C244.65 82.7724 245.422 82.7445 246.742 82.7259C248.49 82.6887 249.624 82.6608 250.145 82.6422ZM274.864 73.7451C275.404 73.4662 275.906 73.5312 276.371 73.9403C276.594 74.1262 276.724 74.3959 276.761 74.7491C276.798 75.1024 276.78 76.0879 276.705 77.7056C276.687 78.5237 276.659 80.569 276.622 83.8415C276.584 86.5562 276.547 88.1646 276.51 88.6666C276.473 89.1687 276.38 89.5219 276.231 89.7265C275.878 90.1355 275.441 90.3029 274.92 90.2285C274.4 90.1355 274.065 89.8473 273.916 89.3639C273.86 89.1966 273.832 88.6016 273.832 87.5789C273.851 86.5376 273.888 85.4871 273.944 84.4272C273.981 83.5533 273.991 83.0978 273.972 83.0606C273.86 82.9676 273.423 82.9025 272.661 82.8654C271.899 82.8282 271.49 82.8561 271.434 82.949C271.397 83.0234 271.369 83.637 271.35 84.7898C271.332 85.924 271.341 86.6864 271.378 87.0769C271.415 87.4859 271.415 87.802 271.378 88.0251C271.341 88.2297 271.248 88.4435 271.099 88.6666C270.95 88.8898 270.857 89.0013 270.82 89.0013C270.783 89.0013 270.737 89.0199 270.681 89.0571C270.495 89.2244 270.253 89.2895 269.956 89.2523C269.658 89.1966 269.398 89.0478 269.175 88.8061C268.877 88.5272 268.701 88.0437 268.645 87.3558C268.608 86.6678 268.608 84.6411 268.645 81.2756C268.682 78.8398 268.719 77.2965 268.756 76.6457C268.794 75.9763 268.868 75.5301 268.98 75.307C269.24 74.7863 269.649 74.5167 270.207 74.4981C270.765 74.4795 271.155 74.7305 271.378 75.2512C271.452 75.3813 271.49 75.5487 271.49 75.7532C271.508 75.9577 271.508 76.6178 271.49 77.7334C271.49 77.8636 271.49 78.0588 271.49 78.3192C271.471 79.1745 271.48 79.6765 271.518 79.8253C271.555 79.974 271.694 80.0484 271.936 80.0484C271.992 80.067 272.038 80.0763 272.075 80.0763C272.354 80.0949 272.68 80.1228 273.052 80.1599C273.461 80.2157 273.702 80.225 273.777 80.1878C273.87 80.1321 273.935 79.9554 273.972 79.6579C273.991 79.3046 274 78.5609 274 77.4267C274 76.0321 274.046 75.121 274.139 74.6934C274.251 74.2471 274.493 73.931 274.864 73.7451ZM262.146 75.3906C263.615 75.3534 264.545 75.3534 264.935 75.3906C265.326 75.4092 265.623 75.5115 265.828 75.6974C266.088 75.9391 266.256 76.2366 266.33 76.5899C266.423 76.9246 266.469 77.501 266.469 78.3192C266.469 79.8067 266.348 80.8479 266.107 81.4429C265.884 82.0193 265.428 82.4563 264.74 82.7538C264.61 82.8096 263.996 82.8468 262.899 82.8654C261.97 82.8839 261.421 82.9211 261.254 82.9769C261.086 83.0141 261.021 83.1257 261.059 83.3116C261.077 83.4046 261.096 83.8136 261.114 84.5388C261.114 84.6318 261.114 84.7526 261.114 84.9014C261.114 85.3662 261.179 85.6358 261.31 85.7102C261.458 85.7846 261.951 85.8218 262.788 85.8218C263.085 85.8218 263.318 85.8218 263.485 85.8218C264.842 85.8404 265.595 85.8869 265.744 85.9612C266.339 86.2773 266.581 86.7329 266.469 87.3279C266.376 87.9043 265.977 88.3041 265.27 88.5272C265.047 88.6016 264.405 88.6294 263.346 88.6109C262.286 88.5737 261.254 88.5086 260.25 88.4156C259.692 88.3412 259.292 88.1646 259.05 87.8857C258.827 87.5882 258.679 87.0862 258.604 86.3796C258.548 85.7474 258.502 85.2918 258.465 85.0129C258.427 84.5667 258.409 83.9066 258.409 83.0327C258.427 82.1402 258.465 81.601 258.52 81.415C258.632 80.9874 258.855 80.6899 259.19 80.5225C259.543 80.3366 260.082 80.225 260.808 80.1878C261.31 80.1692 261.719 80.1506 262.035 80.1321C262.407 80.0763 262.751 80.0391 263.067 80.0205C263.42 80.0019 263.624 79.9554 263.68 79.881C263.736 79.8067 263.764 79.5185 263.764 79.0164C263.764 78.5516 263.727 78.282 263.652 78.2076C263.597 78.1146 263.429 78.0867 263.15 78.1239C262.946 78.1425 262.546 78.1611 261.951 78.1797C261.319 78.2169 260.845 78.2541 260.529 78.2913C259.989 78.3656 259.59 78.3563 259.329 78.2634C258.976 78.1332 258.716 77.8822 258.548 77.5103C258.381 77.1384 258.372 76.7945 258.52 76.4784C258.706 76.0507 259.013 75.7718 259.441 75.6416C259.887 75.5115 260.789 75.4278 262.146 75.3906ZM286.371 73.1594C286.947 73.0664 287.617 73.1315 288.379 73.3546C288.416 73.3732 288.621 73.429 288.993 73.5219C289.123 73.5591 289.216 73.5963 289.272 73.6335C289.29 73.6335 289.318 73.6521 289.355 73.6893C289.411 73.7079 289.476 73.7358 289.55 73.773C289.643 73.8101 289.718 73.8473 289.774 73.8845C290.555 74.2564 291.159 74.8514 291.586 75.6695C292.014 76.4691 292.163 77.2872 292.033 78.1239C291.977 78.4586 291.94 78.6724 291.921 78.7654C291.903 78.9328 291.875 79.0257 291.838 79.0443C291.819 79.0815 291.81 79.128 291.81 79.1838C291.81 79.3883 291.531 79.8531 290.973 80.5783C290.415 81.2849 290.052 81.6382 289.885 81.6382C289.848 81.6382 289.829 81.6568 289.829 81.6939C289.829 81.7311 289.932 81.7497 290.136 81.7497C290.471 81.7497 290.768 81.8799 291.029 82.1402C291.233 82.3447 291.354 82.6236 291.391 82.9769C291.447 83.3302 291.484 84.232 291.503 85.6823C291.503 86.9839 291.521 87.6533 291.559 87.6905C291.577 87.7276 291.94 87.7462 292.646 87.7462C293.241 87.7462 293.623 87.7648 293.79 87.802C293.957 87.8392 294.152 87.9694 294.376 88.1925C294.766 88.5458 294.915 88.9362 294.822 89.3639C294.729 89.773 294.422 90.1262 293.901 90.4238C293.79 90.4795 293.623 90.5167 293.399 90.5353C293.195 90.5539 292.516 90.5632 291.363 90.5632C289.541 90.5632 287.505 90.5725 285.255 90.5911C282.764 90.6097 281.388 90.6004 281.127 90.5632C280.625 90.5074 280.254 90.2471 280.012 89.7823C279.77 89.2988 279.779 88.8619 280.04 88.4714C280.244 88.1925 280.495 88.0066 280.793 87.9136C281.09 87.8206 281.564 87.7927 282.215 87.8299C282.866 87.8671 283.238 87.8671 283.331 87.8299C283.424 87.7927 283.461 87.6347 283.442 87.3558C283.275 85.3476 283.275 83.9531 283.442 83.1721C283.61 82.3912 284 81.9635 284.614 81.8892C284.893 81.852 284.967 81.7776 284.837 81.666C284.781 81.5917 284.623 81.4615 284.363 81.2756C283.656 80.8107 283.145 80.318 282.829 79.7974C282.531 79.2767 282.364 78.6445 282.327 77.9008C282.327 77.5289 282.336 77.2686 282.355 77.1199C282.373 76.9711 282.448 76.7294 282.578 76.3947C282.875 75.5952 283.377 74.8979 284.084 74.3029C284.79 73.6893 285.553 73.3081 286.371 73.1594ZM288.072 76.1158C287.421 75.9298 286.826 75.9763 286.287 76.2552C285.748 76.5341 285.376 76.9618 285.172 77.5382C284.986 78.1146 285.153 78.5981 285.674 78.9885C286.213 79.3604 286.836 79.5092 287.542 79.4348C288.267 79.3418 288.751 79.0257 288.993 78.4865C289.588 77.2221 289.281 76.4319 288.072 76.1158ZM289.272 82.1123C289.439 81.945 289.495 81.8613 289.439 81.8613C289.346 81.8799 289.067 81.945 288.602 82.0565C288.416 82.1123 288.007 82.1495 287.375 82.1681C286.761 82.1681 286.306 82.1402 286.008 82.0844C285.729 82.0286 285.571 82.0193 285.534 82.0565C285.516 82.0751 285.571 82.1774 285.702 82.3633C285.887 82.6236 285.999 82.9118 286.036 83.2279C286.073 83.5254 286.101 84.3064 286.12 85.5708C286.138 87.0583 286.176 87.8206 286.231 87.8578C286.306 87.895 286.715 87.895 287.459 87.8578C288.202 87.8206 288.611 87.7834 288.686 87.7462C288.742 87.709 288.77 87.5882 288.77 87.3837C288.788 87.1791 288.797 86.4912 288.797 85.3197C288.797 83.9438 288.816 83.1257 288.853 82.8654C288.89 82.5864 289.03 82.3354 289.272 82.1123ZM300.027 72.4342C300.399 72.397 300.705 72.397 300.947 72.4342C301.226 72.49 301.468 72.5272 301.672 72.5458C302.119 72.6015 302.583 72.7968 303.067 73.1315C303.569 73.4662 304.006 73.8845 304.378 74.3866C304.526 74.5911 304.601 74.7119 304.601 74.7491C304.601 74.7677 304.647 74.8514 304.74 75.0002C304.833 75.1303 304.908 75.2884 304.963 75.4743C305.019 75.6788 305.075 75.8648 305.131 76.0321C305.261 76.3482 305.307 76.8781 305.27 77.6219C305.252 78.347 305.168 78.8677 305.019 79.1838C304.777 79.723 304.471 80.1692 304.099 80.5225C303.745 80.8758 303.271 81.2012 302.676 81.4987C302.304 81.6846 302.081 81.8055 302.007 81.8613C301.933 81.9357 301.83 81.9914 301.7 82.0286C301.142 82.196 300.854 82.8839 300.836 84.0925L300.808 85.0687L300.557 85.3755C300.203 85.7846 299.766 85.9519 299.246 85.8776C298.744 85.8032 298.381 85.515 298.158 85.0129C298.046 84.7712 298 84.2134 298.019 83.3395C298.056 82.4656 298.13 81.9543 298.242 81.8055C298.316 81.7497 298.372 81.6289 298.409 81.4429C298.465 81.257 298.53 81.1268 298.604 81.0525C298.66 80.9781 298.725 80.8758 298.8 80.7457C298.855 80.6155 299.013 80.4296 299.274 80.1878C299.534 79.9461 299.729 79.7881 299.859 79.7137C300.585 79.3604 301.068 79.1187 301.31 78.9885C301.57 78.8584 301.802 78.691 302.007 78.4865C302.212 78.282 302.314 78.1239 302.314 78.0124C302.314 77.8822 302.314 77.6405 302.314 77.2872C302.277 76.8224 302.174 76.4505 302.007 76.1716C301.84 75.8927 301.561 75.6602 301.17 75.4743C300.687 75.2512 300.278 75.2233 299.943 75.3906C299.776 75.4836 299.608 75.5487 299.441 75.5859C299.311 75.6416 299.199 75.7067 299.106 75.7811C298.586 76.153 298.325 76.3761 298.325 76.4505C298.325 76.5806 298.251 76.7945 298.102 77.092C297.954 77.3895 297.814 77.594 297.684 77.7056C297.479 77.8915 297.21 77.9938 296.875 78.0124C296.54 78.0124 296.252 77.9101 296.01 77.7056C295.415 77.2407 295.248 76.562 295.508 75.6695C295.769 74.777 296.345 74.0333 297.238 73.4383C297.777 73.1036 298.065 72.9362 298.102 72.9362C298.102 72.9362 298.223 72.8805 298.465 72.7689C298.688 72.6573 298.948 72.583 299.246 72.5458C299.32 72.5272 299.45 72.5086 299.636 72.49C299.822 72.4714 299.952 72.4528 300.027 72.4342ZM299.051 87.6905C299.646 87.5789 300.138 87.6905 300.529 88.0251C300.938 88.3598 301.133 88.7875 301.114 89.3081C301.114 89.8287 300.882 90.2843 300.417 90.6748C300.101 90.9165 299.711 91.0373 299.246 91.0373C298.8 91.0373 298.446 90.9165 298.186 90.6748C297.963 90.4516 297.814 90.1355 297.74 89.7265C297.665 89.3174 297.693 88.992 297.823 88.7503C298.177 88.1367 298.586 87.7834 299.051 87.6905Z" fill="black"/>
<circle cx="201.624" cy="137.514" r="23.5143" fill="black"/>
<path d="M189.117 137.513H215.133M215.133 137.513L206.461 129.008M215.133 137.513L206.461 146.018" stroke="white" stroke-width="1.00061" stroke-linecap="round"/>
</svg>
