<svg width="356" height="180" viewBox="0 0 356 180" fill="none" xmlns="http://www.w3.org/2000/svg">
<mask id="path-1-inside-1_802_12040" fill="white">
<path fill-rule="evenodd" clip-rule="evenodd" d="M77.1307 0C57.7889 0 42.1093 15.6796 42.1093 35.0213V41.7101L1.00211 41.7102C-0.0529756 41.7102 -0.38968 43.1319 0.553342 43.6051L42.1093 64.4577V144.088C42.1093 163.43 57.7888 179.109 77.1306 179.109H320.917C340.258 179.109 355.938 163.43 355.938 144.088V35.0214C355.938 15.6796 340.258 0 320.917 0H77.1307Z"/>
</mask>
<path fill-rule="evenodd" clip-rule="evenodd" d="M77.1307 0C57.7889 0 42.1093 15.6796 42.1093 35.0213V41.7101L1.00211 41.7102C-0.0529756 41.7102 -0.38968 43.1319 0.553342 43.6051L42.1093 64.4577V144.088C42.1093 163.43 57.7888 179.109 77.1306 179.109H320.917C340.258 179.109 355.938 163.43 355.938 144.088V35.0214C355.938 15.6796 340.258 0 320.917 0H77.1307Z" fill="#EEEDE6"/>
<path d="M42.1093 41.7101L42.1093 46.7131L47.1123 46.7131V41.7101H42.1093ZM1.00211 41.7102L1.00211 46.7132L1.00213 46.7132L1.00211 41.7102ZM0.553342 43.6051L2.79719 39.1335L2.79719 39.1335L0.553342 43.6051ZM42.1093 64.4577H47.1123V61.3706L44.3531 59.986L42.1093 64.4577ZM47.1123 35.0213C47.1123 18.4427 60.552 5.00305 77.1307 5.00305V-5.00305C55.0258 -5.00305 37.1062 12.9165 37.1062 35.0213H47.1123ZM47.1123 41.7101V35.0213H37.1062V41.7101H47.1123ZM1.00213 46.7132L42.1093 46.7131L42.1093 36.707L1.0021 36.7071L1.00213 46.7132ZM2.79719 39.1335C6.56934 41.0263 5.22242 46.7132 1.00211 46.7132V36.7071C-5.32838 36.7071 -7.3487 45.2375 -1.6905 48.0768L2.79719 39.1335ZM44.3531 59.986L2.79719 39.1335L-1.69051 48.0768L39.8654 68.9293L44.3531 59.986ZM47.1123 144.088V64.4577H37.1062V144.088H47.1123ZM77.1306 174.106C60.552 174.106 47.1123 160.667 47.1123 144.088H37.1062C37.1062 166.193 55.0257 184.112 77.1306 184.112V174.106ZM320.917 174.106H77.1306V184.112H320.917V174.106ZM350.935 144.088C350.935 160.667 337.495 174.106 320.917 174.106V184.112C343.022 184.112 360.941 166.193 360.941 144.088H350.935ZM350.935 35.0214V144.088H360.941V35.0214H350.935ZM320.917 5.00305C337.495 5.00305 350.935 18.4427 350.935 35.0214H360.941C360.941 12.9165 343.022 -5.00305 320.917 -5.00305V5.00305ZM77.1307 5.00305H320.917V-5.00305H77.1307V5.00305Z" fill="black" mask="url(#path-1-inside-1_802_12040)"/>
<path d="M136.108 38.1873C136.332 38.0943 136.629 38.0478 137.001 38.0478C137.373 38.0292 137.68 38.0571 137.921 38.1315C138.126 38.1873 138.321 38.243 138.507 38.2988C139.492 38.5591 140.301 39.0054 140.934 39.6376C141.119 39.8235 141.296 40.0466 141.463 40.307C141.649 40.5487 141.742 40.7067 141.742 40.7811C141.742 40.8183 141.761 40.8927 141.798 41.0042C141.854 41.0972 141.9 41.2273 141.938 41.3947C141.993 41.5806 142.031 41.748 142.049 41.8967C142.105 42.1384 142.124 42.5289 142.105 43.0681C142.105 43.5888 142.068 43.9792 141.993 44.2396C141.696 45.4667 140.868 46.4336 139.511 47.1402C139.232 47.2889 139.074 47.3726 139.037 47.3912C139.018 47.4284 139 48.293 138.981 49.9851C138.981 51.6771 139 52.5324 139.037 52.551C139.056 52.5696 139.892 52.5789 141.547 52.5789C142.942 52.5789 143.75 52.5975 143.974 52.6347C144.197 52.6533 144.411 52.7741 144.615 52.9973C145.192 53.6109 145.164 54.2337 144.531 54.8659C144.308 55.0891 144.067 55.2192 143.806 55.2564C143.565 55.2936 142.849 55.3308 141.659 55.368C140.264 55.3866 138.674 55.4238 136.889 55.4795C133.226 55.5725 131.255 55.5539 130.977 55.4238C130.4 55.1448 130.065 54.7544 129.972 54.2523C129.898 53.7317 130.093 53.2948 130.558 52.9415L130.865 52.7183H133.459C135.188 52.7183 136.071 52.6998 136.108 52.6626C136.164 52.6068 136.201 51.7236 136.22 50.0129C136.257 48.3023 136.248 47.4191 136.192 47.3633C136.155 47.3261 136.053 47.2889 135.885 47.2518C135.309 47.103 134.723 46.7869 134.128 46.3035C133.533 45.82 133.105 45.3087 132.845 44.7695C132.622 44.2674 132.492 43.691 132.455 43.0402C132.436 42.3895 132.529 41.8595 132.734 41.4505C132.771 41.3575 132.789 41.2738 132.789 41.1995C132.789 40.9949 133.078 40.558 133.654 39.8886C134.249 39.2006 134.63 38.8566 134.798 38.8566C134.853 38.8566 134.881 38.8473 134.881 38.8287C134.881 38.7916 135.03 38.6986 135.327 38.5498C135.644 38.3825 135.904 38.2616 136.108 38.1873ZM138.34 41.1716C137.745 40.9856 137.178 40.9856 136.638 41.1716C136.099 41.3575 135.727 41.6829 135.523 42.1477C135.448 42.3337 135.393 42.4638 135.355 42.5382C135.188 42.8543 135.188 43.1983 135.355 43.5702C135.523 43.942 135.783 44.2117 136.136 44.379C136.768 44.6579 137.401 44.7044 138.033 44.5185C138.665 44.3139 139.056 43.9606 139.204 43.4586C139.595 42.2314 139.307 41.4691 138.34 41.1716ZM149.066 35.4261C149.568 35.3145 149.977 35.4354 150.293 35.7886C150.442 35.9374 150.535 36.1233 150.572 36.3465C150.628 36.5696 150.665 36.9972 150.683 37.6294C150.683 37.6852 150.683 37.7503 150.683 37.8247C150.702 38.6056 150.748 39.0612 150.823 39.1913C150.916 39.3029 151.204 39.3494 151.687 39.3308C151.743 39.3308 151.79 39.3308 151.827 39.3308C152.533 39.2936 153.51 39.2657 154.755 39.2471C155.964 39.2285 156.671 39.2378 156.875 39.275C157.098 39.3122 157.331 39.4423 157.572 39.6655C158.112 40.2047 158.13 40.7811 157.628 41.3947C157.386 41.655 157.061 41.8131 156.652 41.8688C156.261 41.9246 155.099 41.9711 153.166 42.0083C151.325 42.0455 150.228 42.0548 149.874 42.0362C149.521 42.0176 149.224 41.9339 148.982 41.7852C148.926 41.748 148.861 41.7201 148.787 41.7015C148.526 41.5713 148.34 41.2366 148.229 40.6974C148.117 40.1582 148.024 39.1541 147.95 37.6852C147.894 36.3279 148.266 35.5748 149.066 35.4261ZM155.453 43.7096C157.498 43.5981 158.66 43.6167 158.939 43.7654C159.534 44.1001 159.794 44.5556 159.72 45.1321C159.664 45.7085 159.292 46.0989 158.604 46.3035C158.511 46.3221 158.065 46.3314 157.266 46.3314C155.964 46.35 154.476 46.415 152.803 46.5266C152.394 46.5638 151.715 46.601 150.767 46.6382C149.986 46.6753 149.354 46.7125 148.87 46.7497C147.55 46.8613 146.732 46.8427 146.416 46.6939C146.119 46.5638 145.886 46.3592 145.719 46.0803C145.57 45.8014 145.533 45.5225 145.607 45.2436C145.7 44.8903 145.849 44.6486 146.053 44.5185C146.258 44.3697 146.602 44.2674 147.085 44.2117C147.569 44.1373 148.406 44.0722 149.596 44.0164C150.618 43.9792 151.232 43.9513 151.436 43.9328C151.585 43.8956 152.189 43.8491 153.249 43.7933C154.291 43.7561 155.025 43.7282 155.453 43.7096ZM155.313 47.8375C156.671 47.7445 157.517 47.8561 157.851 48.1721C158.205 48.4697 158.381 49.2692 158.381 50.5708C158.381 51.9281 158.232 52.8206 157.935 53.2483C157.656 53.6759 157.015 53.9641 156.01 54.1129C155.192 54.2244 154.318 54.2988 153.389 54.336C152.645 54.3546 152.162 54.3825 151.938 54.4197C151.697 54.4569 151.399 54.4755 151.046 54.4755C150.655 54.4755 150.432 54.5034 150.376 54.5591C150.358 54.6149 150.349 54.773 150.349 55.0333C150.349 55.275 150.367 55.4145 150.404 55.4516C150.497 55.5446 151.78 55.6004 154.253 55.619C154.402 55.619 154.616 55.619 154.895 55.619C156.327 55.6376 157.173 55.6562 157.433 55.6748C157.693 55.712 157.898 55.8049 158.046 55.9537C158.084 55.9909 158.102 56.0095 158.102 56.0095C158.548 56.4185 158.66 56.8462 158.437 57.2924C158.381 57.404 158.353 57.4784 158.353 57.5156C158.353 57.5527 158.26 57.6457 158.074 57.7945C157.907 57.9618 157.758 58.0734 157.628 58.1292C157.349 58.2779 155.908 58.3523 153.305 58.3523C150.702 58.3523 149.242 58.2779 148.926 58.1292C148.499 57.9246 148.201 57.6829 148.034 57.404C147.866 57.1251 147.745 56.6695 147.671 56.0373C147.541 54.5498 147.532 53.6294 147.643 53.2762C147.829 52.6998 148.071 52.3279 148.368 52.1605C148.684 51.9932 149.345 51.9002 150.349 51.8816C151.167 51.8444 151.855 51.8072 152.413 51.7701C153.826 51.6585 154.82 51.5748 155.397 51.519C155.583 51.519 155.685 51.5004 155.704 51.4633C155.741 51.4447 155.759 51.3052 155.759 51.0449C155.778 50.7846 155.769 50.6358 155.732 50.5986C155.694 50.5615 155.099 50.5522 153.947 50.5708C152.812 50.5708 151.725 50.5894 150.683 50.6265C149.642 50.6637 148.926 50.6544 148.536 50.5986C148.164 50.5429 147.866 50.3941 147.643 50.1524C147.457 49.9293 147.355 49.6597 147.336 49.3436C147.318 49.0275 147.392 48.7579 147.56 48.5347C147.56 48.5347 147.569 48.5254 147.587 48.5068C147.792 48.2465 148.062 48.0885 148.396 48.0327C148.731 47.9769 149.772 47.9397 151.52 47.9211C151.557 47.9211 151.585 47.9211 151.604 47.9211C153.612 47.9025 154.848 47.8746 155.313 47.8375ZM173.674 38.773C173.86 38.6428 174.139 38.6149 174.511 38.6893C174.883 38.7637 175.152 38.9031 175.32 39.1076C175.338 39.1076 175.348 39.1169 175.348 39.1355C175.515 39.3215 175.608 39.6469 175.627 40.1117C175.664 40.558 175.673 42.0362 175.654 44.5463C175.654 44.6579 175.654 44.7509 175.654 44.8253C175.617 48.3395 175.608 50.5708 175.627 51.519C175.627 52.7276 175.608 53.4435 175.571 53.6666C175.496 54.1129 175.301 54.4569 174.985 54.6986C174.669 54.9217 174.325 54.9961 173.953 54.9217C173.581 54.8473 173.284 54.6242 173.061 54.2523C172.93 54.0664 172.865 51.612 172.865 46.8892C172.865 42.1663 172.921 39.6934 173.033 39.4702C173.163 39.1913 173.377 38.9589 173.674 38.773ZM164.749 39.2192C165.381 39.1076 166.088 39.2006 166.869 39.4981C167.668 39.777 168.291 40.1675 168.738 40.6695C169.202 41.1716 169.472 41.8688 169.546 42.7613C169.639 43.6538 169.518 44.4534 169.184 45.1599C168.923 45.6992 168.626 46.1268 168.291 46.4429C167.957 46.759 167.52 47.0286 166.98 47.2518C166.162 47.5864 165.233 47.605 164.191 47.3075C163.15 46.9914 162.36 46.4708 161.821 45.7457C161.393 45.1878 161.161 44.5463 161.123 43.8212C161.086 43.096 161.207 42.4267 161.486 41.8131C161.783 41.1809 162.22 40.623 162.797 40.1396C163.373 39.6376 164.024 39.3308 164.749 39.2192ZM166.144 42.1199C165.586 41.9525 165.075 42.0176 164.61 42.3151C164.145 42.6126 163.912 43.0217 163.912 43.5423C163.912 43.9885 164.163 44.3325 164.666 44.5742C165.168 44.7974 165.66 44.7974 166.144 44.5742C166.646 44.3511 166.897 43.9235 166.897 43.2913C166.897 42.6591 166.646 42.2686 166.144 42.1199ZM169.853 49.5946C170.299 49.5388 170.653 49.5481 170.913 49.6225C171.136 49.6783 171.35 49.7898 171.555 49.9572C171.74 50.1245 171.861 50.3569 171.917 50.6544C171.991 50.9333 171.973 51.1844 171.861 51.4075C171.657 51.8351 171.322 52.114 170.857 52.2442C170.411 52.3558 169.528 52.4115 168.208 52.4115C167.352 52.4115 166.385 52.4301 165.307 52.4673C162.983 52.5789 161.69 52.5975 161.43 52.5231C160.891 52.3744 160.538 52.0676 160.37 51.6027C160.222 51.1193 160.333 50.6823 160.705 50.2918C160.91 50.0687 161.133 49.9386 161.374 49.9014C161.616 49.8642 162.323 49.827 163.494 49.7898C164.889 49.7712 165.79 49.7433 166.199 49.7061C166.664 49.669 167.306 49.6411 168.124 49.6225C169.016 49.6225 169.593 49.6132 169.853 49.5946ZM192.499 36.5138C192.964 36.4766 193.958 36.4673 195.483 36.4859C197.026 36.5045 197.863 36.5417 197.993 36.5975C198.402 36.7462 198.681 37.0065 198.83 37.3784C198.979 37.7317 198.969 38.085 198.802 38.4383C198.653 38.7916 198.374 39.024 197.965 39.1355C197.761 39.2099 196.878 39.2378 195.316 39.2192C193.754 39.182 192.908 39.182 192.778 39.2192L192.582 39.275L192.555 40.5301C192.555 41.3854 192.573 41.8409 192.61 41.8967C192.648 41.9339 193.019 41.9618 193.726 41.9804C194.377 41.999 194.935 42.0269 195.399 42.0641C195.883 42.1013 196.515 42.1199 197.296 42.1199C198.003 42.1199 198.439 42.1477 198.607 42.2035C198.793 42.2407 198.979 42.3616 199.165 42.5661C199.499 42.9566 199.583 43.3749 199.416 43.8212C199.248 44.2674 198.895 44.5742 198.356 44.7416C198.244 44.7788 197.686 44.7974 196.682 44.7974C195.697 44.7974 194.907 44.7788 194.312 44.7416C193.494 44.6858 192.843 44.6486 192.359 44.63C191.504 44.5928 190.909 44.4813 190.574 44.2953C190.24 44.0908 190.007 43.7375 189.877 43.2355C189.784 42.8822 189.738 41.9897 189.738 40.558C189.738 39.1262 189.784 38.2616 189.877 37.9641C190.026 37.4621 190.277 37.1181 190.63 36.9322C191.002 36.7276 191.625 36.5882 192.499 36.5138ZM197.045 46.9728C199.313 46.9171 200.634 46.9357 201.005 47.0286C201.619 47.2146 201.954 47.6143 202.01 48.2279C202.065 48.8229 201.805 49.2785 201.229 49.5946C201.136 49.6504 200.968 49.6875 200.727 49.7061C200.503 49.7061 199.806 49.7154 198.635 49.734C198.467 49.734 198.244 49.734 197.965 49.734C196.98 49.734 196.403 49.7619 196.236 49.8177C196.087 49.8735 196.022 50.0594 196.041 50.3755C196.041 50.4871 196.05 50.5708 196.069 50.6265C196.087 51.0542 196.125 51.6027 196.18 52.2721C196.348 54.0757 196.338 55.3215 196.152 56.0095C195.985 56.6974 195.595 57.0414 194.981 57.0414C194.721 57.0414 194.442 56.9391 194.144 56.7346C193.847 56.5487 193.698 56.372 193.698 56.2047C193.698 56.1489 193.67 56.0745 193.614 55.9816C193.54 55.87 193.466 54.3453 193.391 51.4075C193.354 50.4592 193.308 49.9572 193.252 49.9014C193.215 49.827 192.508 49.8084 191.132 49.8456C189.57 49.8642 188.668 49.8735 188.427 49.8735C188.185 49.8549 187.98 49.8084 187.813 49.734C187.46 49.5295 187.237 49.2506 187.144 48.8973C187.069 48.5254 187.134 48.1629 187.339 47.8096C187.413 47.698 187.543 47.5771 187.729 47.447C187.915 47.3168 188.046 47.2518 188.12 47.2518C188.213 47.2518 188.306 47.2239 188.399 47.1681C188.51 47.1309 189.672 47.0937 191.885 47.0565C193.819 47.0379 195.539 47.01 197.045 46.9728ZM216.42 35.7329C216.699 35.5841 217.025 35.5934 217.396 35.7608C217.787 35.9095 218.057 36.1419 218.205 36.458C218.261 36.6068 218.289 36.8206 218.289 37.0995C218.308 37.3784 218.298 38.2802 218.261 39.8049C218.224 41.8874 218.187 43.1146 218.15 43.4865C218.112 43.8956 218.094 44.4813 218.094 45.2436C218.094 46.1547 218.029 46.7683 217.899 47.0844C217.768 47.4005 217.489 47.605 217.062 47.698C216.597 47.8096 216.216 47.7259 215.918 47.447C215.621 47.1495 215.472 46.7218 215.472 46.164C215.472 45.7364 215.453 45.5039 215.416 45.4667C215.379 45.411 214.775 45.3831 213.603 45.3831C212.432 45.3831 211.772 45.3552 211.623 45.2994C211.028 45.0949 210.721 44.6858 210.703 44.0722C210.684 43.44 210.963 42.9938 211.539 42.7334C211.707 42.6405 212.367 42.6033 213.52 42.6219C213.594 42.6219 213.687 42.6219 213.799 42.6219C214.635 42.6219 215.128 42.6033 215.277 42.5661C215.426 42.5289 215.5 42.3895 215.5 42.1477C215.5 42.1106 215.5 42.0827 215.5 42.0641C215.5 41.7852 215.435 41.6271 215.305 41.5899C215.193 41.5527 214.71 41.5248 213.854 41.5063C212.795 41.4691 212.116 41.4226 211.818 41.3668C211.539 41.311 211.298 41.1716 211.093 40.9484C210.777 40.6138 210.684 40.214 210.814 39.7491C210.944 39.2657 211.242 38.9496 211.707 38.8008C211.93 38.7265 212.599 38.6986 213.715 38.7172C214.849 38.7358 215.426 38.7265 215.444 38.6893C215.481 38.6335 215.5 38.336 215.5 37.7968C215.519 37.1832 215.593 36.7369 215.723 36.458C215.853 36.1605 216.086 35.9188 216.42 35.7329ZM204.399 36.5138C204.753 36.458 205.58 36.4487 206.882 36.4859C208.202 36.5045 208.918 36.5417 209.029 36.5975C209.438 36.8206 209.708 37.1274 209.838 37.5179C209.968 37.8898 210.052 38.5405 210.089 39.4702C210.108 40.6416 209.987 41.4598 209.727 41.9246C209.671 42.0362 209.568 42.1663 209.42 42.3151C209.29 42.4452 209.197 42.5103 209.141 42.5103C209.104 42.5103 209.029 42.5382 208.918 42.594C208.825 42.6498 208.425 42.6963 207.718 42.7334C207.03 42.752 206.584 42.7799 206.38 42.8171C206.194 42.8543 205.998 42.8729 205.794 42.8729C205.552 42.8915 205.403 42.938 205.348 43.0124C205.292 43.0681 205.273 43.2448 205.292 43.5423C205.292 43.5981 205.292 43.6631 205.292 43.7375C205.31 44.2767 205.394 44.5928 205.543 44.6858C205.71 44.7602 206.268 44.7788 207.216 44.7416C207.347 44.7416 207.449 44.7416 207.523 44.7416C208.583 44.7044 209.224 44.7044 209.448 44.7416C209.671 44.7788 209.903 44.9275 210.145 45.1878C210.442 45.4853 210.545 45.8479 210.452 46.2756C210.377 46.7032 210.136 47.01 209.727 47.196C209.559 47.2889 209.448 47.354 209.392 47.3912C209.169 47.5028 208.248 47.5586 206.631 47.5586C205.032 47.54 204.12 47.4749 203.897 47.3633C203.433 47.1216 203.107 46.7404 202.921 46.2198C202.754 45.6992 202.642 44.8439 202.586 43.6538C202.549 42.4267 202.652 41.6085 202.893 41.1995C203.135 40.7718 203.646 40.4929 204.427 40.3627C204.985 40.2884 205.292 40.2419 205.348 40.2233C205.571 40.2047 205.85 40.1675 206.184 40.1117C206.389 40.0745 206.566 40.0559 206.714 40.0559C207.216 40.0373 207.402 39.8235 207.272 39.4144C207.254 39.3401 207.161 39.3029 206.993 39.3029C206.844 39.2843 206.324 39.275 205.431 39.275H203.646L203.34 39.0519C203.098 38.9031 202.921 38.6986 202.81 38.4383C202.717 38.1594 202.707 37.899 202.782 37.6573C202.893 37.304 203.061 37.0437 203.284 36.8764C203.525 36.709 203.897 36.5882 204.399 36.5138ZM208.918 49.2599C209.197 49.1855 210.442 49.1483 212.655 49.1483C214.886 49.1483 216.123 49.1948 216.365 49.2878C216.718 49.3993 216.978 49.6411 217.145 50.0129C217.331 50.3662 217.396 50.7846 217.341 51.268C217.304 51.6027 217.294 51.9002 217.313 52.1605C217.35 52.5696 217.322 53.2948 217.229 54.336C217.155 55.3773 217.062 56.0559 216.95 56.372C216.857 56.6881 216.727 56.967 216.56 57.2088C216.411 57.4691 216.281 57.5992 216.169 57.5992C216.132 57.5992 216.086 57.6178 216.03 57.655C215.807 57.8595 215.24 57.9432 214.329 57.906C213.771 57.8688 212.748 57.841 211.261 57.8224C209.847 57.7852 209.039 57.7294 208.834 57.655C208.165 57.4319 207.756 57.1065 207.607 56.6788C207.458 56.2698 207.43 55.4052 207.523 54.085C207.56 53.6945 207.588 53.0066 207.607 52.0211C207.625 51.0356 207.718 50.3662 207.886 50.0129C208.053 49.6597 208.397 49.4086 208.918 49.2599ZM214.607 51.9932C214.552 51.956 213.836 51.9374 212.46 51.9374C211.102 51.9374 210.396 51.9653 210.34 52.0211C210.266 52.0769 210.229 52.5789 210.229 53.5272C210.247 54.4755 210.294 54.9682 210.368 55.0054C210.498 55.0612 211.177 55.0984 212.404 55.117C213.65 55.1355 214.291 55.117 214.329 55.0612C214.421 54.9496 214.505 54.429 214.58 53.4993C214.654 52.5696 214.663 52.0676 214.607 51.9932ZM228.911 37.7689C229.059 37.7131 229.329 37.6945 229.719 37.7131C230.11 37.7317 230.38 37.7596 230.528 37.7968C230.937 37.9641 231.235 38.2337 231.421 38.6056C231.495 38.7544 231.532 39.4237 231.532 40.6137C231.551 41.7852 231.532 42.5196 231.477 42.8171C231.439 43.0031 231.402 43.4028 231.365 44.0164C231.328 44.63 231.291 45.0577 231.253 45.2994C231.179 45.7457 230.984 46.0896 230.668 46.3314C230.37 46.5545 230.063 46.6475 229.747 46.6103C229.45 46.5545 229.18 46.3778 228.938 46.0803C228.697 45.7828 228.585 45.4017 228.604 44.9368C228.604 44.6207 228.585 44.4441 228.548 44.4069C228.529 44.3883 228.139 44.3976 227.377 44.4348C226.633 44.4534 226.094 44.4813 225.759 44.5185C223.862 44.7416 222.914 44.3046 222.914 43.2076C222.914 42.2779 223.649 41.8038 225.117 41.7852C225.471 41.7852 225.759 41.7666 225.982 41.7294C226.242 41.7108 226.707 41.6829 227.377 41.6457C228.009 41.6085 228.39 41.562 228.52 41.5063C228.669 41.4505 228.753 41.3203 228.771 41.1158C228.808 40.8369 228.79 40.6788 228.715 40.6416C228.66 40.5859 228.446 40.5766 228.074 40.6137C227.721 40.6323 227.33 40.6416 226.902 40.6416C226.531 40.6416 225.908 40.6602 225.034 40.6974C224.253 40.7532 223.769 40.7532 223.583 40.6974C223.044 40.5115 222.756 40.1303 222.719 39.5539C222.682 38.9775 222.923 38.5591 223.444 38.2988C223.741 38.1315 224.318 38.0385 225.173 38.0199C225.787 38.0013 226.205 37.9734 226.428 37.9362C226.633 37.899 227.079 37.8712 227.767 37.8526C228.436 37.8154 228.818 37.7875 228.911 37.7689ZM236.497 37.9641C236.757 37.8712 237.045 37.8898 237.361 38.0199C237.678 38.1315 237.929 38.3267 238.115 38.6056C238.189 38.7172 238.226 39.0147 238.226 39.4981C238.245 39.963 238.245 41.5806 238.226 44.3511C238.226 48.0885 238.208 50.2826 238.17 50.9333C238.152 51.5469 238.124 52.4023 238.087 53.4993C238.068 54.5405 238.012 55.1448 237.919 55.3122C237.678 55.777 237.306 56.0281 236.804 56.0652C236.32 56.1024 235.92 55.9072 235.604 55.4795C235.363 55.1448 235.27 54.6428 235.325 53.9734C235.325 53.9362 235.325 53.8991 235.325 53.8619C235.344 53.6016 235.288 53.4528 235.158 53.4156C235.047 53.3598 234.619 53.3226 233.875 53.3041C233.726 53.3041 233.606 53.2948 233.513 53.2762C232.285 53.2576 231.411 53.2483 230.891 53.2483C229.98 53.2483 229.338 53.1367 228.966 52.9136C228.613 52.6905 228.436 52.3093 228.436 51.7701C228.436 51.2866 228.613 50.924 228.966 50.6823C229.338 50.4406 229.831 50.3662 230.445 50.4592C230.854 50.515 231.774 50.5429 233.206 50.5429C234.637 50.5243 235.363 50.4778 235.381 50.4034C235.437 50.329 235.484 49.3715 235.521 47.5307C235.558 45.6713 235.567 43.9699 235.549 42.4267C235.567 41.4226 235.558 40.6602 235.521 40.1396C235.502 39.6004 235.539 39.182 235.632 38.8845C235.744 38.5684 235.846 38.3639 235.939 38.2709C236.051 38.178 236.237 38.0757 236.497 37.9641ZM231.393 46.8613C232.267 46.7311 232.964 46.7869 233.485 47.0286C234.005 47.2703 234.266 47.6608 234.266 48.2C234.266 48.386 234.247 48.4882 234.21 48.5068C234.173 48.5254 234.145 48.5905 234.126 48.7021C234.033 49.0368 233.81 49.2599 233.457 49.3715C233.122 49.483 232.369 49.5574 231.198 49.5946C229.189 49.6504 228.139 49.7061 228.046 49.7619C228.009 49.7805 227.99 49.9943 227.99 50.4034C227.99 50.7381 227.972 51.2029 227.934 51.798C227.879 52.5789 227.841 53.1274 227.823 53.4435C227.786 53.9455 227.739 54.2988 227.683 54.5034C227.628 54.7079 227.507 54.9031 227.321 55.0891C226.93 55.4795 226.503 55.6004 226.038 55.4516C225.573 55.3029 225.266 54.9496 225.117 54.3918C225.006 54.0013 224.987 53.4528 225.062 52.7462C225.248 51.2215 225.294 50.329 225.201 50.0687C225.164 49.9758 225.099 49.9293 225.006 49.9293C224.932 49.9107 224.56 49.9293 223.89 49.9851C223.258 50.0222 222.803 50.0129 222.524 49.9572C222.263 49.9014 222.022 49.7712 221.798 49.5667C221.52 49.325 221.38 48.9996 221.38 48.5905C221.38 48.1629 221.52 47.8282 221.798 47.5864C221.966 47.4377 222.142 47.3447 222.328 47.3075C222.533 47.2518 222.97 47.2146 223.639 47.196C225.48 47.103 226.67 47.0286 227.209 46.9728C227.525 46.9357 228.26 46.9171 229.413 46.9171C230.565 46.9171 231.226 46.8985 231.393 46.8613ZM254.203 38.2988C254.556 38.1501 254.91 38.178 255.263 38.3825C255.616 38.5684 255.858 38.8659 255.988 39.275C256.044 39.4981 256.081 40.8276 256.1 43.2634C256.118 45.6806 256.1 47.5864 256.044 48.981C256.025 49.2413 255.997 49.7247 255.96 50.4313C255.942 51.1379 255.932 51.6213 255.932 51.8816C255.895 52.9415 255.858 53.5458 255.821 53.6945C255.784 53.8619 255.765 54.0106 255.765 54.1408C255.765 54.7544 255.486 55.182 254.928 55.4238C254.389 55.6655 253.915 55.5632 253.506 55.117C253.283 54.8752 253.153 54.6521 253.115 54.4476C253.097 54.2244 253.106 53.4807 253.143 52.2163C253.255 48.7765 253.311 45.6062 253.311 42.7056C253.311 40.6974 253.348 39.5074 253.422 39.1355C253.497 38.7637 253.757 38.4848 254.203 38.2988ZM246.84 40.5859C248.03 40.5487 248.764 40.558 249.043 40.6137C249.322 40.6509 249.592 40.7997 249.852 41.06C250.168 41.3761 250.28 41.7387 250.187 42.1477C250.113 42.5568 249.852 42.8822 249.406 43.1239C249.276 43.1983 248.764 43.2448 247.872 43.2634C245.957 43.3377 244.823 43.4214 244.469 43.5144C244.376 43.5516 244.321 43.6167 244.302 43.7096C244.302 43.784 244.293 44.0722 244.274 44.5742C244.237 45.3552 244.2 45.9409 244.162 46.3314C244.088 47.354 244.051 48.0234 244.051 48.3395C244.07 48.637 244.116 48.8043 244.19 48.8415C244.302 48.8787 245.232 48.9066 246.979 48.9252C248.43 48.9252 249.285 48.9438 249.545 48.981C249.824 49.0182 250.075 49.1297 250.298 49.3157C250.615 49.6132 250.717 49.9943 250.605 50.4592C250.494 50.924 250.224 51.2587 249.796 51.4633C249.239 51.7236 247.119 51.7701 243.437 51.6027C242.842 51.5841 242.405 51.5004 242.126 51.3517C241.866 51.2029 241.643 50.9426 241.457 50.5708C241.383 50.4034 241.336 50.0315 241.318 49.4551C241.299 48.8601 241.327 48.3023 241.401 47.7817C241.438 47.5028 241.466 46.5824 241.485 45.0205C241.522 43.6074 241.569 42.7334 241.624 42.3988C241.68 42.0455 241.848 41.7294 242.126 41.4505C242.573 40.9856 243.289 40.7532 244.274 40.7532C244.534 40.7532 244.785 40.7346 245.027 40.6974C245.287 40.6602 245.892 40.623 246.84 40.5859ZM271.29 35.7886C271.458 35.7329 271.69 35.7515 271.988 35.8444C272.285 35.9188 272.508 36.0304 272.657 36.1791C272.843 36.3651 272.945 36.5603 272.964 36.7648C273.001 36.9694 273.02 37.5644 273.02 38.5498C273.02 39.7398 273.048 40.3534 273.103 40.3906C273.159 40.4278 273.652 40.4464 274.582 40.4464C275.418 40.4464 275.939 40.4743 276.143 40.5301C276.367 40.5673 276.58 40.7253 276.785 41.0042C277.027 41.3017 277.138 41.6178 277.12 41.9525C277.12 42.2686 276.999 42.5475 276.757 42.7892C276.608 42.938 276.422 43.031 276.199 43.0681C275.976 43.1053 275.455 43.1425 274.637 43.1797C273.652 43.2169 273.14 43.2634 273.103 43.3192C273.066 43.3749 273.048 43.7375 273.048 44.4069C273.048 45.0577 273.066 45.5597 273.103 45.913C273.196 46.8799 273.01 47.5121 272.545 47.8096C272.118 48.1071 271.672 48.1443 271.207 47.9211C270.76 47.698 270.482 47.3168 270.37 46.7776C270.314 46.4243 270.286 44.6951 270.286 41.5899C270.286 38.4662 270.314 36.8206 270.37 36.6533C270.575 36.2256 270.881 35.9374 271.29 35.7886ZM262.059 36.9043C262.207 36.8671 262.821 36.8485 263.899 36.8485C264.717 36.8485 265.21 36.8578 265.378 36.8764C265.545 36.8764 265.712 36.9229 265.88 37.0158C266.214 37.1646 266.456 37.3784 266.605 37.6573C266.754 37.9362 266.874 38.3732 266.967 38.9682C267.153 40.5115 267.06 41.5806 266.688 42.1756C266.335 42.752 265.564 43.096 264.373 43.2076C264.057 43.2448 263.741 43.282 263.425 43.3192C263.202 43.3563 262.979 43.3749 262.756 43.3749C262.44 43.3749 262.254 43.4028 262.198 43.4586C262.142 43.5144 262.114 43.691 262.114 43.9885C262.114 44.0257 262.105 44.0908 262.086 44.1838C262.086 44.5185 262.142 44.7137 262.254 44.7695C262.384 44.8253 262.821 44.8531 263.565 44.8531C263.732 44.8531 263.862 44.8531 263.955 44.8531C265.108 44.8531 265.815 44.8253 266.075 44.7695C266.558 44.6951 266.958 44.7788 267.274 45.0205C267.609 45.2622 267.776 45.5969 267.776 46.0246C267.776 46.3778 267.674 46.666 267.469 46.8892C267.283 47.0937 266.977 47.2611 266.549 47.3912C266.233 47.4842 265.21 47.5214 263.481 47.5028C261.77 47.4842 260.822 47.4284 260.636 47.3354C260.153 47.0937 259.818 46.6753 259.632 46.0803C259.446 45.4853 259.353 44.5928 259.353 43.4028C259.353 42.6591 259.428 42.1199 259.576 41.7852C259.744 41.4319 260.032 41.1902 260.441 41.06C260.627 41.0042 261.092 40.9205 261.835 40.809C262.207 40.7718 262.477 40.7346 262.644 40.6974C262.886 40.6602 263.183 40.623 263.537 40.5859C263.89 40.5487 264.104 40.5022 264.178 40.4464C264.253 40.3906 264.281 40.2512 264.262 40.028C264.243 39.7677 264.169 39.619 264.039 39.5818C263.927 39.5446 263.472 39.5446 262.672 39.5818C261.761 39.6376 261.147 39.6748 260.831 39.6934C260.125 39.7491 259.613 39.5167 259.297 38.9961C259 38.4755 259.093 37.9641 259.576 37.4621C259.837 37.1832 260.339 37.0251 261.082 36.9879C261.547 36.9508 261.873 36.9229 262.059 36.9043ZM267.804 49.0925C268.195 48.981 268.734 48.9624 269.422 49.0368C270.11 49.1111 270.668 49.2506 271.095 49.4551C271.393 49.6039 271.709 49.8363 272.043 50.1524C272.397 50.4499 272.573 50.6544 272.573 50.766C272.573 50.8032 272.583 50.8311 272.601 50.8497C272.657 50.8683 272.741 51.017 272.852 51.2959C272.964 51.5748 273.048 51.8165 273.103 52.0211C273.196 52.3186 273.243 52.709 273.243 53.1925C273.243 53.6573 273.206 54.0013 273.131 54.2244C273.001 54.6521 272.889 54.9496 272.797 55.117C272.741 55.2099 272.713 55.275 272.713 55.3122C272.713 55.3866 272.62 55.5632 272.434 55.8421C272.248 56.121 272.081 56.3348 271.932 56.4836C271.653 56.7997 271.235 57.0879 270.677 57.3482C270.509 57.4226 270.389 57.4784 270.314 57.5156C270.221 57.5713 270.128 57.5992 270.035 57.5992C269.942 57.5992 269.831 57.6271 269.701 57.6829C269.478 57.7759 269.031 57.7945 268.362 57.7387C267.692 57.7015 267.144 57.6085 266.716 57.4598C265.917 57.1995 265.275 56.7532 264.792 56.121C264.327 55.5074 264.067 54.8473 264.011 54.1408C263.955 53.4156 264.104 52.6719 264.457 51.9095C264.81 51.1286 265.35 50.4685 266.075 49.9293C266.54 49.576 267.116 49.2971 267.804 49.0925ZM269.645 51.9932C269.385 51.9188 269.041 51.9095 268.613 51.9653C268.204 52.0211 267.906 52.1047 267.72 52.2163C267.479 52.3651 267.246 52.6254 267.023 52.9973C266.819 53.3505 266.726 53.6666 266.744 53.9455C266.744 54.3546 266.967 54.6707 267.414 54.8938C267.86 55.117 268.353 55.182 268.892 55.0891C269.45 54.9961 269.849 54.7544 270.091 54.3639C270.389 53.8805 270.491 53.3877 270.398 52.8857C270.305 52.3837 270.054 52.0862 269.645 51.9932ZM114.876 73.2709C115.155 73.178 115.443 73.2058 115.74 73.3546C116.057 73.4848 116.289 73.6986 116.438 73.9961C116.531 74.1448 116.596 75.4092 116.633 77.7892C116.689 80.1692 116.689 81.7683 116.633 82.5864C116.596 83.0141 116.577 84.2041 116.577 86.1565C116.577 88.0716 116.54 89.1222 116.466 89.3081C116.261 89.9403 115.88 90.2657 115.322 90.2843C114.764 90.3215 114.327 90.0333 114.011 89.4197C113.881 89.1408 113.816 86.5934 113.816 81.7776C113.835 76.9432 113.918 74.3773 114.067 74.0798C114.253 73.6707 114.523 73.4011 114.876 73.2709ZM102.883 74.6934C103.496 74.6004 103.961 74.7398 104.277 75.1117C104.445 75.3348 104.538 75.5394 104.556 75.7253C104.593 75.9113 104.621 76.4412 104.64 77.3151C104.64 77.4081 104.64 77.5382 104.64 77.7056C104.64 78.3563 104.658 78.7375 104.696 78.8491C104.733 78.9606 104.863 79.0257 105.086 79.0443C105.142 79.0443 105.188 79.0443 105.226 79.0443C105.467 79.0629 105.681 79.0908 105.867 79.128C106.09 79.1838 106.388 79.2117 106.76 79.2117C107.131 79.1931 107.336 79.1652 107.373 79.128C107.429 79.0722 107.466 78.7654 107.485 78.2076C107.522 77.6312 107.531 77.1663 107.513 76.8131C107.457 76.0879 107.615 75.5115 107.987 75.0838C108.359 74.6562 108.777 74.5632 109.242 74.8049C109.335 74.8607 109.409 74.8886 109.465 74.8886C109.502 74.8886 109.577 74.9537 109.688 75.0838C109.818 75.214 109.911 75.3255 109.967 75.4185C110.134 75.716 110.209 76.2273 110.19 76.9525C110.19 77.1199 110.19 77.4267 110.19 77.8729C110.19 78.3192 110.181 78.6353 110.162 78.8212C110.162 79.4906 110.134 80.3273 110.079 81.3314C110.041 82.3168 110.014 82.8282 109.995 82.8654C109.976 82.9025 109.939 83.3674 109.883 84.2599C109.828 85.4127 109.725 86.1937 109.577 86.6027C109.446 86.9932 109.167 87.2814 108.74 87.4673C108.498 87.5975 107.624 87.644 106.118 87.6068C104.631 87.5696 103.682 87.4859 103.273 87.3558C102.604 87.1326 102.176 86.7887 101.99 86.3238C101.823 85.8404 101.776 84.8735 101.851 83.4232C101.888 82.7724 101.916 81.2942 101.934 78.9885C101.953 76.7387 102 75.5487 102.074 75.4185C102.13 75.307 102.213 75.1954 102.325 75.0838C102.437 74.9537 102.511 74.8886 102.548 74.8886C102.585 74.8886 102.632 74.8607 102.688 74.8049C102.725 74.7677 102.79 74.7305 102.883 74.6934ZM107.234 82.2239C107.178 82.1495 106.741 82.1123 105.923 82.1123C105.123 82.1123 104.696 82.1495 104.64 82.2239C104.603 82.2796 104.575 82.5586 104.556 83.0606C104.538 83.5626 104.538 83.9159 104.556 84.1204C104.575 84.4179 104.621 84.5853 104.696 84.6225C104.77 84.6597 105.04 84.7061 105.504 84.7619C106.174 84.8177 106.602 84.827 106.787 84.7898C106.992 84.734 107.131 84.6039 107.206 84.3993C107.243 84.2506 107.271 83.8694 107.29 83.2558C107.308 82.6236 107.29 82.2796 107.234 82.2239ZM127.248 70.6213C127.75 70.3796 128.234 70.4818 128.699 70.9281C129.033 71.2442 129.182 71.5789 129.145 71.9322C129.126 72.2855 128.931 72.7038 128.559 73.1873C128.373 73.429 128.289 73.6056 128.308 73.7172C128.345 73.8101 128.513 73.9775 128.81 74.2192C129.089 74.4237 129.312 74.6097 129.479 74.777C129.554 74.8514 129.796 75.0652 130.205 75.4185C130.948 76.0507 131.385 76.5899 131.515 77.0362C131.664 77.4638 131.543 77.8543 131.153 78.2076C130.781 78.5423 130.381 78.6631 129.954 78.5702C129.526 78.4586 129.005 78.1239 128.392 77.5661C127.629 76.8595 127.146 76.4319 126.941 76.2831C126.755 76.1158 126.635 76.0414 126.579 76.06C126.467 76.0972 126.049 76.6643 125.324 77.7613C124.506 78.9513 123.808 79.4162 123.232 79.1559C122.823 78.9513 122.563 78.784 122.451 78.6538C122.302 78.4493 122.219 78.2076 122.2 77.9287C122.181 77.6312 122.246 77.3709 122.395 77.1477C122.748 76.5527 123.371 75.5952 124.264 74.275C125.082 73.0664 125.603 72.3505 125.826 72.1274C125.919 72.0158 126.058 71.8206 126.244 71.5417C126.542 71.0954 126.876 70.7886 127.248 70.6213ZM130.567 80.7178C131.683 80.6806 132.399 80.6713 132.715 80.6899C133.031 80.7085 133.254 80.7549 133.384 80.8293C133.923 81.1454 134.184 81.5545 134.165 82.0565C134.147 82.5586 133.858 82.9583 133.3 83.2558C133.189 83.3116 132.743 83.3581 131.962 83.3953C130.511 83.4325 128.829 83.4975 126.913 83.5905C125.872 83.6463 124.924 83.6928 124.069 83.73C123.715 83.73 123.251 83.7486 122.674 83.7857C122.116 83.8043 121.8 83.8136 121.726 83.8136C120.759 83.8508 120.145 83.5905 119.885 83.0327C119.625 82.4935 119.699 81.9914 120.108 81.5266C120.313 81.3221 120.527 81.2012 120.75 81.164C120.991 81.1082 121.651 81.071 122.73 81.0525C123.994 81.0153 124.868 80.9781 125.352 80.9409C125.854 80.9037 126.402 80.8851 126.997 80.8851C127.592 80.8851 128.066 80.8665 128.42 80.8293C128.717 80.7921 129.433 80.7549 130.567 80.7178ZM127.081 84.6504C127.527 84.4086 127.918 84.3808 128.252 84.5667C128.364 84.6225 128.485 84.7154 128.615 84.8456C128.764 84.9758 128.838 85.0594 128.838 85.0966C128.838 85.1338 128.866 85.1803 128.922 85.2361C129.07 85.3662 129.08 85.6451 128.95 86.0728C128.819 86.4819 128.596 86.8723 128.28 87.2442C128.057 87.5231 127.945 87.709 127.945 87.802C127.945 87.8764 128.057 87.9973 128.28 88.1646C128.299 88.2018 128.494 88.3226 128.866 88.5272C128.94 88.583 129.024 88.648 129.117 88.7224C129.228 88.7782 129.312 88.8247 129.368 88.8619C129.442 88.8991 129.498 88.9269 129.535 88.9455C129.591 88.9827 130.009 89.2337 130.79 89.6986C131.515 90.1448 131.999 90.4888 132.241 90.7305C132.482 90.9909 132.603 91.2884 132.603 91.6231C132.603 91.8648 132.52 92.1158 132.352 92.3761C132.185 92.6364 132.018 92.7666 131.85 92.7666C131.794 92.7666 131.729 92.7945 131.655 92.8502C131.432 93.0176 131.088 92.9897 130.623 92.7666C130.028 92.4691 129.693 92.2645 129.619 92.153C129.582 92.1344 129.526 92.1065 129.452 92.0693C129.433 92.0507 129.349 92.0042 129.201 91.9299C129.145 91.8927 129.033 91.8276 128.866 91.7346C128.773 91.6788 128.661 91.6045 128.531 91.5115C128.494 91.4929 128.438 91.465 128.364 91.4278C127.992 91.2419 127.536 90.963 126.997 90.5911C126.57 90.2936 126.291 90.117 126.16 90.0612C126.049 89.9868 125.956 89.9775 125.882 90.0333C125.807 90.0705 125.547 90.3308 125.101 90.8142C124.654 91.3163 124.273 91.7532 123.957 92.1251C123.511 92.6829 123.111 93.0176 122.758 93.1292C122.349 93.2593 122.116 93.2779 122.061 93.1849C122.042 93.1477 121.977 93.1199 121.865 93.1013C121.586 93.0455 121.363 92.8317 121.196 92.4598C121.029 92.0879 121.01 91.7811 121.14 91.5394C121.196 91.4278 121.224 91.3627 121.224 91.3441C121.224 91.307 121.28 91.1954 121.391 91.0095C121.521 90.8235 121.605 90.712 121.642 90.6748C121.679 90.6562 121.8 90.5167 122.005 90.2564C122.284 89.9031 122.711 89.4011 123.288 88.7503C123.474 88.5644 123.576 88.4528 123.594 88.4156C123.594 88.4156 123.604 88.397 123.622 88.3598C123.66 88.3226 123.706 88.2762 123.762 88.2204C123.818 88.1646 123.855 88.1181 123.873 88.0809C124.357 87.5045 124.729 87.0862 124.989 86.8258C125.008 86.8072 125.045 86.7608 125.101 86.6864C125.175 86.5934 125.268 86.4819 125.38 86.3517C125.491 86.2215 125.593 86.11 125.686 86.017C126.133 85.4964 126.43 85.1617 126.579 85.0129C126.746 84.8642 126.913 84.7433 127.081 84.6504ZM139.718 70.9002C139.959 70.8258 140.201 70.8258 140.443 70.9002C140.833 71.0118 141.094 71.2163 141.224 71.5138C141.354 71.8113 141.438 72.3877 141.475 73.243C141.475 73.336 141.475 73.4662 141.475 73.6335C141.493 74.0984 141.54 74.368 141.614 74.4423C141.707 74.4981 142.014 74.4981 142.535 74.4423C142.702 74.4423 142.842 74.433 142.953 74.4144C143.734 74.3587 144.292 74.619 144.627 75.1954C144.775 75.4185 144.812 75.6974 144.738 76.0321C144.664 76.3668 144.515 76.6271 144.292 76.8131C144.069 76.9804 143.892 77.092 143.762 77.1477C143.632 77.1849 143.362 77.2128 142.953 77.2314C142.209 77.2872 141.8 77.3151 141.726 77.3151C141.001 77.3709 139.337 77.4267 136.733 77.4824C136.027 77.501 135.516 77.4174 135.199 77.2314C134.883 77.0269 134.725 76.6922 134.725 76.2273C134.725 75.7067 134.911 75.3348 135.283 75.1117C135.674 74.8886 136.343 74.7584 137.291 74.7212C138.295 74.6841 138.797 74.5818 138.797 74.4144C138.797 74.3587 138.779 73.9775 138.742 73.2709C138.704 72.5644 138.723 72.0995 138.797 71.8764C138.853 71.6719 138.965 71.4766 139.132 71.2907C139.318 71.1047 139.513 70.9746 139.718 70.9002ZM139.244 77.5382C139.244 77.4824 139.327 77.4545 139.495 77.4545C139.662 77.4359 139.82 77.4545 139.969 77.5103C140.062 77.5475 140.257 77.5847 140.554 77.6219C141.242 77.6963 141.856 77.9566 142.395 78.4028C142.934 78.8491 143.269 79.3697 143.399 79.9647C143.399 79.9833 143.427 80.1228 143.483 80.3831C143.65 80.9781 143.585 81.6475 143.288 82.3912C142.99 83.135 142.581 83.6835 142.061 84.0368C141.038 84.7433 139.941 84.9014 138.769 84.5109C137.598 84.1204 136.799 83.3395 136.371 82.1681C136.315 81.9635 136.287 81.6382 136.287 81.1919C136.287 80.7271 136.315 80.3924 136.371 80.1878C136.613 79.5556 136.882 79.035 137.18 78.626C137.477 78.1983 137.738 77.9845 137.961 77.9845C138.016 77.9845 138.295 77.8822 138.797 77.6777C138.909 77.6405 139.011 77.6219 139.104 77.6219C139.197 77.6219 139.244 77.594 139.244 77.5382ZM140.554 80.4946C140.406 80.3831 140.173 80.3366 139.857 80.3552C139.541 80.3738 139.327 80.4482 139.216 80.5783C139.123 80.6713 139.067 80.8479 139.048 81.1082C139.048 81.35 139.086 81.5266 139.16 81.6382C139.272 81.7683 139.457 81.8613 139.718 81.9171C139.978 81.9543 140.192 81.9171 140.359 81.8055C140.582 81.6568 140.713 81.4336 140.75 81.1361C140.805 80.8386 140.74 80.6248 140.554 80.4946ZM141.28 85.4313C141.428 85.3755 141.521 85.3569 141.559 85.3755C141.596 85.3755 141.717 85.4034 141.921 85.4592C142.349 85.5894 142.609 85.8032 142.702 86.1007C142.795 86.3796 142.832 87.049 142.814 88.1088C142.814 88.9269 142.814 89.4104 142.814 89.5591C142.814 89.7079 142.851 89.8009 142.925 89.838C143 89.8938 143.836 89.931 145.435 89.9496C146.663 89.9682 147.443 89.9961 147.778 90.0333C148.113 90.0519 148.336 90.117 148.448 90.2285C148.503 90.2843 148.55 90.3122 148.587 90.3122C148.661 90.3122 148.773 90.4423 148.922 90.7027C149.089 90.9816 149.173 91.1861 149.173 91.3163C149.173 91.5394 149.089 91.7718 148.922 92.0135C148.754 92.2738 148.541 92.4691 148.28 92.5992L147.946 92.7666H145.184C143.362 92.7666 142.312 92.748 142.033 92.7108C140.675 92.5249 139.987 91.8369 139.969 90.6469C139.969 88.1181 140.052 86.6678 140.22 86.2959C140.313 86.1286 140.443 85.9612 140.61 85.7939C140.778 85.6079 140.908 85.515 141.001 85.515C141.038 85.515 141.131 85.4871 141.28 85.4313ZM147.443 71.7927C148.02 71.7369 148.448 71.8578 148.726 72.1553C149.005 72.4528 149.145 72.8712 149.145 73.4104V74.9165C149.145 76.0879 149.163 76.7666 149.201 76.9525C149.219 77.0083 149.284 77.0455 149.396 77.0641C149.452 77.0827 149.768 77.092 150.344 77.092C150.716 77.1106 151.004 77.1291 151.209 77.1477C151.413 77.1663 151.525 77.1756 151.543 77.1756C151.86 77.1756 152.129 77.2965 152.352 77.5382C152.575 77.7799 152.687 78.0774 152.687 78.4307C152.687 78.8584 152.52 79.2488 152.185 79.6021C151.98 79.7881 151.794 79.8903 151.627 79.9089C151.497 79.9275 151.051 79.9368 150.288 79.9368C149.842 79.9368 149.554 80.0391 149.424 80.2436C149.294 80.4482 149.229 80.8386 149.229 81.415L149.256 82.7817C149.256 83.5998 149.238 84.139 149.201 84.3993C149.182 84.5853 149.08 84.7805 148.894 84.9851C148.671 85.1896 148.373 85.2918 148.001 85.2918C147.704 85.2918 147.434 85.2268 147.192 85.0966C146.969 84.9479 146.821 84.7526 146.746 84.5109C146.709 84.3993 146.681 84.3343 146.663 84.3157C146.607 84.2227 146.57 83.7765 146.551 82.9769L146.467 79.5463C146.412 78.877 146.384 77.6219 146.384 75.7811V73.0757C146.384 72.7038 146.486 72.4063 146.69 72.1832C146.895 71.9601 147.146 71.8299 147.443 71.7927ZM168.654 70.175C168.84 70.0821 169.1 70.0914 169.435 70.2029C169.863 70.3517 170.142 70.5841 170.272 70.9002C170.402 71.1977 170.486 71.7927 170.523 72.6852C170.541 73.2616 170.569 73.5963 170.607 73.6893C170.662 73.7637 170.811 73.7823 171.053 73.7451C171.983 73.6335 172.633 73.7823 173.005 74.1913C173.358 74.5818 173.489 74.9723 173.396 75.3627C173.303 75.7346 172.949 76.2366 172.336 76.8688C171.964 77.2593 171.778 77.4917 171.778 77.5661C171.778 77.6219 171.936 77.752 172.252 77.9566C172.959 78.4214 173.6 78.8956 174.177 79.379C174.455 79.6207 174.623 79.9182 174.679 80.2715C174.734 80.6248 174.669 80.9502 174.483 81.2477C174.316 81.4708 174.065 81.6382 173.73 81.7497C173.396 81.8427 173.126 81.8334 172.922 81.7218C172.81 81.666 172.736 81.6382 172.698 81.6382C172.661 81.6382 172.401 81.4801 171.917 81.164C171.434 80.8479 171.071 80.5969 170.83 80.411C170.662 80.2994 170.551 80.2157 170.495 80.1599C170.421 80.1228 170.356 80.0856 170.3 80.0484C170.002 79.7695 169.77 79.6393 169.603 79.6579C169.435 79.6765 169.175 79.8624 168.822 80.2157C167.91 81.0896 167.288 81.666 166.953 81.945C166.618 82.2239 166.349 82.3912 166.144 82.447C165.605 82.6143 165.159 82.4935 164.805 82.0844C164.452 81.6753 164.387 81.2105 164.61 80.6899C164.703 80.4667 165.131 79.974 165.893 79.2117C166.655 78.4307 167.315 77.8171 167.873 77.3709C168.227 77.092 168.385 76.8967 168.347 76.7852C168.329 76.6736 168.124 76.655 167.734 76.7294C167.511 76.7852 166.618 76.8595 165.056 76.9525C164.35 76.9897 163.857 76.7573 163.578 76.2552C163.318 75.7532 163.392 75.2419 163.801 74.7212C164.062 74.4052 165.084 74.1913 166.869 74.0798C167.39 74.024 167.659 73.9868 167.678 73.9682C167.715 73.931 167.734 73.4383 167.734 72.49C167.734 71.6533 167.78 71.114 167.873 70.8723C167.985 70.6306 168.245 70.3982 168.654 70.175ZM173.786 83.6463C174.92 83.6091 175.673 83.637 176.045 83.73C176.436 83.8229 176.724 84.0554 176.91 84.4272C177.04 84.6875 177.04 85.0315 176.91 85.4592C176.798 85.8869 176.64 86.1007 176.436 86.1007C176.399 86.1007 176.38 86.1193 176.38 86.1565C176.38 86.3052 175.72 86.3982 174.4 86.4354C173.582 86.454 172.977 86.4726 172.587 86.4912C172.196 86.5097 171.871 86.5469 171.611 86.6027C171.35 86.6585 171.192 86.7236 171.136 86.798C171.099 86.8537 171.09 86.9467 171.109 87.0769C171.202 87.7276 171.248 88.8061 171.248 90.3122C171.248 91.8183 171.202 92.655 171.109 92.8224C170.941 93.1199 170.69 93.3151 170.356 93.4081C170.039 93.501 169.714 93.4731 169.379 93.3244C168.989 93.157 168.738 92.8224 168.626 92.3203C168.533 91.8369 168.468 90.7027 168.431 88.9176C168.412 87.4859 168.375 86.7422 168.32 86.6864C168.264 86.6306 167.65 86.6027 166.479 86.6027C165.326 86.5841 164.489 86.6027 163.969 86.6585C163.522 86.6957 163.206 86.6957 163.02 86.6585C162.834 86.6213 162.648 86.5004 162.462 86.2959C162.109 85.9612 161.97 85.5615 162.044 85.0966C162.137 84.6318 162.407 84.2971 162.853 84.0925C163.095 83.981 165.252 83.8973 169.324 83.8415C171.425 83.8043 172.522 83.7672 172.615 83.73C172.689 83.7114 173.08 83.6835 173.786 83.6463ZM191.291 70.7608C191.57 70.6306 191.868 70.6213 192.184 70.7329C192.5 70.8258 192.751 71.0118 192.937 71.2907C193.067 71.4952 193.142 71.8299 193.16 72.2947C193.197 72.7596 193.207 73.9124 193.188 75.7532C193.169 78.7654 193.123 80.5504 193.049 81.1082C192.993 81.666 192.779 82.0937 192.407 82.3912C192.203 82.54 191.933 82.5957 191.598 82.5586C191.264 82.5214 190.985 82.4005 190.762 82.196C190.557 81.9914 190.436 81.7776 190.399 81.5545C190.362 81.3314 190.362 80.8944 190.399 80.2436C190.473 78.9978 190.464 78.3285 190.371 78.2355C190.26 78.1239 189.702 78.096 188.698 78.1518C187.749 78.189 187.061 77.9659 186.634 77.4824C186.225 76.999 186.253 76.4598 186.717 75.8648C186.866 75.6416 187.043 75.5115 187.247 75.4743C187.452 75.4185 187.982 75.3906 188.837 75.3906C189.841 75.372 190.362 75.3441 190.399 75.307C190.436 75.2512 190.455 74.6283 190.455 73.4383C190.436 72.3784 190.473 71.709 190.566 71.4301C190.659 71.1512 190.901 70.9281 191.291 70.7608ZM181.167 72.741C181.26 72.6852 181.53 72.6573 181.976 72.6573C182.441 72.6573 182.71 72.6852 182.785 72.741C182.822 72.7782 182.906 72.8154 183.036 72.8526C183.501 72.9455 184.058 73.2988 184.709 73.9124C185.379 74.526 185.713 75.0002 185.713 75.3348C185.713 75.3906 185.741 75.465 185.797 75.558C185.964 75.9113 186.048 76.4598 186.048 77.2035C186.048 77.9287 185.964 78.4958 185.797 78.9049C185.741 79.0164 185.713 79.0908 185.713 79.128C185.713 79.1652 185.648 79.2953 185.518 79.5185C185.407 79.723 185.332 79.8531 185.295 79.9089C185.239 79.9647 185.211 80.0112 185.211 80.0484C185.211 80.1414 185.016 80.3738 184.626 80.7457C184.235 81.1175 183.984 81.3035 183.873 81.3035C183.817 81.3035 183.789 81.3221 183.789 81.3592C183.789 81.3964 183.77 81.415 183.733 81.415C183.696 81.415 183.603 81.4522 183.454 81.5266C182.394 82.01 181.269 81.9821 180.079 81.4429C178.908 80.8851 178.127 80.0484 177.737 78.9328C177.644 78.5981 177.588 78.1146 177.569 77.4824C177.551 76.8316 177.597 76.4505 177.709 76.3389C177.727 76.3017 177.755 76.2181 177.792 76.0879C177.811 75.9577 177.848 75.8462 177.904 75.7532C177.923 75.6974 177.978 75.5766 178.071 75.3906C178.257 75.0002 178.518 74.619 178.852 74.2471C179.187 73.8752 179.54 73.5684 179.912 73.3267C180.042 73.2523 180.237 73.1501 180.498 73.0199C180.758 72.8898 180.907 72.8247 180.944 72.8247C180.981 72.8247 181.056 72.7968 181.167 72.741ZM182.701 75.7811C182.218 75.5394 181.762 75.5394 181.334 75.7811C180.907 76.0228 180.581 76.4412 180.358 77.0362C180.247 77.3709 180.256 77.7242 180.386 78.096C180.516 78.4679 180.73 78.7282 181.028 78.877C181.307 79.0071 181.641 79.0536 182.032 79.0164C182.422 78.9792 182.683 78.877 182.813 78.7096C183.222 78.2076 183.408 77.6498 183.371 77.0362C183.352 76.404 183.129 75.9856 182.701 75.7811ZM182.757 84.2599C183.203 84.1483 184.923 84.1483 187.917 84.2599C188.791 84.2971 189.544 84.3157 190.176 84.3157C190.752 84.3157 191.152 84.3622 191.375 84.4551C191.598 84.5295 191.803 84.7061 191.989 84.9851C192.156 85.2454 192.258 85.4964 192.296 85.7381C192.351 85.9798 192.389 86.5469 192.407 87.4394C192.519 90.0612 192.416 91.7067 192.1 92.3761C191.877 92.841 191.505 93.092 190.985 93.1292C190.464 93.1663 190.055 92.9711 189.758 92.5434C189.683 92.4133 189.637 92.2274 189.618 91.9856C189.618 91.7625 189.618 91.0188 189.618 89.7544C189.637 88.4714 189.637 87.7276 189.618 87.5231C189.618 87.3 189.581 87.1791 189.506 87.1605C189.414 87.1233 188.93 87.0955 188.056 87.0769C187.182 87.0397 186.466 87.0304 185.909 87.049C184.57 87.0676 183.659 87.049 183.175 86.9932C182.692 86.9188 182.311 86.7422 182.032 86.4633C181.827 86.2587 181.697 85.9891 181.641 85.6544C181.604 85.3197 181.669 85.0873 181.837 84.9572C181.874 84.92 181.892 84.8735 181.892 84.8177C181.892 84.7433 181.985 84.6411 182.171 84.5109C182.376 84.3808 182.571 84.2971 182.757 84.2599ZM214.962 72.6573C215.148 72.6201 215.381 72.6294 215.66 72.6852C216.106 72.7596 216.431 73.0571 216.636 73.5777C216.71 73.7451 216.747 75.0002 216.747 77.343C216.747 79.6672 216.72 81.0896 216.664 81.6103C216.589 82.3354 216.385 82.8468 216.05 83.1443C215.716 83.4418 215.148 83.6184 214.349 83.6742C214.312 83.6928 214.265 83.7021 214.209 83.7021C213.931 83.7207 213.763 83.8043 213.707 83.9531C213.67 84.1018 213.652 84.6132 213.652 85.4871C213.652 85.6544 213.652 85.7939 213.652 85.9054C213.652 87.1884 213.68 87.8578 213.735 87.9136C213.791 87.9508 214.479 87.9601 215.799 87.9415C215.911 87.9229 216.06 87.9136 216.245 87.9136C217.733 87.8764 218.616 87.8764 218.895 87.9136C219.193 87.9508 219.453 88.0902 219.676 88.3319C219.695 88.3691 219.713 88.397 219.732 88.4156C220.085 88.7875 220.141 89.2152 219.899 89.6986C219.676 90.182 219.276 90.4702 218.7 90.5632C218.44 90.619 217.454 90.6562 215.743 90.6748C214.219 90.712 212.861 90.7491 211.671 90.7863C209.143 90.8793 207.534 90.9258 206.846 90.9258C206.177 90.9258 205.731 90.8793 205.508 90.7863C204.987 90.5632 204.699 90.182 204.643 89.6428C204.606 89.085 204.82 88.6666 205.284 88.3877C205.693 88.146 206.419 88.0716 207.46 88.1646C207.943 88.2204 208.343 88.2297 208.659 88.1925C208.957 88.1553 209.384 88.1181 209.942 88.0809C210.017 88.0809 210.109 88.0809 210.221 88.0809C210.574 88.0809 210.779 88.0158 210.835 87.8857C210.89 87.7369 210.9 87.2628 210.863 86.4633C210.863 86.2401 210.853 86.0542 210.835 85.9054C210.835 85.8869 210.835 85.8404 210.835 85.766C210.797 84.7991 210.76 84.232 210.723 84.0647C210.704 83.8973 210.602 83.8136 210.416 83.8136C210.398 83.8136 210.388 83.8136 210.388 83.8136C209.756 83.8136 209.217 83.6742 208.771 83.3953C208.343 83.1164 208.055 82.7166 207.906 82.196C207.795 81.7683 207.711 80.318 207.655 77.845C207.599 75.372 207.627 74.0147 207.739 73.773C207.943 73.3081 208.278 73.0292 208.743 72.9362C209.226 72.8247 209.635 72.9362 209.97 73.2709C210.175 73.4569 210.295 73.6521 210.333 73.8566C210.388 74.0612 210.426 74.5074 210.444 75.1954C210.463 75.9577 210.509 76.3854 210.584 76.4784C210.677 76.5713 211.03 76.5899 211.643 76.5341C211.978 76.497 212.406 76.4598 212.926 76.4226C213.466 76.404 213.763 76.3482 213.819 76.2552C213.893 76.1437 213.931 75.6974 213.931 74.9165C213.931 74.0798 213.94 73.6149 213.958 73.5219C214.033 73.2988 214.163 73.1129 214.349 72.9641C214.535 72.7968 214.739 72.6945 214.962 72.6573ZM213.819 79.4069C213.763 79.3511 213.642 79.3139 213.456 79.2953C213.27 79.2767 213.159 79.286 213.122 79.3232C213.103 79.3418 212.722 79.379 211.978 79.4348C211.197 79.5092 210.751 79.6021 210.639 79.7137C210.528 79.8067 210.509 80.1414 210.584 80.7178L210.612 80.8851L212.201 80.8572C212.276 80.8572 212.378 80.8572 212.508 80.8572C213.27 80.8572 213.707 80.8293 213.819 80.7735C213.949 80.7178 214.005 80.5132 213.986 80.1599C213.986 80.1042 213.977 80.067 213.958 80.0484C213.94 79.6765 213.893 79.4627 213.819 79.4069ZM235.246 73.2988C235.358 73.243 235.507 73.2151 235.693 73.2151C235.879 73.1966 235.99 73.2058 236.027 73.243C236.065 73.2802 236.148 73.3174 236.278 73.3546C236.39 73.3918 236.511 73.4755 236.641 73.6056C236.79 73.7358 236.883 73.8566 236.92 73.9682C236.939 74.0612 236.966 74.1262 237.004 74.1634C237.115 74.3122 237.124 74.7863 237.031 75.5859C236.976 76.0507 236.92 79.9833 236.864 87.3837C236.846 88.3133 236.808 88.9548 236.753 89.3081C236.697 89.6428 236.585 89.8938 236.418 90.0612C236.065 90.4145 235.656 90.526 235.191 90.3959C234.726 90.2843 234.4 89.9868 234.215 89.5034C234.159 89.3918 234.131 88.7131 234.131 87.4673C234.149 86.2215 234.187 84.9479 234.242 83.6463C234.242 83.5905 234.242 83.5068 234.242 83.3953C234.28 83.042 234.224 82.8375 234.075 82.7817C233.926 82.7073 233.406 82.6329 232.513 82.5586C232.234 82.54 232.011 82.5214 231.844 82.5028C230.747 82.4284 230.096 82.3354 229.891 82.2239C229.352 81.9078 229.092 81.4615 229.111 80.8851C229.148 80.3087 229.455 79.9368 230.031 79.7695C230.235 79.6951 230.747 79.6858 231.565 79.7416C232.848 79.7974 233.592 79.8253 233.796 79.8253C234.001 79.8253 234.122 79.7974 234.159 79.7416C234.215 79.6486 234.252 78.7654 234.27 77.092C234.289 76.1995 234.307 75.5673 234.326 75.1954C234.345 74.8049 234.391 74.4609 234.466 74.1634C234.54 73.8473 234.624 73.6521 234.717 73.5777C234.828 73.4848 235.005 73.3918 235.246 73.2988ZM225.457 74.777C225.866 74.7027 226.219 74.6841 226.517 74.7212C226.833 74.7584 227.102 74.7863 227.326 74.8049C227.549 74.8235 227.735 74.9165 227.883 75.0838C228.051 75.2326 228.181 75.3906 228.274 75.558C228.385 75.7253 228.469 75.9763 228.525 76.311C228.581 76.6457 228.618 76.999 228.636 77.3709C228.655 77.7427 228.664 78.2169 228.664 78.7933C228.664 79.9461 228.571 80.7642 228.385 81.2477C228.218 81.7125 227.883 82.0193 227.381 82.1681C227.307 82.1867 227.242 82.2146 227.186 82.2518C227.149 82.2889 226.898 82.3261 226.433 82.3633C225.968 82.3819 225.708 82.4098 225.652 82.447C225.596 82.4656 225.215 82.4935 224.509 82.5307C223.821 82.5493 223.449 82.5864 223.393 82.6422C223.356 82.6794 223.337 83.1629 223.337 84.0925C223.356 85.0036 223.384 85.4964 223.421 85.5708C223.458 85.6265 224.211 85.6544 225.68 85.6544C227.149 85.6544 227.911 85.6916 227.967 85.766C228.041 85.8218 228.097 85.8497 228.134 85.8497C228.172 85.8497 228.274 85.9147 228.441 86.0449C228.832 86.3982 228.952 86.8258 228.804 87.3279C228.674 87.8299 228.348 88.1646 227.828 88.3319C227.381 88.4807 226.452 88.5179 225.038 88.4435C224.165 88.4063 223.393 88.3691 222.724 88.3319C222.129 88.3133 221.701 88.2483 221.441 88.1367C221.199 88.0251 220.985 87.802 220.799 87.4673C220.725 87.3186 220.66 86.2494 220.604 84.2599C220.567 82.2703 220.595 81.2291 220.688 81.1361C220.725 81.0989 220.743 81.0525 220.743 80.9967C220.743 80.9223 220.808 80.8014 220.939 80.6341C221.087 80.4482 221.217 80.318 221.329 80.2436C221.534 80.0949 221.766 79.9926 222.026 79.9368C222.305 79.8624 222.779 79.7974 223.449 79.7416C223.932 79.7044 224.248 79.6672 224.397 79.63C224.583 79.5928 224.834 79.5556 225.15 79.5185C225.596 79.4813 225.857 79.4069 225.931 79.2953C226.005 79.1838 226.024 78.8863 225.987 78.4028C225.931 77.9752 225.875 77.7242 225.819 77.6498C225.782 77.5754 225.652 77.5475 225.429 77.5661C225.15 77.6033 224.732 77.6405 224.174 77.6777C223.616 77.7334 223.123 77.7892 222.696 77.845C222.268 77.9194 221.952 77.938 221.747 77.9008C221.561 77.8636 221.375 77.752 221.19 77.5661C220.818 77.1756 220.688 76.7201 220.799 76.1995C220.911 75.6788 221.217 75.3534 221.719 75.2233C221.812 75.2047 221.878 75.1768 221.915 75.1396C221.97 75.121 222.138 75.0931 222.417 75.0559C222.733 75.0187 222.928 74.9909 223.002 74.9723C223.151 74.9537 223.504 74.9258 224.062 74.8886C224.49 74.8514 224.955 74.8142 225.457 74.777ZM251.986 70.454C252.209 70.4168 252.441 70.4447 252.683 70.5376C252.943 70.612 253.148 70.7236 253.297 70.8723C253.464 71.0954 253.566 71.3465 253.603 71.6254C253.659 71.9043 253.687 72.4249 253.687 73.1873C253.687 73.9868 253.706 74.4423 253.743 74.5539C253.799 74.6469 254.012 74.6748 254.384 74.6376C255.909 74.5632 256.764 74.5632 256.95 74.6376C257.062 74.6934 257.183 74.777 257.313 74.8886C257.443 75.0002 257.508 75.0838 257.508 75.1396C257.508 75.1768 257.536 75.2047 257.592 75.2233C257.648 75.2419 257.685 75.307 257.703 75.4185C257.741 75.5301 257.768 75.5952 257.787 75.6137C257.824 75.6509 257.843 75.7439 257.843 75.8927C257.843 76.0414 257.815 76.153 257.759 76.2273C257.703 76.3389 257.675 76.4226 257.675 76.4784C257.675 76.5341 257.61 76.6271 257.48 76.7573C257.35 76.8874 257.229 76.9897 257.118 77.0641C256.895 77.1756 256.169 77.2686 254.942 77.343C254.254 77.3988 253.873 77.4545 253.799 77.5103C253.668 77.6219 253.622 78.1797 253.659 79.1838C253.715 80.318 253.641 81.0339 253.436 81.3314C253.139 81.7218 252.748 81.8985 252.265 81.8613C251.781 81.8241 251.391 81.5824 251.093 81.1361C251 80.9874 250.944 79.3604 250.926 76.2552C250.926 73.1501 250.972 71.5045 251.065 71.3186C251.307 70.8351 251.614 70.5469 251.986 70.454ZM244.232 72.0716C245.515 71.9415 246.324 71.9508 246.659 72.0995C247.198 72.3412 247.533 72.7131 247.663 73.2151C247.811 73.7172 247.774 74.4144 247.551 75.307C247.533 75.3441 247.486 75.5301 247.412 75.8648C247.3 76.404 247.151 76.999 246.965 77.6498C246.761 78.4307 246.631 78.9792 246.575 79.2953C246.538 79.4813 246.501 79.6114 246.463 79.6858C246.426 79.7416 246.408 79.8346 246.408 79.9647C246.408 80.0949 246.343 80.2901 246.212 80.5504C246.101 80.8107 245.98 80.9967 245.85 81.1082C245.515 81.4243 245.134 81.5359 244.706 81.4429C244.279 81.35 243.962 81.0896 243.758 80.662C243.628 80.3831 243.628 79.974 243.758 79.4348C243.832 79.1187 243.925 78.7468 244.037 78.3192C244.037 78.282 244.055 78.1983 244.093 78.0681C244.13 77.9194 244.158 77.8171 244.176 77.7613C244.214 77.5568 244.251 77.3802 244.288 77.2314C244.306 77.0641 244.334 76.9153 244.372 76.7852C244.558 76.1902 244.688 75.6045 244.762 75.028L244.79 74.777H243.87C243.237 74.777 242.689 74.7956 242.224 74.8328C241.685 74.8886 241.276 74.8793 240.997 74.8049C240.736 74.7119 240.513 74.526 240.327 74.2471C240.234 74.0984 240.179 73.8845 240.16 73.6056C240.141 73.3267 240.179 73.1408 240.272 73.0478C240.327 72.992 240.355 72.9455 240.355 72.9083C240.355 72.8526 240.439 72.7503 240.606 72.6015C240.811 72.4342 241.034 72.3226 241.276 72.2669C241.536 72.1925 241.973 72.1553 242.587 72.1553C243.275 72.1553 243.823 72.1274 244.232 72.0716ZM250.145 82.6422C251.763 82.5678 252.692 82.605 252.934 82.7538C253.064 82.8282 253.194 82.949 253.325 83.1164C253.473 83.2837 253.557 83.4139 253.576 83.5068C253.594 83.5812 253.622 83.6649 253.659 83.7579C253.696 83.8508 253.715 84.4086 253.715 85.4313C253.715 86.0449 253.706 86.5283 253.687 86.8816C253.668 87.2163 253.603 87.5417 253.492 87.8578C253.399 88.1553 253.287 88.3784 253.157 88.5272C253.046 88.6573 252.841 88.7782 252.544 88.8898C252.246 88.9827 251.93 89.0478 251.595 89.085C251.279 89.1222 250.824 89.1501 250.229 89.1687C249.225 89.2059 248.546 89.243 248.193 89.2802C247.858 89.3174 247.458 89.336 246.993 89.336C246.621 89.336 246.398 89.3639 246.324 89.4197C246.268 89.4569 246.24 89.6428 246.24 89.9775C246.24 90.0147 246.24 90.0612 246.24 90.117C246.222 90.3773 246.315 90.526 246.519 90.5632C246.742 90.6004 247.495 90.619 248.778 90.619C249.132 90.619 249.41 90.619 249.615 90.619C249.708 90.619 249.847 90.619 250.033 90.619C251.465 90.6376 252.311 90.6562 252.571 90.6748C252.832 90.6934 253.036 90.7863 253.185 90.9537C253.204 90.9723 253.213 90.9909 253.213 91.0095C253.548 91.3627 253.668 91.7439 253.576 92.153C253.501 92.5806 253.241 92.906 252.795 93.1292C252.46 93.3151 251.112 93.3802 248.75 93.3244C246.389 93.2872 245.004 93.1756 244.595 92.9897C244.223 92.8038 243.953 92.5527 243.786 92.2367C243.619 91.9391 243.507 91.5022 243.451 90.9258C243.34 89.2523 243.433 88.1739 243.73 87.6905C243.972 87.3 244.241 87.0397 244.539 86.9095C244.836 86.7794 245.338 86.705 246.045 86.6864C246.659 86.6678 247.04 86.6399 247.189 86.6027C247.337 86.5655 247.793 86.5469 248.555 86.5469C249.968 86.5469 250.786 86.4912 251.01 86.3796C251.065 86.3424 251.093 86.1658 251.093 85.8497C251.075 85.5522 251.028 85.3755 250.954 85.3197C250.879 85.2454 250.684 85.2361 250.368 85.2918C250.126 85.329 249.159 85.3662 247.467 85.4034C245.794 85.4406 244.864 85.4406 244.678 85.4034C244.083 85.3104 243.693 85.0222 243.507 84.5388C243.321 84.0554 243.423 83.5905 243.814 83.1443C244 82.9583 244.204 82.8468 244.427 82.8096C244.65 82.7724 245.422 82.7445 246.742 82.7259C248.49 82.6887 249.624 82.6608 250.145 82.6422ZM274.864 73.7451C275.404 73.4662 275.906 73.5312 276.371 73.9403C276.594 74.1262 276.724 74.3959 276.761 74.7491C276.798 75.1024 276.78 76.0879 276.705 77.7056C276.687 78.5237 276.659 80.569 276.622 83.8415C276.584 86.5562 276.547 88.1646 276.51 88.6666C276.473 89.1687 276.38 89.5219 276.231 89.7265C275.878 90.1355 275.441 90.3029 274.92 90.2285C274.4 90.1355 274.065 89.8473 273.916 89.3639C273.86 89.1966 273.832 88.6016 273.832 87.5789C273.851 86.5376 273.888 85.4871 273.944 84.4272C273.981 83.5533 273.991 83.0978 273.972 83.0606C273.86 82.9676 273.423 82.9025 272.661 82.8654C271.899 82.8282 271.49 82.8561 271.434 82.949C271.397 83.0234 271.369 83.637 271.35 84.7898C271.332 85.924 271.341 86.6864 271.378 87.0769C271.415 87.4859 271.415 87.802 271.378 88.0251C271.341 88.2297 271.248 88.4435 271.099 88.6666C270.95 88.8898 270.857 89.0013 270.82 89.0013C270.783 89.0013 270.737 89.0199 270.681 89.0571C270.495 89.2244 270.253 89.2895 269.956 89.2523C269.658 89.1966 269.398 89.0478 269.175 88.8061C268.877 88.5272 268.701 88.0437 268.645 87.3558C268.608 86.6678 268.608 84.6411 268.645 81.2756C268.682 78.8398 268.719 77.2965 268.756 76.6457C268.794 75.9763 268.868 75.5301 268.98 75.307C269.24 74.7863 269.649 74.5167 270.207 74.4981C270.765 74.4795 271.155 74.7305 271.378 75.2512C271.452 75.3813 271.49 75.5487 271.49 75.7532C271.508 75.9577 271.508 76.6178 271.49 77.7334C271.49 77.8636 271.49 78.0588 271.49 78.3192C271.471 79.1745 271.48 79.6765 271.518 79.8253C271.555 79.974 271.694 80.0484 271.936 80.0484C271.992 80.067 272.038 80.0763 272.075 80.0763C272.354 80.0949 272.68 80.1228 273.052 80.1599C273.461 80.2157 273.702 80.225 273.777 80.1878C273.87 80.1321 273.935 79.9554 273.972 79.6579C273.991 79.3046 274 78.5609 274 77.4267C274 76.0321 274.046 75.121 274.139 74.6934C274.251 74.2471 274.493 73.931 274.864 73.7451ZM262.146 75.3906C263.615 75.3534 264.545 75.3534 264.935 75.3906C265.326 75.4092 265.623 75.5115 265.828 75.6974C266.088 75.9391 266.256 76.2366 266.33 76.5899C266.423 76.9246 266.469 77.501 266.469 78.3192C266.469 79.8067 266.348 80.8479 266.107 81.4429C265.884 82.0193 265.428 82.4563 264.74 82.7538C264.61 82.8096 263.996 82.8468 262.899 82.8654C261.97 82.8839 261.421 82.9211 261.254 82.9769C261.086 83.0141 261.021 83.1257 261.059 83.3116C261.077 83.4046 261.096 83.8136 261.114 84.5388C261.114 84.6318 261.114 84.7526 261.114 84.9014C261.114 85.3662 261.179 85.6358 261.31 85.7102C261.458 85.7846 261.951 85.8218 262.788 85.8218C263.085 85.8218 263.318 85.8218 263.485 85.8218C264.842 85.8404 265.595 85.8869 265.744 85.9612C266.339 86.2773 266.581 86.7329 266.469 87.3279C266.376 87.9043 265.977 88.3041 265.27 88.5272C265.047 88.6016 264.405 88.6294 263.346 88.6109C262.286 88.5737 261.254 88.5086 260.25 88.4156C259.692 88.3412 259.292 88.1646 259.05 87.8857C258.827 87.5882 258.679 87.0862 258.604 86.3796C258.548 85.7474 258.502 85.2918 258.465 85.0129C258.427 84.5667 258.409 83.9066 258.409 83.0327C258.427 82.1402 258.465 81.601 258.52 81.415C258.632 80.9874 258.855 80.6899 259.19 80.5225C259.543 80.3366 260.082 80.225 260.808 80.1878C261.31 80.1692 261.719 80.1506 262.035 80.1321C262.407 80.0763 262.751 80.0391 263.067 80.0205C263.42 80.0019 263.624 79.9554 263.68 79.881C263.736 79.8067 263.764 79.5185 263.764 79.0164C263.764 78.5516 263.727 78.282 263.652 78.2076C263.597 78.1146 263.429 78.0867 263.15 78.1239C262.946 78.1425 262.546 78.1611 261.951 78.1797C261.319 78.2169 260.845 78.2541 260.529 78.2913C259.989 78.3656 259.59 78.3563 259.329 78.2634C258.976 78.1332 258.716 77.8822 258.548 77.5103C258.381 77.1384 258.372 76.7945 258.52 76.4784C258.706 76.0507 259.013 75.7718 259.441 75.6416C259.887 75.5115 260.789 75.4278 262.146 75.3906ZM286.371 73.1594C286.947 73.0664 287.617 73.1315 288.379 73.3546C288.416 73.3732 288.621 73.429 288.993 73.5219C289.123 73.5591 289.216 73.5963 289.272 73.6335C289.29 73.6335 289.318 73.6521 289.355 73.6893C289.411 73.7079 289.476 73.7358 289.55 73.773C289.643 73.8101 289.718 73.8473 289.774 73.8845C290.555 74.2564 291.159 74.8514 291.586 75.6695C292.014 76.4691 292.163 77.2872 292.033 78.1239C291.977 78.4586 291.94 78.6724 291.921 78.7654C291.903 78.9328 291.875 79.0257 291.838 79.0443C291.819 79.0815 291.81 79.128 291.81 79.1838C291.81 79.3883 291.531 79.8531 290.973 80.5783C290.415 81.2849 290.052 81.6382 289.885 81.6382C289.848 81.6382 289.829 81.6568 289.829 81.6939C289.829 81.7311 289.932 81.7497 290.136 81.7497C290.471 81.7497 290.768 81.8799 291.029 82.1402C291.233 82.3447 291.354 82.6236 291.391 82.9769C291.447 83.3302 291.484 84.232 291.503 85.6823C291.503 86.9839 291.521 87.6533 291.559 87.6905C291.577 87.7276 291.94 87.7462 292.646 87.7462C293.241 87.7462 293.623 87.7648 293.79 87.802C293.957 87.8392 294.152 87.9694 294.376 88.1925C294.766 88.5458 294.915 88.9362 294.822 89.3639C294.729 89.773 294.422 90.1262 293.901 90.4238C293.79 90.4795 293.623 90.5167 293.399 90.5353C293.195 90.5539 292.516 90.5632 291.363 90.5632C289.541 90.5632 287.505 90.5725 285.255 90.5911C282.764 90.6097 281.388 90.6004 281.127 90.5632C280.625 90.5074 280.254 90.2471 280.012 89.7823C279.77 89.2988 279.779 88.8619 280.04 88.4714C280.244 88.1925 280.495 88.0066 280.793 87.9136C281.09 87.8206 281.564 87.7927 282.215 87.8299C282.866 87.8671 283.238 87.8671 283.331 87.8299C283.424 87.7927 283.461 87.6347 283.442 87.3558C283.275 85.3476 283.275 83.9531 283.442 83.1721C283.61 82.3912 284 81.9635 284.614 81.8892C284.893 81.852 284.967 81.7776 284.837 81.666C284.781 81.5917 284.623 81.4615 284.363 81.2756C283.656 80.8107 283.145 80.318 282.829 79.7974C282.531 79.2767 282.364 78.6445 282.327 77.9008C282.327 77.5289 282.336 77.2686 282.355 77.1199C282.373 76.9711 282.448 76.7294 282.578 76.3947C282.875 75.5952 283.377 74.8979 284.084 74.3029C284.79 73.6893 285.553 73.3081 286.371 73.1594ZM288.072 76.1158C287.421 75.9298 286.826 75.9763 286.287 76.2552C285.748 76.5341 285.376 76.9618 285.172 77.5382C284.986 78.1146 285.153 78.5981 285.674 78.9885C286.213 79.3604 286.836 79.5092 287.542 79.4348C288.267 79.3418 288.751 79.0257 288.993 78.4865C289.588 77.2221 289.281 76.4319 288.072 76.1158ZM289.272 82.1123C289.439 81.945 289.495 81.8613 289.439 81.8613C289.346 81.8799 289.067 81.945 288.602 82.0565C288.416 82.1123 288.007 82.1495 287.375 82.1681C286.761 82.1681 286.306 82.1402 286.008 82.0844C285.729 82.0286 285.571 82.0193 285.534 82.0565C285.516 82.0751 285.571 82.1774 285.702 82.3633C285.887 82.6236 285.999 82.9118 286.036 83.2279C286.073 83.5254 286.101 84.3064 286.12 85.5708C286.138 87.0583 286.176 87.8206 286.231 87.8578C286.306 87.895 286.715 87.895 287.459 87.8578C288.202 87.8206 288.611 87.7834 288.686 87.7462C288.742 87.709 288.77 87.5882 288.77 87.3837C288.788 87.1791 288.797 86.4912 288.797 85.3197C288.797 83.9438 288.816 83.1257 288.853 82.8654C288.89 82.5864 289.03 82.3354 289.272 82.1123ZM300.027 72.4342C300.399 72.397 300.705 72.397 300.947 72.4342C301.226 72.49 301.468 72.5272 301.672 72.5458C302.119 72.6015 302.583 72.7968 303.067 73.1315C303.569 73.4662 304.006 73.8845 304.378 74.3866C304.526 74.5911 304.601 74.7119 304.601 74.7491C304.601 74.7677 304.647 74.8514 304.74 75.0002C304.833 75.1303 304.908 75.2884 304.963 75.4743C305.019 75.6788 305.075 75.8648 305.131 76.0321C305.261 76.3482 305.307 76.8781 305.27 77.6219C305.252 78.347 305.168 78.8677 305.019 79.1838C304.777 79.723 304.471 80.1692 304.099 80.5225C303.745 80.8758 303.271 81.2012 302.676 81.4987C302.304 81.6846 302.081 81.8055 302.007 81.8613C301.933 81.9357 301.83 81.9914 301.7 82.0286C301.142 82.196 300.854 82.8839 300.836 84.0925L300.808 85.0687L300.557 85.3755C300.203 85.7846 299.766 85.9519 299.246 85.8776C298.744 85.8032 298.381 85.515 298.158 85.0129C298.046 84.7712 298 84.2134 298.019 83.3395C298.056 82.4656 298.13 81.9543 298.242 81.8055C298.316 81.7497 298.372 81.6289 298.409 81.4429C298.465 81.257 298.53 81.1268 298.604 81.0525C298.66 80.9781 298.725 80.8758 298.8 80.7457C298.855 80.6155 299.013 80.4296 299.274 80.1878C299.534 79.9461 299.729 79.7881 299.859 79.7137C300.585 79.3604 301.068 79.1187 301.31 78.9885C301.57 78.8584 301.802 78.691 302.007 78.4865C302.212 78.282 302.314 78.1239 302.314 78.0124C302.314 77.8822 302.314 77.6405 302.314 77.2872C302.277 76.8224 302.174 76.4505 302.007 76.1716C301.84 75.8927 301.561 75.6602 301.17 75.4743C300.687 75.2512 300.278 75.2233 299.943 75.3906C299.776 75.4836 299.608 75.5487 299.441 75.5859C299.311 75.6416 299.199 75.7067 299.106 75.7811C298.586 76.153 298.325 76.3761 298.325 76.4505C298.325 76.5806 298.251 76.7945 298.102 77.092C297.954 77.3895 297.814 77.594 297.684 77.7056C297.479 77.8915 297.21 77.9938 296.875 78.0124C296.54 78.0124 296.252 77.9101 296.01 77.7056C295.415 77.2407 295.248 76.562 295.508 75.6695C295.769 74.777 296.345 74.0333 297.238 73.4383C297.777 73.1036 298.065 72.9362 298.102 72.9362C298.102 72.9362 298.223 72.8805 298.465 72.7689C298.688 72.6573 298.948 72.583 299.246 72.5458C299.32 72.5272 299.45 72.5086 299.636 72.49C299.822 72.4714 299.952 72.4528 300.027 72.4342ZM299.051 87.6905C299.646 87.5789 300.138 87.6905 300.529 88.0251C300.938 88.3598 301.133 88.7875 301.114 89.3081C301.114 89.8287 300.882 90.2843 300.417 90.6748C300.101 90.9165 299.711 91.0373 299.246 91.0373C298.8 91.0373 298.446 90.9165 298.186 90.6748C297.963 90.4516 297.814 90.1355 297.74 89.7265C297.665 89.3174 297.693 88.992 297.823 88.7503C298.177 88.1367 298.586 87.7834 299.051 87.6905Z" fill="black"/>
<circle cx="201.624" cy="137.514" r="23.5143" fill="black"/>
<path d="M189.117 137.513H215.133M215.133 137.513L206.461 129.008M215.133 137.513L206.461 146.018" stroke="white" stroke-width="1.00061" stroke-linecap="round"/>
</svg>
