<svg width="358" height="180" viewBox="0 0 358 180" fill="none" xmlns="http://www.w3.org/2000/svg">
<mask id="path-1-inside-1_802_12040" fill="white">
<path fill-rule="evenodd" clip-rule="evenodd" d="M78.2746 0.757812C58.9328 0.757812 43.2532 16.4374 43.2532 35.7792V42.2588L1.88493 42.2589C0.829837 42.2589 0.493132 43.6807 1.43615 44.1539L43.2532 65.1375V144.846C43.2532 164.187 58.9327 179.867 78.2745 179.867H322.061C341.402 179.867 357.082 164.188 357.082 144.846V35.7792C357.082 16.4374 341.402 0.757812 322.061 0.757812H78.2746Z"/>
</mask>
<path fill-rule="evenodd" clip-rule="evenodd" d="M78.2746 0.757812C58.9328 0.757812 43.2532 16.4374 43.2532 35.7792V42.2588L1.88493 42.2589C0.829837 42.2589 0.493132 43.6807 1.43615 44.1539L43.2532 65.1375V144.846C43.2532 164.187 58.9327 179.867 78.2745 179.867H322.061C341.402 179.867 357.082 164.188 357.082 144.846V35.7792C357.082 16.4374 341.402 0.757812 322.061 0.757812H78.2746Z" fill="#EEEDE6"/>
<path d="M43.2532 42.2588L43.2532 47.2619L48.2562 47.2619V42.2588H43.2532ZM1.88493 42.2589L1.88493 47.262L1.88494 47.262L1.88493 42.2589ZM1.43615 44.1539L3.68001 39.6822L3.68 39.6822L1.43615 44.1539ZM43.2532 65.1375H48.2562V62.0504L45.497 60.6658L43.2532 65.1375ZM48.2562 35.7792C48.2562 19.2005 61.6959 5.76086 78.2746 5.76086V-4.24524C56.1697 -4.24524 38.2501 13.6743 38.2501 35.7792H48.2562ZM48.2562 42.2588V35.7792H38.2501V42.2588H48.2562ZM1.88494 47.262L43.2532 47.2619L43.2532 37.2558L1.88491 37.2559L1.88494 47.262ZM3.68 39.6822C7.45215 41.5751 6.10524 47.262 1.88493 47.262V37.2559C-4.44556 37.2559 -6.46589 45.7863 -0.80769 48.6255L3.68 39.6822ZM45.497 60.6658L3.68001 39.6822L-0.807698 48.6255L41.0093 69.6091L45.497 60.6658ZM48.2562 144.846V65.1375H38.2501V144.846H48.2562ZM78.2745 174.864C61.6959 174.864 48.2562 161.424 48.2562 144.846H38.2501C38.2501 166.951 56.1696 184.87 78.2745 184.87V174.864ZM322.061 174.864H78.2745V184.87H322.061V174.864ZM352.079 144.846C352.079 161.424 338.639 174.864 322.061 174.864V184.87C344.165 184.87 362.085 166.951 362.085 144.846H352.079ZM352.079 35.7792V144.846H362.085V35.7792H352.079ZM322.061 5.76086C338.639 5.76086 352.079 19.2005 352.079 35.7792H362.085C362.085 13.6743 344.165 -4.24524 322.061 -4.24524V5.76086ZM78.2746 5.76086H322.061V-4.24524H78.2746V5.76086Z" fill="black" mask="url(#path-1-inside-1_802_12040)"/>
<path d="M136.365 38.7361C136.588 38.6431 136.885 38.5966 137.257 38.5966C137.629 38.578 137.936 38.6059 138.178 38.6803C138.382 38.7361 138.577 38.7919 138.763 38.8476C139.749 39.108 140.558 39.5542 141.19 40.1864C141.376 40.3723 141.552 40.5955 141.72 40.8558C141.906 41.0975 141.999 41.2555 141.999 41.3299C141.999 41.3671 142.017 41.4415 142.054 41.553C142.11 41.646 142.157 41.7762 142.194 41.9435C142.25 42.1295 142.287 42.2968 142.306 42.4456C142.361 42.6873 142.38 43.0777 142.361 43.617C142.361 44.1376 142.324 44.5281 142.25 44.7884C141.952 46.0156 141.125 46.9825 139.767 47.689C139.489 47.8378 139.33 47.9214 139.293 47.94C139.275 47.9772 139.256 48.8418 139.238 50.5339C139.238 52.2259 139.256 53.0812 139.293 53.0998C139.312 53.1184 140.149 53.1277 141.803 53.1277C143.198 53.1277 144.007 53.1463 144.23 53.1835C144.453 53.2021 144.667 53.323 144.871 53.5461C145.448 54.1597 145.42 54.7826 144.788 55.4148C144.565 55.6379 144.323 55.768 144.063 55.8052C143.821 55.8424 143.105 55.8796 141.915 55.9168C140.52 55.9354 138.931 55.9726 137.146 56.0284C133.483 56.1213 131.512 56.1027 131.233 55.9726C130.656 55.6937 130.322 55.3032 130.229 54.8012C130.154 54.2805 130.35 53.8436 130.815 53.4903L131.121 53.2672H133.715C135.444 53.2672 136.328 53.2486 136.365 53.2114C136.421 53.1556 136.458 52.2724 136.476 50.5618C136.514 48.8511 136.504 47.9679 136.448 47.9121C136.411 47.875 136.309 47.8378 136.142 47.8006C135.565 47.6518 134.98 47.3357 134.385 46.8523C133.79 46.3689 133.362 45.8575 133.102 45.3183C132.878 44.8163 132.748 44.2399 132.711 43.5891C132.692 42.9383 132.785 42.4084 132.99 41.9993C133.027 41.9063 133.046 41.8227 133.046 41.7483C133.046 41.5438 133.334 41.1068 133.91 40.4374C134.505 39.7494 134.887 39.4055 135.054 39.4055C135.11 39.4055 135.138 39.3962 135.138 39.3776C135.138 39.3404 135.286 39.2474 135.584 39.0987C135.9 38.9313 136.16 38.8105 136.365 38.7361ZM138.596 41.7204C138.001 41.5345 137.434 41.5345 136.895 41.7204C136.355 41.9063 135.984 42.2317 135.779 42.6966C135.705 42.8825 135.649 43.0127 135.612 43.087C135.444 43.4031 135.444 43.7471 135.612 44.119C135.779 44.4909 136.039 44.7605 136.393 44.9278C137.025 45.2067 137.657 45.2532 138.289 45.0673C138.921 44.8628 139.312 44.5095 139.461 44.0074C139.851 42.7802 139.563 42.0179 138.596 41.7204ZM149.322 35.9749C149.824 35.8633 150.233 35.9842 150.549 36.3375C150.698 36.4862 150.791 36.6722 150.828 36.8953C150.884 37.1184 150.921 37.5461 150.94 38.1783C150.94 38.234 150.94 38.2991 150.94 38.3735C150.958 39.1544 151.005 39.61 151.079 39.7401C151.172 39.8517 151.46 39.8982 151.944 39.8796C152 39.8796 152.046 39.8796 152.083 39.8796C152.79 39.8424 153.766 39.8145 155.012 39.7959C156.22 39.7773 156.927 39.7866 157.131 39.8238C157.355 39.861 157.587 39.9912 157.829 40.2143C158.368 40.7535 158.386 41.3299 157.884 41.9435C157.643 42.2038 157.317 42.3619 156.908 42.4177C156.518 42.4734 155.356 42.5199 153.422 42.5571C151.581 42.5943 150.484 42.6036 150.131 42.585C149.778 42.5664 149.48 42.4827 149.238 42.334C149.183 42.2968 149.117 42.2689 149.043 42.2503C148.783 42.1202 148.597 41.7855 148.485 41.2463C148.374 40.707 148.281 39.703 148.206 38.234C148.151 36.8767 148.522 36.1236 149.322 35.9749ZM155.709 44.2585C157.754 44.1469 158.916 44.1655 159.195 44.3142C159.79 44.6489 160.051 45.1045 159.976 45.6809C159.92 46.2573 159.549 46.6478 158.861 46.8523C158.768 46.8709 158.321 46.8802 157.522 46.8802C156.22 46.8988 154.733 46.9639 153.059 47.0754C152.65 47.1126 151.972 47.1498 151.023 47.187C150.242 47.2242 149.61 47.2614 149.127 47.2985C147.807 47.4101 146.988 47.3915 146.672 47.2428C146.375 47.1126 146.142 46.9081 145.975 46.6292C145.826 46.3503 145.789 46.0714 145.864 45.7924C145.957 45.4392 146.105 45.1974 146.31 45.0673C146.514 44.9185 146.858 44.8163 147.342 44.7605C147.825 44.6861 148.662 44.621 149.852 44.5653C150.875 44.5281 151.488 44.5002 151.693 44.4816C151.841 44.4444 152.446 44.3979 153.506 44.3421C154.547 44.3049 155.281 44.277 155.709 44.2585ZM155.57 48.3863C156.927 48.2933 157.773 48.4049 158.108 48.721C158.461 49.0185 158.638 49.818 158.638 51.1196C158.638 52.4769 158.489 53.3694 158.191 53.7971C157.912 54.2248 157.271 54.513 156.267 54.6617C155.449 54.7733 154.575 54.8477 153.645 54.8848C152.901 54.9034 152.418 54.9313 152.195 54.9685C151.953 55.0057 151.656 55.0243 151.302 55.0243C150.912 55.0243 150.689 55.0522 150.633 55.108C150.614 55.1637 150.605 55.3218 150.605 55.5821C150.605 55.8238 150.624 55.9633 150.661 56.0005C150.754 56.0934 152.037 56.1492 154.51 56.1678C154.658 56.1678 154.872 56.1678 155.151 56.1678C156.583 56.1864 157.429 56.205 157.689 56.2236C157.95 56.2608 158.154 56.3538 158.303 56.5025C158.34 56.5397 158.359 56.5583 158.359 56.5583C158.805 56.9674 158.916 57.395 158.693 57.8413C158.638 57.9528 158.61 58.0272 158.61 58.0644C158.61 58.1016 158.517 58.1945 158.331 58.3433C158.163 58.5106 158.015 58.6222 157.884 58.678C157.606 58.8267 156.165 58.9011 153.561 58.9011C150.958 58.9011 149.499 58.8267 149.183 58.678C148.755 58.4735 148.457 58.2317 148.29 57.9528C148.123 57.6739 148.002 57.2184 147.927 56.5862C147.797 55.0987 147.788 54.1783 147.9 53.825C148.086 53.2486 148.327 52.8767 148.625 52.7094C148.941 52.542 149.601 52.449 150.605 52.4305C151.423 52.3933 152.111 52.3561 152.669 52.3189C154.082 52.2073 155.077 52.1237 155.653 52.0679C155.839 52.0679 155.941 52.0493 155.96 52.0121C155.997 51.9935 156.016 51.854 156.016 51.5937C156.034 51.3334 156.025 51.1847 155.988 51.1475C155.951 51.1103 155.356 51.101 154.203 51.1196C153.069 51.1196 151.981 51.1382 150.94 51.1754C149.898 51.2126 149.183 51.2033 148.792 51.1475C148.42 51.0917 148.123 50.9429 147.9 50.7012C147.714 50.4781 147.611 50.2085 147.593 49.8924C147.574 49.5763 147.649 49.3067 147.816 49.0836C147.816 49.0836 147.825 49.0743 147.844 49.0557C148.048 48.7954 148.318 48.6373 148.653 48.5815C148.987 48.5257 150.029 48.4886 151.776 48.47C151.814 48.47 151.841 48.47 151.86 48.47C153.868 48.4514 155.105 48.4235 155.57 48.3863ZM173.931 39.3218C174.117 39.1916 174.395 39.1637 174.767 39.2381C175.139 39.3125 175.409 39.4519 175.576 39.6565C175.595 39.6565 175.604 39.6658 175.604 39.6844C175.771 39.8703 175.864 40.1957 175.883 40.6605C175.92 41.1068 175.929 42.585 175.911 45.0952C175.911 45.2067 175.911 45.2997 175.911 45.3741C175.874 48.8883 175.864 51.1196 175.883 52.0679C175.883 53.2765 175.864 53.9923 175.827 54.2155C175.753 54.6617 175.558 55.0057 175.241 55.2474C174.925 55.4705 174.581 55.5449 174.209 55.4705C173.838 55.3962 173.54 55.173 173.317 54.8012C173.187 54.6152 173.122 52.1608 173.122 47.438C173.122 42.7152 173.178 40.2422 173.289 40.0191C173.419 39.7401 173.633 39.5077 173.931 39.3218ZM165.006 39.768C165.638 39.6565 166.344 39.7494 167.125 40.0469C167.925 40.3259 168.548 40.7163 168.994 41.2184C169.459 41.7204 169.728 42.4177 169.803 43.3102C169.896 44.2027 169.775 45.0022 169.44 45.7088C169.18 46.248 168.882 46.6757 168.548 46.9917C168.213 47.3078 167.776 47.5775 167.237 47.8006C166.419 48.1353 165.489 48.1539 164.448 47.8564C163.406 47.5403 162.616 47.0196 162.077 46.2945C161.649 45.7367 161.417 45.0952 161.38 44.37C161.343 43.6449 161.463 42.9755 161.742 42.3619C162.04 41.7297 162.477 41.1719 163.053 40.6884C163.63 40.1864 164.28 39.8796 165.006 39.768ZM166.4 42.6687C165.842 42.5013 165.331 42.5664 164.866 42.8639C164.401 43.1614 164.169 43.5705 164.169 44.0911C164.169 44.5374 164.42 44.8813 164.922 45.1231C165.424 45.3462 165.917 45.3462 166.4 45.1231C166.902 44.8999 167.153 44.4723 167.153 43.8401C167.153 43.2079 166.902 42.8174 166.4 42.6687ZM170.11 50.1434C170.556 50.0876 170.909 50.0969 171.169 50.1713C171.393 50.2271 171.606 50.3386 171.811 50.506C171.997 50.6733 172.118 50.9058 172.173 51.2033C172.248 51.4822 172.229 51.7332 172.118 51.9563C171.913 52.384 171.578 52.6629 171.114 52.793C170.667 52.9046 169.784 52.9604 168.464 52.9604C167.609 52.9604 166.642 52.979 165.563 53.0162C163.239 53.1277 161.947 53.1463 161.687 53.0719C161.147 52.9232 160.794 52.6164 160.627 52.1515C160.478 51.6681 160.59 51.2311 160.961 50.8407C161.166 50.6176 161.389 50.4874 161.631 50.4502C161.872 50.413 162.579 50.3758 163.75 50.3386C165.145 50.32 166.047 50.2922 166.456 50.255C166.921 50.2178 167.562 50.1899 168.38 50.1713C169.273 50.1713 169.849 50.162 170.11 50.1434ZM192.086 36.0586C192.29 35.9656 192.541 35.9377 192.839 35.9749C193.136 36.0121 193.359 36.1051 193.508 36.2538C193.676 36.4211 193.787 36.6071 193.843 36.8116C193.917 37.0162 193.964 37.3787 193.982 37.8994C194.02 38.6431 194.066 39.0615 194.122 39.1544C194.178 39.2288 194.419 39.2753 194.847 39.2939C195.33 39.3125 195.656 39.3497 195.823 39.4055C196.009 39.4612 196.186 39.5821 196.353 39.768C196.558 39.9726 196.669 40.1213 196.688 40.2143C196.706 40.3259 196.734 40.4002 196.771 40.4374C196.809 40.5118 196.827 40.5955 196.827 40.6884C196.827 40.7628 196.809 40.8093 196.771 40.8279C196.734 40.8651 196.706 40.9487 196.688 41.0789C196.651 41.2091 196.558 41.3578 196.409 41.5252C196.279 41.6925 196.121 41.8227 195.935 41.9156C195.637 42.0644 194.791 42.1573 193.397 42.1945C192.764 42.2317 192.439 42.2596 192.42 42.2782L192.811 42.4177C193.573 42.6036 194.159 42.8546 194.568 43.1707C194.996 43.4868 195.33 43.9424 195.572 44.5374C195.646 44.6675 195.684 44.7605 195.684 44.8163C195.684 44.8721 195.712 45.0115 195.767 45.2346C195.86 45.6437 195.795 46.2108 195.572 46.936C195.442 47.2893 195.228 47.6704 194.931 48.0795C194.633 48.4886 194.363 48.7582 194.122 48.8883C193.657 49.13 193.304 49.2881 193.062 49.3625C192.839 49.4368 192.513 49.4926 192.086 49.5298C191.863 49.5298 191.584 49.5112 191.249 49.474C190.914 49.4182 190.71 49.3625 190.635 49.3067C190.598 49.2881 190.524 49.2695 190.412 49.2509C190.04 49.1579 189.659 48.8697 189.269 48.3863C188.878 47.8843 188.627 47.3636 188.516 46.8244C188.367 46.1364 188.441 45.3741 188.739 44.5374C189.055 43.682 189.455 43.1428 189.938 42.9197C189.957 42.9011 189.994 42.8825 190.05 42.8639C190.105 42.8267 190.152 42.7988 190.189 42.7802C190.226 42.7616 190.264 42.7524 190.301 42.7524C190.394 42.6966 190.477 42.6687 190.552 42.6687C190.645 42.6687 190.728 42.6408 190.803 42.585C190.877 42.5292 190.97 42.492 191.082 42.4734C191.193 42.4549 191.24 42.4177 191.221 42.3619C191.203 42.3061 190.756 42.2782 189.882 42.2782C189.157 42.2782 188.692 42.2689 188.488 42.2503C188.283 42.2317 188.097 42.1573 187.93 42.0272C187.651 41.8413 187.474 41.5716 187.4 41.2184C187.326 40.8651 187.381 40.549 187.567 40.2701C187.735 40.0098 187.939 39.8424 188.181 39.768C188.423 39.6751 188.86 39.61 189.492 39.5728C190.645 39.4984 191.24 39.4334 191.277 39.3776C191.314 39.359 191.323 38.9778 191.305 38.234C191.305 37.4717 191.333 37.0347 191.388 36.9232C191.444 36.8302 191.472 36.7558 191.472 36.7001C191.472 36.6443 191.547 36.542 191.695 36.3933C191.863 36.2259 191.993 36.1143 192.086 36.0586ZM192.895 45.3741C192.802 45.2811 192.569 45.2346 192.197 45.2346C191.844 45.2346 191.602 45.2811 191.472 45.3741C191.435 45.3927 191.379 45.4856 191.305 45.653C191.23 45.8017 191.193 45.9226 191.193 46.0156C191.193 46.3131 191.296 46.5362 191.5 46.685C191.723 46.8151 191.974 46.843 192.253 46.7686C192.532 46.6757 192.746 46.4897 192.895 46.2108C192.969 46.0807 193.006 45.9226 193.006 45.7367C193.006 45.5507 192.969 45.4299 192.895 45.3741ZM202.768 36.979C203.103 36.8674 203.419 36.8767 203.716 37.0069C204.014 37.1184 204.246 37.3229 204.413 37.6205C204.488 37.7692 204.534 38.42 204.553 39.5728C204.572 40.3352 204.609 41.8227 204.664 44.0353C204.702 45.8761 204.692 46.8616 204.637 46.9917C204.581 47.1219 204.553 47.2056 204.553 47.2428C204.553 47.2614 204.488 47.345 204.358 47.4938C204.246 47.6239 204.172 47.689 204.135 47.689C204.097 47.689 204.06 47.7076 204.023 47.7448C203.93 47.8564 203.725 47.9121 203.409 47.9121C203.112 47.9121 202.879 47.8564 202.712 47.7448C202.452 47.5961 202.284 47.4194 202.21 47.2149C202.136 47.0103 202.08 46.6013 202.043 45.9877C202.006 45.2811 201.959 44.8906 201.903 44.8163C201.848 44.7419 201.606 44.714 201.178 44.7326C201.104 44.7326 201.011 44.7326 200.899 44.7326C200.49 44.7326 200.248 44.7791 200.174 44.8721C200.1 44.965 200.072 45.2997 200.09 45.8761C200.09 46.0249 200.09 46.1457 200.09 46.2387C200.09 46.8523 200.072 47.2707 200.035 47.4938C199.997 47.7169 199.923 47.9214 199.811 48.1074C199.663 48.3491 199.393 48.5164 199.003 48.6094C198.612 48.6838 198.324 48.6373 198.138 48.47C198.082 48.4328 198.017 48.3956 197.943 48.3584C197.72 48.2468 197.543 47.9679 197.413 47.5217C197.301 47.1126 197.273 45.5786 197.329 42.9197C197.385 40.2608 197.478 38.7919 197.608 38.513C197.664 38.3642 197.766 38.2062 197.915 38.0388C198.064 37.8715 198.185 37.7785 198.277 37.7599C198.687 37.6483 198.993 37.6205 199.198 37.6762C199.626 37.7692 199.895 37.9923 200.007 38.3456C200.118 38.6803 200.165 39.3962 200.146 40.4932C200.146 40.5862 200.146 40.707 200.146 40.8558C200.128 41.4136 200.146 41.739 200.202 41.832C200.258 41.9249 200.472 41.9714 200.843 41.9714C200.936 41.9528 201.011 41.9435 201.067 41.9435C201.122 41.9435 201.197 41.9435 201.29 41.9435C201.606 41.9435 201.792 41.8877 201.848 41.7762C201.903 41.6646 201.922 41.2741 201.903 40.6048C201.885 40.4002 201.875 40.2329 201.875 40.1027C201.857 38.9313 201.903 38.1597 202.015 37.7878C202.126 37.3973 202.377 37.1277 202.768 36.979ZM198.724 49.725C198.742 49.6879 198.965 49.6786 199.393 49.6972C199.821 49.7157 200.1 49.7436 200.23 49.7808C200.416 49.8366 200.537 49.8645 200.592 49.8645C200.648 49.8645 200.843 49.9482 201.178 50.1155C201.531 50.2643 201.736 50.3665 201.792 50.4223C201.829 50.4595 201.922 50.5339 202.071 50.6454C202.591 50.9987 202.991 51.5658 203.27 52.3468C203.549 53.1091 203.633 53.8808 203.521 54.6617C203.428 55.2753 203.158 55.9075 202.712 56.5583C202.266 57.2091 201.773 57.6832 201.234 57.9807C200.602 58.3526 199.96 58.5757 199.309 58.6501C198.436 58.7431 197.59 58.6222 196.771 58.2875C195.953 57.9714 195.34 57.5159 194.931 56.9209C194.466 56.2329 194.252 55.3869 194.289 54.3828C194.345 53.3787 194.652 52.5327 195.21 51.8447C196.046 50.7663 197.078 50.0969 198.305 49.8366C198.566 49.7808 198.705 49.7436 198.724 49.725ZM200.035 52.7094C199.811 52.635 199.505 52.6164 199.114 52.6536C198.724 52.6908 198.38 52.7744 198.082 52.9046C197.58 53.1463 197.246 53.574 197.078 54.1876C196.911 54.7826 197.013 55.2195 197.385 55.4984C197.627 55.6844 197.989 55.7959 198.473 55.8331C198.956 55.8889 199.356 55.8517 199.672 55.7216C200.063 55.5356 200.36 55.2288 200.565 54.8012C200.769 54.3735 200.825 53.9551 200.732 53.5461C200.639 53.1184 200.406 52.8395 200.035 52.7094ZM212.04 35.7518C212.245 35.6588 212.477 35.6495 212.737 35.7239C212.998 35.7983 213.221 35.9377 213.407 36.1422C213.574 36.3468 213.676 36.5513 213.714 36.7558C213.769 36.9604 213.797 37.2765 213.797 37.7041C213.797 37.7413 213.797 37.8064 213.797 37.8994C213.797 38.2526 213.844 38.4572 213.937 38.513C214.03 38.5687 214.364 38.5873 214.941 38.5687C215.071 38.5687 215.182 38.5687 215.275 38.5687C216.056 38.5501 216.493 38.513 216.586 38.4572C216.679 38.4014 216.716 38.1318 216.698 37.6483C216.698 37.1835 216.707 36.9232 216.726 36.8674C216.763 36.8302 216.8 36.7465 216.837 36.6164C216.874 36.4119 217.005 36.2259 217.228 36.0586C217.451 35.8912 217.693 35.8076 217.953 35.8076C218.622 35.8076 219.078 36.1515 219.32 36.8395C219.431 37.1184 219.468 38.2805 219.431 40.3259C219.394 42.3712 219.32 43.4961 219.208 43.7006L219.013 44.0353C218.79 44.556 218.213 44.8628 217.284 44.9557C217.023 44.9743 216.874 45.0301 216.837 45.1231C216.819 45.1974 216.819 45.4949 216.837 46.0156L216.893 46.8802L217.786 46.9081C218.362 46.9267 219.003 46.9081 219.71 46.8523C220.51 46.8151 221.086 46.8616 221.439 46.9917C221.793 47.1033 222.062 47.3636 222.248 47.7727C222.322 47.94 222.341 48.1353 222.304 48.3584C222.267 48.5815 222.192 48.7675 222.081 48.9162C221.783 49.2509 221.569 49.4182 221.439 49.4182C221.383 49.4182 221.328 49.4461 221.272 49.5019C221.235 49.5391 220.575 49.567 219.292 49.5856C215.722 49.6414 213.258 49.7157 211.901 49.8087C209.985 49.9203 208.833 49.8552 208.442 49.6135C208.349 49.5577 208.238 49.4647 208.107 49.3346C207.977 49.2044 207.912 49.1207 207.912 49.0836C207.912 49.0278 207.894 48.9534 207.856 48.8604C207.726 48.6187 207.745 48.3305 207.912 47.9958C208.08 47.6425 208.303 47.4008 208.582 47.2707C208.786 47.1963 209.567 47.1405 210.924 47.1033C212.895 47.0847 213.927 47.0103 214.02 46.8802C214.076 46.8058 214.095 46.4711 214.076 45.8761C214.076 45.2811 214.048 44.9557 213.992 44.8999C213.937 44.8628 213.741 44.8349 213.407 44.8163C213.165 44.8163 212.914 44.7884 212.654 44.7326C212.412 44.6582 212.272 44.5838 212.235 44.5095C212.217 44.4909 212.189 44.4816 212.152 44.4816C212.077 44.4816 211.956 44.3793 211.789 44.1748C211.64 43.9517 211.538 43.7657 211.482 43.617C211.315 43.1335 211.203 41.8691 211.148 39.8238C211.11 37.7599 211.166 36.6071 211.315 36.3654C211.519 36.0679 211.761 35.8633 212.04 35.7518ZM216.614 41.2741C216.54 41.2184 215.954 41.2091 214.857 41.2463C214.132 41.2834 213.769 41.4043 213.769 41.6088C213.769 41.6832 213.806 41.7762 213.881 41.8877C213.955 41.9807 214.401 42.0551 215.22 42.1109C216.056 42.1481 216.521 42.1295 216.614 42.0551C216.67 41.9807 216.698 41.8506 216.698 41.6646C216.698 41.4787 216.67 41.3485 216.614 41.2741ZM214.076 50.757C214.113 50.7198 214.876 50.7105 216.363 50.7291C217.851 50.7477 218.678 50.7756 218.845 50.8128C219.366 50.9615 219.766 51.2962 220.045 51.8169C220.138 51.9842 220.175 53.0626 220.156 55.0522C220.156 57.0417 220.119 58.1295 220.045 58.3154C219.84 58.6873 219.636 58.9104 219.431 58.9848C219.338 59.0034 219.264 59.0406 219.208 59.0963C219.096 59.1893 218.892 59.1893 218.594 59.0963C218.297 59.022 218.064 58.9011 217.897 58.7338C217.711 58.5478 217.6 58.3247 217.562 58.0644C217.525 57.8227 217.507 57.0975 217.507 55.8889C217.507 54.42 217.479 53.6576 217.423 53.6019C217.367 53.5275 216.186 53.4996 213.881 53.5182C212.17 53.5368 211.157 53.5368 210.841 53.5182C210.525 53.4996 210.292 53.4531 210.143 53.3787C209.623 53.1184 209.353 52.7372 209.335 52.2352C209.316 51.7146 209.567 51.3241 210.088 51.0638C210.236 50.9708 210.404 50.9151 210.59 50.8965C210.776 50.8779 211.324 50.8593 212.235 50.8407C213.444 50.8035 214.057 50.7756 214.076 50.757ZM230.42 38.3177C230.569 38.2619 230.838 38.2433 231.229 38.2619C231.619 38.2805 231.889 38.3084 232.038 38.3456C232.447 38.513 232.744 38.7826 232.93 39.1544C233.004 39.3032 233.042 39.9726 233.042 41.1626C233.06 42.334 233.042 43.0684 232.986 43.3659C232.949 43.5519 232.911 43.9517 232.874 44.5653C232.837 45.1789 232.8 45.6065 232.763 45.8482C232.688 46.2945 232.493 46.6385 232.177 46.8802C231.879 47.1033 231.573 47.1963 231.257 47.1591C230.959 47.1033 230.689 46.9267 230.448 46.6292C230.206 46.3317 230.094 45.9505 230.113 45.4856C230.113 45.1696 230.094 44.9929 230.057 44.9557C230.039 44.9371 229.648 44.9464 228.886 44.9836C228.142 45.0022 227.603 45.0301 227.268 45.0673C225.372 45.2904 224.423 44.8535 224.423 43.7564C224.423 42.8267 225.158 42.3526 226.627 42.334C226.98 42.334 227.268 42.3154 227.491 42.2782C227.752 42.2596 228.216 42.2317 228.886 42.1945C229.518 42.1573 229.899 42.1109 230.029 42.0551C230.178 41.9993 230.262 41.8691 230.28 41.6646C230.318 41.3857 230.299 41.2277 230.225 41.1905C230.169 41.1347 229.955 41.1254 229.583 41.1626C229.23 41.1812 228.839 41.1905 228.412 41.1905C228.04 41.1905 227.417 41.2091 226.543 41.2463C225.762 41.302 225.279 41.302 225.093 41.2463C224.554 41.0603 224.265 40.6791 224.228 40.1027C224.191 39.5263 224.433 39.108 224.953 38.8476C225.251 38.6803 225.827 38.5873 226.682 38.5687C227.296 38.5501 227.714 38.5223 227.938 38.4851C228.142 38.4479 228.588 38.42 229.276 38.4014C229.946 38.3642 230.327 38.3363 230.42 38.3177ZM238.006 38.513C238.266 38.42 238.555 38.4386 238.871 38.5687C239.187 38.6803 239.438 38.8755 239.624 39.1544C239.698 39.266 239.735 39.5635 239.735 40.0469C239.754 40.5118 239.754 42.1295 239.735 44.8999C239.735 48.6373 239.717 50.8314 239.68 51.4822C239.661 52.0958 239.633 52.9511 239.596 54.0481C239.577 55.0894 239.522 55.6937 239.429 55.861C239.187 56.3259 238.815 56.5769 238.313 56.6141C237.83 56.6513 237.43 56.456 237.114 56.0284C236.872 55.6937 236.779 55.1916 236.835 54.5223C236.835 54.4851 236.835 54.4479 236.835 54.4107C236.853 54.1504 236.798 54.0016 236.667 53.9644C236.556 53.9087 236.128 53.8715 235.384 53.8529C235.236 53.8529 235.115 53.8436 235.022 53.825C233.795 53.8064 232.921 53.7971 232.4 53.7971C231.489 53.7971 230.848 53.6855 230.476 53.4624C230.122 53.2393 229.946 52.8581 229.946 52.3189C229.946 51.8354 230.122 51.4729 230.476 51.2311C230.848 50.9894 231.34 50.9151 231.954 51.008C232.363 51.0638 233.283 51.0917 234.715 51.0917C236.147 51.0731 236.872 51.0266 236.891 50.9522C236.946 50.8779 236.993 49.9203 237.03 48.0795C237.067 46.2201 237.076 44.5188 237.058 42.9755C237.076 41.9714 237.067 41.2091 237.03 40.6884C237.011 40.1492 237.049 39.7309 237.142 39.4334C237.253 39.1173 237.355 38.9127 237.448 38.8198C237.56 38.7268 237.746 38.6245 238.006 38.513ZM232.902 47.4101C233.776 47.28 234.473 47.3357 234.994 47.5775C235.515 47.8192 235.775 48.2096 235.775 48.7489C235.775 48.9348 235.756 49.0371 235.719 49.0557C235.682 49.0743 235.654 49.1393 235.635 49.2509C235.542 49.5856 235.319 49.8087 234.966 49.9203C234.631 50.0318 233.878 50.1062 232.707 50.1434C230.699 50.1992 229.648 50.255 229.555 50.3108C229.518 50.3293 229.499 50.5432 229.499 50.9522C229.499 51.2869 229.481 51.7518 229.444 52.3468C229.388 53.1277 229.351 53.6762 229.332 53.9923C229.295 54.4944 229.248 54.8477 229.193 55.0522C229.137 55.2567 229.016 55.452 228.83 55.6379C228.44 56.0284 228.012 56.1492 227.547 56.0005C227.082 55.8517 226.775 55.4984 226.627 54.9406C226.515 54.5501 226.497 54.0016 226.571 53.2951C226.757 51.7704 226.803 50.8779 226.71 50.6176C226.673 50.5246 226.608 50.4781 226.515 50.4781C226.441 50.4595 226.069 50.4781 225.4 50.5339C224.767 50.5711 224.312 50.5618 224.033 50.506C223.773 50.4502 223.531 50.32 223.308 50.1155C223.029 49.8738 222.889 49.5484 222.889 49.1393C222.889 48.7117 223.029 48.377 223.308 48.1353C223.475 47.9865 223.652 47.8936 223.838 47.8564C224.042 47.8006 224.479 47.7634 225.149 47.7448C226.989 47.6518 228.179 47.5775 228.719 47.5217C229.035 47.4845 229.769 47.4659 230.922 47.4659C232.075 47.4659 232.735 47.4473 232.902 47.4101ZM255.712 38.8476C256.066 38.6989 256.419 38.7268 256.772 38.9313C257.126 39.1173 257.367 39.4148 257.497 39.8238C257.553 40.0469 257.59 41.3764 257.609 43.8122C257.628 46.2294 257.609 48.1353 257.553 49.5298C257.535 49.7901 257.507 50.2736 257.47 50.9801C257.451 51.6867 257.442 52.1701 257.442 52.4305C257.404 53.4903 257.367 54.0946 257.33 54.2434C257.293 54.4107 257.274 54.5594 257.274 54.6896C257.274 55.3032 256.995 55.7309 256.438 55.9726C255.898 56.2143 255.424 56.112 255.015 55.6658C254.792 55.4241 254.662 55.2009 254.625 54.9964C254.606 54.7733 254.615 54.0295 254.653 52.7651C254.764 49.3253 254.82 46.155 254.82 43.2544C254.82 41.2463 254.857 40.0562 254.931 39.6844C255.006 39.3125 255.266 39.0336 255.712 38.8476ZM248.349 41.1347C249.539 41.0975 250.274 41.1068 250.553 41.1626C250.832 41.1998 251.101 41.3485 251.361 41.6088C251.678 41.9249 251.789 42.2875 251.696 42.6966C251.622 43.1056 251.361 43.431 250.915 43.6727C250.785 43.7471 250.274 43.7936 249.381 43.8122C247.466 43.8866 246.332 43.9702 245.979 44.0632C245.886 44.1004 245.83 44.1655 245.811 44.2585C245.811 44.3328 245.802 44.621 245.783 45.1231C245.746 45.904 245.709 46.4897 245.672 46.8802C245.597 47.9028 245.56 48.5722 245.56 48.8883C245.579 49.1858 245.625 49.3532 245.7 49.3904C245.811 49.4275 246.741 49.4554 248.489 49.474C249.939 49.474 250.794 49.4926 251.055 49.5298C251.334 49.567 251.585 49.6786 251.808 49.8645C252.124 50.162 252.226 50.5432 252.115 51.008C252.003 51.4729 251.733 51.8076 251.306 52.0121C250.748 52.2724 248.628 52.3189 244.947 52.1515C244.352 52.1329 243.915 52.0493 243.636 51.9005C243.375 51.7518 243.152 51.4915 242.966 51.1196C242.892 50.9522 242.845 50.5804 242.827 50.004C242.808 49.409 242.836 48.8511 242.911 48.3305C242.948 48.0516 242.976 47.1312 242.994 45.5693C243.031 44.1562 243.078 43.2823 243.134 42.9476C243.189 42.5943 243.357 42.2782 243.636 41.9993C244.082 41.5345 244.798 41.302 245.783 41.302C246.044 41.302 246.295 41.2834 246.536 41.2463C246.797 41.2091 247.401 41.1719 248.349 41.1347ZM272.8 36.3375C272.967 36.2817 273.199 36.3003 273.497 36.3933C273.794 36.4676 274.018 36.5792 274.166 36.7279C274.352 36.9139 274.455 37.1091 274.473 37.3137C274.51 37.5182 274.529 38.1132 274.529 39.0987C274.529 40.2887 274.557 40.9023 274.613 40.9395C274.668 40.9766 275.161 40.9952 276.091 40.9952C276.928 40.9952 277.448 41.0231 277.653 41.0789C277.876 41.1161 278.09 41.2741 278.294 41.553C278.536 41.8506 278.647 42.1666 278.629 42.5013C278.629 42.8174 278.508 43.0963 278.266 43.3381C278.118 43.4868 277.932 43.5798 277.708 43.617C277.485 43.6542 276.965 43.6913 276.147 43.7285C275.161 43.7657 274.65 43.8122 274.613 43.868C274.575 43.9238 274.557 44.2863 274.557 44.9557C274.557 45.6065 274.575 46.1085 274.613 46.4618C274.706 47.4287 274.52 48.0609 274.055 48.3584C273.627 48.6559 273.181 48.6931 272.716 48.47C272.27 48.2468 271.991 47.8657 271.879 47.3264C271.823 46.9732 271.796 45.2439 271.796 42.1388C271.796 39.015 271.823 37.3694 271.879 37.2021C272.084 36.7744 272.391 36.4862 272.8 36.3375ZM263.568 37.4531C263.717 37.4159 264.33 37.3973 265.409 37.3973C266.227 37.3973 266.719 37.4066 266.887 37.4252C267.054 37.4252 267.222 37.4717 267.389 37.5647C267.724 37.7134 267.965 37.9272 268.114 38.2062C268.263 38.4851 268.384 38.922 268.477 39.517C268.663 41.0603 268.57 42.1295 268.198 42.7245C267.844 43.3009 267.073 43.6449 265.883 43.7564C265.567 43.7936 265.251 43.8308 264.934 43.868C264.711 43.9052 264.488 43.9238 264.265 43.9238C263.949 43.9238 263.763 43.9517 263.707 44.0074C263.651 44.0632 263.624 44.2399 263.624 44.5374C263.624 44.5745 263.614 44.6396 263.596 44.7326C263.596 45.0673 263.651 45.2625 263.763 45.3183C263.893 45.3741 264.33 45.402 265.074 45.402C265.241 45.402 265.371 45.402 265.464 45.402C266.617 45.402 267.324 45.3741 267.584 45.3183C268.068 45.2439 268.467 45.3276 268.783 45.5693C269.118 45.811 269.285 46.1457 269.285 46.5734C269.285 46.9267 269.183 47.2149 268.979 47.438C268.793 47.6425 268.486 47.8099 268.058 47.94C267.742 48.033 266.719 48.0702 264.99 48.0516C263.28 48.033 262.331 47.9772 262.145 47.8843C261.662 47.6425 261.327 47.2242 261.141 46.6292C260.955 46.0342 260.862 45.1417 260.862 43.9517C260.862 43.2079 260.937 42.6687 261.086 42.334C261.253 41.9807 261.541 41.739 261.95 41.6088C262.136 41.553 262.601 41.4694 263.345 41.3578C263.717 41.3206 263.986 41.2834 264.154 41.2463C264.395 41.2091 264.693 41.1719 265.046 41.1347C265.399 41.0975 265.613 41.051 265.688 40.9952C265.762 40.9395 265.79 40.8 265.771 40.5769C265.753 40.3166 265.678 40.1678 265.548 40.1306C265.437 40.0934 264.981 40.0934 264.181 40.1306C263.27 40.1864 262.657 40.2236 262.341 40.2422C261.634 40.298 261.123 40.0655 260.807 39.5449C260.509 39.0243 260.602 38.513 261.086 38.0109C261.346 37.732 261.848 37.574 262.592 37.5368C263.056 37.4996 263.382 37.4717 263.568 37.4531ZM269.313 49.6414C269.704 49.5298 270.243 49.5112 270.931 49.5856C271.619 49.66 272.177 49.7994 272.604 50.004C272.902 50.1527 273.218 50.3851 273.553 50.7012C273.906 50.9987 274.083 51.2033 274.083 51.3148C274.083 51.352 274.092 51.3799 274.111 51.3985C274.166 51.4171 274.25 51.5658 274.362 51.8447C274.473 52.1237 274.557 52.3654 274.613 52.5699C274.706 52.8674 274.752 53.2579 274.752 53.7413C274.752 54.2062 274.715 54.5501 274.64 54.7733C274.51 55.2009 274.399 55.4984 274.306 55.6658C274.25 55.7587 274.222 55.8238 274.222 55.861C274.222 55.9354 274.129 56.112 273.943 56.3909C273.757 56.6698 273.59 56.8837 273.441 57.0324C273.162 57.3485 272.744 57.6367 272.186 57.897C272.019 57.9714 271.898 58.0272 271.823 58.0644C271.731 58.1202 271.638 58.1481 271.545 58.1481C271.452 58.1481 271.34 58.176 271.21 58.2317C270.987 58.3247 270.541 58.3433 269.871 58.2875C269.202 58.2503 268.653 58.1574 268.226 58.0086C267.426 57.7483 266.785 57.302 266.301 56.6698C265.836 56.0563 265.576 55.3962 265.52 54.6896C265.464 53.9644 265.613 53.2207 265.966 52.4583C266.32 51.6774 266.859 51.0173 267.584 50.4781C268.049 50.1248 268.625 49.8459 269.313 49.6414ZM271.154 52.542C270.894 52.4676 270.55 52.4583 270.122 52.5141C269.713 52.5699 269.416 52.6536 269.23 52.7651C268.988 52.9139 268.756 53.1742 268.532 53.5461C268.328 53.8994 268.235 54.2155 268.253 54.4944C268.253 54.9034 268.477 55.2195 268.923 55.4427C269.369 55.6658 269.862 55.7309 270.401 55.6379C270.959 55.5449 271.359 55.3032 271.6 54.9127C271.898 54.4293 272 53.9366 271.907 53.4345C271.814 52.9325 271.563 52.635 271.154 52.542ZM115.759 73.8198C116.038 73.7268 116.326 73.7547 116.623 73.9034C116.939 74.0336 117.172 74.2474 117.32 74.5449C117.413 74.6937 117.479 75.958 117.516 78.3381C117.572 80.7181 117.572 82.3171 117.516 83.1353C117.479 83.5629 117.46 84.7529 117.46 86.7053C117.46 88.6205 117.423 89.671 117.348 89.8569C117.144 90.4891 116.763 90.8145 116.205 90.8331C115.647 90.8703 115.21 90.5821 114.894 89.9685C114.764 89.6896 114.699 87.1422 114.699 82.3264C114.717 77.492 114.801 74.9261 114.95 74.6286C115.136 74.2195 115.405 73.9499 115.759 73.8198ZM103.766 75.2422C104.379 75.1492 104.844 75.2887 105.16 75.6605C105.327 75.8837 105.42 76.0882 105.439 76.2741C105.476 76.4601 105.504 76.99 105.523 77.8639C105.523 77.9569 105.523 78.087 105.523 78.2544C105.523 78.9052 105.541 79.2863 105.578 79.3979C105.616 79.5095 105.746 79.5745 105.969 79.5931C106.025 79.5931 106.071 79.5931 106.108 79.5931C106.35 79.6117 106.564 79.6396 106.75 79.6768C106.973 79.7326 107.271 79.7605 107.642 79.7605C108.014 79.7419 108.219 79.714 108.256 79.6768C108.312 79.621 108.349 79.3142 108.368 78.7564C108.405 78.18 108.414 77.7152 108.395 77.3619C108.34 76.6367 108.498 76.0603 108.87 75.6327C109.241 75.205 109.66 75.112 110.125 75.3537C110.218 75.4095 110.292 75.4374 110.348 75.4374C110.385 75.4374 110.459 75.5025 110.571 75.6327C110.701 75.7628 110.794 75.8744 110.85 75.9673C111.017 76.2648 111.092 76.7762 111.073 77.5013C111.073 77.6687 111.073 77.9755 111.073 78.4217C111.073 78.868 111.064 79.1841 111.045 79.37C111.045 80.0394 111.017 80.8761 110.961 81.8802C110.924 82.8657 110.896 83.377 110.878 83.4142C110.859 83.4514 110.822 83.9162 110.766 84.8087C110.71 85.9615 110.608 86.7425 110.459 87.1515C110.329 87.542 110.05 87.8302 109.623 88.0162C109.381 88.1463 108.507 88.1928 107.001 88.1556C105.513 88.1184 104.565 88.0348 104.156 87.9046C103.487 87.6815 103.059 87.3375 102.873 86.8726C102.706 86.3892 102.659 85.4223 102.734 83.972C102.771 83.3212 102.799 81.843 102.817 79.5374C102.836 77.2875 102.882 76.0975 102.957 75.9673C103.013 75.8558 103.096 75.7442 103.208 75.6327C103.319 75.5025 103.394 75.4374 103.431 75.4374C103.468 75.4374 103.515 75.4095 103.57 75.3537C103.608 75.3166 103.673 75.2794 103.766 75.2422ZM108.117 82.7727C108.061 82.6983 107.624 82.6611 106.806 82.6611C106.006 82.6611 105.578 82.6983 105.523 82.7727C105.486 82.8285 105.458 83.1074 105.439 83.6094C105.42 84.1114 105.42 84.4647 105.439 84.6693C105.458 84.9668 105.504 85.1341 105.578 85.1713C105.653 85.2085 105.922 85.255 106.387 85.3108C107.057 85.3665 107.484 85.3758 107.67 85.3386C107.875 85.2829 108.014 85.1527 108.089 84.9482C108.126 84.7994 108.154 84.4182 108.172 83.8047C108.191 83.1725 108.172 82.8285 108.117 82.7727ZM128.131 71.1701C128.633 70.9284 129.116 71.0307 129.581 71.4769C129.916 71.793 130.065 72.1277 130.028 72.481C130.009 72.8343 129.814 73.2526 129.442 73.7361C129.256 73.9778 129.172 74.1544 129.191 74.266C129.228 74.359 129.395 74.5263 129.693 74.768C129.972 74.9726 130.195 75.1585 130.362 75.3259C130.437 75.4002 130.678 75.6141 131.087 75.9673C131.831 76.5995 132.268 77.1388 132.398 77.585C132.547 78.0127 132.426 78.4031 132.036 78.7564C131.664 79.0911 131.264 79.212 130.836 79.119C130.409 79.0074 129.888 78.6727 129.275 78.1149C128.512 77.4084 128.029 76.9807 127.824 76.832C127.638 76.6646 127.517 76.5902 127.462 76.6088C127.35 76.646 126.932 77.2131 126.207 78.3102C125.388 79.5002 124.691 79.965 124.115 79.7047C123.706 79.5002 123.445 79.3328 123.334 79.2027C123.185 78.9981 123.101 78.7564 123.083 78.4775C123.064 78.18 123.129 77.9197 123.278 77.6966C123.631 77.1016 124.254 76.144 125.147 74.8238C125.965 73.6152 126.485 72.8994 126.709 72.6762C126.802 72.5647 126.941 72.3694 127.127 72.0905C127.424 71.6443 127.759 71.3375 128.131 71.1701ZM131.45 81.2666C132.566 81.2294 133.281 81.2201 133.598 81.2387C133.914 81.2573 134.137 81.3038 134.267 81.3782C134.806 81.6942 135.067 82.1033 135.048 82.6053C135.029 83.1074 134.741 83.5071 134.183 83.8047C134.072 83.8604 133.625 83.9069 132.845 83.9441C131.394 83.9813 129.711 84.0464 127.796 84.1393C126.755 84.1951 125.807 84.2416 124.951 84.2788C124.598 84.2788 124.133 84.2974 123.557 84.3346C122.999 84.3532 122.683 84.3625 122.609 84.3625C121.642 84.3997 121.028 84.1393 120.768 83.5815C120.508 83.0423 120.582 82.5403 120.991 82.0754C121.195 81.8709 121.409 81.75 121.632 81.7128C121.874 81.6571 122.534 81.6199 123.613 81.6013C124.877 81.5641 125.751 81.5269 126.234 81.4897C126.736 81.4525 127.285 81.4339 127.88 81.4339C128.475 81.4339 128.949 81.4153 129.302 81.3782C129.6 81.341 130.316 81.3038 131.45 81.2666ZM127.964 85.1992C128.41 84.9575 128.8 84.9296 129.135 85.1155C129.247 85.1713 129.367 85.2643 129.498 85.3944C129.646 85.5246 129.721 85.6083 129.721 85.6454C129.721 85.6826 129.749 85.7291 129.804 85.7849C129.953 85.9151 129.962 86.194 129.832 86.6216C129.702 87.0307 129.479 87.4212 129.163 87.793C128.94 88.0719 128.828 88.2579 128.828 88.3508C128.828 88.4252 128.94 88.5461 129.163 88.7134C129.182 88.7506 129.377 88.8715 129.749 89.076C129.823 89.1318 129.907 89.1969 130 89.2712C130.111 89.327 130.195 89.3735 130.251 89.4107C130.325 89.4479 130.381 89.4758 130.418 89.4944C130.474 89.5316 130.892 89.7826 131.673 90.2474C132.398 90.6937 132.882 91.0377 133.123 91.2794C133.365 91.5397 133.486 91.8372 133.486 92.1719C133.486 92.4136 133.402 92.6646 133.235 92.9249C133.068 93.1852 132.9 93.3154 132.733 93.3154C132.677 93.3154 132.612 93.3433 132.538 93.3991C132.315 93.5664 131.971 93.5385 131.506 93.3154C130.911 93.0179 130.576 92.8134 130.502 92.7018C130.465 92.6832 130.409 92.6553 130.334 92.6181C130.316 92.5995 130.232 92.5531 130.083 92.4787C130.028 92.4415 129.916 92.3764 129.749 92.2834C129.656 92.2277 129.544 92.1533 129.414 92.0603C129.377 92.0417 129.321 92.0138 129.247 91.9766C128.875 91.7907 128.419 91.5118 127.88 91.1399C127.452 90.8424 127.173 90.6658 127.043 90.61C126.932 90.5356 126.839 90.5263 126.764 90.5821C126.69 90.6193 126.43 90.8796 125.983 91.3631C125.537 91.8651 125.156 92.302 124.84 92.6739C124.394 93.2317 123.994 93.5664 123.641 93.678C123.232 93.8081 122.999 93.8267 122.943 93.7338C122.925 93.6966 122.86 93.6687 122.748 93.6501C122.469 93.5943 122.246 93.3805 122.079 93.0086C121.911 92.6367 121.893 92.3299 122.023 92.0882C122.079 91.9766 122.107 91.9116 122.107 91.893C122.107 91.8558 122.162 91.7442 122.274 91.5583C122.404 91.3723 122.488 91.2608 122.525 91.2236C122.562 91.205 122.683 91.0655 122.888 90.8052C123.166 90.452 123.594 89.9499 124.171 89.2991C124.356 89.1132 124.459 89.0016 124.477 88.9644C124.477 88.9644 124.487 88.9458 124.505 88.9087C124.542 88.8715 124.589 88.825 124.645 88.7692C124.7 88.7134 124.738 88.6669 124.756 88.6298C125.24 88.0533 125.612 87.635 125.872 87.3747C125.89 87.3561 125.928 87.3096 125.983 87.2352C126.058 87.1422 126.151 87.0307 126.262 86.9005C126.374 86.7704 126.476 86.6588 126.569 86.5658C127.015 86.0452 127.313 85.7105 127.462 85.5618C127.629 85.413 127.796 85.2922 127.964 85.1992ZM140.601 71.449C140.842 71.3747 141.084 71.3747 141.326 71.449C141.716 71.5606 141.977 71.7651 142.107 72.0626C142.237 72.3601 142.32 72.9365 142.358 73.7919C142.358 73.8848 142.358 74.015 142.358 74.1823C142.376 74.6472 142.423 74.9168 142.497 74.9912C142.59 75.0469 142.897 75.0469 143.418 74.9912C143.585 74.9912 143.724 74.9819 143.836 74.9633C144.617 74.9075 145.175 75.1678 145.509 75.7442C145.658 75.9673 145.695 76.2463 145.621 76.5809C145.547 76.9156 145.398 77.1759 145.175 77.3619C144.952 77.5292 144.775 77.6408 144.645 77.6966C144.515 77.7338 144.245 77.7616 143.836 77.7802C143.092 77.836 142.683 77.8639 142.609 77.8639C141.884 77.9197 140.219 77.9755 137.616 78.0313C136.91 78.0499 136.398 77.9662 136.082 77.7802C135.766 77.5757 135.608 77.241 135.608 76.7762C135.608 76.2555 135.794 75.8837 136.166 75.6605C136.556 75.4374 137.226 75.3073 138.174 75.2701C139.178 75.2329 139.68 75.1306 139.68 74.9633C139.68 74.9075 139.662 74.5263 139.624 73.8198C139.587 73.1132 139.606 72.6483 139.68 72.4252C139.736 72.2207 139.848 72.0254 140.015 71.8395C140.201 71.6536 140.396 71.5234 140.601 71.449ZM140.126 78.087C140.126 78.0313 140.21 78.0034 140.377 78.0034C140.545 77.9848 140.703 78.0034 140.852 78.0592C140.945 78.0963 141.14 78.1335 141.437 78.1707C142.125 78.2451 142.739 78.5054 143.278 78.9517C143.817 79.3979 144.152 79.9185 144.282 80.5135C144.282 80.5321 144.31 80.6716 144.366 80.9319C144.533 81.5269 144.468 82.1963 144.171 82.94C143.873 83.6838 143.464 84.2323 142.943 84.5856C141.921 85.2922 140.824 85.4502 139.652 85.0597C138.481 84.6693 137.681 83.8883 137.254 82.7169C137.198 82.5124 137.17 82.187 137.17 81.7407C137.17 81.2759 137.198 80.9412 137.254 80.7367C137.495 80.1045 137.765 79.5838 138.063 79.1748C138.36 78.7471 138.62 78.5333 138.843 78.5333C138.899 78.5333 139.178 78.431 139.68 78.2265C139.792 78.1893 139.894 78.1707 139.987 78.1707C140.08 78.1707 140.126 78.1428 140.126 78.087ZM141.437 81.0435C141.289 80.9319 141.056 80.8854 140.74 80.904C140.424 80.9226 140.21 80.997 140.099 81.1271C140.006 81.2201 139.95 81.3967 139.931 81.6571C139.931 81.8988 139.968 82.0754 140.043 82.187C140.154 82.3171 140.34 82.4101 140.601 82.4659C140.861 82.5031 141.075 82.4659 141.242 82.3543C141.465 82.2056 141.595 81.9825 141.633 81.685C141.688 81.3875 141.623 81.1736 141.437 81.0435ZM142.162 85.9801C142.311 85.9243 142.404 85.9058 142.441 85.9243C142.479 85.9243 142.599 85.9522 142.804 86.008C143.232 86.1382 143.492 86.352 143.585 86.6495C143.678 86.9284 143.715 87.5978 143.696 88.6576C143.696 89.4758 143.696 89.9592 143.696 90.108C143.696 90.2567 143.734 90.3497 143.808 90.3869C143.882 90.4427 144.719 90.4798 146.318 90.4984C147.545 90.517 148.326 90.5449 148.661 90.5821C148.996 90.6007 149.219 90.6658 149.33 90.7773C149.386 90.8331 149.433 90.861 149.47 90.861C149.544 90.861 149.656 90.9912 149.805 91.2515C149.972 91.5304 150.056 91.7349 150.056 91.8651C150.056 92.0882 149.972 92.3206 149.805 92.5624C149.637 92.8227 149.423 93.0179 149.163 93.1481L148.828 93.3154H146.067C144.245 93.3154 143.194 93.2968 142.916 93.2596C141.558 93.0737 140.87 92.3857 140.852 91.1957C140.852 88.6669 140.935 87.2166 141.103 86.8447C141.196 86.6774 141.326 86.5101 141.493 86.3427C141.66 86.1568 141.791 86.0638 141.884 86.0638C141.921 86.0638 142.014 86.0359 142.162 85.9801ZM148.326 72.3415C148.903 72.2858 149.33 72.4066 149.609 72.7041C149.888 73.0016 150.028 73.42 150.028 73.9592V75.4653C150.028 76.6367 150.046 77.3154 150.083 77.5013C150.102 77.5571 150.167 77.5943 150.279 77.6129C150.334 77.6315 150.651 77.6408 151.227 77.6408C151.599 77.6594 151.887 77.678 152.092 77.6966C152.296 77.7152 152.408 77.7245 152.426 77.7245C152.742 77.7245 153.012 77.8453 153.235 78.087C153.458 78.3288 153.57 78.6263 153.57 78.9795C153.57 79.4072 153.402 79.7977 153.068 80.151C152.863 80.3369 152.677 80.4392 152.51 80.4578C152.38 80.4764 151.934 80.4856 151.171 80.4856C150.725 80.4856 150.437 80.5879 150.307 80.7924C150.176 80.997 150.111 81.3875 150.111 81.9639L150.139 83.3305C150.139 84.1486 150.121 84.6879 150.083 84.9482C150.065 85.1341 149.963 85.3293 149.777 85.5339C149.554 85.7384 149.256 85.8407 148.884 85.8407C148.587 85.8407 148.317 85.7756 148.075 85.6454C147.852 85.4967 147.703 85.3015 147.629 85.0597C147.592 84.9482 147.564 84.8831 147.545 84.8645C147.49 84.7715 147.452 84.3253 147.434 83.5257L147.35 80.0952C147.294 79.4258 147.266 78.1707 147.266 76.3299V73.6245C147.266 73.2526 147.369 72.9551 147.573 72.732C147.778 72.5089 148.029 72.3787 148.326 72.3415ZM169.537 70.7239C169.723 70.6309 169.983 70.6402 170.318 70.7518C170.746 70.9005 171.025 71.1329 171.155 71.449C171.285 71.7465 171.369 72.3415 171.406 73.234C171.424 73.8105 171.452 74.1451 171.489 74.2381C171.545 74.3125 171.694 74.3311 171.936 74.2939C172.865 74.1823 173.516 74.3311 173.888 74.7401C174.241 75.1306 174.371 75.5211 174.278 75.9116C174.185 76.2834 173.832 76.7855 173.219 77.4177C172.847 77.8081 172.661 78.0406 172.661 78.1149C172.661 78.1707 172.819 78.3009 173.135 78.5054C173.842 78.9702 174.483 79.4444 175.059 79.9278C175.338 80.1696 175.506 80.4671 175.561 80.8203C175.617 81.1736 175.552 81.499 175.366 81.7965C175.199 82.0196 174.948 82.187 174.613 82.2985C174.278 82.3915 174.009 82.3822 173.804 82.2707C173.693 82.2149 173.618 82.187 173.581 82.187C173.544 82.187 173.284 82.0289 172.8 81.7128C172.317 81.3967 171.954 81.1457 171.713 80.9598C171.545 80.8482 171.434 80.7646 171.378 80.7088C171.303 80.6716 171.238 80.6344 171.183 80.5972C170.885 80.3183 170.653 80.1881 170.485 80.2067C170.318 80.2253 170.058 80.4113 169.704 80.7646C168.793 81.6385 168.17 82.2149 167.836 82.4938C167.501 82.7727 167.231 82.94 167.027 82.9958C166.488 83.1632 166.041 83.0423 165.688 82.6332C165.335 82.2242 165.27 81.7593 165.493 81.2387C165.586 81.0156 166.013 80.5228 166.776 79.7605C167.538 78.9795 168.198 78.3659 168.756 77.9197C169.109 77.6408 169.267 77.4456 169.23 77.334C169.212 77.2224 169.007 77.2038 168.617 77.2782C168.394 77.334 167.501 77.4084 165.939 77.5013C165.233 77.5385 164.74 77.3061 164.461 76.8041C164.201 76.302 164.275 75.7907 164.684 75.2701C164.944 74.954 165.967 74.7401 167.752 74.6286C168.273 74.5728 168.542 74.5356 168.561 74.517C168.598 74.4798 168.617 73.9871 168.617 73.0388C168.617 72.2021 168.663 71.6629 168.756 71.4211C168.868 71.1794 169.128 70.947 169.537 70.7239ZM174.669 84.1951C175.803 84.1579 176.556 84.1858 176.928 84.2788C177.319 84.3718 177.607 84.6042 177.793 84.9761C177.923 85.2364 177.923 85.5804 177.793 86.008C177.681 86.4357 177.523 86.6495 177.319 86.6495C177.281 86.6495 177.263 86.6681 177.263 86.7053C177.263 86.854 176.603 86.947 175.283 86.9842C174.464 87.0028 173.86 87.0214 173.47 87.04C173.079 87.0586 172.754 87.0958 172.493 87.1515C172.233 87.2073 172.075 87.2724 172.019 87.3468C171.982 87.4026 171.973 87.4955 171.991 87.6257C172.084 88.2765 172.131 89.3549 172.131 90.861C172.131 92.3671 172.084 93.2038 171.991 93.3712C171.824 93.6687 171.573 93.8639 171.238 93.9569C170.922 94.0499 170.597 94.022 170.262 93.8732C169.872 93.7059 169.621 93.3712 169.509 92.8692C169.416 92.3857 169.351 91.2515 169.314 89.4665C169.295 88.0348 169.258 87.291 169.202 87.2352C169.147 87.1794 168.533 87.1515 167.362 87.1515C166.209 87.1329 165.372 87.1515 164.851 87.2073C164.405 87.2445 164.089 87.2445 163.903 87.2073C163.717 87.1701 163.531 87.0493 163.345 86.8447C162.992 86.5101 162.853 86.1103 162.927 85.6454C163.02 85.1806 163.289 84.8459 163.736 84.6414C163.977 84.5298 166.134 84.4461 170.206 84.3904C172.308 84.3532 173.405 84.316 173.498 84.2788C173.572 84.2602 173.962 84.2323 174.669 84.1951ZM192.174 71.3096C192.453 71.1794 192.751 71.1701 193.067 71.2817C193.383 71.3747 193.634 71.5606 193.82 71.8395C193.95 72.044 194.024 72.3787 194.043 72.8436C194.08 73.3084 194.089 74.4612 194.071 76.302C194.052 79.3142 194.006 81.0992 193.931 81.6571C193.876 82.2149 193.662 82.6425 193.29 82.94C193.085 83.0888 192.816 83.1446 192.481 83.1074C192.146 83.0702 191.868 82.9493 191.644 82.7448C191.44 82.5403 191.319 82.3264 191.282 82.1033C191.245 81.8802 191.245 81.4432 191.282 80.7924C191.356 79.5467 191.347 78.8773 191.254 78.7843C191.142 78.6727 190.585 78.6449 189.58 78.7006C188.632 78.7378 187.944 78.5147 187.517 78.0313C187.107 77.5478 187.135 77.0086 187.6 76.4136C187.749 76.1905 187.926 76.0603 188.13 76.0231C188.335 75.9673 188.865 75.9395 189.72 75.9395C190.724 75.9209 191.245 75.893 191.282 75.8558C191.319 75.8 191.338 75.1771 191.338 73.9871C191.319 72.9272 191.356 72.2579 191.449 71.979C191.542 71.7001 191.784 71.4769 192.174 71.3096ZM182.05 73.2898C182.143 73.234 182.413 73.2062 182.859 73.2062C183.324 73.2062 183.593 73.234 183.668 73.2898C183.705 73.327 183.788 73.3642 183.919 73.4014C184.383 73.4944 184.941 73.8476 185.592 74.4612C186.261 75.0748 186.596 75.549 186.596 75.8837C186.596 75.9395 186.624 76.0138 186.68 76.1068C186.847 76.4601 186.931 77.0086 186.931 77.7524C186.931 78.4775 186.847 79.0446 186.68 79.4537C186.624 79.5653 186.596 79.6396 186.596 79.6768C186.596 79.714 186.531 79.8442 186.401 80.0673C186.289 80.2718 186.215 80.402 186.178 80.4578C186.122 80.5135 186.094 80.56 186.094 80.5972C186.094 80.6902 185.899 80.9226 185.508 81.2945C185.118 81.6664 184.867 81.8523 184.755 81.8523C184.7 81.8523 184.672 81.8709 184.672 81.9081C184.672 81.9453 184.653 81.9639 184.616 81.9639C184.579 81.9639 184.486 82.001 184.337 82.0754C183.277 82.5589 182.152 82.531 180.962 81.9917C179.791 81.4339 179.01 80.5972 178.619 79.4816C178.526 79.1469 178.471 78.6635 178.452 78.0313C178.433 77.3805 178.48 76.9993 178.592 76.8877C178.61 76.8506 178.638 76.7669 178.675 76.6367C178.694 76.5066 178.731 76.395 178.787 76.302C178.805 76.2463 178.861 76.1254 178.954 75.9395C179.14 75.549 179.4 75.1678 179.735 74.7959C180.07 74.4241 180.423 74.1173 180.795 73.8755C180.925 73.8012 181.12 73.6989 181.381 73.5687C181.641 73.4386 181.79 73.3735 181.827 73.3735C181.864 73.3735 181.938 73.3456 182.05 73.2898ZM183.584 76.3299C183.101 76.0882 182.645 76.0882 182.217 76.3299C181.79 76.5716 181.464 76.99 181.241 77.585C181.13 77.9197 181.139 78.273 181.269 78.6449C181.399 79.0167 181.613 79.277 181.911 79.4258C182.189 79.556 182.524 79.6024 182.915 79.5653C183.305 79.5281 183.565 79.4258 183.696 79.2585C184.105 78.7564 184.291 78.1986 184.253 77.585C184.235 76.9528 184.012 76.5345 183.584 76.3299ZM183.64 84.8087C184.086 84.6972 185.806 84.6972 188.8 84.8087C189.673 84.8459 190.426 84.8645 191.059 84.8645C191.635 84.8645 192.035 84.911 192.258 85.004C192.481 85.0783 192.686 85.255 192.872 85.5339C193.039 85.7942 193.141 86.0452 193.178 86.2869C193.234 86.5286 193.271 87.0958 193.29 87.9883C193.402 90.61 193.299 92.2556 192.983 92.9249C192.76 93.3898 192.388 93.6408 191.868 93.678C191.347 93.7152 190.938 93.5199 190.64 93.0923C190.566 92.9621 190.519 92.7762 190.501 92.5345C190.501 92.3113 190.501 91.5676 190.501 90.3032C190.519 89.0202 190.519 88.2765 190.501 88.0719C190.501 87.8488 190.464 87.728 190.389 87.7094C190.296 87.6722 189.813 87.6443 188.939 87.6257C188.065 87.5885 187.349 87.5792 186.791 87.5978C185.453 87.6164 184.542 87.5978 184.058 87.542C183.575 87.4676 183.193 87.291 182.915 87.0121C182.71 86.8076 182.58 86.5379 182.524 86.2033C182.487 85.8686 182.552 85.6361 182.719 85.506C182.757 85.4688 182.775 85.4223 182.775 85.3665C182.775 85.2922 182.868 85.1899 183.054 85.0597C183.259 84.9296 183.454 84.8459 183.64 84.8087ZM215.845 73.2062C216.031 73.169 216.264 73.1783 216.543 73.234C216.989 73.3084 217.314 73.6059 217.519 74.1266C217.593 74.2939 217.63 75.549 217.63 77.8918C217.63 80.216 217.602 81.6385 217.547 82.1591C217.472 82.8843 217.268 83.3956 216.933 83.6931C216.598 83.9906 216.031 84.1672 215.232 84.223C215.195 84.2416 215.148 84.2509 215.092 84.2509C214.813 84.2695 214.646 84.3532 214.59 84.5019C214.553 84.6507 214.534 85.162 214.534 86.0359C214.534 86.2033 214.534 86.3427 214.534 86.4543C214.534 87.7372 214.562 88.4066 214.618 88.4624C214.674 88.4996 215.362 88.5089 216.682 88.4903C216.794 88.4717 216.942 88.4624 217.128 88.4624C218.616 88.4252 219.499 88.4252 219.778 88.4624C220.075 88.4996 220.336 88.6391 220.559 88.8808C220.577 88.918 220.596 88.9458 220.615 88.9644C220.968 89.3363 221.024 89.764 220.782 90.2474C220.559 90.7309 220.159 91.0191 219.583 91.112C219.322 91.1678 218.337 91.205 216.626 91.2236C215.102 91.2608 213.744 91.298 212.554 91.3352C210.025 91.4281 208.417 91.4746 207.729 91.4746C207.06 91.4746 206.613 91.4281 206.39 91.3352C205.87 91.112 205.581 90.7309 205.526 90.1916C205.489 89.6338 205.702 89.2155 206.167 88.9366C206.576 88.6948 207.301 88.6205 208.343 88.7134C208.826 88.7692 209.226 88.7785 209.542 88.7413C209.839 88.7041 210.267 88.6669 210.825 88.6298C210.899 88.6298 210.992 88.6298 211.104 88.6298C211.457 88.6298 211.662 88.5647 211.717 88.4345C211.773 88.2858 211.783 87.8116 211.745 87.0121C211.745 86.789 211.736 86.603 211.717 86.4543C211.717 86.4357 211.717 86.3892 211.717 86.3148C211.68 85.3479 211.643 84.7808 211.606 84.6135C211.587 84.4461 211.485 84.3625 211.299 84.3625C211.281 84.3625 211.271 84.3625 211.271 84.3625C210.639 84.3625 210.1 84.223 209.654 83.9441C209.226 83.6652 208.938 83.2654 208.789 82.7448C208.677 82.3171 208.594 80.8668 208.538 78.3938C208.482 75.9209 208.51 74.5635 208.622 74.3218C208.826 73.8569 209.161 73.578 209.626 73.4851C210.109 73.3735 210.518 73.4851 210.853 73.8198C211.057 74.0057 211.178 74.2009 211.215 74.4055C211.271 74.61 211.308 75.0562 211.327 75.7442C211.346 76.5066 211.392 76.9342 211.466 77.0272C211.559 77.1202 211.913 77.1388 212.526 77.083C212.861 77.0458 213.289 77.0086 213.809 76.9714C214.348 76.9528 214.646 76.897 214.702 76.8041C214.776 76.6925 214.813 76.2463 214.813 75.4653C214.813 74.6286 214.823 74.1637 214.841 74.0708C214.916 73.8476 215.046 73.6617 215.232 73.513C215.418 73.3456 215.622 73.2433 215.845 73.2062ZM214.702 79.9557C214.646 79.8999 214.525 79.8628 214.339 79.8442C214.153 79.8256 214.042 79.8349 214.005 79.8721C213.986 79.8906 213.605 79.9278 212.861 79.9836C212.08 80.058 211.634 80.151 211.522 80.2625C211.411 80.3555 211.392 80.6902 211.466 81.2666L211.494 81.4339L213.084 81.406C213.158 81.406 213.261 81.406 213.391 81.406C214.153 81.406 214.59 81.3782 214.702 81.3224C214.832 81.2666 214.888 81.0621 214.869 80.7088C214.869 80.653 214.86 80.6158 214.841 80.5972C214.823 80.2253 214.776 80.0115 214.702 79.9557ZM236.129 73.8476C236.241 73.7919 236.39 73.764 236.576 73.764C236.761 73.7454 236.873 73.7547 236.91 73.7919C236.947 73.8291 237.031 73.8662 237.161 73.9034C237.273 73.9406 237.394 74.0243 237.524 74.1544C237.673 74.2846 237.766 74.4055 237.803 74.517C237.821 74.61 237.849 74.6751 237.886 74.7123C237.998 74.861 238.007 75.3352 237.914 76.1347C237.859 76.5995 237.803 80.5321 237.747 87.9325C237.728 88.8622 237.691 89.5037 237.635 89.8569C237.58 90.1916 237.468 90.4427 237.301 90.61C236.947 90.9633 236.538 91.0748 236.074 90.9447C235.609 90.8331 235.283 90.5356 235.097 90.0522C235.042 89.9406 235.014 89.2619 235.014 88.0162C235.032 86.7704 235.069 85.4967 235.125 84.1951C235.125 84.1393 235.125 84.0557 235.125 83.9441C235.162 83.5908 235.107 83.3863 234.958 83.3305C234.809 83.2561 234.289 83.1818 233.396 83.1074C233.117 83.0888 232.894 83.0702 232.727 83.0516C231.63 82.9772 230.979 82.8843 230.774 82.7727C230.235 82.4566 229.975 82.0103 229.993 81.4339C230.031 80.8575 230.337 80.4856 230.914 80.3183C231.118 80.2439 231.63 80.2346 232.448 80.2904C233.731 80.3462 234.474 80.3741 234.679 80.3741C234.884 80.3741 235.004 80.3462 235.042 80.2904C235.097 80.1974 235.135 79.3142 235.153 77.6408C235.172 76.7483 235.19 76.1161 235.209 75.7442C235.227 75.3537 235.274 75.0098 235.348 74.7123C235.423 74.3962 235.506 74.2009 235.599 74.1266C235.711 74.0336 235.888 73.9406 236.129 73.8476ZM226.34 75.3259C226.749 75.2515 227.102 75.2329 227.399 75.2701C227.716 75.3073 227.985 75.3352 228.208 75.3537C228.431 75.3723 228.617 75.4653 228.766 75.6327C228.933 75.7814 229.064 75.9395 229.157 76.1068C229.268 76.2741 229.352 76.5252 229.408 76.8598C229.463 77.1945 229.501 77.5478 229.519 77.9197C229.538 78.2916 229.547 78.7657 229.547 79.3421C229.547 80.4949 229.454 81.3131 229.268 81.7965C229.101 82.2614 228.766 82.5682 228.264 82.7169C228.19 82.7355 228.125 82.7634 228.069 82.8006C228.032 82.8378 227.781 82.875 227.316 82.9121C226.851 82.9307 226.591 82.9586 226.535 82.9958C226.479 83.0144 226.098 83.0423 225.391 83.0795C224.703 83.0981 224.331 83.1353 224.276 83.1911C224.239 83.2282 224.22 83.7117 224.22 84.6414C224.239 85.5525 224.266 86.0452 224.304 86.1196C224.341 86.1754 225.094 86.2033 226.563 86.2033C228.032 86.2033 228.794 86.2404 228.85 86.3148C228.924 86.3706 228.98 86.3985 229.017 86.3985C229.054 86.3985 229.157 86.4636 229.324 86.5937C229.714 86.947 229.835 87.3747 229.687 87.8767C229.556 88.3787 229.231 88.7134 228.71 88.8808C228.264 89.0295 227.334 89.0667 225.921 88.9923C225.047 88.9551 224.276 88.918 223.606 88.8808C223.011 88.8622 222.584 88.7971 222.323 88.6855C222.082 88.574 221.868 88.3508 221.682 88.0162C221.608 87.8674 221.542 86.7983 221.487 84.8087C221.449 82.8192 221.477 81.7779 221.57 81.685C221.608 81.6478 221.626 81.6013 221.626 81.5455C221.626 81.4711 221.691 81.3503 221.821 81.1829C221.97 80.997 222.1 80.8668 222.212 80.7924C222.416 80.6437 222.649 80.5414 222.909 80.4856C223.188 80.4113 223.662 80.3462 224.331 80.2904C224.815 80.2532 225.131 80.216 225.28 80.1788C225.466 80.1417 225.717 80.1045 226.033 80.0673C226.479 80.0301 226.739 79.9557 226.814 79.8442C226.888 79.7326 226.907 79.4351 226.87 78.9517C226.814 78.524 226.758 78.273 226.702 78.1986C226.665 78.1242 226.535 78.0963 226.312 78.1149C226.033 78.1521 225.614 78.1893 225.057 78.2265C224.499 78.2823 224.006 78.3381 223.578 78.3938C223.151 78.4682 222.835 78.4868 222.63 78.4496C222.444 78.4124 222.258 78.3009 222.072 78.1149C221.7 77.7245 221.57 77.2689 221.682 76.7483C221.793 76.2277 222.1 75.9023 222.602 75.7721C222.695 75.7535 222.76 75.7256 222.798 75.6884C222.853 75.6698 223.021 75.642 223.3 75.6048C223.616 75.5676 223.811 75.5397 223.885 75.5211C224.034 75.5025 224.387 75.4746 224.945 75.4374C225.373 75.4002 225.838 75.363 226.34 75.3259ZM252.869 71.0028C253.092 70.9656 253.324 70.9935 253.566 71.0865C253.826 71.1608 254.031 71.2724 254.179 71.4211C254.347 71.6443 254.449 71.8953 254.486 72.1742C254.542 72.4531 254.57 72.9737 254.57 73.7361C254.57 74.5356 254.588 74.9912 254.626 75.1027C254.681 75.1957 254.895 75.2236 255.267 75.1864C256.792 75.112 257.647 75.112 257.833 75.1864C257.945 75.2422 258.066 75.3259 258.196 75.4374C258.326 75.549 258.391 75.6327 258.391 75.6884C258.391 75.7256 258.419 75.7535 258.475 75.7721C258.53 75.7907 258.568 75.8558 258.586 75.9673C258.623 76.0789 258.651 76.144 258.67 76.1626C258.707 76.1998 258.726 76.2927 258.726 76.4415C258.726 76.5902 258.698 76.7018 258.642 76.7762C258.586 76.8877 258.558 76.9714 258.558 77.0272C258.558 77.083 258.493 77.1759 258.363 77.3061C258.233 77.4363 258.112 77.5385 258 77.6129C257.777 77.7245 257.052 77.8174 255.825 77.8918C255.137 77.9476 254.756 78.0034 254.681 78.0592C254.551 78.1707 254.505 78.7285 254.542 79.7326C254.598 80.8668 254.523 81.5827 254.319 81.8802C254.021 82.2707 253.631 82.4473 253.147 82.4101C252.664 82.3729 252.274 82.1312 251.976 81.685C251.883 81.5362 251.827 79.9092 251.809 76.8041C251.809 73.6989 251.855 72.0533 251.948 71.8674C252.19 71.384 252.497 71.0958 252.869 71.0028ZM245.115 72.6205C246.398 72.4903 247.207 72.4996 247.541 72.6483C248.081 72.8901 248.415 73.2619 248.545 73.764C248.694 74.266 248.657 74.9633 248.434 75.8558C248.415 75.893 248.369 76.0789 248.294 76.4136C248.183 76.9528 248.034 77.5478 247.848 78.1986C247.644 78.9795 247.514 79.5281 247.458 79.8442C247.421 80.0301 247.383 80.1603 247.346 80.2346C247.309 80.2904 247.29 80.3834 247.29 80.5135C247.29 80.6437 247.225 80.8389 247.095 81.0992C246.984 81.3596 246.863 81.5455 246.733 81.6571C246.398 81.9732 246.017 82.0847 245.589 81.9917C245.161 81.8988 244.845 81.6385 244.641 81.2108C244.511 80.9319 244.511 80.5228 244.641 79.9836C244.715 79.6675 244.808 79.2956 244.92 78.868C244.92 78.8308 244.938 78.7471 244.975 78.617C245.013 78.4682 245.041 78.3659 245.059 78.3102C245.096 78.1056 245.134 77.929 245.171 77.7802C245.189 77.6129 245.217 77.4641 245.254 77.334C245.44 76.739 245.57 76.1533 245.645 75.5769L245.673 75.3259H244.752C244.12 75.3259 243.572 75.3444 243.107 75.3816C242.568 75.4374 242.159 75.4281 241.88 75.3537C241.619 75.2608 241.396 75.0748 241.21 74.7959C241.117 74.6472 241.061 74.4334 241.043 74.1544C241.024 73.8755 241.061 73.6896 241.154 73.5966C241.21 73.5408 241.238 73.4944 241.238 73.4572C241.238 73.4014 241.322 73.2991 241.489 73.1504C241.694 72.983 241.917 72.8715 242.159 72.8157C242.419 72.7413 242.856 72.7041 243.469 72.7041C244.157 72.7041 244.706 72.6762 245.115 72.6205ZM251.028 83.1911C252.645 83.1167 253.575 83.1539 253.817 83.3026C253.947 83.377 254.077 83.4979 254.207 83.6652C254.356 83.8325 254.44 83.9627 254.458 84.0557C254.477 84.13 254.505 84.2137 254.542 84.3067C254.579 84.3997 254.598 84.9575 254.598 85.9801C254.598 86.5937 254.588 87.0772 254.57 87.4305C254.551 87.7651 254.486 88.0905 254.375 88.4066C254.282 88.7041 254.17 88.9273 254.04 89.076C253.928 89.2062 253.724 89.327 253.426 89.4386C253.129 89.5316 252.813 89.5966 252.478 89.6338C252.162 89.671 251.706 89.6989 251.111 89.7175C250.107 89.7547 249.429 89.7919 249.075 89.8291C248.741 89.8662 248.341 89.8848 247.876 89.8848C247.504 89.8848 247.281 89.9127 247.207 89.9685C247.151 90.0057 247.123 90.1916 247.123 90.5263C247.123 90.5635 247.123 90.61 247.123 90.6658C247.104 90.9261 247.197 91.0748 247.402 91.112C247.625 91.1492 248.378 91.1678 249.661 91.1678C250.014 91.1678 250.293 91.1678 250.498 91.1678C250.591 91.1678 250.73 91.1678 250.916 91.1678C252.348 91.1864 253.194 91.205 253.454 91.2236C253.715 91.2422 253.919 91.3352 254.068 91.5025C254.086 91.5211 254.096 91.5397 254.096 91.5583C254.43 91.9116 254.551 92.2927 254.458 92.7018C254.384 93.1295 254.124 93.4549 253.677 93.678C253.343 93.8639 251.995 93.929 249.633 93.8732C247.272 93.836 245.887 93.7245 245.478 93.5385C245.106 93.3526 244.836 93.1016 244.669 92.7855C244.501 92.488 244.39 92.051 244.334 91.4746C244.222 89.8012 244.315 88.7227 244.613 88.2393C244.855 87.8488 245.124 87.5885 245.422 87.4583C245.719 87.3282 246.221 87.2538 246.928 87.2352C247.541 87.2166 247.923 87.1887 248.071 87.1515C248.22 87.1144 248.676 87.0958 249.438 87.0958C250.851 87.0958 251.669 87.04 251.892 86.9284C251.948 86.8912 251.976 86.7146 251.976 86.3985C251.957 86.101 251.911 85.9243 251.837 85.8686C251.762 85.7942 251.567 85.7849 251.251 85.8407C251.009 85.8779 250.042 85.9151 248.35 85.9522C246.677 85.9894 245.747 85.9894 245.561 85.9522C244.966 85.8593 244.576 85.5711 244.39 85.0876C244.204 84.6042 244.306 84.1393 244.697 83.6931C244.882 83.5071 245.087 83.3956 245.31 83.3584C245.533 83.3212 246.305 83.2933 247.625 83.2747C249.373 83.2375 250.507 83.2096 251.028 83.1911ZM275.747 74.2939C276.286 74.015 276.789 74.0801 277.253 74.4891C277.476 74.6751 277.607 74.9447 277.644 75.298C277.681 75.6512 277.662 76.6367 277.588 78.2544C277.569 79.0725 277.542 81.1178 277.504 84.3904C277.467 87.1051 277.43 88.7134 277.393 89.2155C277.356 89.7175 277.263 90.0708 277.114 90.2753C276.761 90.6844 276.324 90.8517 275.803 90.7773C275.282 90.6844 274.948 90.3962 274.799 89.9127C274.743 89.7454 274.715 89.1504 274.715 88.1277C274.734 87.0865 274.771 86.0359 274.827 84.9761C274.864 84.1022 274.873 83.6466 274.855 83.6094C274.743 83.5164 274.306 83.4514 273.544 83.4142C272.782 83.377 272.372 83.4049 272.317 83.4979C272.28 83.5722 272.252 84.1858 272.233 85.3386C272.214 86.4729 272.224 87.2352 272.261 87.6257C272.298 88.0348 272.298 88.3508 272.261 88.574C272.224 88.7785 272.131 88.9923 271.982 89.2155C271.833 89.4386 271.74 89.5501 271.703 89.5501C271.666 89.5501 271.619 89.5687 271.564 89.6059C271.378 89.7733 271.136 89.8384 270.838 89.8012C270.541 89.7454 270.281 89.5966 270.058 89.3549C269.76 89.076 269.583 88.5926 269.528 87.9046C269.49 87.2166 269.49 85.1899 269.528 81.8244C269.565 79.3886 269.602 77.8453 269.639 77.1945C269.676 76.5252 269.751 76.0789 269.862 75.8558C270.123 75.3352 270.532 75.0655 271.09 75.0469C271.647 75.0284 272.038 75.2794 272.261 75.8C272.335 75.9302 272.372 76.0975 272.372 76.302C272.391 76.5066 272.391 77.1666 272.372 78.2823C272.372 78.4124 272.372 78.6077 272.372 78.868C272.354 79.7233 272.363 80.2253 272.4 80.3741C272.438 80.5228 272.577 80.5972 272.819 80.5972C272.875 80.6158 272.921 80.6251 272.958 80.6251C273.237 80.6437 273.562 80.6716 273.934 80.7088C274.343 80.7646 274.585 80.7739 274.66 80.7367C274.752 80.6809 274.818 80.5042 274.855 80.2067C274.873 79.8535 274.883 79.1097 274.883 77.9755C274.883 76.5809 274.929 75.6698 275.022 75.2422C275.134 74.7959 275.375 74.4798 275.747 74.2939ZM263.029 75.9395C264.498 75.9023 265.428 75.9023 265.818 75.9395C266.209 75.958 266.506 76.0603 266.711 76.2463C266.971 76.488 267.138 76.7855 267.213 77.1388C267.306 77.4734 267.352 78.0499 267.352 78.868C267.352 80.3555 267.231 81.3967 266.99 81.9917C266.766 82.5682 266.311 83.0051 265.623 83.3026C265.493 83.3584 264.879 83.3956 263.782 83.4142C262.852 83.4328 262.304 83.47 262.137 83.5257C261.969 83.5629 261.904 83.6745 261.941 83.8604C261.96 83.9534 261.979 84.3625 261.997 85.0876C261.997 85.1806 261.997 85.3015 261.997 85.4502C261.997 85.9151 262.062 86.1847 262.192 86.259C262.341 86.3334 262.834 86.3706 263.671 86.3706C263.968 86.3706 264.2 86.3706 264.368 86.3706C265.725 86.3892 266.478 86.4357 266.627 86.5101C267.222 86.8262 267.464 87.2817 267.352 87.8767C267.259 88.4531 266.859 88.8529 266.153 89.076C265.93 89.1504 265.288 89.1783 264.228 89.1597C263.169 89.1225 262.137 89.0574 261.133 88.9644C260.575 88.8901 260.175 88.7134 259.933 88.4345C259.71 88.137 259.561 87.635 259.487 86.9284C259.431 86.2962 259.385 85.8407 259.347 85.5618C259.31 85.1155 259.292 84.4554 259.292 83.5815C259.31 82.689 259.347 82.1498 259.403 81.9639C259.515 81.5362 259.738 81.2387 260.073 81.0714C260.426 80.8854 260.965 80.7739 261.69 80.7367C262.192 80.7181 262.601 80.6995 262.918 80.6809C263.289 80.6251 263.633 80.5879 263.949 80.5693C264.303 80.5507 264.507 80.5042 264.563 80.4299C264.619 80.3555 264.647 80.0673 264.647 79.5653C264.647 79.1004 264.61 78.8308 264.535 78.7564C264.479 78.6635 264.312 78.6356 264.033 78.6727C263.829 78.6913 263.429 78.7099 262.834 78.7285C262.202 78.7657 261.728 78.8029 261.411 78.8401C260.872 78.9145 260.472 78.9052 260.212 78.8122C259.859 78.682 259.599 78.431 259.431 78.0592C259.264 77.6873 259.255 77.3433 259.403 77.0272C259.589 76.5995 259.896 76.3206 260.324 76.1905C260.77 76.0603 261.672 75.9766 263.029 75.9395ZM287.254 73.7082C287.83 73.6152 288.5 73.6803 289.262 73.9034C289.299 73.922 289.504 73.9778 289.875 74.0708C290.006 74.108 290.099 74.1451 290.154 74.1823C290.173 74.1823 290.201 74.2009 290.238 74.2381C290.294 74.2567 290.359 74.2846 290.433 74.3218C290.526 74.359 290.601 74.3962 290.656 74.4334C291.437 74.8052 292.042 75.4002 292.469 76.2184C292.897 77.0179 293.046 77.836 292.916 78.6727C292.86 79.0074 292.823 79.2213 292.804 79.3142C292.785 79.4816 292.758 79.5745 292.72 79.5931C292.702 79.6303 292.692 79.6768 292.692 79.7326C292.692 79.9371 292.414 80.402 291.856 81.1271C291.298 81.8337 290.935 82.187 290.768 82.187C290.731 82.187 290.712 82.2056 290.712 82.2428C290.712 82.28 290.814 82.2985 291.019 82.2985C291.354 82.2985 291.651 82.4287 291.911 82.689C292.116 82.8936 292.237 83.1725 292.274 83.5257C292.33 83.879 292.367 84.7808 292.386 86.2311C292.386 87.5327 292.404 88.2021 292.441 88.2393C292.46 88.2765 292.823 88.2951 293.529 88.2951C294.124 88.2951 294.505 88.3137 294.673 88.3508C294.84 88.388 295.035 88.5182 295.258 88.7413C295.649 89.0946 295.798 89.4851 295.705 89.9127C295.612 90.3218 295.305 90.6751 294.784 90.9726C294.673 91.0284 294.505 91.0655 294.282 91.0841C294.078 91.1027 293.399 91.112 292.246 91.112C290.424 91.112 288.388 91.1213 286.138 91.1399C283.647 91.1585 282.271 91.1492 282.01 91.112C281.508 91.0563 281.136 90.7959 280.895 90.3311C280.653 89.8477 280.662 89.4107 280.923 89.0202C281.127 88.7413 281.378 88.5554 281.676 88.4624C281.973 88.3694 282.447 88.3415 283.098 88.3787C283.749 88.4159 284.121 88.4159 284.214 88.3787C284.307 88.3415 284.344 88.1835 284.325 87.9046C284.158 85.8965 284.158 84.5019 284.325 83.721C284.493 82.94 284.883 82.5124 285.497 82.438C285.776 82.4008 285.85 82.3264 285.72 82.2149C285.664 82.1405 285.506 82.0103 285.246 81.8244C284.539 81.3596 284.028 80.8668 283.712 80.3462C283.414 79.8256 283.247 79.1934 283.21 78.4496C283.21 78.0777 283.219 77.8174 283.237 77.6687C283.256 77.5199 283.33 77.2782 283.461 76.9435C283.758 76.144 284.26 75.4467 284.967 74.8517C285.673 74.2381 286.436 73.8569 287.254 73.7082ZM288.955 76.6646C288.304 76.4787 287.709 76.5252 287.17 76.8041C286.631 77.083 286.259 77.5106 286.054 78.087C285.868 78.6635 286.036 79.1469 286.556 79.5374C287.096 79.9092 287.719 80.058 288.425 79.9836C289.15 79.8906 289.634 79.5745 289.875 79.0353C290.47 77.7709 290.164 76.9807 288.955 76.6646ZM290.154 82.6611C290.322 82.4938 290.377 82.4101 290.322 82.4101C290.229 82.4287 289.95 82.4938 289.485 82.6053C289.299 82.6611 288.89 82.6983 288.258 82.7169C287.644 82.7169 287.189 82.689 286.891 82.6332C286.612 82.5775 286.454 82.5682 286.417 82.6053C286.398 82.6239 286.454 82.7262 286.584 82.9121C286.77 83.1725 286.882 83.4607 286.919 83.7768C286.956 84.0743 286.984 84.8552 287.003 86.1196C287.021 87.6071 287.058 88.3694 287.114 88.4066C287.189 88.4438 287.598 88.4438 288.341 88.4066C289.085 88.3694 289.494 88.3323 289.569 88.2951C289.624 88.2579 289.652 88.137 289.652 87.9325C289.671 87.728 289.68 87.04 289.68 85.8686C289.68 84.4926 289.699 83.6745 289.736 83.4142C289.773 83.1353 289.913 82.8843 290.154 82.6611ZM300.91 72.983C301.281 72.9458 301.588 72.9458 301.83 72.983C302.109 73.0388 302.351 73.076 302.555 73.0946C303.001 73.1504 303.466 73.3456 303.95 73.6803C304.452 74.015 304.889 74.4334 305.26 74.9354C305.409 75.1399 305.484 75.2608 305.484 75.298C305.484 75.3166 305.53 75.4002 305.623 75.549C305.716 75.6791 305.79 75.8372 305.846 76.0231C305.902 76.2277 305.958 76.4136 306.014 76.5809C306.144 76.897 306.19 77.427 306.153 78.1707C306.134 78.8959 306.051 79.4165 305.902 79.7326C305.66 80.2718 305.353 80.7181 304.982 81.0714C304.628 81.4246 304.154 81.75 303.559 82.0475C303.187 82.2335 302.964 82.3543 302.89 82.4101C302.815 82.4845 302.713 82.5403 302.583 82.5775C302.025 82.7448 301.737 83.4328 301.718 84.6414L301.69 85.6176L301.439 85.9243C301.086 86.3334 300.649 86.5008 300.129 86.4264C299.627 86.352 299.264 86.0638 299.041 85.5618C298.929 85.32 298.883 84.7622 298.901 83.8883C298.939 83.0144 299.013 82.5031 299.125 82.3543C299.199 82.2985 299.255 82.1777 299.292 81.9917C299.348 81.8058 299.413 81.6757 299.487 81.6013C299.543 81.5269 299.608 81.4246 299.682 81.2945C299.738 81.1643 299.896 80.9784 300.156 80.7367C300.417 80.4949 300.612 80.3369 300.742 80.2625C301.467 79.9092 301.951 79.6675 302.193 79.5374C302.453 79.4072 302.685 79.2399 302.89 79.0353C303.094 78.8308 303.197 78.6727 303.197 78.5612C303.197 78.431 303.197 78.1893 303.197 77.836C303.159 77.3712 303.057 76.9993 302.89 76.7204C302.722 76.4415 302.444 76.2091 302.053 76.0231C301.57 75.8 301.161 75.7721 300.826 75.9395C300.659 76.0324 300.491 76.0975 300.324 76.1347C300.194 76.1905 300.082 76.2555 299.989 76.3299C299.469 76.7018 299.208 76.9249 299.208 76.9993C299.208 77.1295 299.134 77.3433 298.985 77.6408C298.836 77.9383 298.697 78.1428 298.567 78.2544C298.362 78.4403 298.093 78.5426 297.758 78.5612C297.423 78.5612 297.135 78.4589 296.893 78.2544C296.298 77.7895 296.131 77.1109 296.391 76.2184C296.652 75.3259 297.228 74.5821 298.12 73.9871C298.66 73.6524 298.948 73.4851 298.985 73.4851C298.985 73.4851 299.106 73.4293 299.348 73.3177C299.571 73.2062 299.831 73.1318 300.129 73.0946C300.203 73.076 300.333 73.0574 300.519 73.0388C300.705 73.0202 300.835 73.0016 300.91 72.983ZM299.933 88.2393C300.528 88.1277 301.021 88.2393 301.412 88.574C301.821 88.9087 302.016 89.3363 301.997 89.8569C301.997 90.3776 301.765 90.8331 301.3 91.2236C300.984 91.4653 300.593 91.5862 300.129 91.5862C299.682 91.5862 299.329 91.4653 299.069 91.2236C298.846 91.0005 298.697 90.6844 298.622 90.2753C298.548 89.8662 298.576 89.5409 298.706 89.2991C299.059 88.6855 299.469 88.3323 299.933 88.2393Z" fill="black"/>
<circle cx="202.491" cy="138.341" r="23.5143" fill="black"/>
<path d="M189.984 138.339H216M216 138.339L207.328 129.834M216 138.339L207.328 146.844" stroke="white" stroke-width="1.00061" stroke-linecap="round"/>
<circle cx="202.507" cy="138.063" r="23.5143" fill="black"/>
<path d="M190 138.062H216.016M216.016 138.062L207.344 129.557M216.016 138.062L207.344 146.567" stroke="white" stroke-width="1.00061" stroke-linecap="round"/>
</svg>
