<svg width="701" height="283" viewBox="0 0 701 283" fill="none" xmlns="http://www.w3.org/2000/svg">
<rect width="620" height="283" rx="31" fill="white"/>
<path d="M700.5 170L616 146V188.5L700.5 170Z" fill="white"/>
<path d="M112.424 56.6917C112.842 56.4986 113.325 56.4986 113.873 56.6917C114.452 56.8849 114.887 57.2229 115.176 57.7057C115.337 57.9954 115.45 58.4461 115.514 59.0577C115.579 59.6692 115.627 60.8442 115.659 62.5824C115.723 65.2219 115.836 66.6382 115.997 66.8313C116.061 66.8957 116.641 66.9762 117.735 67.0728C118.862 67.1371 119.86 67.1693 120.729 67.1693C121.952 67.1371 122.692 67.1854 122.95 67.3142C123.529 67.6361 123.916 68.0545 124.109 68.5696C124.334 69.0524 124.35 69.5352 124.157 70.0181C124.028 70.2434 123.819 70.5331 123.529 70.8872C123.24 71.2413 123.046 71.4183 122.95 71.4183C122.853 71.4183 122.773 71.4666 122.708 71.5631C122.515 71.7885 121.678 71.9011 120.198 71.9011C117.462 71.8689 116.029 71.9816 115.9 72.2391C115.804 72.3357 115.74 74.3636 115.707 78.3229C115.707 81.5418 115.675 83.4249 115.611 83.9721C115.546 84.5193 115.337 85.0343 114.983 85.5172C114.693 85.8712 114.259 86.0966 113.679 86.1931C113.1 86.3219 112.633 86.2575 112.279 86C111.539 85.5494 111.136 85.0021 111.072 84.3584C111.008 84.0365 110.976 81.5579 110.976 76.9226C110.976 72.2552 110.992 69.5996 111.024 68.9558C111.088 68.0545 111.088 66.6221 111.024 64.6586C110.895 60.6993 110.895 58.5587 111.024 58.2368C111.314 57.5287 111.78 57.0136 112.424 56.6917ZM94.7522 60.313C95.1063 60.2165 95.4925 60.2004 95.911 60.2647C96.3294 60.3291 96.6513 60.474 96.8767 60.6993C97.3595 61.1499 97.6331 61.9225 97.6975 63.0169C97.7941 64.1114 97.7297 66.268 97.5044 69.4869C97.3112 72.4484 97.3112 73.9934 97.5044 74.1222C97.6009 74.2188 98.631 74.267 100.595 74.267C102.59 74.267 103.846 74.2188 104.361 74.1222C105.165 73.9612 105.793 73.9612 106.244 74.1222C106.694 74.2509 107.113 74.5889 107.499 75.1362C107.918 75.6834 107.95 76.3432 107.596 77.1158C107.242 77.8561 106.662 78.3551 105.857 78.6126C105.342 78.7735 103.54 78.9023 100.45 78.9989C97.3595 79.0954 95.5408 79.0793 94.9936 78.9506C93.867 78.6931 93.0944 78.1136 92.676 77.2124C92.5794 76.9548 92.515 76.2628 92.4828 75.1362C92.4828 73.9773 92.5311 73.076 92.6277 72.4323C92.6921 72.0138 92.7564 70.5009 92.8208 67.8936C92.8852 64.1274 93.0461 62.003 93.3037 61.5201C93.4324 61.327 93.6416 61.1017 93.9314 60.8442C94.2532 60.5544 94.5269 60.3774 94.7522 60.313ZM148.381 57.5126C148.703 57.2872 149.186 57.239 149.83 57.3677C150.474 57.4965 150.941 57.7379 151.23 58.092C151.262 58.092 151.279 58.1081 151.279 58.1403C151.568 58.4622 151.729 59.0255 151.761 59.8302C151.826 60.6027 151.842 63.1618 151.81 67.5073C151.81 67.7004 151.81 67.8614 151.81 67.9902C151.745 74.0739 151.729 77.9366 151.761 79.5783C151.761 81.6706 151.729 82.9098 151.665 83.2961C151.536 84.0686 151.198 84.6641 150.651 85.0826C150.104 85.4689 149.508 85.5976 148.864 85.4689C148.221 85.3401 147.706 84.9539 147.319 84.3101C147.094 83.9882 146.981 79.7392 146.981 71.5631C146.981 63.3871 147.078 59.1059 147.271 58.7197C147.496 58.2368 147.866 57.8345 148.381 57.5126ZM132.931 58.2851C134.025 58.092 135.248 58.2529 136.6 58.768C137.984 59.2508 139.063 59.9268 139.835 60.7959C140.64 61.665 141.107 62.8721 141.235 64.4172C141.396 65.9622 141.187 67.3464 140.608 68.5696C140.157 69.503 139.642 70.2434 139.063 70.7906C138.483 71.3378 137.727 71.8046 136.793 72.1908C135.377 72.7702 133.768 72.8024 131.965 72.2874C130.162 71.7402 128.794 70.8389 127.861 69.5835C127.121 68.6178 126.718 67.5073 126.654 66.2519C126.589 64.9966 126.799 63.8377 127.281 62.7755C127.797 61.6811 128.553 60.7154 129.551 59.8785C130.549 59.0094 131.675 58.4782 132.931 58.2851ZM135.345 63.3066C134.379 63.0169 133.494 63.1296 132.689 63.6446C131.885 64.1596 131.482 64.8678 131.482 65.7691C131.482 66.5416 131.917 67.1371 132.786 67.5556C133.655 67.9419 134.508 67.9419 135.345 67.5556C136.214 67.1693 136.649 66.429 136.649 65.3345C136.649 64.2401 136.214 63.5641 135.345 63.3066ZM141.767 76.2467C142.539 76.1501 143.151 76.1662 143.601 76.295C143.988 76.3915 144.358 76.5847 144.712 76.8744C145.034 77.1641 145.243 77.5664 145.34 78.0815C145.468 78.5643 145.436 78.9989 145.243 79.3851C144.889 80.1255 144.31 80.6083 143.505 80.8336C142.732 81.0268 141.203 81.1233 138.918 81.1233C137.437 81.1233 135.763 81.1555 133.896 81.2199C129.873 81.413 127.636 81.4452 127.185 81.3165C126.251 81.059 125.64 80.5278 125.35 79.7231C125.093 78.8862 125.286 78.1297 125.93 77.4538C126.284 77.0675 126.67 76.8422 127.088 76.7778C127.507 76.7134 128.73 76.649 130.758 76.5847C133.172 76.5525 134.733 76.5042 135.441 76.4398C136.246 76.3754 137.357 76.3272 138.773 76.295C140.318 76.295 141.316 76.2789 141.767 76.2467ZM181.211 55.0018C182.402 54.6799 183.674 54.6316 185.026 54.857C186.378 55.0501 187.537 55.4686 188.502 56.1123C189.468 56.7561 190.45 57.754 191.448 59.1059C192.445 60.4579 193.057 61.6006 193.282 62.5341C193.315 62.695 193.411 62.9525 193.572 63.3066C193.701 63.5641 193.814 63.9021 193.91 64.3206C193.974 64.7069 194.055 65.0448 194.151 65.3345C194.28 65.6242 194.377 66.091 194.441 66.7348C194.506 67.4107 194.586 67.9097 194.683 68.2316C194.779 68.5857 194.827 69.0685 194.827 69.6801C194.827 70.2595 194.779 70.7262 194.683 71.0803C194.586 71.4344 194.506 72.0138 194.441 72.8185C194.377 73.6554 194.329 74.1544 194.296 74.3153C194.232 74.4763 194.135 74.8947 194.007 75.5707C193.846 76.3111 193.701 76.8261 193.572 77.1158C193.379 77.6308 193.427 78.1297 193.717 78.6126C194.007 79.0632 194.94 80.1577 196.517 81.8959C197.258 82.7006 197.708 83.3444 197.869 83.8272C198.03 84.2779 197.982 84.7929 197.724 85.3723C197.467 85.9195 197.177 86.2897 196.855 86.4828C196.566 86.676 196.147 86.7725 195.6 86.7725C195.021 86.7725 194.441 86.5472 193.862 86.0966C193.282 85.6459 192.268 84.632 190.82 83.0547C190.562 82.765 190.369 82.6362 190.241 82.6684C190.144 82.6684 189.87 82.8616 189.42 83.2478C188.486 84.0526 187.907 84.4549 187.681 84.4549C187.585 84.4549 187.392 84.5515 187.102 84.7446C186.812 84.9056 186.539 85.0182 186.281 85.0826C186.056 85.1148 185.75 85.2114 185.364 85.3723C184.945 85.5333 184.092 85.6137 182.805 85.6137C181.549 85.5815 180.664 85.4689 180.149 85.2757C177.027 84.0526 174.693 81.8315 173.148 78.6126C172.891 78.0654 172.762 77.7596 172.762 77.6952C172.762 77.5986 172.665 77.325 172.472 76.8744C172.279 76.3915 172.166 75.9892 172.134 75.6673C172.102 75.3132 172.021 74.9913 171.893 74.7016C171.732 74.3153 171.651 73.1887 171.651 71.3217C171.651 69.4548 171.732 68.3442 171.893 67.9902C172.054 67.6683 172.15 67.1693 172.182 66.4934C172.247 65.7852 172.359 65.2058 172.52 64.7551C172.681 64.2723 172.778 63.9182 172.81 63.6929C172.939 62.9847 173.486 61.8581 174.452 60.313C174.806 59.7658 175.015 59.4278 175.079 59.2991C175.208 59.0737 175.578 58.6553 176.19 58.0437C176.802 57.3999 177.22 57.0136 177.445 56.8849C177.542 56.7883 177.864 56.563 178.411 56.2089C178.894 55.8548 179.167 55.6778 179.232 55.6778C179.296 55.6778 179.457 55.6134 179.715 55.4847C179.94 55.3559 180.439 55.1949 181.211 55.0018ZM185.267 60.1682C184.849 59.9429 184.479 59.8463 184.157 59.8785C183.835 59.8785 183.32 60.0072 182.612 60.2647C182.129 60.4257 181.694 60.5705 181.308 60.6993C180.6 60.9246 179.779 61.6811 178.846 62.9686C177.944 64.2562 177.429 65.3828 177.3 66.3485C177.236 66.8313 177.172 67.121 177.107 67.2176C177.011 67.3786 176.946 67.8936 176.914 68.7627C176.85 69.5996 176.785 70.2756 176.721 70.7906C176.464 72.4323 176.785 74.2027 177.687 76.1018C178.62 77.9688 179.843 79.3368 181.356 80.2059C182.064 80.6566 182.885 80.7854 183.819 80.5922C184.784 80.3991 185.654 79.9323 186.426 79.192C186.78 78.8701 186.941 78.6126 186.909 78.4194C186.877 78.2263 186.619 77.8561 186.136 77.3089C185.686 76.8583 185.299 76.4237 184.978 76.0053C184.656 75.5546 184.414 75.2488 184.253 75.0879C183.481 74.2188 183.046 73.3497 182.95 72.4805C182.885 71.5792 183.143 70.9033 183.722 70.4526C184.334 70.002 185.155 69.8732 186.185 70.0664C186.41 70.0985 186.828 70.4204 187.44 71.032C188.052 71.6114 188.438 72.0621 188.599 72.384C188.921 72.9956 189.194 73.2048 189.42 73.0117C189.581 72.8185 189.613 71.708 189.516 69.6801C189.452 67.6522 189.323 66.3807 189.13 65.8657C188.969 65.4794 188.889 65.238 188.889 65.1414C188.889 64.9483 188.647 64.3689 188.164 63.4032C187.424 61.8581 186.458 60.7798 185.267 60.1682ZM211.361 67.7487C212.359 67.2981 213.228 67.3786 213.969 67.9902C214.709 68.5696 215.079 69.503 215.079 70.7906C215.079 71.4666 215.127 72.1908 215.224 72.9634C215.321 73.7359 215.369 74.3797 215.369 74.8947C215.369 75.4098 215.433 75.8604 215.562 76.2467C215.691 76.6329 215.787 77.0997 215.852 77.6469C215.916 78.1941 216.013 78.7252 216.141 79.2403C216.302 79.7553 216.415 80.222 216.479 80.6405C216.512 81.059 216.608 81.4613 216.769 81.8476C216.962 82.3948 217.075 83.0547 217.107 83.8272C217.139 84.5998 217.075 85.147 216.914 85.4689C216.624 86.0483 216.109 86.4346 215.369 86.6277C214.661 86.853 214.049 86.7886 213.534 86.4346C212.794 85.9517 212.343 85.4206 212.182 84.8412C212.086 84.5193 211.989 84.3584 211.892 84.3584C211.796 84.3584 211.554 84.5354 211.168 84.8895C210.75 85.2436 210.283 85.5654 209.768 85.8551C209.253 86.1449 208.851 86.2897 208.561 86.2897C208.303 86.2897 207.949 86.338 207.499 86.4346C207.048 86.5311 206.195 86.4828 204.94 86.2897C203.845 86.1288 202.783 85.5494 201.753 84.5515C200.723 83.5214 200.079 82.4431 199.821 81.3165C199.725 80.8336 199.612 80.3669 199.483 79.9162C199.323 79.3368 199.226 78.5965 199.194 77.6952C199.162 76.7295 199.113 76.0857 199.049 75.7638C198.985 75.3132 198.952 74.3153 198.952 72.7702C198.952 71.193 199.001 70.2434 199.097 69.9215C199.355 68.988 199.966 68.4086 200.932 68.1833C201.93 67.9258 202.799 68.1511 203.539 68.8593C203.765 69.0846 203.893 69.3582 203.926 69.6801C203.99 69.9698 204.038 70.9355 204.07 72.5771C204.103 74.6694 204.183 75.9409 204.312 76.3915C204.441 76.8422 204.537 77.4538 204.602 78.2263C204.698 79.192 204.94 79.9645 205.326 80.5439C205.744 81.1233 206.275 81.413 206.919 81.413C207.209 81.413 207.563 81.1072 207.981 80.4956C208.4 79.8841 208.641 79.3046 208.706 78.7574C208.77 78.4355 208.883 78.1458 209.044 77.8883C209.172 77.5986 209.269 76.8261 209.333 75.5707C209.398 74.3475 209.494 73.6072 209.623 73.3496C209.784 73.0921 209.881 72.3196 209.913 71.032C209.945 69.4548 210.058 68.6661 210.251 68.6661C210.315 68.6661 210.396 68.5696 210.492 68.3764C210.621 68.1833 210.911 67.9741 211.361 67.7487ZM233.257 54.9052C233.515 54.8087 233.837 54.7765 234.223 54.8087C234.609 54.8087 234.867 54.857 234.995 54.9535C235.156 55.0823 235.269 55.1467 235.333 55.1467C235.462 55.1467 235.655 55.3237 235.913 55.6778C236.17 56.0319 236.315 56.3055 236.347 56.4986C236.38 56.7561 236.46 57.0619 236.589 57.416C236.718 57.7701 236.782 62.3409 236.782 71.1286C236.814 79.8841 236.766 84.3905 236.637 84.6481C236.508 84.8412 236.412 85.0182 236.347 85.1792C236.186 85.4689 235.784 85.7425 235.14 86C234.529 86.2575 233.917 86.3863 233.305 86.3863C232.951 86.3863 232.533 86.4346 232.05 86.5311C231.599 86.6599 230.473 86.7243 228.67 86.7243C226.9 86.7564 225.805 86.7243 225.387 86.6277C225.097 86.5311 224.631 86.4185 223.987 86.2897C223.311 86.0966 222.426 85.6942 221.331 85.0826C220.269 84.4388 219.738 83.9882 219.738 83.7307C219.738 83.6985 219.609 83.5375 219.351 83.2478C219.094 82.9259 218.965 82.7167 218.965 82.6201C218.965 82.5236 218.885 82.3787 218.724 82.1856C218.466 81.8637 218.273 81.1072 218.144 79.9162C218.048 78.6931 218.064 77.6791 218.193 76.8744C218.257 76.5525 218.321 76.1662 218.386 75.7156C218.45 75.2649 218.547 74.9591 218.676 74.7982C218.804 74.605 218.917 74.3797 219.013 74.1222C219.368 73.1565 220.204 72.1908 221.524 71.2252C222.844 70.2273 224.18 69.5996 225.532 69.3421C226.047 69.2455 226.417 69.149 226.642 69.0524C226.9 68.9558 227.737 68.8914 229.153 68.8593C230.569 68.8271 231.326 68.7788 231.422 68.7144C231.551 68.65 231.616 66.5899 231.616 62.5341C231.616 59.4761 231.632 57.6735 231.664 57.1263C231.696 56.5791 231.793 56.1928 231.954 55.9675C232.275 55.4203 232.71 55.0662 233.257 54.9052ZM231.374 74.5085C231.245 74.3797 231.101 74.3153 230.94 74.3153C230.779 74.2831 230.215 74.2509 229.25 74.2188C228.026 74.2188 227.318 74.2509 227.125 74.3153C225.773 74.6694 224.824 75.0879 224.276 75.5707C223.729 76.0535 223.407 76.7295 223.311 77.5986C223.15 79.2081 223.375 80.2542 223.987 80.7371C224.631 81.1877 226.159 81.413 228.574 81.413C228.799 81.413 229.089 81.413 229.443 81.413C230.569 81.4452 231.213 81.3648 231.374 81.1716C231.567 80.9785 231.664 80.3347 231.664 79.2403C231.664 78.8862 231.664 78.6126 231.664 78.4194C231.696 76.8422 231.696 75.8443 231.664 75.4259C231.632 75.0074 231.535 74.7016 231.374 74.5085ZM252.967 54.9052C253.224 54.8087 253.546 54.7765 253.932 54.8087C254.319 54.8087 254.576 54.857 254.705 54.9535C254.866 55.0823 254.979 55.1467 255.043 55.1467C255.172 55.1467 255.365 55.3237 255.622 55.6778C255.88 56.0319 256.025 56.3055 256.057 56.4986C256.089 56.7561 256.17 57.0619 256.298 57.416C256.427 57.7701 256.492 62.3409 256.492 71.1286C256.524 79.8841 256.475 84.3905 256.347 84.6481C256.218 84.8412 256.121 85.0182 256.057 85.1792C255.896 85.4689 255.494 85.7425 254.85 86C254.238 86.2575 253.627 86.3863 253.015 86.3863C252.661 86.3863 252.243 86.4346 251.76 86.5311C251.309 86.6599 250.182 86.7243 248.38 86.7243C246.609 86.7564 245.515 86.7243 245.097 86.6277C244.807 86.5311 244.34 86.4185 243.696 86.2897C243.02 86.0966 242.135 85.6942 241.041 85.0826C239.978 84.4388 239.447 83.9882 239.447 83.7307C239.447 83.6985 239.319 83.5375 239.061 83.2478C238.804 82.9259 238.675 82.7167 238.675 82.6201C238.675 82.5236 238.594 82.3787 238.433 82.1856C238.176 81.8637 237.983 81.1072 237.854 79.9162C237.757 78.6931 237.773 77.6791 237.902 76.8744C237.967 76.5525 238.031 76.1662 238.095 75.7156C238.16 75.2649 238.256 74.9591 238.385 74.7982C238.514 74.605 238.627 74.3797 238.723 74.1222C239.077 73.1565 239.914 72.1908 241.234 71.2252C242.554 70.2273 243.889 69.5996 245.241 69.3421C245.756 69.2455 246.127 69.149 246.352 69.0524C246.609 68.9558 247.446 68.8914 248.863 68.8593C250.279 68.8271 251.035 68.7788 251.132 68.7144C251.261 68.65 251.325 66.5899 251.325 62.5341C251.325 59.4761 251.341 57.6735 251.373 57.1263C251.406 56.5791 251.502 56.1928 251.663 55.9675C251.985 55.4203 252.42 55.0662 252.967 54.9052ZM251.084 74.5085C250.955 74.3797 250.81 74.3153 250.649 74.3153C250.488 74.2831 249.925 74.2509 248.959 74.2188C247.736 74.2188 247.028 74.2509 246.835 74.3153C245.483 74.6694 244.533 75.0879 243.986 75.5707C243.439 76.0535 243.117 76.7295 243.02 77.5986C242.859 79.2081 243.085 80.2542 243.696 80.7371C244.34 81.1877 245.869 81.413 248.283 81.413C248.509 81.413 248.798 81.413 249.152 81.413C250.279 81.4452 250.923 81.3648 251.084 81.1716C251.277 80.9785 251.373 80.3347 251.373 79.2403C251.373 78.8862 251.373 78.6126 251.373 78.4194C251.406 76.8422 251.406 75.8443 251.373 75.4259C251.341 75.0074 251.245 74.7016 251.084 74.5085ZM259.591 67.4107C260.3 67.3142 260.863 67.3464 261.281 67.5073C261.475 67.6039 261.748 67.8614 262.102 68.2799C262.489 68.6983 262.714 69.0202 262.778 69.2455C262.843 69.503 262.907 69.6801 262.971 69.7767C263.004 69.841 263.116 70.0664 263.309 70.4526C263.438 70.7423 263.567 70.9837 263.696 71.1769C263.824 71.3378 263.921 71.531 263.985 71.7563C264.05 72.0138 264.13 72.1747 264.227 72.2391C264.323 72.3035 264.42 72.4966 264.516 72.8185C264.613 73.1726 264.726 73.414 264.854 73.5428C265.015 73.6715 265.112 73.8325 265.144 74.0256C265.208 74.1866 265.289 74.3153 265.386 74.4119C265.643 74.6694 265.933 75.1683 266.255 75.9087C266.383 76.1984 266.528 76.4237 266.689 76.5847C266.818 76.7456 267.011 77.0192 267.269 77.4055C267.558 77.8883 267.816 78.0976 268.041 78.0332C268.266 77.9688 268.556 77.5825 268.91 76.8744C269.232 76.2306 269.441 75.8282 269.538 75.6673C269.667 75.5385 269.763 75.3615 269.828 75.1362C269.924 74.8786 270.005 74.7338 270.069 74.7016C270.166 74.605 270.31 74.3958 270.504 74.0739C270.922 73.2692 271.212 72.8024 271.373 72.6737C271.469 72.5127 271.534 72.3518 271.566 72.1908C271.63 71.9977 271.695 71.8529 271.759 71.7563C271.856 71.6597 272.129 71.2252 272.58 70.4526C273.063 69.6479 273.32 69.1972 273.352 69.1007C273.513 68.6822 273.867 68.2316 274.415 67.7487C274.769 67.459 275.284 67.3303 275.96 67.3625C276.668 67.3625 277.199 67.5073 277.553 67.797C278.197 68.3442 278.535 69.0363 278.567 69.8732C278.631 70.7101 278.374 71.5471 277.794 72.384C277.634 72.6093 277.553 72.7542 277.553 72.8185C277.553 72.9151 277.408 73.1726 277.118 73.5911C276.861 74.0095 276.652 74.3958 276.491 74.7499C276.362 75.0718 276.233 75.2649 276.105 75.3293C275.976 75.3937 275.879 75.5385 275.815 75.7638C275.75 76.0214 275.622 76.2628 275.429 76.4881C275.3 76.6812 275.235 76.81 275.235 76.8744C275.235 76.9387 275.107 77.148 274.849 77.5021C274.399 78.178 274.125 78.6609 274.028 78.9506C273.964 79.1437 273.851 79.369 273.69 79.6265C273.497 79.8519 273.401 80.0128 273.401 80.1094C273.401 80.1738 273.304 80.3347 273.111 80.5922C272.95 80.8175 272.87 80.9785 272.87 81.0751C272.87 81.1394 272.789 81.2843 272.628 81.5096C272.467 81.7349 272.354 81.9603 272.29 82.1856C272.226 82.3465 272.113 82.5558 271.952 82.8133C271.823 83.0386 271.727 83.2317 271.662 83.3927C271.63 83.5214 271.55 83.6824 271.421 83.8755C271.26 84.0365 271.115 84.2779 270.986 84.5998C270.858 84.8895 270.761 85.0504 270.697 85.0826C270.632 85.1148 270.568 85.2596 270.504 85.5172C270.439 85.7425 270.343 85.9356 270.214 86.0966C270.085 86.2897 269.989 86.4828 269.924 86.676C269.86 86.9013 269.763 87.0944 269.635 87.2554C269.506 87.4485 269.361 87.6899 269.2 87.9796C268.814 88.6878 268.057 90.088 266.931 92.1803C266.866 92.2769 266.754 92.4539 266.593 92.7114C266.464 93.0011 266.367 93.1943 266.303 93.2909C265.949 93.9346 265.756 94.3048 265.724 94.4014C265.498 94.7876 265.337 95.0934 265.241 95.3188C265.08 95.6085 264.951 95.8177 264.854 95.9465C264.726 96.0752 264.629 96.2683 264.565 96.5259C264.372 97.1053 263.969 97.6364 263.358 98.1192C262.778 98.6021 262.215 98.8435 261.668 98.8435C260.96 98.8435 260.316 98.5055 259.736 97.8295C259.157 97.1857 258.916 96.4776 259.012 95.705C259.044 95.4475 259.189 95.013 259.447 94.4014C259.736 93.822 259.946 93.4679 260.074 93.3391C260.171 93.2748 260.251 93.1138 260.316 92.8563C260.38 92.5666 260.831 91.7297 261.668 90.3455C261.957 89.7983 262.102 89.4764 262.102 89.3799C262.102 89.2833 262.199 89.1063 262.392 88.8487C262.585 88.5912 262.682 88.4303 262.682 88.3659C262.682 88.3015 262.746 88.1889 262.875 88.0279C262.971 87.8992 263.132 87.6416 263.358 87.2554C263.583 86.7725 263.776 86.4024 263.937 86.1449C264.549 85.0504 264.854 84.4066 264.854 84.2135C264.854 84.1169 264.597 83.618 264.082 82.7167C263.567 81.8154 263.245 81.2682 263.116 81.0751C262.955 80.9141 262.585 80.3186 262.006 79.2886C261.941 79.1598 261.684 78.7252 261.233 77.9849C260.847 77.3411 260.589 76.8905 260.461 76.6329C260.332 76.3754 260.203 76.1501 260.074 75.957C259.978 75.796 259.801 75.458 259.543 74.943C259.189 74.267 258.98 73.8647 258.916 73.7359C258.175 72.2874 257.725 71.2574 257.564 70.6458C257.435 70.002 257.531 69.3743 257.853 68.7627C258.079 68.312 258.304 67.9902 258.529 67.797C258.787 67.6039 259.141 67.4751 259.591 67.4107ZM292.136 54.6638C292.619 54.5029 294.341 54.4385 297.303 54.4707C300.296 54.5029 301.986 54.5995 302.372 54.7604C303.048 55.0179 303.628 55.5168 304.111 56.2572C304.433 56.7722 304.465 57.3838 304.207 58.092C303.982 58.7679 303.531 59.2669 302.855 59.5888L302.228 59.9268L298.123 59.975C295.387 59.975 293.971 60.0233 293.874 60.1199C293.81 60.1843 293.762 62.7433 293.73 67.797C293.697 72.8507 293.714 77.3894 293.778 81.413C293.81 83.3444 293.794 84.5032 293.73 84.8895C293.665 85.2436 293.44 85.6137 293.054 86C292.41 86.676 291.67 86.9174 290.833 86.7243C290.028 86.5311 289.416 85.9839 288.998 85.0826L288.66 84.3584L288.612 72.5771C288.579 64.7551 288.531 60.7798 288.467 60.651C288.37 60.5223 287.581 60.4579 286.101 60.4579C284.62 60.4257 283.654 60.474 283.204 60.6027C282.174 60.8602 281.305 60.7476 280.596 60.2647C279.92 59.7497 279.582 58.9611 279.582 57.8988C279.582 56.901 279.872 56.1928 280.452 55.7744C281.063 55.3559 282.077 55.1467 283.493 55.1467C284.491 55.1467 285.103 55.1145 285.328 55.0501C285.586 54.9857 286.696 54.9213 288.66 54.857C290.656 54.8248 291.814 54.7604 292.136 54.6638ZM307.547 54.5673C308.771 54.2454 309.752 54.7765 310.493 56.1606L310.831 56.8366L310.879 68.6178C310.879 76.4398 310.927 80.6566 311.024 81.2682C311.378 83.2317 311.265 84.6963 310.686 85.662C310.139 86.6277 309.189 86.9657 307.837 86.676C307.129 86.515 306.566 85.9839 306.147 85.0826L305.858 84.3584L305.761 75.9087C305.729 70.2434 305.664 67.2015 305.568 66.7831C305.407 66.0105 305.342 64.0953 305.375 61.0373C305.407 57.9471 305.503 56.2572 305.664 55.9675C305.922 55.5168 306.163 55.211 306.389 55.0501C306.646 54.857 307.032 54.696 307.547 54.5673ZM323.849 50.8011C325.169 50.6402 326.296 50.5919 327.229 50.6563C328.195 50.7207 328.951 50.8172 329.498 50.946C330.078 51.0425 330.529 51.284 330.85 51.6702C331.172 52.0565 331.382 52.5072 331.478 53.0222C331.607 53.505 331.671 54.181 331.671 55.0501C331.671 58.5909 330.899 60.6671 329.354 61.2787C328.935 61.4397 328.485 61.5523 328.002 61.6167C327.551 61.6489 326.521 61.665 324.912 61.665L321.628 61.7615V62.0995C321.628 62.2605 321.709 62.357 321.87 62.3892C322.031 62.4214 322.578 62.4697 323.511 62.5341C324.863 62.6307 327.004 62.6146 329.933 62.4858C331.092 62.4536 331.929 62.5341 332.444 62.7272C332.959 62.9204 333.361 63.2905 333.651 63.8377C333.973 64.4172 333.973 65.0448 333.651 65.7208C333.361 66.3646 332.894 66.7992 332.251 67.0245C331.929 67.121 330.818 67.2015 328.919 67.2659C327.052 67.2981 325.668 67.2659 324.767 67.1693C323.962 67.1049 322.787 67.0567 321.242 67.0245C319.729 67.0245 318.844 66.9601 318.586 66.8313C317.717 66.4129 317.154 65.8818 316.896 65.238C316.671 64.562 316.591 63.3227 316.655 61.5201C316.719 60.0716 316.832 59.2025 316.993 58.9128C317.218 58.4622 317.556 58.092 318.007 57.8023C318.49 57.5126 318.973 57.3677 319.455 57.3677C319.681 57.3677 320.115 57.3194 320.759 57.2229C321.403 57.1263 322.513 57.078 324.091 57.078C325.507 57.078 326.312 57.0619 326.505 57.0297C326.73 56.9654 326.843 56.74 326.843 56.3538C326.843 55.8709 326.778 55.6134 326.65 55.5812C326.553 55.5168 326.006 55.4847 325.008 55.4847C323.914 55.4847 323.157 55.5168 322.739 55.5812C322.063 55.6778 321.178 55.7422 320.083 55.7744C318.989 55.7744 318.329 55.71 318.103 55.5812C317.17 55.1628 316.719 54.4868 316.752 53.5533C316.752 52.1048 317.605 51.3001 319.311 51.1391C319.439 51.1391 319.745 51.123 320.228 51.0908C320.743 51.0265 321.129 50.9782 321.387 50.946C321.837 50.9138 322.658 50.8655 323.849 50.8011ZM324.718 68.135C332.025 67.9741 335.856 67.9902 336.21 68.1833C336.371 68.2477 336.596 68.4247 336.886 68.7144C337.176 68.9719 337.32 69.1329 337.32 69.1972C337.32 69.2616 337.369 69.3421 337.465 69.4387C337.691 69.6962 337.739 70.0985 337.61 70.6458C337.481 71.193 337.24 71.6275 336.886 71.9494C336.564 72.2391 336.226 72.4162 335.872 72.4805C335.518 72.5449 334.617 72.5771 333.168 72.5771C331.43 72.5449 329.724 72.561 328.05 72.6254C324.96 72.7542 321.854 72.8346 318.731 72.8668C315.609 72.899 313.935 72.8668 313.71 72.7702C312.776 72.4484 312.261 71.8046 312.165 70.8389C312.1 69.8732 312.503 69.149 313.372 68.6661C313.661 68.5052 314.144 68.4086 314.82 68.3764C315.528 68.3442 318.828 68.2638 324.718 68.135ZM317.138 74.7982C317.46 74.7016 319.987 74.6533 324.718 74.6533C329.482 74.6211 332.041 74.6694 332.395 74.7982C333.361 75.1201 333.941 75.8282 334.134 76.9226C334.198 77.3733 334.198 78.3551 334.134 79.868C334.069 81.3487 333.973 82.25 333.844 82.5719C333.232 84.2457 332.106 85.1631 330.464 85.324C330.046 85.3562 329.611 85.4045 329.16 85.4689C328.645 85.5333 327.615 85.5976 326.07 85.662C325.684 85.6942 325.153 85.7264 324.477 85.7586C322.513 85.823 321.371 85.8873 321.049 85.9517C320.727 86.0161 320.582 86.177 320.614 86.4346C320.614 86.5311 320.614 86.5955 320.614 86.6277C320.614 86.6921 320.614 86.7725 320.614 86.8691C320.614 87.2232 320.791 87.4324 321.145 87.4968C321.499 87.5612 322.787 87.5934 325.008 87.5934C325.62 87.6256 326.103 87.6416 326.457 87.6416C329.482 87.6416 331.285 87.6577 331.864 87.6899C332.444 87.7543 332.894 87.9314 333.216 88.2211C334.021 88.9292 334.262 89.7179 333.941 90.587C333.619 91.4561 332.878 92.0355 331.72 92.3252C331.237 92.4217 328.951 92.4539 324.863 92.4217C320.807 92.4217 318.619 92.3574 318.297 92.2286C317.138 91.778 316.397 91.0054 316.076 89.911C315.947 89.5569 315.866 88.4464 315.834 86.5794C315.834 84.7446 315.899 83.7468 316.027 83.5858C316.124 83.4249 316.172 83.2961 316.172 83.1995C316.172 83.0708 316.285 82.8616 316.51 82.5719C316.768 82.2821 316.993 82.0729 317.186 81.9442C317.476 81.7188 317.83 81.574 318.248 81.5096C318.699 81.4452 319.536 81.3809 320.759 81.3165C326.167 81.0911 329.032 80.898 329.354 80.7371C329.45 80.6727 329.498 80.4313 329.498 80.0128C329.498 79.9806 329.498 79.9484 329.498 79.9162C329.498 79.53 329.386 79.3046 329.16 79.2403C328.967 79.1759 328.243 79.1759 326.988 79.2403C326.795 79.2403 326.65 79.2403 326.553 79.2403C324.493 79.3368 322.513 79.3851 320.614 79.3851C318.747 79.3851 317.669 79.3368 317.379 79.2403C316.253 78.8218 315.657 78.0815 315.593 77.0192C315.528 75.9248 316.043 75.1844 317.138 74.7982ZM373.565 51.9117C374.08 51.622 374.708 51.638 375.448 51.9599C376.221 52.2496 376.607 52.6359 376.607 53.1187C376.607 53.2153 376.655 53.3119 376.752 53.4085C376.816 53.4728 376.864 54.358 376.897 56.0641C376.929 57.7379 376.993 58.6392 377.09 58.768C377.186 58.8645 378.104 58.8967 379.842 58.8645C381.387 58.8645 382.304 58.8967 382.594 58.9611C382.916 59.0255 383.254 59.2991 383.608 59.7819C384.413 60.8442 384.348 61.8742 383.415 62.8721C383.286 63.033 383.173 63.1135 383.077 63.1135C382.98 63.1135 382.9 63.1618 382.835 63.2583C382.707 63.4515 381.548 63.5963 379.359 63.6929C379.198 63.6929 378.973 63.709 378.683 63.7412C377.814 63.7734 377.299 63.886 377.138 64.0792C377.009 64.2723 376.945 64.9483 376.945 66.1071C376.945 66.4934 376.945 66.7992 376.945 67.0245C376.945 68.7305 376.897 69.7606 376.8 70.1146C376.703 70.4365 376.365 70.8067 375.786 71.2252C375.335 71.5471 374.756 71.5953 374.048 71.37C373.34 71.1125 372.841 70.7101 372.551 70.1629C372.293 69.6801 372.181 65.93 372.213 58.9128C372.245 56.402 372.277 54.8248 372.31 54.181C372.342 53.505 372.422 53.1187 372.551 53.0222C372.615 52.9578 372.648 52.8773 372.648 52.7808C372.648 52.7164 372.744 52.5876 372.937 52.3945C373.163 52.1692 373.372 52.0082 373.565 51.9117ZM359.466 54.857C359.756 54.7282 360.287 54.7121 361.059 54.8087C361.864 54.9052 362.347 55.034 362.508 55.195C362.572 55.2593 362.653 55.2915 362.749 55.2915C362.846 55.2915 363.168 55.4364 363.715 55.7261C364.294 56.0158 364.632 56.225 364.729 56.3538C364.826 56.4181 365.003 56.563 365.26 56.7883C365.679 57.1102 366.081 57.5609 366.467 58.1403C366.854 58.6875 367.079 59.1542 367.143 59.5405C367.175 59.7336 367.224 59.8785 367.288 59.975C367.352 60.0716 367.401 60.6027 367.433 61.5684C367.465 62.5019 367.449 63.1618 367.385 63.548C367.224 64.6103 366.87 65.6082 366.322 66.5416C365.807 67.4751 365.18 68.1994 364.439 68.7144C364.053 68.9397 363.828 69.0524 363.763 69.0524C363.667 69.0524 363.57 69.1007 363.474 69.1972C363.409 69.2938 363.329 69.3421 363.232 69.3421C363.136 69.3421 363.023 69.3904 362.894 69.4869C362.54 69.7123 361.703 69.7927 360.383 69.7284C359.064 69.664 358.098 69.4709 357.486 69.149C356.263 68.5696 355.346 67.9419 354.734 67.2659C354.123 66.5899 353.64 65.6725 353.286 64.5137C353.093 63.9665 353.028 63.1618 353.093 62.0995C353.189 61.0051 353.366 60.3291 353.624 60.0716C353.688 60.0072 353.72 59.9268 353.72 59.8302C353.72 59.7014 353.801 59.5083 353.962 59.2508C354.123 58.9289 354.219 58.7197 354.251 58.6231C354.316 58.4622 354.38 58.3495 354.445 58.2851C354.477 58.2529 354.573 58.1403 354.734 57.9471C355.507 56.9171 356.408 56.1445 357.438 55.6295C357.921 55.4042 358.259 55.2432 358.452 55.1467C358.613 55.0501 358.774 55.0018 358.935 55.0018C359.064 55.0018 359.241 54.9535 359.466 54.857ZM361.929 60.1199C361.671 59.9911 361.253 59.9107 360.673 59.8785C360.126 59.8141 359.708 59.8463 359.418 59.975C358.806 60.2004 358.323 60.6993 357.969 61.4718C357.615 62.2122 357.567 62.856 357.824 63.4032C358.018 63.886 358.227 64.224 358.452 64.4172C358.677 64.6103 359.032 64.7712 359.514 64.9C360.544 65.1897 361.365 65.0931 361.977 64.6103C362.588 64.0953 362.894 63.2744 362.894 62.1478C362.894 61.1499 362.572 60.474 361.929 60.1199ZM368.688 72.6737C372.068 72.5771 374.08 72.561 374.724 72.6254C375.368 72.6576 375.866 72.8507 376.221 73.2048C376.575 73.5589 376.8 74.0256 376.897 74.605C377.025 75.1522 377.106 76.2467 377.138 77.8883C377.17 79.4978 377.122 80.6083 376.993 81.2199C376.864 81.7993 376.542 82.3143 376.027 82.765C375.577 83.2156 375.062 83.5053 374.482 83.6341C373.903 83.7307 372.664 83.8111 370.765 83.8755C368.833 83.9399 367.642 84.0043 367.192 84.0686C366.709 84.133 366.129 84.1652 365.453 84.1652C364.97 84.1652 364.681 84.1813 364.584 84.2135C364.488 84.2135 364.439 84.2618 364.439 84.3584C364.375 84.5515 364.343 84.8573 364.343 85.2757C364.375 85.662 364.423 85.8873 364.488 85.9517C364.616 86.1127 367.417 86.2092 372.889 86.2414C374.37 86.2736 375.335 86.3702 375.786 86.5311C376.269 86.6921 376.671 87.1105 376.993 87.7865C377.412 88.559 377.186 89.3638 376.317 90.2007C375.963 90.5548 375.577 90.7479 375.158 90.7801C374.74 90.8445 373.372 90.8767 371.054 90.8767C368.672 90.8767 366.854 90.8606 365.598 90.8284C364.375 90.7962 363.329 90.6835 362.46 90.4904C361.591 90.2973 360.995 90.0558 360.673 89.7661C360.351 89.5086 360.062 89.1063 359.804 88.559C359.611 88.1406 359.482 87.191 359.418 85.7103C359.353 84.1974 359.386 83.1191 359.514 82.4753C359.643 81.8315 359.901 81.2521 360.287 80.7371C360.673 80.1899 361.027 79.9162 361.349 79.9162C361.414 79.9162 361.591 79.868 361.88 79.7714C362.331 79.6104 364.407 79.4656 368.109 79.3368C370.877 79.2403 372.358 79.1276 372.551 78.9989C372.615 78.9667 372.648 78.7252 372.648 78.2746C372.648 77.8239 372.615 77.5664 372.551 77.5021C372.519 77.4055 370.636 77.3572 366.902 77.3572C363.779 77.325 361.961 77.2928 361.446 77.2606C360.963 77.1963 360.512 76.9709 360.094 76.5847C359.547 76.134 359.289 75.5546 359.321 74.8464C359.386 74.1061 359.691 73.5106 360.239 73.0599C360.689 72.7702 361.784 72.6415 363.522 72.6737C364.681 72.7381 366.403 72.7381 368.688 72.6737ZM406.643 56.1123C407.513 55.7905 408.269 55.9836 408.913 56.6917C409.267 57.078 409.476 57.5609 409.54 58.1403C409.637 58.7197 409.718 60.2969 409.782 62.8721C409.846 65.8335 409.911 67.3625 409.975 67.459C410.072 67.5556 411.086 67.5878 413.017 67.5556C414.562 67.5556 415.576 67.5878 416.059 67.6522C416.542 67.6844 416.976 67.7809 417.362 67.9419C418.264 68.4247 418.682 69.149 418.618 70.1146C418.586 71.0803 418.087 71.8368 417.121 72.384C416.831 72.5127 415.946 72.6093 414.465 72.6737C411.762 72.7381 410.297 72.8185 410.072 72.9151C409.943 72.9795 409.911 74.6372 409.975 77.8883C410.039 81.0751 410.007 83.1352 409.878 84.0686C409.75 85.0021 409.428 85.6942 408.913 86.1449C408.14 86.7564 407.287 86.853 406.354 86.4346C405.452 86.0161 405.002 85.3401 405.002 84.4066C405.034 83.9238 405.05 79.4334 405.05 70.9355C405.082 62.3409 405.131 57.8988 405.195 57.6091C405.292 57.3194 405.485 57.0297 405.774 56.74C406.064 56.4503 406.354 56.2411 406.643 56.1123ZM391.338 61.7133C392.335 61.4236 393.526 61.5201 394.911 62.003C396.295 62.4536 397.421 63.1296 398.29 64.0309C398.548 64.3206 398.805 64.6747 399.063 65.0931C399.353 65.4794 399.497 65.7369 399.497 65.8657C399.497 65.93 399.53 66.0427 399.594 66.2037C400.077 67.1049 400.334 68.4086 400.367 70.1146C400.399 71.7885 400.206 73.1887 399.787 74.3153C399.465 75.2166 398.918 76.1662 398.146 77.1641C397.405 78.1619 396.826 78.7252 396.407 78.854C396.246 78.8862 396.166 78.9184 396.166 78.9506C396.166 78.9828 396.021 79.0632 395.731 79.192C394.025 79.9645 392.255 79.9484 390.42 79.1437C388.585 78.3068 387.201 76.9226 386.268 74.9913C386.075 74.605 385.93 74.3153 385.833 74.1222C385.737 73.9934 385.688 73.8647 385.688 73.7359C385.688 73.575 385.672 73.4784 385.64 73.4462C385.576 73.414 385.527 73.2692 385.495 73.0117C385.431 72.6898 385.35 72.4001 385.254 72.1426C385.093 71.5632 385.045 70.8228 385.109 69.9215C385.205 68.988 385.366 68.2155 385.592 67.6039C386.268 65.93 387.137 64.5781 388.199 63.548C389.1 62.6467 390.147 62.0352 391.338 61.7133ZM394.09 66.9279C393.317 66.6704 392.577 66.7187 391.869 67.0728C391.193 67.4268 390.678 67.958 390.324 68.6661C389.969 69.3421 389.792 70.1307 389.792 71.032C389.825 71.9333 390.114 72.7542 390.662 73.4945C391.177 74.1705 391.853 74.5407 392.689 74.605C393.559 74.6694 394.202 74.3636 394.621 73.6876C395.426 72.4001 395.764 71.0481 395.635 69.6318C395.538 68.1833 395.023 67.282 394.09 66.9279ZM426.674 50.5597C427.639 50.3022 428.38 50.4792 428.895 51.0908C429.442 51.6702 429.748 52.6681 429.812 54.0844C429.844 54.7282 429.893 55.0984 429.957 55.195C430.086 55.3237 431.068 55.3237 432.902 55.195C433.932 55.1306 434.496 55.0501 434.592 54.9535C434.689 54.857 434.737 54.4063 434.737 53.6016C434.737 52.829 434.769 52.314 434.834 52.0565C434.93 51.799 435.123 51.5254 435.413 51.2357C435.735 50.9138 436.105 50.7046 436.524 50.608C436.942 50.5114 437.312 50.5436 437.634 50.7046C437.795 50.8011 437.924 50.8494 438.02 50.8494C438.117 50.8494 438.278 50.9621 438.503 51.1874C438.729 51.4127 438.906 51.6541 439.034 51.9117C439.324 52.4267 439.485 54.3902 439.517 57.8023C439.582 61.2143 439.469 63.1618 439.179 63.6446C439.147 63.709 439.05 63.9182 438.89 64.2723C438.471 65.1414 437.57 65.6564 436.186 65.8174C435.51 65.8818 435.107 66.0105 434.979 66.2037C434.882 66.3968 434.914 66.8957 435.075 67.7004L435.172 68.3764H438.745C440.547 68.3764 441.61 68.3925 441.931 68.4247C442.285 68.4247 442.559 68.473 442.752 68.5696C443.525 68.988 443.975 69.5674 444.104 70.3078C444.265 71.0481 444.056 71.6758 443.476 72.1908C443.09 72.5771 442.607 72.8024 442.028 72.8668C441.449 72.9312 439.549 73.0117 436.33 73.1082C433.659 73.1726 432.033 73.237 431.454 73.3014C430.81 73.3657 429.168 73.4301 426.529 73.4945C423.922 73.5589 422.409 73.575 421.99 73.5428C421.218 73.4784 420.622 73.2531 420.204 72.8668C419.817 72.4484 419.624 71.9011 419.624 71.2252C419.624 70.3561 419.866 69.7767 420.349 69.4869C420.864 69.1972 421.894 69.0202 423.439 68.9558C424.919 68.8914 425.869 68.8271 426.287 68.7627C426.835 68.6983 427.575 68.6661 428.509 68.6661C429.41 68.6661 429.925 68.6178 430.054 68.5213C430.182 68.4247 430.215 68.0223 430.15 67.3142C430.118 66.5416 430.07 66.1071 430.005 66.0105C429.973 65.9139 429.716 65.8657 429.233 65.8657C428.718 65.8657 428.38 65.8335 428.219 65.7691C427.285 65.4794 426.625 65.077 426.239 64.562C425.885 64.047 425.628 63.194 425.467 62.003C425.306 60.5544 425.177 58.6875 425.08 56.402C425.016 54.1166 425.048 52.829 425.177 52.5393C425.273 52.2818 425.322 52.0887 425.322 51.9599C425.322 51.7668 425.483 51.5093 425.805 51.1874C426.127 50.8333 426.416 50.6241 426.674 50.5597ZM434.737 60.0716C434.705 59.9429 434.624 59.8785 434.496 59.8785C434.399 59.8463 434.045 59.8302 433.433 59.8302C433.401 59.8302 433.337 59.8302 433.24 59.8302C431.599 59.8624 430.633 59.9107 430.343 59.975C430.086 60.0072 429.957 60.1682 429.957 60.4579V60.5062C429.957 60.7315 430.021 60.8763 430.15 60.9407C430.279 60.9729 430.73 61.0373 431.502 61.1339C432.275 61.1982 432.886 61.2304 433.337 61.2304C433.788 61.2304 434.142 61.1982 434.399 61.1339C434.689 61.0373 434.834 60.9085 434.834 60.7476C434.866 60.5866 434.834 60.3613 434.737 60.0716ZM435.123 74.3636C435.735 74.2992 436.604 74.2831 437.731 74.3153C438.89 74.3153 439.501 74.3475 439.565 74.4119C439.63 74.4763 439.791 74.5246 440.048 74.5567C440.531 74.6533 440.982 75.1201 441.4 75.957C441.69 76.5042 441.77 77.6308 441.642 79.3368C441.577 80.2703 441.497 81.0107 441.4 81.5579C441.336 82.0729 441.159 82.5719 440.869 83.0547C440.612 83.5375 440.306 83.8916 439.952 84.1169C439.63 84.3101 439.083 84.5032 438.31 84.6963C437.57 84.8895 436.781 85.0343 435.944 85.1309C435.107 85.1953 433.932 85.2757 432.419 85.3723C429.651 85.5333 428.235 85.6459 428.171 85.7103C428.106 85.7425 428.074 85.9839 428.074 86.4346C428.106 86.9174 428.138 87.191 428.171 87.2554C428.364 87.4163 430.778 87.4646 435.413 87.4002C437.409 87.368 438.696 87.368 439.276 87.4002C439.855 87.4646 440.338 87.6095 440.724 87.8348C440.853 87.8992 440.998 88.044 441.159 88.2693C441.352 88.5269 441.449 88.6878 441.449 88.7522C441.449 88.8166 441.481 88.8648 441.545 88.897C441.674 88.9292 441.722 89.1224 441.69 89.4764C441.69 89.8627 441.642 90.1846 441.545 90.4421C441.191 91.1825 440.596 91.6814 439.759 91.9389C439.276 92.0999 437.055 92.1803 433.095 92.1803C429.136 92.2125 426.883 92.1481 426.336 91.9872C424.469 91.44 423.535 90.088 423.535 87.9314C423.535 87.4807 423.503 86.8852 423.439 86.1449C423.246 84.2457 423.455 82.942 424.066 82.2339C424.678 81.5257 425.933 81.1394 427.833 81.0751C428.895 81.0429 429.603 80.9946 429.957 80.9302C430.343 80.8658 430.987 80.8014 431.888 80.7371C434.818 80.5761 436.491 80.3669 436.91 80.1094C437.039 80.045 437.103 79.8841 437.103 79.6265C437.135 79.369 437.087 79.1759 436.958 79.0471C436.894 78.9506 436.363 78.9023 435.365 78.9023C434.367 78.8701 433.562 78.8862 432.951 78.9506C432.532 79.0149 431.373 79.0793 429.474 79.1437C427.543 79.2403 426.368 79.3046 425.949 79.3368C423.922 79.4334 422.908 78.677 422.908 77.0675C422.908 76.6169 422.956 76.2628 423.052 76.0053C423.149 75.7477 423.31 75.5224 423.535 75.3293C423.761 75.104 424.163 74.9591 424.742 74.8947C425.354 74.7982 426.03 74.7177 426.77 74.6533C427.511 74.5889 428.589 74.5406 430.005 74.5085C432.902 74.4441 434.608 74.3958 435.123 74.3636ZM471.207 56.2089C471.657 56.0158 472.237 56.0802 472.945 56.402C473.653 56.7239 474.007 57.078 474.007 57.4643C474.007 57.5609 474.056 57.6735 474.152 57.8023C474.249 57.8988 474.297 59.5244 474.297 62.6789C474.297 65.8013 474.361 67.4268 474.49 67.5556C474.522 67.62 474.635 67.6522 474.828 67.6522C475.44 67.6522 476.454 67.7004 477.87 67.797C479.286 67.8614 480.107 67.9097 480.332 67.9419C481.234 68.135 481.829 68.6178 482.119 69.3904C482.441 70.1629 482.312 70.8872 481.733 71.5631C481.411 71.9494 480.992 72.1908 480.477 72.2874C479.962 72.384 478.803 72.4644 477.001 72.5288C475.359 72.561 474.49 72.6254 474.394 72.722C474.329 72.8185 474.297 73.913 474.297 76.0053C474.265 78.2585 474.233 79.8197 474.2 80.6888C474.104 82.0085 474.056 82.8776 474.056 83.2961C473.927 85.3562 473.267 86.4506 472.076 86.5794C470.917 86.7082 470.112 86.2414 469.662 85.1792C469.533 84.8895 469.485 83.795 469.517 81.8959C469.581 79.868 469.581 77.1319 469.517 73.6876C469.452 70.0824 469.452 67.5073 469.517 65.9622C469.613 64.385 469.678 62.6467 469.71 60.7476C469.742 58.8484 469.823 57.7701 469.951 57.5126C470.048 57.3194 470.225 57.078 470.483 56.7883C470.772 56.4986 471.014 56.3055 471.207 56.2089ZM447.886 61.0373C448.208 60.9729 449.447 60.9568 451.604 60.989C453.76 61.0212 454.935 61.0695 455.128 61.1339C455.354 61.2304 456.722 61.2626 459.232 61.2304C460.037 61.2626 460.697 61.2626 461.212 61.2304C461.727 61.1982 462.178 61.2143 462.564 61.2787C462.95 61.3431 463.24 61.3914 463.433 61.4236C463.626 61.4236 463.819 61.4879 464.013 61.6167C464.206 61.7454 464.334 61.8742 464.399 62.003C464.495 62.0995 464.624 62.2766 464.785 62.5341C465.075 63.0169 465.236 63.7734 465.268 64.8034C465.3 65.8013 465.187 66.8796 464.93 68.0384C464.866 68.2959 464.801 68.7144 464.737 69.2938C464.544 70.7745 464.383 71.885 464.254 72.6254C464.125 73.2048 464.045 73.6715 464.013 74.0256C463.948 74.3797 463.868 74.8143 463.771 75.3293C463.675 75.7477 463.626 76.0535 463.626 76.2467C463.626 76.4076 463.578 76.649 463.481 76.9709C463.385 77.2928 463.304 77.6791 463.24 78.1297C463.079 79.0632 462.87 79.7553 462.612 80.2059C462.387 80.6566 462.017 81.0107 461.502 81.2682C460.955 81.5579 460.391 81.5579 459.812 81.2682C459.104 80.9463 458.653 80.4313 458.46 79.7231C458.299 78.9828 458.363 77.9205 458.653 76.5364C458.846 75.6351 458.975 74.8786 459.039 74.267C459.104 73.6554 459.345 72.2874 459.764 70.1629C459.86 69.6479 459.924 69.2938 459.957 69.1007C460.021 68.65 460.069 68.3281 460.102 68.135C460.262 67.4268 460.391 66.8313 460.488 66.3485C460.52 66.1232 460.44 65.9944 460.246 65.9622C460.085 65.8979 459.587 65.8979 458.75 65.9622C457.72 66.0266 457.156 66.0749 457.06 66.1071C456.963 66.1393 456.85 66.5094 456.722 67.2176C456.689 67.5717 456.609 68.0384 456.48 68.6178C456.448 68.8754 456.351 69.3904 456.191 70.1629C455.804 72.4484 455.482 74.1383 455.225 75.2327C455.16 75.5224 455.096 75.8765 455.032 76.295C454.967 76.6812 454.903 76.9387 454.839 77.0675C454.774 77.1963 454.742 77.3411 454.742 77.5021C454.742 77.7274 454.581 78.178 454.259 78.854C453.841 79.6587 453.165 80.0289 452.231 79.9645C451.33 79.868 450.654 79.3851 450.203 78.516C450.042 78.1297 449.962 77.7435 449.962 77.3572C449.994 76.9387 450.155 76.1179 450.445 74.8947C450.477 74.766 450.525 74.5728 450.59 74.3153C450.654 74.0256 450.686 73.8486 450.686 73.7842C450.783 73.3979 450.863 73.0599 450.928 72.7702C451.024 72.4805 451.072 72.2552 451.072 72.0943C451.072 71.9333 451.121 71.6758 451.217 71.3217C451.282 71.032 451.378 70.5653 451.507 69.9215C451.507 69.7927 451.523 69.6318 451.555 69.4387C451.62 69.2133 451.652 69.0202 451.652 68.8593C451.684 68.6983 451.716 68.5857 451.748 68.5213C451.781 68.2638 451.845 67.8453 451.942 67.2659C452.006 66.8152 452.07 66.5255 452.135 66.3968C452.199 66.3002 452.215 66.1554 452.183 65.9622C452.183 65.7691 452.151 65.6564 452.086 65.6242C451.99 65.5599 451.056 65.5277 449.286 65.5277C447.483 65.5277 446.518 65.4633 446.389 65.3345C446.26 65.238 446.18 65.1897 446.148 65.1897C445.954 65.1897 445.729 64.9805 445.472 64.562C445.246 64.1435 445.134 63.7734 445.134 63.4515C445.134 63.0974 445.262 62.695 445.52 62.2444C445.81 61.7615 446.051 61.5201 446.244 61.5201C446.308 61.5201 446.373 61.4718 446.437 61.3753C446.502 61.3109 446.695 61.2465 447.017 61.1821C447.339 61.1499 447.628 61.1017 447.886 61.0373ZM494.531 56.4503C495.529 56.2894 496.688 56.402 498.007 56.7883C498.072 56.8205 498.426 56.9171 499.07 57.078C499.295 57.1424 499.456 57.2068 499.552 57.2712C499.585 57.2712 499.633 57.3033 499.697 57.3677C499.794 57.3999 499.906 57.4482 500.035 57.5126C500.196 57.577 500.325 57.6413 500.421 57.7057C501.773 58.3495 502.82 59.3795 503.56 60.7959C504.3 62.18 504.558 63.5963 504.332 65.0448C504.236 65.6242 504.172 65.9944 504.139 66.1554C504.107 66.4451 504.059 66.606 503.994 66.6382C503.962 66.7026 503.946 66.7831 503.946 66.8796C503.946 67.2337 503.463 68.0384 502.498 69.2938C501.532 70.517 500.904 71.1286 500.615 71.1286C500.55 71.1286 500.518 71.1608 500.518 71.2252C500.518 71.2895 500.695 71.3217 501.049 71.3217C501.629 71.3217 502.144 71.5471 502.594 71.9977C502.948 72.3518 503.158 72.8346 503.222 73.4462C503.319 74.0578 503.383 75.619 503.415 78.1297C503.415 80.383 503.447 81.5418 503.512 81.6062C503.544 81.6706 504.172 81.7027 505.395 81.7027C506.425 81.7027 507.085 81.7349 507.374 81.7993C507.664 81.8637 508.002 82.089 508.388 82.4753C509.064 83.0869 509.322 83.7629 509.161 84.5032C509 85.2114 508.469 85.823 507.567 86.338C507.374 86.4346 507.085 86.4989 506.698 86.5311C506.344 86.5633 505.169 86.5794 503.174 86.5794C500.019 86.5794 496.494 86.5955 492.6 86.6277C488.286 86.6599 485.904 86.6438 485.454 86.5794C484.584 86.4828 483.941 86.0322 483.522 85.2275C483.104 84.3905 483.12 83.6341 483.57 82.9581C483.925 82.4753 484.359 82.1534 484.874 81.9924C485.389 81.8315 486.21 81.7832 487.337 81.8476C488.463 81.912 489.107 81.912 489.268 81.8476C489.429 81.7832 489.493 81.5096 489.461 81.0268C489.171 77.5503 489.171 75.1361 489.461 73.7842C489.751 72.4323 490.427 71.6919 491.489 71.5631C491.972 71.4988 492.101 71.37 491.875 71.1769C491.779 71.0481 491.505 70.8228 491.054 70.5009C489.831 69.6962 488.946 68.8432 488.399 67.9419C487.884 67.0406 487.594 65.9461 487.53 64.6586C487.53 64.0148 487.546 63.5641 487.578 63.3066C487.61 63.0491 487.739 62.6307 487.964 62.0512C488.479 60.6671 489.348 59.46 490.572 58.43C491.795 57.3677 493.115 56.7078 494.531 56.4503ZM497.476 61.5684C496.35 61.2465 495.32 61.327 494.386 61.8098C493.453 62.2927 492.809 63.033 492.455 64.0309C492.133 65.0287 492.422 65.8657 493.324 66.5416C494.257 67.1854 495.336 67.4429 496.559 67.3142C497.814 67.1532 498.651 66.606 499.07 65.6725C500.1 63.4837 499.568 62.1156 497.476 61.5684ZM499.552 71.9494C499.842 71.6597 499.939 71.5149 499.842 71.5149C499.681 71.5471 499.198 71.6597 498.394 71.8529C498.072 71.9494 497.364 72.0138 496.269 72.046C495.207 72.046 494.418 71.9977 493.903 71.9011C493.42 71.8046 493.147 71.7885 493.082 71.8529C493.05 71.885 493.147 72.0621 493.372 72.384C493.694 72.8346 493.887 73.3336 493.951 73.8808C494.016 74.3958 494.064 75.7477 494.096 77.9366C494.129 80.5117 494.193 81.8315 494.289 81.8959C494.418 81.9603 495.126 81.9603 496.414 81.8959C497.702 81.8315 498.41 81.7671 498.538 81.7027C498.635 81.6384 498.683 81.4291 498.683 81.0751C498.715 80.721 498.732 79.53 498.732 77.5021C498.732 75.1201 498.764 73.7037 498.828 73.2531C498.893 72.7702 499.134 72.3357 499.552 71.9494ZM518.171 55.195C518.815 55.1306 519.346 55.1306 519.765 55.195C520.248 55.2915 520.666 55.3559 521.02 55.3881C521.793 55.4847 522.597 55.8226 523.434 56.402C524.304 56.9814 525.06 57.7057 525.704 58.5748C525.961 58.9289 526.09 59.1381 526.09 59.2025C526.09 59.2347 526.17 59.3795 526.331 59.6371C526.492 59.8624 526.621 60.136 526.718 60.4579C526.814 60.812 526.911 61.1339 527.007 61.4236C527.233 61.9708 527.313 62.8882 527.249 64.1757C527.217 65.4311 527.072 66.3324 526.814 66.8796C526.396 67.8131 525.865 68.5857 525.221 69.1972C524.609 69.8088 523.788 70.3722 522.758 70.8872C522.115 71.2091 521.728 71.4183 521.6 71.5149C521.471 71.6436 521.294 71.7402 521.068 71.8046C520.103 72.0943 519.604 73.2853 519.572 75.3776L519.523 77.0675L519.089 77.5986C518.477 78.3068 517.721 78.5965 516.82 78.4677C515.95 78.339 515.323 77.84 514.936 76.9709C514.743 76.5525 514.663 75.5868 514.695 74.0739C514.759 72.561 514.888 71.6758 515.081 71.4183C515.21 71.3217 515.307 71.1125 515.371 70.7906C515.468 70.4687 515.58 70.2434 515.709 70.1146C515.806 69.9859 515.918 69.8088 516.047 69.5835C516.144 69.3582 516.417 69.0363 516.868 68.6178C517.318 68.1994 517.656 67.9258 517.882 67.797C519.137 67.1854 519.974 66.767 520.393 66.5416C520.843 66.3163 521.246 66.0266 521.6 65.6725C521.954 65.3184 522.131 65.0448 522.131 64.8517C522.131 64.6264 522.131 64.2079 522.131 63.5963C522.066 62.7916 521.889 62.1478 521.6 61.665C521.31 61.1821 520.827 60.7798 520.151 60.4579C519.314 60.0716 518.606 60.0233 518.027 60.313C517.737 60.474 517.447 60.5866 517.158 60.651C516.932 60.7476 516.739 60.8602 516.578 60.989C515.677 61.6328 515.226 62.0191 515.226 62.1478C515.226 62.3731 515.097 62.7433 514.84 63.2583C514.582 63.7734 514.341 64.1274 514.116 64.3206C513.762 64.6425 513.295 64.8195 512.715 64.8517C512.136 64.8517 511.637 64.6747 511.219 64.3206C510.189 63.5159 509.899 62.3409 510.349 60.7959C510.8 59.2508 511.798 57.9632 513.343 56.9332C514.277 56.3538 514.776 56.0641 514.84 56.0641C514.84 56.0641 515.049 55.9675 515.468 55.7744C515.854 55.5812 516.304 55.4525 516.82 55.3881C516.948 55.3559 517.174 55.3237 517.495 55.2915C517.817 55.2593 518.043 55.2271 518.171 55.195ZM516.482 81.6062C517.512 81.413 518.365 81.6062 519.041 82.1856C519.749 82.765 520.087 83.5053 520.055 84.4066C520.055 85.3079 519.652 86.0966 518.847 86.7725C518.3 87.191 517.624 87.4002 516.82 87.4002C516.047 87.4002 515.435 87.191 514.985 86.7725C514.598 86.3863 514.341 85.8391 514.212 85.1309C514.083 84.4227 514.132 83.8594 514.357 83.441C514.969 82.3787 515.677 81.7671 516.482 81.6062Z" fill="black"/>
<circle cx="313" cy="224.602" r="34" fill="#C79A76"/>
<path d="M294.914 224.599H332.531M332.531 224.599L319.992 212.301M332.531 224.599L319.992 236.897" stroke="white" stroke-width="4" stroke-linecap="round"/>
<path d="M159.816 127.974L161.235 129.836L161.643 130.368L163.771 133.206H162.033L160.632 131.326L160.26 130.829L158.078 127.974H159.816ZM164.285 125.58C164.285 126.91 164.043 128.075 163.558 129.074C163.074 130.067 162.4 130.832 161.536 131.37C160.679 131.908 159.704 132.177 158.61 132.177C157.511 132.177 156.532 131.908 155.675 131.37C154.818 130.832 154.147 130.067 153.662 129.074C153.177 128.075 152.935 126.91 152.935 125.58C152.935 124.25 153.177 123.088 153.662 122.095C154.147 121.096 154.818 120.327 155.675 119.789C156.532 119.251 157.511 118.982 158.61 118.982C159.704 118.982 160.679 119.251 161.536 119.789C162.4 120.327 163.074 121.096 163.558 122.095C164.043 123.088 164.285 124.25 164.285 125.58ZM162.742 125.58C162.742 124.504 162.562 123.582 162.202 122.813C161.841 122.045 161.347 121.462 160.721 121.066C160.1 120.67 159.396 120.472 158.61 120.472C157.824 120.472 157.117 120.67 156.491 121.066C155.87 121.462 155.379 122.045 155.019 122.813C154.658 123.582 154.478 124.504 154.478 125.58C154.478 126.65 154.658 127.569 155.019 128.338C155.379 129.1 155.87 129.683 156.491 130.085C157.117 130.481 157.824 130.682 158.61 130.688C159.396 130.682 160.1 130.481 160.721 130.085C161.347 129.683 161.841 129.1 162.202 128.338C162.562 127.569 162.742 126.65 162.742 125.58ZM172.515 122.37H174.022V132H172.515V130.368H172.408C172.166 130.889 171.799 131.311 171.309 131.636C170.824 131.962 170.239 132.124 169.553 132.124C168.932 132.124 168.385 131.988 167.912 131.716C167.445 131.444 167.082 131.036 166.822 130.492C166.562 129.949 166.431 129.281 166.431 128.488V122.37H167.957V128.382C167.957 128.837 168.045 129.236 168.223 129.579C168.4 129.916 168.645 130.179 168.959 130.368C169.278 130.558 169.642 130.652 170.049 130.652C170.434 130.658 170.815 130.563 171.193 130.368C171.578 130.167 171.894 129.872 172.142 129.482C172.391 129.091 172.515 128.613 172.515 128.045V122.37ZM180.105 132.195C179.307 132.195 178.598 131.991 177.977 131.583C177.362 131.175 176.881 130.596 176.532 129.845C176.183 129.094 176.009 128.216 176.009 127.211C176.009 126.212 176.183 125.337 176.532 124.587C176.881 123.83 177.365 123.251 177.986 122.849C178.607 122.447 179.319 122.246 180.123 122.246C180.661 122.246 181.11 122.328 181.471 122.494C181.838 122.659 182.115 122.849 182.305 123.061C182.494 123.274 182.671 123.517 182.837 123.789C182.854 123.812 182.866 123.83 182.872 123.842C182.878 123.854 182.89 123.871 182.908 123.895H183.014V119.16H184.557V132H183.067V130.528H182.908L182.854 130.599C182.677 130.883 182.491 131.134 182.296 131.353C182.101 131.571 181.82 131.766 181.453 131.938C181.093 132.109 180.643 132.195 180.105 132.195ZM180.318 130.829C180.898 130.829 181.394 130.676 181.808 130.368C182.222 130.061 182.532 129.635 182.739 129.091C182.952 128.542 183.061 127.903 183.067 127.176C183.061 126.461 182.952 125.834 182.739 125.296C182.532 124.752 182.222 124.335 181.808 124.046C181.4 123.756 180.904 123.611 180.318 123.611C179.721 123.611 179.213 123.765 178.793 124.072C178.379 124.38 178.069 124.802 177.862 125.34C177.655 125.878 177.552 126.49 177.552 127.176C177.552 127.874 177.658 128.497 177.871 129.047C178.084 129.597 178.397 130.031 178.811 130.351C179.225 130.67 179.727 130.829 180.318 130.829ZM190.835 132.195C190.037 132.195 189.328 131.991 188.707 131.583C188.092 131.175 187.61 130.596 187.262 129.845C186.913 129.094 186.738 128.216 186.738 127.211C186.738 126.212 186.913 125.337 187.262 124.587C187.61 123.83 188.095 123.251 188.716 122.849C189.337 122.447 190.049 122.246 190.853 122.246C191.391 122.246 191.84 122.328 192.201 122.494C192.567 122.659 192.845 122.849 193.035 123.061C193.224 123.274 193.401 123.517 193.567 123.789C193.584 123.812 193.596 123.83 193.602 123.842C193.608 123.854 193.62 123.871 193.638 123.895H193.744V119.16H195.287V132H193.797V130.528H193.638L193.584 130.599C193.407 130.883 193.221 131.134 193.026 131.353C192.831 131.571 192.55 131.766 192.183 131.938C191.823 132.109 191.373 132.195 190.835 132.195ZM191.048 130.829C191.628 130.829 192.124 130.676 192.538 130.368C192.952 130.061 193.262 129.635 193.469 129.091C193.682 128.542 193.791 127.903 193.797 127.176C193.791 126.461 193.682 125.834 193.469 125.296C193.262 124.752 192.952 124.335 192.538 124.046C192.13 123.756 191.633 123.611 191.048 123.611C190.451 123.611 189.943 123.765 189.523 124.072C189.109 124.38 188.799 124.802 188.592 125.34C188.385 125.878 188.281 126.49 188.281 127.176C188.281 127.874 188.388 128.497 188.601 129.047C188.813 129.597 189.127 130.031 189.541 130.351C189.954 130.67 190.457 130.829 191.048 130.829ZM198.905 135.618C198.467 135.606 198.184 135.594 198.054 135.583V134.217C198.125 134.223 198.373 134.235 198.799 134.252C199.059 134.246 199.274 134.217 199.446 134.164C199.617 134.116 199.786 133.986 199.951 133.774C200.123 133.567 200.288 133.241 200.448 132.798L200.732 132.071L197.167 122.37H198.834L201.459 130.014H201.565L204.19 122.37H205.857L201.778 133.383C201.494 134.14 201.116 134.699 200.643 135.059C200.17 135.426 199.591 135.612 198.905 135.618ZM206.425 119.16H216.108V120.578H212.082V132H210.468V120.578H206.425V119.16ZM219.833 132H218.236V119.16H219.833V132ZM234.642 123.576H223.841V122.458H234.642V123.576ZM236.309 126.857H221.872V125.722H236.309V126.857ZM225.224 123.026H223.841V118.255H225.224V123.026ZM234.73 133.046H223.752V131.894H234.73V133.046ZM225.136 132.231H223.752V128.471H225.136V132.231ZM254.47 129.499H253.086V117.688H254.47V129.499ZM256.846 124.055H254.026V122.884H256.846V124.055ZM251.579 120.756H242.179V119.621H251.579V120.756ZM246.879 121.625C247.624 121.625 248.283 121.746 248.857 121.988C249.43 122.231 249.873 122.574 250.187 123.017C250.506 123.46 250.669 123.978 250.674 124.569C250.669 125.154 250.506 125.668 250.187 126.112C249.873 126.549 249.43 126.886 248.857 127.123C248.283 127.359 247.624 127.477 246.879 127.477C246.122 127.477 245.457 127.359 244.884 127.123C244.31 126.886 243.867 126.549 243.554 126.112C243.24 125.668 243.084 125.154 243.084 124.569C243.084 123.978 243.24 123.46 243.554 123.017C243.867 122.574 244.31 122.231 244.884 121.988C245.457 121.746 246.122 121.625 246.879 121.625ZM246.879 122.724C246.388 122.724 245.954 122.798 245.576 122.946C245.203 123.094 244.916 123.31 244.715 123.593C244.514 123.871 244.414 124.196 244.414 124.569C244.414 124.935 244.514 125.255 244.715 125.527C244.916 125.799 245.203 126.011 245.576 126.165C245.954 126.313 246.388 126.384 246.879 126.378C247.364 126.384 247.795 126.313 248.174 126.165C248.552 126.011 248.842 125.799 249.043 125.527C249.25 125.255 249.356 124.935 249.362 124.569C249.356 124.196 249.25 123.871 249.043 123.593C248.842 123.31 248.552 123.094 248.174 122.946C247.795 122.798 247.364 122.724 246.879 122.724ZM247.571 120.206H246.187V117.688H247.571V120.206ZM255.197 133.1H244.609V131.929H255.197V133.1ZM245.975 132.408H244.609V128.559H245.975V132.408ZM259.79 123.877C261.44 123.889 262.794 123.857 263.852 123.78C264.916 123.703 265.98 123.558 267.044 123.345L267.222 124.462C266.483 124.622 265.753 124.743 265.031 124.826C264.316 124.903 263.55 124.956 262.735 124.986C261.925 125.009 260.943 125.018 259.79 125.012H258.567V123.877H259.79ZM265.572 119.727H259.932V124.569H258.567V118.592H265.572V119.727ZM270.166 125.633H268.782V117.67H270.166V125.633ZM272.542 122.175H269.775V121.022H272.542V122.175ZM270.166 130.297H261.511V132.745H260.145V129.198H268.782V127.548H260.11V126.413H270.166V130.297ZM270.751 133.224H260.145V132.089H270.751V133.224ZM283.183 120.596C283.183 121.542 283 122.429 282.634 123.256C282.267 124.084 281.75 124.802 281.082 125.411C280.42 126.02 279.654 126.484 278.785 126.804L278.04 125.722C278.821 125.444 279.515 125.048 280.124 124.533C280.733 124.013 281.206 123.413 281.543 122.733C281.886 122.053 282.06 121.341 282.066 120.596V119.301H283.183V120.596ZM283.432 120.596C283.432 121.288 283.594 121.953 283.919 122.591C284.245 123.224 284.7 123.789 285.285 124.285C285.87 124.776 286.547 125.154 287.316 125.42L286.606 126.502C285.743 126.195 284.987 125.748 284.336 125.163C283.686 124.578 283.183 123.892 282.829 123.106C282.474 122.319 282.297 121.483 282.297 120.596V119.301H283.432V120.596ZM286.979 119.922H278.466V118.787H286.979V119.922ZM290.419 127.176H289.036V117.67H290.419V127.176ZM292.796 123.026H290.029V121.838H292.796V123.026ZM290.419 133.437H289.036V129.145H280.097V128.01H290.419V133.437ZM298.968 120.206C298.968 121.211 298.785 122.148 298.418 123.017C298.052 123.886 297.534 124.64 296.866 125.278C296.198 125.917 295.421 126.402 294.534 126.733L293.771 125.598C294.575 125.314 295.285 124.903 295.9 124.365C296.515 123.827 296.987 123.2 297.319 122.485C297.655 121.77 297.827 121.01 297.833 120.206V118.574H298.968V120.206ZM299.216 120.153C299.21 120.892 299.37 121.595 299.695 122.263C300.026 122.925 300.487 123.511 301.078 124.019C301.67 124.527 302.349 124.912 303.118 125.172L302.338 126.254C301.492 125.935 300.747 125.476 300.103 124.879C299.464 124.282 298.965 123.582 298.604 122.778C298.244 121.968 298.063 121.093 298.063 120.153V118.574H299.216V120.153ZM306.86 127.016H305.459V117.67H306.86V127.016ZM301.628 127.477C302.716 127.477 303.656 127.593 304.448 127.823C305.24 128.054 305.849 128.394 306.275 128.843C306.701 129.292 306.913 129.83 306.913 130.457C306.913 131.078 306.701 131.607 306.275 132.044C305.849 132.488 305.24 132.825 304.448 133.055C303.656 133.286 302.716 133.401 301.628 133.401C300.535 133.401 299.592 133.286 298.799 133.055C298.013 132.825 297.407 132.488 296.982 132.044C296.556 131.607 296.343 131.078 296.343 130.457C296.343 129.83 296.556 129.292 296.982 128.843C297.407 128.394 298.013 128.054 298.799 127.823C299.592 127.593 300.535 127.477 301.628 127.477ZM301.628 128.577C300.824 128.577 300.13 128.651 299.544 128.799C298.959 128.947 298.51 129.162 298.196 129.446C297.883 129.73 297.726 130.067 297.726 130.457C297.726 130.835 297.883 131.161 298.196 131.432C298.51 131.704 298.959 131.914 299.544 132.062C300.13 132.21 300.824 132.284 301.628 132.284C302.426 132.284 303.118 132.21 303.703 132.062C304.294 131.914 304.747 131.704 305.06 131.432C305.373 131.161 305.53 130.835 305.53 130.457C305.53 130.067 305.373 129.73 305.06 129.446C304.747 129.162 304.294 128.947 303.703 128.799C303.118 128.651 302.426 128.577 301.628 128.577ZM305.761 122.21H301.947V121.057H305.761V122.21ZM321.811 129.499H320.428V117.688H321.811V129.499ZM324.188 124.055H321.368V122.884H324.188V124.055ZM318.92 120.756H309.52V119.621H318.92V120.756ZM314.22 121.625C314.965 121.625 315.624 121.746 316.198 121.988C316.771 122.231 317.215 122.574 317.528 123.017C317.847 123.46 318.01 123.978 318.016 124.569C318.01 125.154 317.847 125.668 317.528 126.112C317.215 126.549 316.771 126.886 316.198 127.123C315.624 127.359 314.965 127.477 314.22 127.477C313.464 127.477 312.799 127.359 312.225 127.123C311.652 126.886 311.208 126.549 310.895 126.112C310.582 125.668 310.425 125.154 310.425 124.569C310.425 123.978 310.582 123.46 310.895 123.017C311.208 122.574 311.652 122.231 312.225 121.988C312.799 121.746 313.464 121.625 314.22 121.625ZM314.22 122.724C313.73 122.724 313.295 122.798 312.917 122.946C312.544 123.094 312.258 123.31 312.057 123.593C311.856 123.871 311.755 124.196 311.755 124.569C311.755 124.935 311.856 125.255 312.057 125.527C312.258 125.799 312.544 126.011 312.917 126.165C313.295 126.313 313.73 126.384 314.22 126.378C314.705 126.384 315.137 126.313 315.515 126.165C315.893 126.011 316.183 125.799 316.384 125.527C316.591 125.255 316.697 124.935 316.703 124.569C316.697 124.196 316.591 123.871 316.384 123.593C316.183 123.31 315.893 123.094 315.515 122.946C315.137 122.798 314.705 122.724 314.22 122.724ZM314.912 120.206H313.529V117.688H314.912V120.206ZM322.538 133.1H311.95V131.929H322.538V133.1ZM313.316 132.408H311.95V128.559H313.316V132.408ZM334.208 118.255C334.988 118.255 335.689 118.403 336.31 118.698C336.93 118.994 337.415 119.408 337.764 119.94C338.113 120.472 338.287 121.075 338.287 121.749C338.287 122.423 338.113 123.023 337.764 123.549C337.415 124.075 336.93 124.486 336.31 124.782C335.689 125.077 334.988 125.225 334.208 125.225C333.422 125.225 332.715 125.077 332.089 124.782C331.468 124.486 330.983 124.075 330.634 123.549C330.286 123.023 330.111 122.423 330.111 121.749C330.111 121.075 330.286 120.472 330.634 119.94C330.983 119.408 331.468 118.994 332.089 118.698C332.715 118.403 333.422 118.255 334.208 118.255ZM334.208 119.426C333.682 119.426 333.209 119.523 332.789 119.718C332.375 119.913 332.05 120.188 331.814 120.543C331.583 120.898 331.471 121.3 331.477 121.749C331.471 122.204 331.583 122.609 331.814 122.964C332.05 123.313 332.375 123.588 332.789 123.789C333.209 123.99 333.682 124.09 334.208 124.09C334.722 124.09 335.187 123.99 335.6 123.789C336.02 123.588 336.348 123.313 336.585 122.964C336.821 122.609 336.939 122.204 336.939 121.749C336.939 121.3 336.821 120.898 336.585 120.543C336.348 120.188 336.02 119.913 335.6 119.718C335.187 119.523 334.722 119.426 334.208 119.426ZM342.757 125.775H341.373V117.67H342.757V125.775ZM342.757 130.333H333.907V132.727H332.541V129.286H341.373V127.655H332.506V126.538H342.757V130.333ZM343.324 133.224H332.541V132.106H343.324V133.224ZM358.47 133.437H357.069V117.67H358.47V133.437ZM353.806 119.39C353.8 120.951 353.54 122.411 353.025 123.771C352.517 125.13 351.713 126.384 350.613 127.531C349.514 128.672 348.107 129.653 346.392 130.475L345.63 129.34C347.149 128.618 348.411 127.767 349.416 126.786C350.427 125.804 351.178 124.717 351.669 123.522C352.165 122.322 352.416 121.016 352.422 119.603V119.39H353.806ZM352.99 120.525H346.357V119.39H352.99V120.525ZM366.593 129.375H365.192V125.633H366.593V129.375ZM365.883 118.698C366.687 118.704 367.409 118.864 368.047 119.177C368.686 119.485 369.185 119.919 369.546 120.481C369.906 121.042 370.087 121.684 370.087 122.405C370.087 123.126 369.906 123.765 369.546 124.321C369.185 124.876 368.683 125.311 368.038 125.624C367.4 125.937 366.682 126.094 365.883 126.094C365.068 126.094 364.34 125.937 363.702 125.624C363.064 125.311 362.567 124.876 362.212 124.321C361.858 123.765 361.68 123.126 361.68 122.405C361.68 121.684 361.858 121.042 362.212 120.481C362.567 119.919 363.064 119.485 363.702 119.177C364.34 118.864 365.068 118.704 365.883 118.698ZM365.883 119.904C365.334 119.904 364.843 120.011 364.411 120.224C363.986 120.437 363.649 120.732 363.401 121.11C363.158 121.489 363.04 121.92 363.046 122.405C363.04 122.89 363.158 123.321 363.401 123.7C363.649 124.078 363.986 124.374 364.411 124.587C364.843 124.799 365.334 124.906 365.883 124.906C366.421 124.906 366.903 124.799 367.329 124.587C367.76 124.374 368.097 124.078 368.34 123.7C368.588 123.321 368.715 122.89 368.721 122.405C368.715 121.92 368.588 121.489 368.34 121.11C368.097 120.732 367.76 120.437 367.329 120.224C366.903 120.011 366.421 119.904 365.883 119.904ZM373.315 133.437H371.931V117.67H373.315V133.437ZM375.886 125.385H372.942V124.179H375.886V125.385ZM361.698 128.843C363.554 128.825 365.224 128.787 366.708 128.728C368.198 128.669 369.602 128.553 370.92 128.382L371.009 129.428C369.974 129.606 368.887 129.739 367.746 129.827C366.611 129.916 365.517 129.972 364.465 129.996C363.412 130.014 362.313 130.02 361.166 130.014L360.935 128.843H361.698ZM393.71 126.626H392.327V117.67H393.71V126.626ZM396.087 122.689H393.32V121.536H396.087V122.689ZM389.401 118.698C389.395 120.011 389.096 121.199 388.505 122.263C387.92 123.327 387.068 124.241 385.951 125.003C384.834 125.766 383.495 126.36 381.934 126.786L381.366 125.668C382.744 125.296 383.92 124.799 384.896 124.179C385.877 123.552 386.628 122.825 387.148 121.997C387.668 121.17 387.929 120.271 387.929 119.301V118.698H389.401ZM388.691 119.851H382.076V118.698H388.691V119.851ZM393.71 133.224H383.725V127.353H393.71V133.224ZM385.109 132.089H392.327V128.506H385.109V132.089ZM409.176 122.937H405.575V121.784H409.176V122.937ZM410.151 127.07H408.75V117.67H410.151V127.07ZM404.919 127.566C406.007 127.566 406.947 127.681 407.739 127.912C408.531 128.143 409.14 128.477 409.566 128.914C409.991 129.352 410.204 129.878 410.204 130.492C410.204 131.107 409.991 131.633 409.566 132.071C409.14 132.508 408.531 132.842 407.739 133.073C406.947 133.309 406.007 133.431 404.919 133.437C403.825 133.431 402.882 133.309 402.09 133.073C401.304 132.842 400.698 132.508 400.272 132.071C399.847 131.633 399.634 131.107 399.634 130.492C399.634 129.878 399.847 129.352 400.272 128.914C400.698 128.477 401.307 128.143 402.099 127.912C402.891 127.681 403.831 127.566 404.919 127.566ZM404.919 128.648C404.115 128.648 403.42 128.722 402.835 128.87C402.25 129.018 401.801 129.23 401.487 129.508C401.174 129.786 401.017 130.114 401.017 130.492C401.017 130.871 401.174 131.196 401.487 131.468C401.801 131.74 402.25 131.95 402.835 132.098C403.42 132.245 404.115 132.319 404.919 132.319C405.717 132.319 406.409 132.245 406.994 132.098C407.585 131.95 408.038 131.74 408.351 131.468C408.664 131.196 408.821 130.871 408.821 130.492C408.821 130.114 408.664 129.786 408.351 129.508C408.038 129.23 407.585 129.018 406.994 128.87C406.409 128.722 405.717 128.648 404.919 128.648ZM402.312 120.578C402.312 121.524 402.126 122.42 401.753 123.265C401.381 124.111 400.858 124.85 400.184 125.482C399.516 126.115 398.747 126.597 397.878 126.928L397.151 125.81C397.925 125.532 398.614 125.125 399.217 124.587C399.826 124.043 400.302 123.425 400.645 122.733C400.988 122.036 401.159 121.317 401.159 120.578V119.266H402.312V120.578ZM402.56 120.561C402.56 121.241 402.723 121.9 403.048 122.538C403.373 123.171 403.831 123.735 404.422 124.232C405.014 124.728 405.688 125.107 406.444 125.367L405.717 126.484C404.872 126.177 404.124 125.725 403.474 125.128C402.829 124.53 402.327 123.839 401.966 123.053C401.605 122.26 401.425 121.43 401.425 120.561V119.266H402.56V120.561ZM406.09 119.993H397.594V118.823H406.09V119.993ZM413.982 135.636H412.669L413.645 130.812H415.365L413.982 135.636ZM429.607 119.904C429.607 120.809 429.314 121.64 428.729 122.396C428.143 123.147 427.375 123.777 426.423 124.285C425.471 124.788 424.457 125.13 423.382 125.314L422.832 124.214C423.76 124.078 424.65 123.8 425.501 123.381C426.358 122.955 427.053 122.438 427.585 121.829C428.117 121.22 428.383 120.578 428.383 119.904V119.231H429.607V119.904ZM429.944 119.904C429.944 120.578 430.21 121.22 430.742 121.829C431.274 122.438 431.965 122.955 432.817 123.381C433.674 123.8 434.567 124.078 435.495 124.214L434.98 125.314C433.893 125.13 432.873 124.788 431.921 124.285C430.969 123.777 430.201 123.147 429.616 122.396C429.03 121.64 428.738 120.809 428.738 119.904V119.231H429.944V119.904ZM429.819 133.437H428.454V127.407H429.819V133.437ZM436.346 127.814H421.98V126.662H436.346V127.814ZM434.98 119.798H423.328V118.663H434.98V119.798ZM451.155 133.437H449.825V117.67H451.155V133.437ZM447.076 124.498H443.99V123.363H447.076V124.498ZM447.963 132.621H446.65V118.06H447.963V132.621ZM442.057 122.175C442.051 123.31 441.897 124.406 441.596 125.465C441.3 126.523 440.875 127.475 440.319 128.32C439.769 129.159 439.119 129.813 438.368 130.28L437.481 129.233C438.196 128.808 438.817 128.222 439.343 127.477C439.875 126.733 440.277 125.902 440.549 124.986C440.827 124.069 440.963 123.132 440.957 122.175V120.117H442.057V122.175ZM442.305 122.175C442.305 123.091 442.441 123.984 442.713 124.853C442.985 125.716 443.375 126.502 443.884 127.211C444.392 127.915 445.001 128.471 445.71 128.879L444.859 129.907C444.102 129.452 443.455 128.828 442.917 128.036C442.379 127.238 441.965 126.337 441.676 125.331C441.392 124.321 441.253 123.268 441.259 122.175V120.117H442.305V122.175ZM445.196 120.685H437.925V119.532H445.196V120.685ZM467.809 131.486H453.372V130.315H467.809V131.486ZM461.229 130.829H459.863V126.928H461.229V130.829ZM465.982 123.611H456.564V126.804H455.181V122.476H464.616V119.993H455.146V118.84H465.982V123.611ZM466.354 127.336H455.181V126.183H466.354V127.336ZM248.626 161.437H247.189V155.407H248.626V161.437ZM254.071 161.437H252.67V155.407H254.071V161.437ZM257.884 155.814H243.447V154.662H257.884V155.814ZM250.63 146.308C251.73 146.308 252.699 146.45 253.539 146.734C254.378 147.018 255.029 147.42 255.49 147.94C255.951 148.454 256.181 149.057 256.181 149.749C256.181 150.441 255.951 151.044 255.49 151.558C255.029 152.066 254.378 152.46 253.539 152.737C252.699 153.015 251.73 153.154 250.63 153.154C249.531 153.154 248.564 153.015 247.73 152.737C246.897 152.46 246.247 152.066 245.78 151.558C245.312 151.044 245.079 150.441 245.079 149.749C245.079 149.057 245.312 148.454 245.78 147.94C246.247 147.42 246.897 147.018 247.73 146.734C248.564 146.45 249.531 146.308 250.63 146.308ZM250.63 147.443C249.814 147.443 249.096 147.538 248.475 147.727C247.855 147.916 247.37 148.185 247.021 148.534C246.678 148.883 246.51 149.288 246.516 149.749C246.51 150.204 246.678 150.606 247.021 150.955C247.37 151.298 247.855 151.564 248.475 151.753C249.096 151.942 249.814 152.037 250.63 152.037C251.446 152.037 252.164 151.942 252.785 151.753C253.406 151.564 253.891 151.298 254.239 150.955C254.588 150.612 254.762 150.21 254.762 149.749C254.762 149.288 254.588 148.883 254.239 148.534C253.891 148.185 253.406 147.916 252.785 147.727C252.164 147.538 251.446 147.443 250.63 147.443ZM271.363 150.618H268.099V149.465H271.363V150.618ZM271.345 153.686H268.082V152.533H271.345V153.686ZM268.099 148.578H259.179V147.443H268.099V148.578ZM263.683 149.394C264.381 149.394 265.002 149.512 265.546 149.749C266.089 149.985 266.515 150.325 266.823 150.769C267.13 151.212 267.284 151.723 267.284 152.303C267.284 152.882 267.13 153.391 266.823 153.828C266.515 154.266 266.089 154.608 265.546 154.857C265.002 155.105 264.381 155.229 263.683 155.229C262.98 155.229 262.356 155.105 261.812 154.857C261.274 154.608 260.855 154.266 260.553 153.828C260.258 153.391 260.113 152.882 260.119 152.303C260.113 151.723 260.258 151.212 260.553 150.769C260.855 150.325 261.274 149.985 261.812 149.749C262.356 149.512 262.98 149.394 263.683 149.394ZM263.683 150.441C263.228 150.447 262.829 150.529 262.486 150.689C262.149 150.843 261.886 151.058 261.697 151.336C261.508 151.614 261.413 151.936 261.413 152.303C261.413 152.669 261.508 152.992 261.697 153.269C261.886 153.547 262.149 153.763 262.486 153.917C262.829 154.07 263.228 154.147 263.683 154.147C264.133 154.147 264.532 154.07 264.881 153.917C265.229 153.763 265.498 153.547 265.687 153.269C265.883 152.992 265.983 152.669 265.989 152.303C265.983 151.936 265.883 151.614 265.687 151.336C265.498 151.058 265.229 150.843 264.881 150.689C264.532 150.529 264.133 150.447 263.683 150.441ZM264.393 148.224H263.009V145.546H264.393V148.224ZM272.232 155.868H270.831V145.67H272.232V155.868ZM267.035 156.027C268.129 156.027 269.072 156.131 269.864 156.338C270.662 156.545 271.271 156.852 271.691 157.26C272.111 157.668 272.321 158.156 272.321 158.723C272.321 159.285 272.111 159.764 271.691 160.16C271.271 160.562 270.662 160.869 269.864 161.082C269.072 161.295 268.129 161.401 267.035 161.401C265.936 161.401 264.99 161.295 264.198 161.082C263.406 160.869 262.797 160.562 262.371 160.16C261.945 159.764 261.732 159.285 261.732 158.723C261.732 158.156 261.945 157.668 262.371 157.26C262.797 156.852 263.406 156.545 264.198 156.338C264.99 156.131 265.936 156.027 267.035 156.027ZM267.035 157.109C266.237 157.109 265.549 157.171 264.969 157.295C264.396 157.42 263.952 157.606 263.639 157.854C263.326 158.096 263.169 158.386 263.169 158.723C263.169 159.054 263.326 159.341 263.639 159.583C263.952 159.826 264.399 160.009 264.978 160.133C265.557 160.257 266.243 160.319 267.035 160.319C267.816 160.319 268.493 160.257 269.066 160.133C269.64 160.009 270.08 159.826 270.387 159.583C270.695 159.341 270.848 159.054 270.848 158.723C270.848 158.386 270.695 158.096 270.387 157.854C270.08 157.606 269.64 157.422 269.066 157.304C268.499 157.18 267.822 157.115 267.035 157.109ZM282.04 145.954C283.204 145.954 284.203 146.057 285.037 146.264C285.876 146.471 286.515 146.778 286.952 147.186C287.39 147.594 287.608 148.088 287.608 148.667C287.608 149.258 287.39 149.761 286.952 150.175C286.515 150.588 285.879 150.902 285.046 151.115C284.212 151.321 283.21 151.428 282.04 151.434C280.863 151.428 279.858 151.321 279.024 151.115C278.197 150.902 277.561 150.588 277.118 150.175C276.675 149.761 276.453 149.258 276.453 148.667C276.453 148.088 276.675 147.594 277.118 147.186C277.561 146.778 278.2 146.471 279.033 146.264C279.867 146.057 280.869 145.954 282.04 145.954ZM282.04 147C281.17 147 280.426 147.068 279.805 147.204C279.19 147.34 278.717 147.532 278.386 147.78C278.061 148.029 277.901 148.324 277.907 148.667C277.901 149.028 278.061 149.338 278.386 149.598C278.717 149.852 279.19 150.045 279.805 150.175C280.426 150.305 281.17 150.37 282.04 150.37C282.909 150.37 283.653 150.305 284.274 150.175C284.901 150.045 285.377 149.852 285.702 149.598C286.027 149.344 286.19 149.034 286.19 148.667C286.19 148.324 286.027 148.029 285.702 147.78C285.377 147.532 284.901 147.34 284.274 147.204C283.648 147.068 282.903 147 282.04 147ZM289.222 153.633H274.857V152.498H289.222V153.633ZM287.378 158.528H278.014V160.443H276.63V157.499H286.012V156.063H276.595V154.999H287.378V158.528ZM287.857 161.259H276.63V160.16H287.857V161.259ZM307.543 149.66H304.12V148.507H307.543V149.66ZM307.543 152.48H304.12V151.327H307.543V152.48ZM303.96 148.029H295.589V146.876H303.96V148.029ZM295.146 153.278C296.902 153.278 298.56 153.252 300.121 153.198C301.687 153.145 303.139 153.036 304.475 152.87L304.546 153.935C303.168 154.147 301.699 154.289 300.138 154.36C298.578 154.425 296.973 154.455 295.323 154.449L295.146 153.278ZM298.533 153.651H297.186V147.763H298.533V153.651ZM302.347 153.651H300.999V147.763H302.347V153.651ZM308.181 155.407H306.78V145.67H308.181V155.407ZM302.95 155.744C304.043 155.744 304.986 155.853 305.778 156.072C306.576 156.29 307.185 156.613 307.605 157.038C308.025 157.458 308.235 157.966 308.235 158.563C308.235 159.161 308.025 159.669 307.605 160.089C307.185 160.514 306.576 160.839 305.778 161.064C304.986 161.289 304.043 161.401 302.95 161.401C301.856 161.401 300.91 161.289 300.112 161.064C299.32 160.839 298.714 160.514 298.294 160.089C297.874 159.669 297.664 159.161 297.664 158.563C297.664 157.966 297.874 157.458 298.294 157.038C298.714 156.613 299.32 156.29 300.112 156.072C300.91 155.853 301.856 155.744 302.95 155.744ZM302.95 156.825C302.146 156.825 301.451 156.893 300.866 157.029C300.28 157.165 299.831 157.366 299.518 157.632C299.204 157.892 299.048 158.203 299.048 158.563C299.048 158.924 299.204 159.237 299.518 159.503C299.831 159.764 300.277 159.962 300.857 160.098C301.442 160.234 302.14 160.302 302.95 160.302C303.754 160.302 304.448 160.234 305.033 160.098C305.619 159.962 306.068 159.764 306.381 159.503C306.695 159.237 306.851 158.924 306.851 158.563C306.851 158.203 306.695 157.892 306.381 157.632C306.068 157.366 305.619 157.165 305.033 157.029C304.448 156.893 303.754 156.825 302.95 156.825ZM323.008 161.437H321.625V145.67H323.008V161.437ZM325.562 153.261H322.654V152.09H325.562V153.261ZM318.929 147.372C318.923 148.904 318.669 150.352 318.166 151.718C317.67 153.077 316.884 154.334 315.808 155.486C314.732 156.633 313.36 157.618 311.693 158.439L310.913 157.34C312.373 156.613 313.597 155.758 314.584 154.777C315.577 153.79 316.319 152.696 316.81 151.496C317.306 150.296 317.558 148.998 317.563 147.603V147.372H318.929ZM318.273 148.543H311.64V147.372H318.273V148.543ZM334.377 149.536H326.467V148.401H334.377V149.536ZM330.422 150.6C331.078 150.6 331.663 150.754 332.177 151.061C332.698 151.369 333.103 151.794 333.392 152.338C333.688 152.876 333.839 153.491 333.845 154.183C333.839 154.88 333.688 155.501 333.392 156.045C333.103 156.589 332.698 157.018 332.177 157.331C331.663 157.644 331.078 157.801 330.422 157.801C329.777 157.801 329.195 157.644 328.675 157.331C328.16 157.018 327.758 156.589 327.469 156.045C327.179 155.501 327.034 154.88 327.034 154.183C327.034 153.497 327.182 152.882 327.478 152.338C327.773 151.794 328.175 151.369 328.684 151.061C329.198 150.754 329.777 150.6 330.422 150.6ZM330.422 151.771C330.008 151.777 329.638 151.886 329.313 152.099C328.988 152.306 328.734 152.593 328.551 152.959C328.367 153.32 328.276 153.728 328.276 154.183C328.276 154.644 328.367 155.055 328.551 155.415C328.734 155.776 328.988 156.06 329.313 156.267C329.638 156.474 330.008 156.577 330.422 156.577C330.835 156.577 331.208 156.474 331.539 156.267C331.87 156.06 332.13 155.776 332.319 155.415C332.508 155.055 332.603 154.644 332.603 154.183C332.603 153.728 332.508 153.32 332.319 152.959C332.13 152.593 331.87 152.306 331.539 152.099C331.208 151.886 330.835 151.777 330.422 151.771ZM339.928 161.437H338.598V145.67H339.928V161.437ZM339.041 153.473H336.026V152.321H339.041V153.473ZM336.505 160.656H335.192V146.06H336.505V160.656ZM331.131 149.093H329.748V146.149H331.131V149.093ZM347.749 148.277C347.743 148.998 347.548 149.666 347.164 150.281C346.785 150.896 346.253 151.425 345.568 151.868C344.888 152.312 344.101 152.634 343.209 152.835L342.624 151.753C343.392 151.593 344.078 151.342 344.681 150.999C345.284 150.651 345.754 150.243 346.091 149.776C346.428 149.303 346.596 148.803 346.596 148.277V147.337H347.749V148.277ZM347.997 148.277C347.997 148.768 348.169 149.232 348.512 149.669C348.855 150.101 349.322 150.479 349.913 150.804C350.504 151.129 351.172 151.363 351.917 151.505L351.349 152.587C350.474 152.397 349.697 152.096 349.017 151.682C348.337 151.268 347.808 150.769 347.43 150.183C347.051 149.598 346.862 148.963 346.862 148.277V147.337H347.997V148.277ZM351.509 147.993H343.156V146.84H351.509V147.993ZM347.944 160.958H346.543V154.449H347.944V160.958ZM355.251 161.454H353.832V145.688H355.251V161.454ZM342.127 154.094C344.09 154.1 345.937 154.07 347.669 154.005C349.401 153.94 351.042 153.799 352.591 153.58L352.679 154.626C351.101 154.898 349.487 155.075 347.838 155.158C346.188 155.241 344.35 155.288 342.322 155.3L342.127 154.094ZM354.205 157.623H350.197V156.542H354.205V157.623ZM362.842 158.528H361.476V153.81H362.842V158.528ZM368.748 158.528H367.347V153.81H368.748V158.528ZM372.33 159.415H357.894V158.244H372.33V159.415ZM365.077 146.663C366.194 146.669 367.187 146.84 368.056 147.177C368.931 147.508 369.614 147.984 370.104 148.605C370.595 149.22 370.841 149.926 370.841 150.724C370.841 151.528 370.595 152.235 370.104 152.844C369.614 153.453 368.931 153.926 368.056 154.263C367.187 154.6 366.194 154.768 365.077 154.768C363.959 154.768 362.963 154.6 362.088 154.263C361.219 153.926 360.539 153.453 360.049 152.844C359.558 152.235 359.313 151.528 359.313 150.724C359.313 149.926 359.558 149.22 360.049 148.605C360.539 147.984 361.219 147.508 362.088 147.177C362.963 146.84 363.959 146.669 365.077 146.663ZM365.077 147.816C364.219 147.81 363.454 147.928 362.78 148.171C362.112 148.407 361.592 148.747 361.219 149.19C360.847 149.634 360.66 150.145 360.66 150.724C360.66 151.304 360.847 151.815 361.219 152.259C361.592 152.702 362.112 153.048 362.78 153.296C363.454 153.544 364.219 153.668 365.077 153.668C365.928 153.668 366.687 153.544 367.356 153.296C368.024 153.048 368.547 152.702 368.925 152.259C369.303 151.815 369.493 151.304 369.493 150.724C369.493 150.145 369.303 149.634 368.925 149.19C368.547 148.747 368.024 148.407 367.356 148.171C366.687 147.928 365.928 147.81 365.077 147.816ZM380.577 156.382H379.087L378.963 147.16H380.701L380.577 156.382ZM379.832 160.106C379.625 160.106 379.433 160.053 379.256 159.947C379.085 159.84 378.946 159.701 378.839 159.53C378.739 159.353 378.691 159.161 378.697 158.954C378.691 158.753 378.739 158.563 378.839 158.386C378.946 158.209 379.085 158.07 379.256 157.969C379.433 157.869 379.625 157.819 379.832 157.819C380.039 157.819 380.228 157.869 380.4 157.969C380.577 158.07 380.716 158.209 380.817 158.386C380.917 158.563 380.967 158.753 380.967 158.954C380.967 159.161 380.917 159.353 380.817 159.53C380.716 159.701 380.577 159.84 380.4 159.947C380.228 160.053 380.039 160.106 379.832 160.106Z" fill="black"/>
</svg>
