<svg width="356" height="180" viewBox="0 0 356 180" fill="none" xmlns="http://www.w3.org/2000/svg">
<mask id="path-1-inside-1_802_12040" fill="white">
<path fill-rule="evenodd" clip-rule="evenodd" d="M77.1307 0C57.7889 0 42.1093 15.6796 42.1093 35.0213V41.7101L1.00211 41.7102C-0.0529756 41.7102 -0.38968 43.1319 0.553342 43.6051L42.1093 64.4577V144.088C42.1093 163.43 57.7888 179.109 77.1306 179.109H320.917C340.258 179.109 355.938 163.43 355.938 144.088V35.0214C355.938 15.6796 340.258 0 320.917 0H77.1307Z"/>
</mask>
<path fill-rule="evenodd" clip-rule="evenodd" d="M77.1307 0C57.7889 0 42.1093 15.6796 42.1093 35.0213V41.7101L1.00211 41.7102C-0.0529756 41.7102 -0.38968 43.1319 0.553342 43.6051L42.1093 64.4577V144.088C42.1093 163.43 57.7888 179.109 77.1306 179.109H320.917C340.258 179.109 355.938 163.43 355.938 144.088V35.0214C355.938 15.6796 340.258 0 320.917 0H77.1307Z" fill="#EEEDE6"/>
<path d="M42.1093 41.7101L42.1093 46.7131L47.1123 46.7131V41.7101H42.1093ZM1.00211 41.7102L1.00211 46.7132L1.00213 46.7132L1.00211 41.7102ZM0.553342 43.6051L2.79719 39.1335L2.79719 39.1335L0.553342 43.6051ZM42.1093 64.4577H47.1123V61.3706L44.3531 59.986L42.1093 64.4577ZM47.1123 35.0213C47.1123 18.4427 60.552 5.00305 77.1307 5.00305V-5.00305C55.0258 -5.00305 37.1062 12.9165 37.1062 35.0213H47.1123ZM47.1123 41.7101V35.0213H37.1062V41.7101H47.1123ZM1.00213 46.7132L42.1093 46.7131L42.1093 36.707L1.0021 36.7071L1.00213 46.7132ZM2.79719 39.1335C6.56934 41.0263 5.22242 46.7132 1.00211 46.7132V36.7071C-5.32838 36.7071 -7.3487 45.2375 -1.6905 48.0768L2.79719 39.1335ZM44.3531 59.986L2.79719 39.1335L-1.69051 48.0768L39.8654 68.9293L44.3531 59.986ZM47.1123 144.088V64.4577H37.1062V144.088H47.1123ZM77.1306 174.106C60.552 174.106 47.1123 160.667 47.1123 144.088H37.1062C37.1062 166.193 55.0257 184.112 77.1306 184.112V174.106ZM320.917 174.106H77.1306V184.112H320.917V174.106ZM350.935 144.088C350.935 160.667 337.495 174.106 320.917 174.106V184.112C343.022 184.112 360.941 166.193 360.941 144.088H350.935ZM350.935 35.0214V144.088H360.941V35.0214H350.935ZM320.917 5.00305C337.495 5.00305 350.935 18.4427 350.935 35.0214H360.941C360.941 12.9165 343.022 -5.00305 320.917 -5.00305V5.00305ZM77.1307 5.00305H320.917V-5.00305H77.1307V5.00305Z" fill="black" mask="url(#path-1-inside-1_802_12040)"/>
<path d="M136.898 38.1873C137.121 38.0943 137.419 38.0478 137.791 38.0478C138.163 38.0292 138.469 38.0571 138.711 38.1315C138.916 38.1873 139.111 38.243 139.297 38.2988C140.282 38.5591 141.091 39.0054 141.723 39.6376C141.909 39.8235 142.086 40.0466 142.253 40.307C142.439 40.5487 142.532 40.7067 142.532 40.7811C142.532 40.8183 142.551 40.8927 142.588 41.0042C142.644 41.0972 142.69 41.2273 142.727 41.3947C142.783 41.5806 142.82 41.748 142.839 41.8967C142.895 42.1384 142.913 42.5289 142.895 43.0681C142.895 43.5888 142.858 43.9792 142.783 44.2396C142.486 45.4667 141.658 46.4336 140.301 47.1402C140.022 47.2889 139.864 47.3726 139.827 47.3912C139.808 47.4284 139.79 48.293 139.771 49.9851C139.771 51.6771 139.79 52.5324 139.827 52.551C139.845 52.5696 140.682 52.5789 142.337 52.5789C143.732 52.5789 144.54 52.5975 144.763 52.6347C144.987 52.6533 145.2 52.7741 145.405 52.9973C145.981 53.6109 145.953 54.2337 145.321 54.8659C145.098 55.0891 144.856 55.2192 144.596 55.2564C144.354 55.2936 143.639 55.3308 142.449 55.368C141.054 55.3866 139.464 55.4238 137.679 55.4795C134.016 55.5725 132.045 55.5539 131.766 55.4238C131.19 55.1448 130.855 54.7544 130.762 54.2523C130.688 53.7317 130.883 53.2948 131.348 52.9415L131.655 52.7183H134.249C135.978 52.7183 136.861 52.6998 136.898 52.6626C136.954 52.6068 136.991 51.7236 137.01 50.0129C137.047 48.3023 137.038 47.4191 136.982 47.3633C136.945 47.3261 136.843 47.2889 136.675 47.2518C136.099 47.103 135.513 46.7869 134.918 46.3035C134.323 45.82 133.895 45.3087 133.635 44.7695C133.412 44.2674 133.282 43.691 133.245 43.0402C133.226 42.3895 133.319 41.8595 133.524 41.4505C133.561 41.3575 133.579 41.2738 133.579 41.1995C133.579 40.9949 133.867 40.558 134.444 39.8886C135.039 39.2006 135.42 38.8566 135.587 38.8566C135.643 38.8566 135.671 38.8473 135.671 38.8287C135.671 38.7916 135.82 38.6986 136.117 38.5498C136.433 38.3825 136.694 38.2616 136.898 38.1873ZM139.13 41.1716C138.535 40.9856 137.967 40.9856 137.428 41.1716C136.889 41.3575 136.517 41.6829 136.313 42.1477C136.238 42.3337 136.182 42.4638 136.145 42.5382C135.978 42.8543 135.978 43.1983 136.145 43.5702C136.313 43.942 136.573 44.2117 136.926 44.379C137.558 44.6579 138.191 44.7044 138.823 44.5185C139.455 44.3139 139.845 43.9606 139.994 43.4586C140.385 42.2314 140.096 41.4691 139.13 41.1716ZM149.856 35.4261C150.358 35.3145 150.767 35.4354 151.083 35.7886C151.231 35.9374 151.324 36.1233 151.362 36.3465C151.417 36.5696 151.455 36.9972 151.473 37.6294C151.473 37.6852 151.473 37.7503 151.473 37.8247C151.492 38.6056 151.538 39.0612 151.613 39.1913C151.706 39.3029 151.994 39.3494 152.477 39.3308C152.533 39.3308 152.58 39.3308 152.617 39.3308C153.323 39.2936 154.299 39.2657 155.545 39.2471C156.754 39.2285 157.46 39.2378 157.665 39.275C157.888 39.3122 158.12 39.4423 158.362 39.6655C158.901 40.2047 158.92 40.7811 158.418 41.3947C158.176 41.655 157.851 41.8131 157.442 41.8688C157.051 41.9246 155.889 41.9711 153.955 42.0083C152.115 42.0455 151.018 42.0548 150.664 42.0362C150.311 42.0176 150.014 41.9339 149.772 41.7852C149.716 41.748 149.651 41.7201 149.577 41.7015C149.316 41.5713 149.13 41.2366 149.019 40.6974C148.907 40.1582 148.814 39.1541 148.74 37.6852C148.684 36.3279 149.056 35.5748 149.856 35.4261ZM156.242 43.7096C158.288 43.5981 159.45 43.6167 159.729 43.7654C160.324 44.1001 160.584 44.5556 160.51 45.1321C160.454 45.7085 160.082 46.0989 159.394 46.3035C159.301 46.3221 158.855 46.3314 158.055 46.3314C156.754 46.35 155.266 46.415 153.593 46.5266C153.184 46.5638 152.505 46.601 151.557 46.6382C150.776 46.6753 150.144 46.7125 149.66 46.7497C148.34 46.8613 147.522 46.8427 147.206 46.6939C146.908 46.5638 146.676 46.3592 146.509 46.0803C146.36 45.8014 146.323 45.5225 146.397 45.2436C146.49 44.8903 146.639 44.6486 146.843 44.5185C147.048 44.3697 147.392 44.2674 147.875 44.2117C148.359 44.1373 149.195 44.0722 150.385 44.0164C151.408 43.9792 152.022 43.9513 152.226 43.9328C152.375 43.8956 152.979 43.8491 154.039 43.7933C155.08 43.7561 155.815 43.7282 156.242 43.7096ZM156.103 47.8375C157.46 47.7445 158.306 47.8561 158.641 48.1721C158.994 48.4697 159.171 49.2692 159.171 50.5708C159.171 51.9281 159.022 52.8206 158.725 53.2483C158.446 53.6759 157.804 53.9641 156.8 54.1129C155.982 54.2244 155.108 54.2988 154.179 54.336C153.435 54.3546 152.951 54.3825 152.728 54.4197C152.487 54.4569 152.189 54.4755 151.836 54.4755C151.445 54.4755 151.222 54.5034 151.166 54.5591C151.148 54.6149 151.138 54.773 151.138 55.0333C151.138 55.275 151.157 55.4145 151.194 55.4516C151.287 55.5446 152.57 55.6004 155.043 55.619C155.192 55.619 155.406 55.619 155.685 55.619C157.116 55.6376 157.962 55.6562 158.223 55.6748C158.483 55.712 158.688 55.8049 158.836 55.9537C158.874 55.9909 158.892 56.0095 158.892 56.0095C159.338 56.4185 159.45 56.8462 159.227 57.2924C159.171 57.404 159.143 57.4784 159.143 57.5156C159.143 57.5527 159.05 57.6457 158.864 57.7945C158.697 57.9618 158.548 58.0734 158.418 58.1292C158.139 58.2779 156.698 58.3523 154.095 58.3523C151.492 58.3523 150.032 58.2779 149.716 58.1292C149.288 57.9246 148.991 57.6829 148.824 57.404C148.656 57.1251 148.535 56.6695 148.461 56.0373C148.331 54.5498 148.322 53.6294 148.433 53.2762C148.619 52.6998 148.861 52.3279 149.158 52.1605C149.474 51.9932 150.134 51.9002 151.138 51.8816C151.957 51.8444 152.645 51.8072 153.202 51.7701C154.616 51.6585 155.61 51.5748 156.187 51.519C156.373 51.519 156.475 51.5004 156.494 51.4633C156.531 51.4447 156.549 51.3052 156.549 51.0449C156.568 50.7846 156.559 50.6358 156.521 50.5986C156.484 50.5615 155.889 50.5522 154.736 50.5708C153.602 50.5708 152.514 50.5894 151.473 50.6265C150.432 50.6637 149.716 50.6544 149.326 50.5986C148.954 50.5429 148.656 50.3941 148.433 50.1524C148.247 49.9293 148.145 49.6597 148.126 49.3436C148.108 49.0275 148.182 48.7579 148.349 48.5347C148.349 48.5347 148.359 48.5254 148.377 48.5068C148.582 48.2465 148.851 48.0885 149.186 48.0327C149.521 47.9769 150.562 47.9397 152.31 47.9211C152.347 47.9211 152.375 47.9211 152.394 47.9211C154.402 47.9025 155.638 47.8746 156.103 47.8375ZM174.464 38.773C174.65 38.6428 174.929 38.6149 175.301 38.6893C175.673 38.7637 175.942 38.9031 176.11 39.1076C176.128 39.1076 176.138 39.1169 176.138 39.1355C176.305 39.3215 176.398 39.6469 176.416 40.1117C176.454 40.558 176.463 42.0362 176.444 44.5463C176.444 44.6579 176.444 44.7509 176.444 44.8253C176.407 48.3395 176.398 50.5708 176.416 51.519C176.416 52.7276 176.398 53.4435 176.361 53.6666C176.286 54.1129 176.091 54.4569 175.775 54.6986C175.459 54.9217 175.115 54.9961 174.743 54.9217C174.371 54.8473 174.074 54.6242 173.851 54.2523C173.72 54.0664 173.655 51.612 173.655 46.8892C173.655 42.1663 173.711 39.6934 173.823 39.4702C173.953 39.1913 174.167 38.9589 174.464 38.773ZM165.539 39.2192C166.171 39.1076 166.878 39.2006 167.659 39.4981C168.458 39.777 169.081 40.1675 169.527 40.6695C169.992 41.1716 170.262 41.8688 170.336 42.7613C170.429 43.6538 170.308 44.4534 169.974 45.1599C169.713 45.6992 169.416 46.1268 169.081 46.4429C168.746 46.759 168.31 47.0286 167.77 47.2518C166.952 47.5864 166.022 47.605 164.981 47.3075C163.94 46.9914 163.15 46.4708 162.611 45.7457C162.183 45.1878 161.95 44.5463 161.913 43.8212C161.876 43.096 161.997 42.4267 162.276 41.8131C162.573 41.1809 163.01 40.623 163.587 40.1396C164.163 39.6376 164.814 39.3308 165.539 39.2192ZM166.934 42.1199C166.376 41.9525 165.864 42.0176 165.4 42.3151C164.935 42.6126 164.702 43.0217 164.702 43.5423C164.702 43.9885 164.953 44.3325 165.455 44.5742C165.957 44.7974 166.45 44.7974 166.934 44.5742C167.436 44.3511 167.687 43.9235 167.687 43.2913C167.687 42.6591 167.436 42.2686 166.934 42.1199ZM170.643 49.5946C171.089 49.5388 171.443 49.5481 171.703 49.6225C171.926 49.6783 172.14 49.7898 172.344 49.9572C172.53 50.1245 172.651 50.3569 172.707 50.6544C172.781 50.9333 172.763 51.1844 172.651 51.4075C172.447 51.8351 172.112 52.114 171.647 52.2442C171.201 52.3558 170.318 52.4115 168.998 52.4115C168.142 52.4115 167.175 52.4301 166.097 52.4673C163.773 52.5789 162.48 52.5975 162.22 52.5231C161.681 52.3744 161.328 52.0676 161.16 51.6027C161.011 51.1193 161.123 50.6823 161.495 50.2918C161.699 50.0687 161.923 49.9386 162.164 49.9014C162.406 49.8642 163.113 49.827 164.284 49.7898C165.679 49.7712 166.58 49.7433 166.989 49.7061C167.454 49.669 168.096 49.6411 168.914 49.6225C169.806 49.6225 170.383 49.6132 170.643 49.5946ZM190.751 35.5376C190.899 35.4633 191.095 35.4261 191.336 35.4261C191.597 35.4261 191.792 35.4726 191.922 35.5655C192.219 35.7515 192.405 35.9467 192.48 36.1512C192.554 36.3372 192.601 36.802 192.619 37.5458C192.638 38.4011 192.675 38.8938 192.731 39.024C192.787 39.1541 193 39.2192 193.372 39.2192C193.837 39.2378 194.404 39.2285 195.074 39.1913C197.212 39.0798 198.486 39.0333 198.895 39.0519C199.322 39.0519 199.629 39.1541 199.815 39.3587C200.206 39.7119 200.354 40.1117 200.261 40.558C200.187 41.0042 199.908 41.3389 199.425 41.562C199.239 41.6364 198.765 41.6829 198.002 41.7015C197.37 41.7201 196.97 41.748 196.803 41.7852C196.636 41.8224 196.552 41.8967 196.552 42.0083C196.552 42.8264 196.552 43.3563 196.552 43.5981C196.552 43.7654 196.617 43.8584 196.747 43.877C196.877 43.8956 197.333 43.8956 198.114 43.877C199.211 43.8212 199.908 43.8026 200.206 43.8212C200.522 43.8212 200.754 43.8677 200.903 43.9606C201.293 44.1838 201.516 44.4999 201.572 44.9089C201.647 45.318 201.535 45.6899 201.237 46.0246C201.033 46.2291 200.828 46.3592 200.624 46.415C200.419 46.4522 199.945 46.4894 199.201 46.5266C196.952 46.6382 195.687 46.7125 195.408 46.7497C195.167 46.7869 194.869 46.8055 194.516 46.8055C194.237 46.8055 193.93 46.8334 193.595 46.8892C193.261 46.945 192.852 46.9728 192.368 46.9728C191.903 46.9728 191.383 47.0007 190.806 47.0565C189.765 47.1495 189.021 47.103 188.575 46.9171C188.129 46.7311 187.906 46.3685 187.906 45.8293C187.906 45.2715 188.101 44.8996 188.491 44.7137C188.882 44.5092 189.691 44.3883 190.918 44.3511C191.829 44.3325 192.387 44.2953 192.591 44.2396C192.722 44.221 192.907 44.2024 193.149 44.1838C193.391 44.1838 193.549 44.1745 193.623 44.1559C193.698 44.1187 193.753 44.0536 193.791 43.9606C193.828 43.8119 193.846 43.4586 193.846 42.9008C193.846 42.343 193.819 42.0548 193.763 42.0362C193.744 42.0176 193.372 41.999 192.647 41.9804C192.108 41.9804 191.745 41.9711 191.559 41.9525C191.392 41.9153 191.178 41.8409 190.918 41.7294C190.286 41.4319 189.97 40.7253 189.97 39.6097C189.97 39.2378 189.951 38.773 189.914 38.2151C189.858 37.4342 189.895 36.8392 190.025 36.4301C190.156 36.0211 190.397 35.7236 190.751 35.5376ZM197.695 47.8932C198.216 47.8746 198.56 47.8561 198.727 47.8375C199.192 47.8189 199.592 47.9583 199.927 48.2558C200.28 48.5347 200.475 48.9066 200.512 49.3715C200.55 49.7061 200.54 50.2733 200.484 51.0728C200.447 51.8723 200.401 52.3465 200.345 52.4952C199.973 53.6109 199.164 54.1687 197.918 54.1687C197.77 54.1687 197.509 54.1966 197.138 54.2523C196.766 54.3081 196.403 54.336 196.05 54.336C195.697 54.336 195.399 54.3546 195.157 54.3918C194.897 54.429 194.404 54.4569 193.679 54.4755C193.047 54.4941 192.684 54.5219 192.591 54.5591C192.517 54.5777 192.47 54.6614 192.452 54.8102C192.378 55.2378 192.517 55.4609 192.87 55.4795C194.004 55.5725 195.408 55.619 197.082 55.619C198.439 55.619 199.229 55.6376 199.452 55.6748C199.694 55.712 199.927 55.8514 200.15 56.0931C200.447 56.4278 200.54 56.7997 200.429 57.2088C200.336 57.6178 200.075 57.9246 199.648 58.1292C199.35 58.2779 197.946 58.3523 195.436 58.3523C192.926 58.3709 191.513 58.3058 191.197 58.157C190.583 57.8967 190.193 57.6085 190.025 57.2924C189.877 56.9949 189.784 56.3534 189.746 55.368C189.709 54.2337 189.765 53.4249 189.914 52.9415C190.081 52.458 190.407 52.1512 190.89 52.0211C191.28 51.9281 191.894 51.8816 192.731 51.8816C193.493 51.8816 194.023 51.863 194.321 51.8258C194.507 51.7887 194.897 51.7515 195.492 51.7143C196.013 51.6771 196.385 51.6399 196.608 51.6027C196.887 51.5655 197.11 51.5469 197.277 51.5469C197.556 51.5469 197.733 51.5097 197.807 51.4354C197.881 51.3424 197.9 51.1565 197.863 50.8776L197.835 50.5986H196.524C195.576 50.5986 194.953 50.6265 194.655 50.6823C194.209 50.7195 193.419 50.7381 192.285 50.7381C191.169 50.7195 190.537 50.6823 190.388 50.6265C189.812 50.4406 189.505 50.0687 189.468 49.5109C189.43 48.9531 189.672 48.5347 190.193 48.2558C190.323 48.1814 190.871 48.135 191.838 48.1164C193.307 48.0792 195.26 48.0048 197.695 47.8932ZM214.172 35.8165C214.358 35.7236 214.618 35.7236 214.953 35.8165C215.287 35.8909 215.529 36.0118 215.678 36.1791C215.864 36.3836 215.966 36.5789 215.985 36.7648C216.022 36.9322 216.031 37.4993 216.012 38.4662C215.994 39.3401 215.985 39.8514 215.985 40.0002C216.003 40.1489 216.05 40.2419 216.124 40.2791C216.329 40.4278 216.914 40.4464 217.881 40.3348C218.606 40.2419 219.173 40.372 219.582 40.7253C220.01 41.0786 220.14 41.5341 219.973 42.092C219.861 42.5382 219.685 42.8171 219.443 42.9287C219.201 43.0217 218.616 43.0774 217.686 43.096C216.738 43.1332 216.217 43.1704 216.124 43.2076C216.05 43.2448 216.003 43.3842 215.985 43.626C215.966 43.8677 215.966 44.3976 215.985 45.2157C216.003 46.2384 215.985 46.8055 215.929 46.9171C215.873 47.0286 215.845 47.1123 215.845 47.1681C215.845 47.2239 215.761 47.3168 215.594 47.447C215.445 47.5771 215.306 47.6608 215.176 47.698C214.767 47.8468 214.385 47.8189 214.032 47.6143C213.679 47.3912 213.437 47.0472 213.307 46.5824C213.233 46.3035 213.195 44.6672 213.195 41.6736C213.214 38.68 213.261 37.053 213.335 36.7927C213.409 36.6068 213.53 36.4115 213.697 36.207C213.865 36.0025 214.023 35.8723 214.172 35.8165ZM204.689 36.8206C206.808 36.6904 208.101 36.6812 208.566 36.7927C209.012 36.8857 209.328 37.1088 209.514 37.4621C209.718 37.7968 209.858 38.3546 209.932 39.1355C210.062 40.4929 209.969 41.4691 209.653 42.0641C209.337 42.6591 208.733 42.9938 207.84 43.0681C207.469 43.0867 207.264 43.1053 207.227 43.1239C207.19 43.1425 206.855 43.1704 206.223 43.2076C205.609 43.2448 205.256 43.2913 205.163 43.347C205.089 43.3842 205.051 43.5516 205.051 43.8491C205.089 44.2581 205.154 44.4999 205.247 44.5742C205.34 44.63 205.721 44.6579 206.39 44.6579C207.171 44.6765 207.878 44.6672 208.51 44.63C209.161 44.5928 209.57 44.6021 209.737 44.6579C210.388 44.8253 210.732 45.2064 210.769 45.8014C210.806 46.3778 210.518 46.8148 209.904 47.1123L209.486 47.3075H206.725C205.33 47.3261 204.503 47.3261 204.243 47.3075C204.001 47.2889 203.806 47.2425 203.657 47.1681C203.173 46.9264 202.848 46.5452 202.681 46.0246C202.513 45.4853 202.42 44.5928 202.402 43.347C202.402 42.4359 202.448 41.8967 202.541 41.7294C202.671 41.4691 202.885 41.2459 203.183 41.06C203.499 40.8555 203.815 40.7532 204.131 40.7532C204.261 40.7532 204.475 40.7346 204.772 40.6974C205.739 40.5301 206.427 40.4464 206.836 40.4464C207.004 40.4464 207.115 40.4092 207.171 40.3348C207.227 40.2605 207.245 40.1303 207.227 39.9444C207.208 39.6655 207.078 39.5074 206.836 39.4702C206.613 39.433 206.028 39.4516 205.079 39.526C203.908 39.6376 203.173 39.619 202.876 39.4702C202.504 39.2843 202.272 38.9961 202.179 38.6056C202.086 38.1966 202.179 37.8247 202.458 37.49C202.643 37.2483 202.876 37.0902 203.155 37.0158C203.434 36.9229 203.945 36.8578 204.689 36.8206ZM209.598 49.0368C209.839 49.0182 210.76 48.9996 212.359 48.981C213.79 48.981 214.646 49.0089 214.925 49.0647C215.204 49.1204 215.473 49.3157 215.734 49.6504C215.864 49.8363 215.938 50.6637 215.957 52.1326C215.975 53.6016 215.919 54.7265 215.789 55.5074C215.771 55.5632 215.743 55.6655 215.706 55.8142C215.687 55.963 215.678 56.0559 215.678 56.0931C215.659 56.2605 215.622 56.3906 215.566 56.4836C215.548 56.5208 215.501 56.6231 215.427 56.7904C215.278 57.1437 215.018 57.3854 214.646 57.5156C214.274 57.6643 213.707 57.7294 212.944 57.7108C210.602 57.6736 209.17 57.6364 208.649 57.5992C208.129 57.5806 207.738 57.5063 207.478 57.3761C206.846 57.06 206.52 56.5673 206.502 55.8979C206.483 54.8938 206.492 53.6945 206.53 52.3C206.585 50.9054 206.632 50.1524 206.669 50.0408C206.836 49.7247 207.041 49.5109 207.283 49.3993C207.543 49.2692 207.952 49.1855 208.51 49.1483C209.012 49.1111 209.374 49.074 209.598 49.0368ZM213.195 51.798L211.355 51.7701C210.109 51.7701 209.458 51.7887 209.402 51.8258C209.365 51.8444 209.347 52.3465 209.347 53.3319C209.347 54.3174 209.365 54.838 209.402 54.8938C209.421 54.9124 210.034 54.9217 211.243 54.9217L213.028 54.9496L213.084 54.7544C213.14 54.6242 213.168 54.1036 213.168 53.1925L213.195 51.798ZM228.121 37.7689C228.269 37.7131 228.539 37.6945 228.93 37.7131C229.32 37.7317 229.59 37.7596 229.738 37.7968C230.147 37.9641 230.445 38.2337 230.631 38.6056C230.705 38.7544 230.742 39.4237 230.742 40.6137C230.761 41.7852 230.742 42.5196 230.687 42.8171C230.649 43.0031 230.612 43.4028 230.575 44.0164C230.538 44.63 230.501 45.0577 230.464 45.2994C230.389 45.7457 230.194 46.0896 229.878 46.3314C229.58 46.5545 229.274 46.6475 228.957 46.6103C228.66 46.5545 228.39 46.3778 228.149 46.0803C227.907 45.7828 227.795 45.4017 227.814 44.9368C227.814 44.6207 227.795 44.4441 227.758 44.4069C227.74 44.3883 227.349 44.3976 226.587 44.4348C225.843 44.4534 225.304 44.4813 224.969 44.5185C223.072 44.7416 222.124 44.3046 222.124 43.2076C222.124 42.2779 222.859 41.8038 224.328 41.7852C224.681 41.7852 224.969 41.7666 225.192 41.7294C225.453 41.7108 225.917 41.6829 226.587 41.6457C227.219 41.6085 227.6 41.562 227.73 41.5063C227.879 41.4505 227.963 41.3203 227.981 41.1158C228.018 40.8369 228 40.6788 227.925 40.6416C227.87 40.5859 227.656 40.5766 227.284 40.6137C226.931 40.6323 226.54 40.6416 226.113 40.6416C225.741 40.6416 225.118 40.6602 224.244 40.6974C223.463 40.7532 222.98 40.7532 222.794 40.6974C222.254 40.5115 221.966 40.1303 221.929 39.5539C221.892 38.9775 222.133 38.5591 222.654 38.2988C222.952 38.1315 223.528 38.0385 224.383 38.0199C224.997 38.0013 225.415 37.9734 225.638 37.9362C225.843 37.899 226.289 37.8712 226.977 37.8526C227.647 37.8154 228.028 37.7875 228.121 37.7689ZM235.707 37.9641C235.967 37.8712 236.256 37.8898 236.572 38.0199C236.888 38.1315 237.139 38.3267 237.325 38.6056C237.399 38.7172 237.436 39.0147 237.436 39.4981C237.455 39.963 237.455 41.5806 237.436 44.3511C237.436 48.0885 237.418 50.2826 237.38 50.9333C237.362 51.5469 237.334 52.4023 237.297 53.4993C237.278 54.5405 237.222 55.1448 237.129 55.3122C236.888 55.777 236.516 56.0281 236.014 56.0652C235.53 56.1024 235.131 55.9072 234.815 55.4795C234.573 55.1448 234.48 54.6428 234.536 53.9734C234.536 53.9362 234.536 53.8991 234.536 53.8619C234.554 53.6016 234.498 53.4528 234.368 53.4156C234.257 53.3598 233.829 53.3226 233.085 53.3041C232.937 53.3041 232.816 53.2948 232.723 53.2762C231.496 53.2576 230.622 53.2483 230.101 53.2483C229.19 53.2483 228.548 53.1367 228.176 52.9136C227.823 52.6905 227.647 52.3093 227.647 51.7701C227.647 51.2866 227.823 50.924 228.176 50.6823C228.548 50.4406 229.041 50.3662 229.655 50.4592C230.064 50.515 230.984 50.5429 232.416 50.5429C233.848 50.5243 234.573 50.4778 234.591 50.4034C234.647 50.329 234.694 49.3715 234.731 47.5307C234.768 45.6713 234.777 43.9699 234.759 42.4267C234.777 41.4226 234.768 40.6602 234.731 40.1396C234.712 39.6004 234.749 39.182 234.842 38.8845C234.954 38.5684 235.056 38.3639 235.149 38.2709C235.261 38.178 235.447 38.0757 235.707 37.9641ZM230.603 46.8613C231.477 46.7311 232.174 46.7869 232.695 47.0286C233.215 47.2703 233.476 47.6608 233.476 48.2C233.476 48.386 233.457 48.4882 233.42 48.5068C233.383 48.5254 233.355 48.5905 233.336 48.7021C233.243 49.0368 233.02 49.2599 232.667 49.3715C232.332 49.483 231.579 49.5574 230.408 49.5946C228.4 49.6504 227.349 49.7061 227.256 49.7619C227.219 49.7805 227.2 49.9943 227.2 50.4034C227.2 50.7381 227.182 51.2029 227.145 51.798C227.089 52.5789 227.052 53.1274 227.033 53.4435C226.996 53.9455 226.949 54.2988 226.894 54.5034C226.838 54.7079 226.717 54.9031 226.531 55.0891C226.14 55.4795 225.713 55.6004 225.248 55.4516C224.783 55.3029 224.476 54.9496 224.328 54.3918C224.216 54.0013 224.197 53.4528 224.272 52.7462C224.458 51.2215 224.504 50.329 224.411 50.0687C224.374 49.9758 224.309 49.9293 224.216 49.9293C224.142 49.9107 223.77 49.9293 223.1 49.9851C222.468 50.0222 222.013 50.0129 221.734 49.9572C221.473 49.9014 221.232 49.7712 221.009 49.5667C220.73 49.325 220.59 48.9996 220.59 48.5905C220.59 48.1629 220.73 47.8282 221.009 47.5864C221.176 47.4377 221.353 47.3447 221.538 47.3075C221.743 47.2518 222.18 47.2146 222.849 47.196C224.69 47.103 225.88 47.0286 226.419 46.9728C226.735 46.9357 227.47 46.9171 228.623 46.9171C229.776 46.9171 230.436 46.8985 230.603 46.8613ZM253.413 38.2988C253.767 38.1501 254.12 38.178 254.473 38.3825C254.826 38.5684 255.068 38.8659 255.198 39.275C255.254 39.4981 255.291 40.8276 255.31 43.2634C255.328 45.6806 255.31 47.5864 255.254 48.981C255.235 49.2413 255.208 49.7247 255.17 50.4313C255.152 51.1379 255.143 51.6213 255.143 51.8816C255.105 52.9415 255.068 53.5458 255.031 53.6945C254.994 53.8619 254.975 54.0106 254.975 54.1408C254.975 54.7544 254.696 55.182 254.138 55.4238C253.599 55.6655 253.125 55.5632 252.716 55.117C252.493 54.8752 252.363 54.6521 252.326 54.4476C252.307 54.2244 252.316 53.4807 252.353 52.2163C252.465 48.7765 252.521 45.6062 252.521 42.7056C252.521 40.6974 252.558 39.5074 252.632 39.1355C252.707 38.7637 252.967 38.4848 253.413 38.2988ZM246.05 40.5859C247.24 40.5487 247.975 40.558 248.253 40.6137C248.532 40.6509 248.802 40.7997 249.062 41.06C249.378 41.3761 249.49 41.7387 249.397 42.1477C249.323 42.5568 249.062 42.8822 248.616 43.1239C248.486 43.1983 247.975 43.2448 247.082 43.2634C245.167 43.3377 244.033 43.4214 243.679 43.5144C243.586 43.5516 243.531 43.6167 243.512 43.7096C243.512 43.784 243.503 44.0722 243.484 44.5742C243.447 45.3552 243.41 45.9409 243.373 46.3314C243.298 47.354 243.261 48.0234 243.261 48.3395C243.28 48.637 243.326 48.8043 243.4 48.8415C243.512 48.8787 244.442 48.9066 246.19 48.9252C247.64 48.9252 248.495 48.9438 248.756 48.981C249.034 49.0182 249.285 49.1297 249.509 49.3157C249.825 49.6132 249.927 49.9943 249.815 50.4592C249.704 50.924 249.434 51.2587 249.007 51.4633C248.449 51.7236 246.329 51.7701 242.647 51.6027C242.052 51.5841 241.615 51.5004 241.337 51.3517C241.076 51.2029 240.853 50.9426 240.667 50.5708C240.593 50.4034 240.546 50.0315 240.528 49.4551C240.509 48.8601 240.537 48.3023 240.611 47.7817C240.649 47.5028 240.676 46.5824 240.695 45.0205C240.732 43.6074 240.779 42.7334 240.835 42.3988C240.89 42.0455 241.058 41.7294 241.337 41.4505C241.783 40.9856 242.499 40.7532 243.484 40.7532C243.744 40.7532 243.996 40.7346 244.237 40.6974C244.498 40.6602 245.102 40.623 246.05 40.5859ZM270.501 35.7886C270.668 35.7329 270.9 35.7515 271.198 35.8444C271.495 35.9188 271.718 36.0304 271.867 36.1791C272.053 36.3651 272.155 36.5603 272.174 36.7648C272.211 36.9694 272.23 37.5644 272.23 38.5498C272.23 39.7398 272.258 40.3534 272.313 40.3906C272.369 40.4278 272.862 40.4464 273.792 40.4464C274.628 40.4464 275.149 40.4743 275.354 40.5301C275.577 40.5673 275.79 40.7253 275.995 41.0042C276.237 41.3017 276.348 41.6178 276.33 41.9525C276.33 42.2686 276.209 42.5475 275.967 42.7892C275.818 42.938 275.632 43.031 275.409 43.0681C275.186 43.1053 274.666 43.1425 273.847 43.1797C272.862 43.2169 272.351 43.2634 272.313 43.3192C272.276 43.3749 272.258 43.7375 272.258 44.4069C272.258 45.0577 272.276 45.5597 272.313 45.913C272.406 46.8799 272.22 47.5121 271.756 47.8096C271.328 48.1071 270.882 48.1443 270.417 47.9211C269.971 47.698 269.692 47.3168 269.58 46.7776C269.524 46.4243 269.496 44.6951 269.496 41.5899C269.496 38.4662 269.524 36.8206 269.58 36.6533C269.785 36.2256 270.091 35.9374 270.501 35.7886ZM261.269 36.9043C261.417 36.8671 262.031 36.8485 263.109 36.8485C263.928 36.8485 264.42 36.8578 264.588 36.8764C264.755 36.8764 264.922 36.9229 265.09 37.0158C265.424 37.1646 265.666 37.3784 265.815 37.6573C265.964 37.9362 266.084 38.3732 266.177 38.9682C266.363 40.5115 266.27 41.5806 265.899 42.1756C265.545 42.752 264.774 43.096 263.584 43.2076C263.268 43.2448 262.951 43.282 262.635 43.3192C262.412 43.3563 262.189 43.3749 261.966 43.3749C261.65 43.3749 261.464 43.4028 261.408 43.4586C261.352 43.5144 261.324 43.691 261.324 43.9885C261.324 44.0257 261.315 44.0908 261.297 44.1838C261.297 44.5185 261.352 44.7137 261.464 44.7695C261.594 44.8253 262.031 44.8531 262.775 44.8531C262.942 44.8531 263.072 44.8531 263.165 44.8531C264.318 44.8531 265.025 44.8253 265.285 44.7695C265.768 44.6951 266.168 44.7788 266.484 45.0205C266.819 45.2622 266.986 45.5969 266.986 46.0246C266.986 46.3778 266.884 46.666 266.68 46.8892C266.494 47.0937 266.187 47.2611 265.759 47.3912C265.443 47.4842 264.42 47.5214 262.691 47.5028C260.98 47.4842 260.032 47.4284 259.846 47.3354C259.363 47.0937 259.028 46.6753 258.842 46.0803C258.656 45.4853 258.563 44.5928 258.563 43.4028C258.563 42.6591 258.638 42.1199 258.786 41.7852C258.954 41.4319 259.242 41.1902 259.651 41.06C259.837 41.0042 260.302 40.9205 261.046 40.809C261.417 40.7718 261.687 40.7346 261.854 40.6974C262.096 40.6602 262.394 40.623 262.747 40.5859C263.1 40.5487 263.314 40.5022 263.388 40.4464C263.463 40.3906 263.491 40.2512 263.472 40.028C263.453 39.7677 263.379 39.619 263.249 39.5818C263.137 39.5446 262.682 39.5446 261.882 39.5818C260.971 39.6376 260.358 39.6748 260.041 39.6934C259.335 39.7491 258.824 39.5167 258.508 38.9961C258.21 38.4755 258.303 37.9641 258.786 37.4621C259.047 37.1832 259.549 37.0251 260.293 36.9879C260.757 36.9508 261.083 36.9229 261.269 36.9043ZM267.014 49.0925C267.405 48.981 267.944 48.9624 268.632 49.0368C269.32 49.1111 269.878 49.2506 270.305 49.4551C270.603 49.6039 270.919 49.8363 271.254 50.1524C271.607 50.4499 271.784 50.6544 271.784 50.766C271.784 50.8032 271.793 50.8311 271.811 50.8497C271.867 50.8683 271.951 51.017 272.062 51.2959C272.174 51.5748 272.258 51.8165 272.313 52.0211C272.406 52.3186 272.453 52.709 272.453 53.1925C272.453 53.6573 272.416 54.0013 272.341 54.2244C272.211 54.6521 272.1 54.9496 272.007 55.117C271.951 55.2099 271.923 55.275 271.923 55.3122C271.923 55.3866 271.83 55.5632 271.644 55.8421C271.458 56.121 271.291 56.3348 271.142 56.4836C270.863 56.7997 270.445 57.0879 269.887 57.3482C269.72 57.4226 269.599 57.4784 269.524 57.5156C269.431 57.5713 269.338 57.5992 269.245 57.5992C269.152 57.5992 269.041 57.6271 268.911 57.6829C268.688 57.7759 268.241 57.7945 267.572 57.7387C266.903 57.7015 266.354 57.6085 265.926 57.4598C265.127 57.1995 264.485 56.7532 264.002 56.121C263.537 55.5074 263.277 54.8473 263.221 54.1408C263.165 53.4156 263.314 52.6719 263.667 51.9095C264.021 51.1286 264.56 50.4685 265.285 49.9293C265.75 49.576 266.326 49.2971 267.014 49.0925ZM268.855 51.9932C268.595 51.9188 268.251 51.9095 267.823 51.9653C267.414 52.0211 267.116 52.1047 266.931 52.2163C266.689 52.3651 266.456 52.6254 266.233 52.9973C266.029 53.3505 265.936 53.6666 265.954 53.9455C265.954 54.3546 266.177 54.6707 266.624 54.8938C267.07 55.117 267.563 55.182 268.102 55.0891C268.66 54.9961 269.06 54.7544 269.301 54.3639C269.599 53.8805 269.701 53.3877 269.608 52.8857C269.515 52.3837 269.264 52.0862 268.855 51.9932ZM114.876 73.2709C115.155 73.178 115.443 73.2058 115.74 73.3546C116.057 73.4848 116.289 73.6986 116.438 73.9961C116.531 74.1448 116.596 75.4092 116.633 77.7892C116.689 80.1692 116.689 81.7683 116.633 82.5864C116.596 83.0141 116.577 84.2041 116.577 86.1565C116.577 88.0716 116.54 89.1222 116.466 89.3081C116.261 89.9403 115.88 90.2657 115.322 90.2843C114.764 90.3215 114.327 90.0333 114.011 89.4197C113.881 89.1408 113.816 86.5934 113.816 81.7776C113.835 76.9432 113.918 74.3773 114.067 74.0798C114.253 73.6707 114.523 73.4011 114.876 73.2709ZM102.883 74.6934C103.496 74.6004 103.961 74.7398 104.277 75.1117C104.445 75.3348 104.538 75.5394 104.556 75.7253C104.593 75.9113 104.621 76.4412 104.64 77.3151C104.64 77.4081 104.64 77.5382 104.64 77.7056C104.64 78.3563 104.658 78.7375 104.696 78.8491C104.733 78.9606 104.863 79.0257 105.086 79.0443C105.142 79.0443 105.188 79.0443 105.226 79.0443C105.467 79.0629 105.681 79.0908 105.867 79.128C106.09 79.1838 106.388 79.2117 106.76 79.2117C107.131 79.1931 107.336 79.1652 107.373 79.128C107.429 79.0722 107.466 78.7654 107.485 78.2076C107.522 77.6312 107.531 77.1663 107.513 76.8131C107.457 76.0879 107.615 75.5115 107.987 75.0838C108.359 74.6562 108.777 74.5632 109.242 74.8049C109.335 74.8607 109.409 74.8886 109.465 74.8886C109.502 74.8886 109.577 74.9537 109.688 75.0838C109.818 75.214 109.911 75.3255 109.967 75.4185C110.134 75.716 110.209 76.2273 110.19 76.9525C110.19 77.1199 110.19 77.4267 110.19 77.8729C110.19 78.3192 110.181 78.6353 110.162 78.8212C110.162 79.4906 110.134 80.3273 110.079 81.3314C110.041 82.3168 110.014 82.8282 109.995 82.8654C109.976 82.9025 109.939 83.3674 109.883 84.2599C109.828 85.4127 109.725 86.1937 109.577 86.6027C109.446 86.9932 109.167 87.2814 108.74 87.4673C108.498 87.5975 107.624 87.644 106.118 87.6068C104.631 87.5696 103.682 87.4859 103.273 87.3558C102.604 87.1326 102.176 86.7887 101.99 86.3238C101.823 85.8404 101.776 84.8735 101.851 83.4232C101.888 82.7724 101.916 81.2942 101.934 78.9885C101.953 76.7387 102 75.5487 102.074 75.4185C102.13 75.307 102.213 75.1954 102.325 75.0838C102.437 74.9537 102.511 74.8886 102.548 74.8886C102.585 74.8886 102.632 74.8607 102.688 74.8049C102.725 74.7677 102.79 74.7305 102.883 74.6934ZM107.234 82.2239C107.178 82.1495 106.741 82.1123 105.923 82.1123C105.123 82.1123 104.696 82.1495 104.64 82.2239C104.603 82.2796 104.575 82.5586 104.556 83.0606C104.538 83.5626 104.538 83.9159 104.556 84.1204C104.575 84.4179 104.621 84.5853 104.696 84.6225C104.77 84.6597 105.04 84.7061 105.504 84.7619C106.174 84.8177 106.602 84.827 106.787 84.7898C106.992 84.734 107.131 84.6039 107.206 84.3993C107.243 84.2506 107.271 83.8694 107.29 83.2558C107.308 82.6236 107.29 82.2796 107.234 82.2239ZM127.248 70.6213C127.75 70.3796 128.234 70.4818 128.699 70.9281C129.033 71.2442 129.182 71.5789 129.145 71.9322C129.126 72.2855 128.931 72.7038 128.559 73.1873C128.373 73.429 128.289 73.6056 128.308 73.7172C128.345 73.8101 128.513 73.9775 128.81 74.2192C129.089 74.4237 129.312 74.6097 129.479 74.777C129.554 74.8514 129.796 75.0652 130.205 75.4185C130.948 76.0507 131.385 76.5899 131.515 77.0362C131.664 77.4638 131.543 77.8543 131.153 78.2076C130.781 78.5423 130.381 78.6631 129.954 78.5702C129.526 78.4586 129.005 78.1239 128.392 77.5661C127.629 76.8595 127.146 76.4319 126.941 76.2831C126.755 76.1158 126.635 76.0414 126.579 76.06C126.467 76.0972 126.049 76.6643 125.324 77.7613C124.506 78.9513 123.808 79.4162 123.232 79.1559C122.823 78.9513 122.563 78.784 122.451 78.6538C122.302 78.4493 122.219 78.2076 122.2 77.9287C122.181 77.6312 122.246 77.3709 122.395 77.1477C122.748 76.5527 123.371 75.5952 124.264 74.275C125.082 73.0664 125.603 72.3505 125.826 72.1274C125.919 72.0158 126.058 71.8206 126.244 71.5417C126.542 71.0954 126.876 70.7886 127.248 70.6213ZM130.567 80.7178C131.683 80.6806 132.399 80.6713 132.715 80.6899C133.031 80.7085 133.254 80.7549 133.384 80.8293C133.923 81.1454 134.184 81.5545 134.165 82.0565C134.147 82.5586 133.858 82.9583 133.3 83.2558C133.189 83.3116 132.743 83.3581 131.962 83.3953C130.511 83.4325 128.829 83.4975 126.913 83.5905C125.872 83.6463 124.924 83.6928 124.069 83.73C123.715 83.73 123.251 83.7486 122.674 83.7857C122.116 83.8043 121.8 83.8136 121.726 83.8136C120.759 83.8508 120.145 83.5905 119.885 83.0327C119.625 82.4935 119.699 81.9914 120.108 81.5266C120.313 81.3221 120.527 81.2012 120.75 81.164C120.991 81.1082 121.651 81.071 122.73 81.0525C123.994 81.0153 124.868 80.9781 125.352 80.9409C125.854 80.9037 126.402 80.8851 126.997 80.8851C127.592 80.8851 128.066 80.8665 128.42 80.8293C128.717 80.7921 129.433 80.7549 130.567 80.7178ZM127.081 84.6504C127.527 84.4086 127.918 84.3808 128.252 84.5667C128.364 84.6225 128.485 84.7154 128.615 84.8456C128.764 84.9758 128.838 85.0594 128.838 85.0966C128.838 85.1338 128.866 85.1803 128.922 85.2361C129.07 85.3662 129.08 85.6451 128.95 86.0728C128.819 86.4819 128.596 86.8723 128.28 87.2442C128.057 87.5231 127.945 87.709 127.945 87.802C127.945 87.8764 128.057 87.9973 128.28 88.1646C128.299 88.2018 128.494 88.3226 128.866 88.5272C128.94 88.583 129.024 88.648 129.117 88.7224C129.228 88.7782 129.312 88.8247 129.368 88.8619C129.442 88.8991 129.498 88.9269 129.535 88.9455C129.591 88.9827 130.009 89.2337 130.79 89.6986C131.515 90.1448 131.999 90.4888 132.241 90.7305C132.482 90.9909 132.603 91.2884 132.603 91.6231C132.603 91.8648 132.52 92.1158 132.352 92.3761C132.185 92.6364 132.018 92.7666 131.85 92.7666C131.794 92.7666 131.729 92.7945 131.655 92.8502C131.432 93.0176 131.088 92.9897 130.623 92.7666C130.028 92.4691 129.693 92.2645 129.619 92.153C129.582 92.1344 129.526 92.1065 129.452 92.0693C129.433 92.0507 129.349 92.0042 129.201 91.9299C129.145 91.8927 129.033 91.8276 128.866 91.7346C128.773 91.6788 128.661 91.6045 128.531 91.5115C128.494 91.4929 128.438 91.465 128.364 91.4278C127.992 91.2419 127.536 90.963 126.997 90.5911C126.57 90.2936 126.291 90.117 126.16 90.0612C126.049 89.9868 125.956 89.9775 125.882 90.0333C125.807 90.0705 125.547 90.3308 125.101 90.8142C124.654 91.3163 124.273 91.7532 123.957 92.1251C123.511 92.6829 123.111 93.0176 122.758 93.1292C122.349 93.2593 122.116 93.2779 122.061 93.1849C122.042 93.1477 121.977 93.1199 121.865 93.1013C121.586 93.0455 121.363 92.8317 121.196 92.4598C121.029 92.0879 121.01 91.7811 121.14 91.5394C121.196 91.4278 121.224 91.3627 121.224 91.3441C121.224 91.307 121.28 91.1954 121.391 91.0095C121.521 90.8235 121.605 90.712 121.642 90.6748C121.679 90.6562 121.8 90.5167 122.005 90.2564C122.284 89.9031 122.711 89.4011 123.288 88.7503C123.474 88.5644 123.576 88.4528 123.594 88.4156C123.594 88.4156 123.604 88.397 123.622 88.3598C123.66 88.3226 123.706 88.2762 123.762 88.2204C123.818 88.1646 123.855 88.1181 123.873 88.0809C124.357 87.5045 124.729 87.0862 124.989 86.8258C125.008 86.8072 125.045 86.7608 125.101 86.6864C125.175 86.5934 125.268 86.4819 125.38 86.3517C125.491 86.2215 125.593 86.11 125.686 86.017C126.133 85.4964 126.43 85.1617 126.579 85.0129C126.746 84.8642 126.913 84.7433 127.081 84.6504ZM139.718 70.9002C139.959 70.8258 140.201 70.8258 140.443 70.9002C140.833 71.0118 141.094 71.2163 141.224 71.5138C141.354 71.8113 141.438 72.3877 141.475 73.243C141.475 73.336 141.475 73.4662 141.475 73.6335C141.493 74.0984 141.54 74.368 141.614 74.4423C141.707 74.4981 142.014 74.4981 142.535 74.4423C142.702 74.4423 142.842 74.433 142.953 74.4144C143.734 74.3587 144.292 74.619 144.627 75.1954C144.775 75.4185 144.812 75.6974 144.738 76.0321C144.664 76.3668 144.515 76.6271 144.292 76.8131C144.069 76.9804 143.892 77.092 143.762 77.1477C143.632 77.1849 143.362 77.2128 142.953 77.2314C142.209 77.2872 141.8 77.3151 141.726 77.3151C141.001 77.3709 139.337 77.4267 136.733 77.4824C136.027 77.501 135.516 77.4174 135.199 77.2314C134.883 77.0269 134.725 76.6922 134.725 76.2273C134.725 75.7067 134.911 75.3348 135.283 75.1117C135.674 74.8886 136.343 74.7584 137.291 74.7212C138.295 74.6841 138.797 74.5818 138.797 74.4144C138.797 74.3587 138.779 73.9775 138.742 73.2709C138.704 72.5644 138.723 72.0995 138.797 71.8764C138.853 71.6719 138.965 71.4766 139.132 71.2907C139.318 71.1047 139.513 70.9746 139.718 70.9002ZM139.244 77.5382C139.244 77.4824 139.327 77.4545 139.495 77.4545C139.662 77.4359 139.82 77.4545 139.969 77.5103C140.062 77.5475 140.257 77.5847 140.554 77.6219C141.242 77.6963 141.856 77.9566 142.395 78.4028C142.934 78.8491 143.269 79.3697 143.399 79.9647C143.399 79.9833 143.427 80.1228 143.483 80.3831C143.65 80.9781 143.585 81.6475 143.288 82.3912C142.99 83.135 142.581 83.6835 142.061 84.0368C141.038 84.7433 139.941 84.9014 138.769 84.5109C137.598 84.1204 136.799 83.3395 136.371 82.1681C136.315 81.9635 136.287 81.6382 136.287 81.1919C136.287 80.7271 136.315 80.3924 136.371 80.1878C136.613 79.5556 136.882 79.035 137.18 78.626C137.477 78.1983 137.738 77.9845 137.961 77.9845C138.016 77.9845 138.295 77.8822 138.797 77.6777C138.909 77.6405 139.011 77.6219 139.104 77.6219C139.197 77.6219 139.244 77.594 139.244 77.5382ZM140.554 80.4946C140.406 80.3831 140.173 80.3366 139.857 80.3552C139.541 80.3738 139.327 80.4482 139.216 80.5783C139.123 80.6713 139.067 80.8479 139.048 81.1082C139.048 81.35 139.086 81.5266 139.16 81.6382C139.272 81.7683 139.457 81.8613 139.718 81.9171C139.978 81.9543 140.192 81.9171 140.359 81.8055C140.582 81.6568 140.713 81.4336 140.75 81.1361C140.805 80.8386 140.74 80.6248 140.554 80.4946ZM141.28 85.4313C141.428 85.3755 141.521 85.3569 141.559 85.3755C141.596 85.3755 141.717 85.4034 141.921 85.4592C142.349 85.5894 142.609 85.8032 142.702 86.1007C142.795 86.3796 142.832 87.049 142.814 88.1088C142.814 88.9269 142.814 89.4104 142.814 89.5591C142.814 89.7079 142.851 89.8009 142.925 89.838C143 89.8938 143.836 89.931 145.435 89.9496C146.663 89.9682 147.443 89.9961 147.778 90.0333C148.113 90.0519 148.336 90.117 148.448 90.2285C148.503 90.2843 148.55 90.3122 148.587 90.3122C148.661 90.3122 148.773 90.4423 148.922 90.7027C149.089 90.9816 149.173 91.1861 149.173 91.3163C149.173 91.5394 149.089 91.7718 148.922 92.0135C148.754 92.2738 148.541 92.4691 148.28 92.5992L147.946 92.7666H145.184C143.362 92.7666 142.312 92.748 142.033 92.7108C140.675 92.5249 139.987 91.8369 139.969 90.6469C139.969 88.1181 140.052 86.6678 140.22 86.2959C140.313 86.1286 140.443 85.9612 140.61 85.7939C140.778 85.6079 140.908 85.515 141.001 85.515C141.038 85.515 141.131 85.4871 141.28 85.4313ZM147.443 71.7927C148.02 71.7369 148.448 71.8578 148.726 72.1553C149.005 72.4528 149.145 72.8712 149.145 73.4104V74.9165C149.145 76.0879 149.163 76.7666 149.201 76.9525C149.219 77.0083 149.284 77.0455 149.396 77.0641C149.452 77.0827 149.768 77.092 150.344 77.092C150.716 77.1106 151.004 77.1291 151.209 77.1477C151.413 77.1663 151.525 77.1756 151.543 77.1756C151.86 77.1756 152.129 77.2965 152.352 77.5382C152.575 77.7799 152.687 78.0774 152.687 78.4307C152.687 78.8584 152.52 79.2488 152.185 79.6021C151.98 79.7881 151.794 79.8903 151.627 79.9089C151.497 79.9275 151.051 79.9368 150.288 79.9368C149.842 79.9368 149.554 80.0391 149.424 80.2436C149.294 80.4482 149.229 80.8386 149.229 81.415L149.256 82.7817C149.256 83.5998 149.238 84.139 149.201 84.3993C149.182 84.5853 149.08 84.7805 148.894 84.9851C148.671 85.1896 148.373 85.2918 148.001 85.2918C147.704 85.2918 147.434 85.2268 147.192 85.0966C146.969 84.9479 146.821 84.7526 146.746 84.5109C146.709 84.3993 146.681 84.3343 146.663 84.3157C146.607 84.2227 146.57 83.7765 146.551 82.9769L146.467 79.5463C146.412 78.877 146.384 77.6219 146.384 75.7811V73.0757C146.384 72.7038 146.486 72.4063 146.69 72.1832C146.895 71.9601 147.146 71.8299 147.443 71.7927ZM168.654 70.175C168.84 70.0821 169.1 70.0914 169.435 70.2029C169.863 70.3517 170.142 70.5841 170.272 70.9002C170.402 71.1977 170.486 71.7927 170.523 72.6852C170.541 73.2616 170.569 73.5963 170.607 73.6893C170.662 73.7637 170.811 73.7823 171.053 73.7451C171.983 73.6335 172.633 73.7823 173.005 74.1913C173.358 74.5818 173.489 74.9723 173.396 75.3627C173.303 75.7346 172.949 76.2366 172.336 76.8688C171.964 77.2593 171.778 77.4917 171.778 77.5661C171.778 77.6219 171.936 77.752 172.252 77.9566C172.959 78.4214 173.6 78.8956 174.177 79.379C174.455 79.6207 174.623 79.9182 174.679 80.2715C174.734 80.6248 174.669 80.9502 174.483 81.2477C174.316 81.4708 174.065 81.6382 173.73 81.7497C173.396 81.8427 173.126 81.8334 172.922 81.7218C172.81 81.666 172.736 81.6382 172.698 81.6382C172.661 81.6382 172.401 81.4801 171.917 81.164C171.434 80.8479 171.071 80.5969 170.83 80.411C170.662 80.2994 170.551 80.2157 170.495 80.1599C170.421 80.1228 170.356 80.0856 170.3 80.0484C170.002 79.7695 169.77 79.6393 169.603 79.6579C169.435 79.6765 169.175 79.8624 168.822 80.2157C167.91 81.0896 167.288 81.666 166.953 81.945C166.618 82.2239 166.349 82.3912 166.144 82.447C165.605 82.6143 165.159 82.4935 164.805 82.0844C164.452 81.6753 164.387 81.2105 164.61 80.6899C164.703 80.4667 165.131 79.974 165.893 79.2117C166.655 78.4307 167.315 77.8171 167.873 77.3709C168.227 77.092 168.385 76.8967 168.347 76.7852C168.329 76.6736 168.124 76.655 167.734 76.7294C167.511 76.7852 166.618 76.8595 165.056 76.9525C164.35 76.9897 163.857 76.7573 163.578 76.2552C163.318 75.7532 163.392 75.2419 163.801 74.7212C164.062 74.4052 165.084 74.1913 166.869 74.0798C167.39 74.024 167.659 73.9868 167.678 73.9682C167.715 73.931 167.734 73.4383 167.734 72.49C167.734 71.6533 167.78 71.114 167.873 70.8723C167.985 70.6306 168.245 70.3982 168.654 70.175ZM173.786 83.6463C174.92 83.6091 175.673 83.637 176.045 83.73C176.436 83.8229 176.724 84.0554 176.91 84.4272C177.04 84.6875 177.04 85.0315 176.91 85.4592C176.798 85.8869 176.64 86.1007 176.436 86.1007C176.399 86.1007 176.38 86.1193 176.38 86.1565C176.38 86.3052 175.72 86.3982 174.4 86.4354C173.582 86.454 172.977 86.4726 172.587 86.4912C172.196 86.5097 171.871 86.5469 171.611 86.6027C171.35 86.6585 171.192 86.7236 171.136 86.798C171.099 86.8537 171.09 86.9467 171.109 87.0769C171.202 87.7276 171.248 88.8061 171.248 90.3122C171.248 91.8183 171.202 92.655 171.109 92.8224C170.941 93.1199 170.69 93.3151 170.356 93.4081C170.039 93.501 169.714 93.4731 169.379 93.3244C168.989 93.157 168.738 92.8224 168.626 92.3203C168.533 91.8369 168.468 90.7027 168.431 88.9176C168.412 87.4859 168.375 86.7422 168.32 86.6864C168.264 86.6306 167.65 86.6027 166.479 86.6027C165.326 86.5841 164.489 86.6027 163.969 86.6585C163.522 86.6957 163.206 86.6957 163.02 86.6585C162.834 86.6213 162.648 86.5004 162.462 86.2959C162.109 85.9612 161.97 85.5615 162.044 85.0966C162.137 84.6318 162.407 84.2971 162.853 84.0925C163.095 83.981 165.252 83.8973 169.324 83.8415C171.425 83.8043 172.522 83.7672 172.615 83.73C172.689 83.7114 173.08 83.6835 173.786 83.6463ZM191.291 70.7608C191.57 70.6306 191.868 70.6213 192.184 70.7329C192.5 70.8258 192.751 71.0118 192.937 71.2907C193.067 71.4952 193.142 71.8299 193.16 72.2947C193.197 72.7596 193.207 73.9124 193.188 75.7532C193.169 78.7654 193.123 80.5504 193.049 81.1082C192.993 81.666 192.779 82.0937 192.407 82.3912C192.203 82.54 191.933 82.5957 191.598 82.5586C191.264 82.5214 190.985 82.4005 190.762 82.196C190.557 81.9914 190.436 81.7776 190.399 81.5545C190.362 81.3314 190.362 80.8944 190.399 80.2436C190.473 78.9978 190.464 78.3285 190.371 78.2355C190.26 78.1239 189.702 78.096 188.698 78.1518C187.749 78.189 187.061 77.9659 186.634 77.4824C186.225 76.999 186.253 76.4598 186.717 75.8648C186.866 75.6416 187.043 75.5115 187.247 75.4743C187.452 75.4185 187.982 75.3906 188.837 75.3906C189.841 75.372 190.362 75.3441 190.399 75.307C190.436 75.2512 190.455 74.6283 190.455 73.4383C190.436 72.3784 190.473 71.709 190.566 71.4301C190.659 71.1512 190.901 70.9281 191.291 70.7608ZM181.167 72.741C181.26 72.6852 181.53 72.6573 181.976 72.6573C182.441 72.6573 182.71 72.6852 182.785 72.741C182.822 72.7782 182.906 72.8154 183.036 72.8526C183.501 72.9455 184.058 73.2988 184.709 73.9124C185.379 74.526 185.713 75.0002 185.713 75.3348C185.713 75.3906 185.741 75.465 185.797 75.558C185.964 75.9113 186.048 76.4598 186.048 77.2035C186.048 77.9287 185.964 78.4958 185.797 78.9049C185.741 79.0164 185.713 79.0908 185.713 79.128C185.713 79.1652 185.648 79.2953 185.518 79.5185C185.407 79.723 185.332 79.8531 185.295 79.9089C185.239 79.9647 185.211 80.0112 185.211 80.0484C185.211 80.1414 185.016 80.3738 184.626 80.7457C184.235 81.1175 183.984 81.3035 183.873 81.3035C183.817 81.3035 183.789 81.3221 183.789 81.3592C183.789 81.3964 183.77 81.415 183.733 81.415C183.696 81.415 183.603 81.4522 183.454 81.5266C182.394 82.01 181.269 81.9821 180.079 81.4429C178.908 80.8851 178.127 80.0484 177.737 78.9328C177.644 78.5981 177.588 78.1146 177.569 77.4824C177.551 76.8316 177.597 76.4505 177.709 76.3389C177.727 76.3017 177.755 76.2181 177.792 76.0879C177.811 75.9577 177.848 75.8462 177.904 75.7532C177.923 75.6974 177.978 75.5766 178.071 75.3906C178.257 75.0002 178.518 74.619 178.852 74.2471C179.187 73.8752 179.54 73.5684 179.912 73.3267C180.042 73.2523 180.237 73.1501 180.498 73.0199C180.758 72.8898 180.907 72.8247 180.944 72.8247C180.981 72.8247 181.056 72.7968 181.167 72.741ZM182.701 75.7811C182.218 75.5394 181.762 75.5394 181.334 75.7811C180.907 76.0228 180.581 76.4412 180.358 77.0362C180.247 77.3709 180.256 77.7242 180.386 78.096C180.516 78.4679 180.73 78.7282 181.028 78.877C181.307 79.0071 181.641 79.0536 182.032 79.0164C182.422 78.9792 182.683 78.877 182.813 78.7096C183.222 78.2076 183.408 77.6498 183.371 77.0362C183.352 76.404 183.129 75.9856 182.701 75.7811ZM182.757 84.2599C183.203 84.1483 184.923 84.1483 187.917 84.2599C188.791 84.2971 189.544 84.3157 190.176 84.3157C190.752 84.3157 191.152 84.3622 191.375 84.4551C191.598 84.5295 191.803 84.7061 191.989 84.9851C192.156 85.2454 192.258 85.4964 192.296 85.7381C192.351 85.9798 192.389 86.5469 192.407 87.4394C192.519 90.0612 192.416 91.7067 192.1 92.3761C191.877 92.841 191.505 93.092 190.985 93.1292C190.464 93.1663 190.055 92.9711 189.758 92.5434C189.683 92.4133 189.637 92.2274 189.618 91.9856C189.618 91.7625 189.618 91.0188 189.618 89.7544C189.637 88.4714 189.637 87.7276 189.618 87.5231C189.618 87.3 189.581 87.1791 189.506 87.1605C189.414 87.1233 188.93 87.0955 188.056 87.0769C187.182 87.0397 186.466 87.0304 185.909 87.049C184.57 87.0676 183.659 87.049 183.175 86.9932C182.692 86.9188 182.311 86.7422 182.032 86.4633C181.827 86.2587 181.697 85.9891 181.641 85.6544C181.604 85.3197 181.669 85.0873 181.837 84.9572C181.874 84.92 181.892 84.8735 181.892 84.8177C181.892 84.7433 181.985 84.6411 182.171 84.5109C182.376 84.3808 182.571 84.2971 182.757 84.2599ZM214.962 72.6573C215.148 72.6201 215.381 72.6294 215.66 72.6852C216.106 72.7596 216.431 73.0571 216.636 73.5777C216.71 73.7451 216.747 75.0002 216.747 77.343C216.747 79.6672 216.72 81.0896 216.664 81.6103C216.589 82.3354 216.385 82.8468 216.05 83.1443C215.716 83.4418 215.148 83.6184 214.349 83.6742C214.312 83.6928 214.265 83.7021 214.209 83.7021C213.931 83.7207 213.763 83.8043 213.707 83.9531C213.67 84.1018 213.652 84.6132 213.652 85.4871C213.652 85.6544 213.652 85.7939 213.652 85.9054C213.652 87.1884 213.68 87.8578 213.735 87.9136C213.791 87.9508 214.479 87.9601 215.799 87.9415C215.911 87.9229 216.06 87.9136 216.245 87.9136C217.733 87.8764 218.616 87.8764 218.895 87.9136C219.193 87.9508 219.453 88.0902 219.676 88.3319C219.695 88.3691 219.713 88.397 219.732 88.4156C220.085 88.7875 220.141 89.2152 219.899 89.6986C219.676 90.182 219.276 90.4702 218.7 90.5632C218.44 90.619 217.454 90.6562 215.743 90.6748C214.219 90.712 212.861 90.7491 211.671 90.7863C209.143 90.8793 207.534 90.9258 206.846 90.9258C206.177 90.9258 205.731 90.8793 205.508 90.7863C204.987 90.5632 204.699 90.182 204.643 89.6428C204.606 89.085 204.82 88.6666 205.284 88.3877C205.693 88.146 206.419 88.0716 207.46 88.1646C207.943 88.2204 208.343 88.2297 208.659 88.1925C208.957 88.1553 209.384 88.1181 209.942 88.0809C210.017 88.0809 210.109 88.0809 210.221 88.0809C210.574 88.0809 210.779 88.0158 210.835 87.8857C210.89 87.7369 210.9 87.2628 210.863 86.4633C210.863 86.2401 210.853 86.0542 210.835 85.9054C210.835 85.8869 210.835 85.8404 210.835 85.766C210.797 84.7991 210.76 84.232 210.723 84.0647C210.704 83.8973 210.602 83.8136 210.416 83.8136C210.398 83.8136 210.388 83.8136 210.388 83.8136C209.756 83.8136 209.217 83.6742 208.771 83.3953C208.343 83.1164 208.055 82.7166 207.906 82.196C207.795 81.7683 207.711 80.318 207.655 77.845C207.599 75.372 207.627 74.0147 207.739 73.773C207.943 73.3081 208.278 73.0292 208.743 72.9362C209.226 72.8247 209.635 72.9362 209.97 73.2709C210.175 73.4569 210.295 73.6521 210.333 73.8566C210.388 74.0612 210.426 74.5074 210.444 75.1954C210.463 75.9577 210.509 76.3854 210.584 76.4784C210.677 76.5713 211.03 76.5899 211.643 76.5341C211.978 76.497 212.406 76.4598 212.926 76.4226C213.466 76.404 213.763 76.3482 213.819 76.2552C213.893 76.1437 213.931 75.6974 213.931 74.9165C213.931 74.0798 213.94 73.6149 213.958 73.5219C214.033 73.2988 214.163 73.1129 214.349 72.9641C214.535 72.7968 214.739 72.6945 214.962 72.6573ZM213.819 79.4069C213.763 79.3511 213.642 79.3139 213.456 79.2953C213.27 79.2767 213.159 79.286 213.122 79.3232C213.103 79.3418 212.722 79.379 211.978 79.4348C211.197 79.5092 210.751 79.6021 210.639 79.7137C210.528 79.8067 210.509 80.1414 210.584 80.7178L210.612 80.8851L212.201 80.8572C212.276 80.8572 212.378 80.8572 212.508 80.8572C213.27 80.8572 213.707 80.8293 213.819 80.7735C213.949 80.7178 214.005 80.5132 213.986 80.1599C213.986 80.1042 213.977 80.067 213.958 80.0484C213.94 79.6765 213.893 79.4627 213.819 79.4069ZM235.246 73.2988C235.358 73.243 235.507 73.2151 235.693 73.2151C235.879 73.1966 235.99 73.2058 236.027 73.243C236.065 73.2802 236.148 73.3174 236.278 73.3546C236.39 73.3918 236.511 73.4755 236.641 73.6056C236.79 73.7358 236.883 73.8566 236.92 73.9682C236.939 74.0612 236.966 74.1262 237.004 74.1634C237.115 74.3122 237.124 74.7863 237.031 75.5859C236.976 76.0507 236.92 79.9833 236.864 87.3837C236.846 88.3133 236.808 88.9548 236.753 89.3081C236.697 89.6428 236.585 89.8938 236.418 90.0612C236.065 90.4145 235.656 90.526 235.191 90.3959C234.726 90.2843 234.4 89.9868 234.215 89.5034C234.159 89.3918 234.131 88.7131 234.131 87.4673C234.149 86.2215 234.187 84.9479 234.242 83.6463C234.242 83.5905 234.242 83.5068 234.242 83.3953C234.28 83.042 234.224 82.8375 234.075 82.7817C233.926 82.7073 233.406 82.6329 232.513 82.5586C232.234 82.54 232.011 82.5214 231.844 82.5028C230.747 82.4284 230.096 82.3354 229.891 82.2239C229.352 81.9078 229.092 81.4615 229.111 80.8851C229.148 80.3087 229.455 79.9368 230.031 79.7695C230.235 79.6951 230.747 79.6858 231.565 79.7416C232.848 79.7974 233.592 79.8253 233.796 79.8253C234.001 79.8253 234.122 79.7974 234.159 79.7416C234.215 79.6486 234.252 78.7654 234.27 77.092C234.289 76.1995 234.307 75.5673 234.326 75.1954C234.345 74.8049 234.391 74.4609 234.466 74.1634C234.54 73.8473 234.624 73.6521 234.717 73.5777C234.828 73.4848 235.005 73.3918 235.246 73.2988ZM225.457 74.777C225.866 74.7027 226.219 74.6841 226.517 74.7212C226.833 74.7584 227.102 74.7863 227.326 74.8049C227.549 74.8235 227.735 74.9165 227.883 75.0838C228.051 75.2326 228.181 75.3906 228.274 75.558C228.385 75.7253 228.469 75.9763 228.525 76.311C228.581 76.6457 228.618 76.999 228.636 77.3709C228.655 77.7427 228.664 78.2169 228.664 78.7933C228.664 79.9461 228.571 80.7642 228.385 81.2477C228.218 81.7125 227.883 82.0193 227.381 82.1681C227.307 82.1867 227.242 82.2146 227.186 82.2518C227.149 82.2889 226.898 82.3261 226.433 82.3633C225.968 82.3819 225.708 82.4098 225.652 82.447C225.596 82.4656 225.215 82.4935 224.509 82.5307C223.821 82.5493 223.449 82.5864 223.393 82.6422C223.356 82.6794 223.337 83.1629 223.337 84.0925C223.356 85.0036 223.384 85.4964 223.421 85.5708C223.458 85.6265 224.211 85.6544 225.68 85.6544C227.149 85.6544 227.911 85.6916 227.967 85.766C228.041 85.8218 228.097 85.8497 228.134 85.8497C228.172 85.8497 228.274 85.9147 228.441 86.0449C228.832 86.3982 228.952 86.8258 228.804 87.3279C228.674 87.8299 228.348 88.1646 227.828 88.3319C227.381 88.4807 226.452 88.5179 225.038 88.4435C224.165 88.4063 223.393 88.3691 222.724 88.3319C222.129 88.3133 221.701 88.2483 221.441 88.1367C221.199 88.0251 220.985 87.802 220.799 87.4673C220.725 87.3186 220.66 86.2494 220.604 84.2599C220.567 82.2703 220.595 81.2291 220.688 81.1361C220.725 81.0989 220.743 81.0525 220.743 80.9967C220.743 80.9223 220.808 80.8014 220.939 80.6341C221.087 80.4482 221.217 80.318 221.329 80.2436C221.534 80.0949 221.766 79.9926 222.026 79.9368C222.305 79.8624 222.779 79.7974 223.449 79.7416C223.932 79.7044 224.248 79.6672 224.397 79.63C224.583 79.5928 224.834 79.5556 225.15 79.5185C225.596 79.4813 225.857 79.4069 225.931 79.2953C226.005 79.1838 226.024 78.8863 225.987 78.4028C225.931 77.9752 225.875 77.7242 225.819 77.6498C225.782 77.5754 225.652 77.5475 225.429 77.5661C225.15 77.6033 224.732 77.6405 224.174 77.6777C223.616 77.7334 223.123 77.7892 222.696 77.845C222.268 77.9194 221.952 77.938 221.747 77.9008C221.561 77.8636 221.375 77.752 221.19 77.5661C220.818 77.1756 220.688 76.7201 220.799 76.1995C220.911 75.6788 221.217 75.3534 221.719 75.2233C221.812 75.2047 221.878 75.1768 221.915 75.1396C221.97 75.121 222.138 75.0931 222.417 75.0559C222.733 75.0187 222.928 74.9909 223.002 74.9723C223.151 74.9537 223.504 74.9258 224.062 74.8886C224.49 74.8514 224.955 74.8142 225.457 74.777ZM251.986 70.454C252.209 70.4168 252.441 70.4447 252.683 70.5376C252.943 70.612 253.148 70.7236 253.297 70.8723C253.464 71.0954 253.566 71.3465 253.603 71.6254C253.659 71.9043 253.687 72.4249 253.687 73.1873C253.687 73.9868 253.706 74.4423 253.743 74.5539C253.799 74.6469 254.012 74.6748 254.384 74.6376C255.909 74.5632 256.764 74.5632 256.95 74.6376C257.062 74.6934 257.183 74.777 257.313 74.8886C257.443 75.0002 257.508 75.0838 257.508 75.1396C257.508 75.1768 257.536 75.2047 257.592 75.2233C257.648 75.2419 257.685 75.307 257.703 75.4185C257.741 75.5301 257.768 75.5952 257.787 75.6137C257.824 75.6509 257.843 75.7439 257.843 75.8927C257.843 76.0414 257.815 76.153 257.759 76.2273C257.703 76.3389 257.675 76.4226 257.675 76.4784C257.675 76.5341 257.61 76.6271 257.48 76.7573C257.35 76.8874 257.229 76.9897 257.118 77.0641C256.895 77.1756 256.169 77.2686 254.942 77.343C254.254 77.3988 253.873 77.4545 253.799 77.5103C253.668 77.6219 253.622 78.1797 253.659 79.1838C253.715 80.318 253.641 81.0339 253.436 81.3314C253.139 81.7218 252.748 81.8985 252.265 81.8613C251.781 81.8241 251.391 81.5824 251.093 81.1361C251 80.9874 250.944 79.3604 250.926 76.2552C250.926 73.1501 250.972 71.5045 251.065 71.3186C251.307 70.8351 251.614 70.5469 251.986 70.454ZM244.232 72.0716C245.515 71.9415 246.324 71.9508 246.659 72.0995C247.198 72.3412 247.533 72.7131 247.663 73.2151C247.811 73.7172 247.774 74.4144 247.551 75.307C247.533 75.3441 247.486 75.5301 247.412 75.8648C247.3 76.404 247.151 76.999 246.965 77.6498C246.761 78.4307 246.631 78.9792 246.575 79.2953C246.538 79.4813 246.501 79.6114 246.463 79.6858C246.426 79.7416 246.408 79.8346 246.408 79.9647C246.408 80.0949 246.343 80.2901 246.212 80.5504C246.101 80.8107 245.98 80.9967 245.85 81.1082C245.515 81.4243 245.134 81.5359 244.706 81.4429C244.279 81.35 243.962 81.0896 243.758 80.662C243.628 80.3831 243.628 79.974 243.758 79.4348C243.832 79.1187 243.925 78.7468 244.037 78.3192C244.037 78.282 244.055 78.1983 244.093 78.0681C244.13 77.9194 244.158 77.8171 244.176 77.7613C244.214 77.5568 244.251 77.3802 244.288 77.2314C244.306 77.0641 244.334 76.9153 244.372 76.7852C244.558 76.1902 244.688 75.6045 244.762 75.028L244.79 74.777H243.87C243.237 74.777 242.689 74.7956 242.224 74.8328C241.685 74.8886 241.276 74.8793 240.997 74.8049C240.736 74.7119 240.513 74.526 240.327 74.2471C240.234 74.0984 240.179 73.8845 240.16 73.6056C240.141 73.3267 240.179 73.1408 240.272 73.0478C240.327 72.992 240.355 72.9455 240.355 72.9083C240.355 72.8526 240.439 72.7503 240.606 72.6015C240.811 72.4342 241.034 72.3226 241.276 72.2669C241.536 72.1925 241.973 72.1553 242.587 72.1553C243.275 72.1553 243.823 72.1274 244.232 72.0716ZM250.145 82.6422C251.763 82.5678 252.692 82.605 252.934 82.7538C253.064 82.8282 253.194 82.949 253.325 83.1164C253.473 83.2837 253.557 83.4139 253.576 83.5068C253.594 83.5812 253.622 83.6649 253.659 83.7579C253.696 83.8508 253.715 84.4086 253.715 85.4313C253.715 86.0449 253.706 86.5283 253.687 86.8816C253.668 87.2163 253.603 87.5417 253.492 87.8578C253.399 88.1553 253.287 88.3784 253.157 88.5272C253.046 88.6573 252.841 88.7782 252.544 88.8898C252.246 88.9827 251.93 89.0478 251.595 89.085C251.279 89.1222 250.824 89.1501 250.229 89.1687C249.225 89.2059 248.546 89.243 248.193 89.2802C247.858 89.3174 247.458 89.336 246.993 89.336C246.621 89.336 246.398 89.3639 246.324 89.4197C246.268 89.4569 246.24 89.6428 246.24 89.9775C246.24 90.0147 246.24 90.0612 246.24 90.117C246.222 90.3773 246.315 90.526 246.519 90.5632C246.742 90.6004 247.495 90.619 248.778 90.619C249.132 90.619 249.41 90.619 249.615 90.619C249.708 90.619 249.847 90.619 250.033 90.619C251.465 90.6376 252.311 90.6562 252.571 90.6748C252.832 90.6934 253.036 90.7863 253.185 90.9537C253.204 90.9723 253.213 90.9909 253.213 91.0095C253.548 91.3627 253.668 91.7439 253.576 92.153C253.501 92.5806 253.241 92.906 252.795 93.1292C252.46 93.3151 251.112 93.3802 248.75 93.3244C246.389 93.2872 245.004 93.1756 244.595 92.9897C244.223 92.8038 243.953 92.5527 243.786 92.2367C243.619 91.9391 243.507 91.5022 243.451 90.9258C243.34 89.2523 243.433 88.1739 243.73 87.6905C243.972 87.3 244.241 87.0397 244.539 86.9095C244.836 86.7794 245.338 86.705 246.045 86.6864C246.659 86.6678 247.04 86.6399 247.189 86.6027C247.337 86.5655 247.793 86.5469 248.555 86.5469C249.968 86.5469 250.786 86.4912 251.01 86.3796C251.065 86.3424 251.093 86.1658 251.093 85.8497C251.075 85.5522 251.028 85.3755 250.954 85.3197C250.879 85.2454 250.684 85.2361 250.368 85.2918C250.126 85.329 249.159 85.3662 247.467 85.4034C245.794 85.4406 244.864 85.4406 244.678 85.4034C244.083 85.3104 243.693 85.0222 243.507 84.5388C243.321 84.0554 243.423 83.5905 243.814 83.1443C244 82.9583 244.204 82.8468 244.427 82.8096C244.65 82.7724 245.422 82.7445 246.742 82.7259C248.49 82.6887 249.624 82.6608 250.145 82.6422ZM274.864 73.7451C275.404 73.4662 275.906 73.5312 276.371 73.9403C276.594 74.1262 276.724 74.3959 276.761 74.7491C276.798 75.1024 276.78 76.0879 276.705 77.7056C276.687 78.5237 276.659 80.569 276.622 83.8415C276.584 86.5562 276.547 88.1646 276.51 88.6666C276.473 89.1687 276.38 89.5219 276.231 89.7265C275.878 90.1355 275.441 90.3029 274.92 90.2285C274.4 90.1355 274.065 89.8473 273.916 89.3639C273.86 89.1966 273.832 88.6016 273.832 87.5789C273.851 86.5376 273.888 85.4871 273.944 84.4272C273.981 83.5533 273.991 83.0978 273.972 83.0606C273.86 82.9676 273.423 82.9025 272.661 82.8654C271.899 82.8282 271.49 82.8561 271.434 82.949C271.397 83.0234 271.369 83.637 271.35 84.7898C271.332 85.924 271.341 86.6864 271.378 87.0769C271.415 87.4859 271.415 87.802 271.378 88.0251C271.341 88.2297 271.248 88.4435 271.099 88.6666C270.95 88.8898 270.857 89.0013 270.82 89.0013C270.783 89.0013 270.737 89.0199 270.681 89.0571C270.495 89.2244 270.253 89.2895 269.956 89.2523C269.658 89.1966 269.398 89.0478 269.175 88.8061C268.877 88.5272 268.701 88.0437 268.645 87.3558C268.608 86.6678 268.608 84.6411 268.645 81.2756C268.682 78.8398 268.719 77.2965 268.756 76.6457C268.794 75.9763 268.868 75.5301 268.98 75.307C269.24 74.7863 269.649 74.5167 270.207 74.4981C270.765 74.4795 271.155 74.7305 271.378 75.2512C271.452 75.3813 271.49 75.5487 271.49 75.7532C271.508 75.9577 271.508 76.6178 271.49 77.7334C271.49 77.8636 271.49 78.0588 271.49 78.3192C271.471 79.1745 271.48 79.6765 271.518 79.8253C271.555 79.974 271.694 80.0484 271.936 80.0484C271.992 80.067 272.038 80.0763 272.075 80.0763C272.354 80.0949 272.68 80.1228 273.052 80.1599C273.461 80.2157 273.702 80.225 273.777 80.1878C273.87 80.1321 273.935 79.9554 273.972 79.6579C273.991 79.3046 274 78.5609 274 77.4267C274 76.0321 274.046 75.121 274.139 74.6934C274.251 74.2471 274.493 73.931 274.864 73.7451ZM262.146 75.3906C263.615 75.3534 264.545 75.3534 264.935 75.3906C265.326 75.4092 265.623 75.5115 265.828 75.6974C266.088 75.9391 266.256 76.2366 266.33 76.5899C266.423 76.9246 266.469 77.501 266.469 78.3192C266.469 79.8067 266.348 80.8479 266.107 81.4429C265.884 82.0193 265.428 82.4563 264.74 82.7538C264.61 82.8096 263.996 82.8468 262.899 82.8654C261.97 82.8839 261.421 82.9211 261.254 82.9769C261.086 83.0141 261.021 83.1257 261.059 83.3116C261.077 83.4046 261.096 83.8136 261.114 84.5388C261.114 84.6318 261.114 84.7526 261.114 84.9014C261.114 85.3662 261.179 85.6358 261.31 85.7102C261.458 85.7846 261.951 85.8218 262.788 85.8218C263.085 85.8218 263.318 85.8218 263.485 85.8218C264.842 85.8404 265.595 85.8869 265.744 85.9612C266.339 86.2773 266.581 86.7329 266.469 87.3279C266.376 87.9043 265.977 88.3041 265.27 88.5272C265.047 88.6016 264.405 88.6294 263.346 88.6109C262.286 88.5737 261.254 88.5086 260.25 88.4156C259.692 88.3412 259.292 88.1646 259.05 87.8857C258.827 87.5882 258.679 87.0862 258.604 86.3796C258.548 85.7474 258.502 85.2918 258.465 85.0129C258.427 84.5667 258.409 83.9066 258.409 83.0327C258.427 82.1402 258.465 81.601 258.52 81.415C258.632 80.9874 258.855 80.6899 259.19 80.5225C259.543 80.3366 260.082 80.225 260.808 80.1878C261.31 80.1692 261.719 80.1506 262.035 80.1321C262.407 80.0763 262.751 80.0391 263.067 80.0205C263.42 80.0019 263.624 79.9554 263.68 79.881C263.736 79.8067 263.764 79.5185 263.764 79.0164C263.764 78.5516 263.727 78.282 263.652 78.2076C263.597 78.1146 263.429 78.0867 263.15 78.1239C262.946 78.1425 262.546 78.1611 261.951 78.1797C261.319 78.2169 260.845 78.2541 260.529 78.2913C259.989 78.3656 259.59 78.3563 259.329 78.2634C258.976 78.1332 258.716 77.8822 258.548 77.5103C258.381 77.1384 258.372 76.7945 258.52 76.4784C258.706 76.0507 259.013 75.7718 259.441 75.6416C259.887 75.5115 260.789 75.4278 262.146 75.3906ZM286.371 73.1594C286.947 73.0664 287.617 73.1315 288.379 73.3546C288.416 73.3732 288.621 73.429 288.993 73.5219C289.123 73.5591 289.216 73.5963 289.272 73.6335C289.29 73.6335 289.318 73.6521 289.355 73.6893C289.411 73.7079 289.476 73.7358 289.55 73.773C289.643 73.8101 289.718 73.8473 289.774 73.8845C290.555 74.2564 291.159 74.8514 291.586 75.6695C292.014 76.4691 292.163 77.2872 292.033 78.1239C291.977 78.4586 291.94 78.6724 291.921 78.7654C291.903 78.9328 291.875 79.0257 291.838 79.0443C291.819 79.0815 291.81 79.128 291.81 79.1838C291.81 79.3883 291.531 79.8531 290.973 80.5783C290.415 81.2849 290.052 81.6382 289.885 81.6382C289.848 81.6382 289.829 81.6568 289.829 81.6939C289.829 81.7311 289.932 81.7497 290.136 81.7497C290.471 81.7497 290.768 81.8799 291.029 82.1402C291.233 82.3447 291.354 82.6236 291.391 82.9769C291.447 83.3302 291.484 84.232 291.503 85.6823C291.503 86.9839 291.521 87.6533 291.559 87.6905C291.577 87.7276 291.94 87.7462 292.646 87.7462C293.241 87.7462 293.623 87.7648 293.79 87.802C293.957 87.8392 294.152 87.9694 294.376 88.1925C294.766 88.5458 294.915 88.9362 294.822 89.3639C294.729 89.773 294.422 90.1262 293.901 90.4238C293.79 90.4795 293.623 90.5167 293.399 90.5353C293.195 90.5539 292.516 90.5632 291.363 90.5632C289.541 90.5632 287.505 90.5725 285.255 90.5911C282.764 90.6097 281.388 90.6004 281.127 90.5632C280.625 90.5074 280.254 90.2471 280.012 89.7823C279.77 89.2988 279.779 88.8619 280.04 88.4714C280.244 88.1925 280.495 88.0066 280.793 87.9136C281.09 87.8206 281.564 87.7927 282.215 87.8299C282.866 87.8671 283.238 87.8671 283.331 87.8299C283.424 87.7927 283.461 87.6347 283.442 87.3558C283.275 85.3476 283.275 83.9531 283.442 83.1721C283.61 82.3912 284 81.9635 284.614 81.8892C284.893 81.852 284.967 81.7776 284.837 81.666C284.781 81.5917 284.623 81.4615 284.363 81.2756C283.656 80.8107 283.145 80.318 282.829 79.7974C282.531 79.2767 282.364 78.6445 282.327 77.9008C282.327 77.5289 282.336 77.2686 282.355 77.1199C282.373 76.9711 282.448 76.7294 282.578 76.3947C282.875 75.5952 283.377 74.8979 284.084 74.3029C284.79 73.6893 285.553 73.3081 286.371 73.1594ZM288.072 76.1158C287.421 75.9298 286.826 75.9763 286.287 76.2552C285.748 76.5341 285.376 76.9618 285.172 77.5382C284.986 78.1146 285.153 78.5981 285.674 78.9885C286.213 79.3604 286.836 79.5092 287.542 79.4348C288.267 79.3418 288.751 79.0257 288.993 78.4865C289.588 77.2221 289.281 76.4319 288.072 76.1158ZM289.272 82.1123C289.439 81.945 289.495 81.8613 289.439 81.8613C289.346 81.8799 289.067 81.945 288.602 82.0565C288.416 82.1123 288.007 82.1495 287.375 82.1681C286.761 82.1681 286.306 82.1402 286.008 82.0844C285.729 82.0286 285.571 82.0193 285.534 82.0565C285.516 82.0751 285.571 82.1774 285.702 82.3633C285.887 82.6236 285.999 82.9118 286.036 83.2279C286.073 83.5254 286.101 84.3064 286.12 85.5708C286.138 87.0583 286.176 87.8206 286.231 87.8578C286.306 87.895 286.715 87.895 287.459 87.8578C288.202 87.8206 288.611 87.7834 288.686 87.7462C288.742 87.709 288.77 87.5882 288.77 87.3837C288.788 87.1791 288.797 86.4912 288.797 85.3197C288.797 83.9438 288.816 83.1257 288.853 82.8654C288.89 82.5864 289.03 82.3354 289.272 82.1123ZM300.027 72.4342C300.399 72.397 300.705 72.397 300.947 72.4342C301.226 72.49 301.468 72.5272 301.672 72.5458C302.119 72.6015 302.583 72.7968 303.067 73.1315C303.569 73.4662 304.006 73.8845 304.378 74.3866C304.526 74.5911 304.601 74.7119 304.601 74.7491C304.601 74.7677 304.647 74.8514 304.74 75.0002C304.833 75.1303 304.908 75.2884 304.963 75.4743C305.019 75.6788 305.075 75.8648 305.131 76.0321C305.261 76.3482 305.307 76.8781 305.27 77.6219C305.252 78.347 305.168 78.8677 305.019 79.1838C304.777 79.723 304.471 80.1692 304.099 80.5225C303.745 80.8758 303.271 81.2012 302.676 81.4987C302.304 81.6846 302.081 81.8055 302.007 81.8613C301.933 81.9357 301.83 81.9914 301.7 82.0286C301.142 82.196 300.854 82.8839 300.836 84.0925L300.808 85.0687L300.557 85.3755C300.203 85.7846 299.766 85.9519 299.246 85.8776C298.744 85.8032 298.381 85.515 298.158 85.0129C298.046 84.7712 298 84.2134 298.019 83.3395C298.056 82.4656 298.13 81.9543 298.242 81.8055C298.316 81.7497 298.372 81.6289 298.409 81.4429C298.465 81.257 298.53 81.1268 298.604 81.0525C298.66 80.9781 298.725 80.8758 298.8 80.7457C298.855 80.6155 299.013 80.4296 299.274 80.1878C299.534 79.9461 299.729 79.7881 299.859 79.7137C300.585 79.3604 301.068 79.1187 301.31 78.9885C301.57 78.8584 301.802 78.691 302.007 78.4865C302.212 78.282 302.314 78.1239 302.314 78.0124C302.314 77.8822 302.314 77.6405 302.314 77.2872C302.277 76.8224 302.174 76.4505 302.007 76.1716C301.84 75.8927 301.561 75.6602 301.17 75.4743C300.687 75.2512 300.278 75.2233 299.943 75.3906C299.776 75.4836 299.608 75.5487 299.441 75.5859C299.311 75.6416 299.199 75.7067 299.106 75.7811C298.586 76.153 298.325 76.3761 298.325 76.4505C298.325 76.5806 298.251 76.7945 298.102 77.092C297.954 77.3895 297.814 77.594 297.684 77.7056C297.479 77.8915 297.21 77.9938 296.875 78.0124C296.54 78.0124 296.252 77.9101 296.01 77.7056C295.415 77.2407 295.248 76.562 295.508 75.6695C295.769 74.777 296.345 74.0333 297.238 73.4383C297.777 73.1036 298.065 72.9362 298.102 72.9362C298.102 72.9362 298.223 72.8805 298.465 72.7689C298.688 72.6573 298.948 72.583 299.246 72.5458C299.32 72.5272 299.45 72.5086 299.636 72.49C299.822 72.4714 299.952 72.4528 300.027 72.4342ZM299.051 87.6905C299.646 87.5789 300.138 87.6905 300.529 88.0251C300.938 88.3598 301.133 88.7875 301.114 89.3081C301.114 89.8287 300.882 90.2843 300.417 90.6748C300.101 90.9165 299.711 91.0373 299.246 91.0373C298.8 91.0373 298.446 90.9165 298.186 90.6748C297.963 90.4516 297.814 90.1355 297.74 89.7265C297.665 89.3174 297.693 88.992 297.823 88.7503C298.177 88.1367 298.586 87.7834 299.051 87.6905Z" fill="black"/>
<circle cx="201.624" cy="137.514" r="23.5143" fill="black"/>
<path d="M189.117 137.513H215.133M215.133 137.513L206.461 129.008M215.133 137.513L206.461 146.018" stroke="white" stroke-width="1.00061" stroke-linecap="round"/>
</svg>
