<svg width="35" height="35" viewBox="0 0 35 35" fill="none" xmlns="http://www.w3.org/2000/svg">
<path fill-rule="evenodd" clip-rule="evenodd" d="M5.83333 2.33724C4.90508 2.33724 4.01484 2.70599 3.35846 3.36237C2.70208 4.01874 2.33333 4.90898 2.33333 5.83724V11.6706H0V5.83724C0 4.29014 0.614582 2.80641 1.70854 1.71245C2.80251 0.618488 4.28624 0.00390625 5.83333 0.00390625L11.6667 0.00390625V2.33724H5.83333ZM29.1667 2.33724H23.3333V0.00390625H29.1667C30.7138 0.00390625 32.1975 0.618488 33.2915 1.71245C34.3854 2.80641 35 4.29014 35 5.83724V11.6706H32.6667V5.83724C32.6667 4.90898 32.2979 4.01874 31.6415 3.36237C30.9852 2.70599 30.0949 2.33724 29.1667 2.33724ZM11.6667 14.0039H9.33333V11.6706H11.6667V14.0039ZM25.6667 14.0039H23.3333V11.6706H25.6667V14.0039ZM11.4333 20.3039C12.1397 21.2457 13.0556 22.0102 14.1086 22.5366C15.1616 23.0631 16.3227 23.3372 17.5 23.3372C18.6773 23.3372 19.8384 23.0631 20.8914 22.5366C21.9444 22.0102 22.8603 21.2457 23.5667 20.3039L25.4333 21.7039C21.4667 26.9936 13.5333 26.9936 9.56667 21.7039L11.4333 20.3039ZM0 29.1706V23.3372H2.33333V29.1706C2.33333 30.0988 2.70208 30.9891 3.35846 31.6454C4.01484 32.3018 4.90508 32.6706 5.83333 32.6706H11.6667V35.0039H5.83333C4.28624 35.0039 2.80251 34.3893 1.70854 33.2954C0.614582 32.2014 0 30.7177 0 29.1706ZM35 23.3372V29.1706C35 30.7177 34.3854 32.2014 33.2915 33.2954C32.1975 34.3893 30.7138 35.0039 29.1667 35.0039H23.3333V32.6706H29.1667C30.0949 32.6706 30.9852 32.3018 31.6415 31.6454C32.2979 30.9891 32.6667 30.0988 32.6667 29.1706V23.3372H35Z" fill="black"/>
</svg>
