<svg width="136" height="143" viewBox="0 0 136 143" fill="none" xmlns="http://www.w3.org/2000/svg">
<g clip-path="url(#clip0_2236_5031)">
<path d="M73.2242 32.4386C70.49 32.1096 68.8562 31.4969 68.5953 28.7513C68.2322 24.7918 68.0507 18.0753 65.2711 12.9131C62.8885 8.49973 57.9759 4.40403 52.3146 2.82701C48.2529 1.69247 42.4554 1.42018 36.0793 3.28083C29.7939 5.11879 27.0937 9.64561 25.0515 12.811C22.2605 17.1109 22.7711 21.5924 23.9851 26.3461C25.528 32.3365 27.9786 37.9751 27.9333 40.4598C27.8538 44.4307 25.3805 48.8781 21.5571 53.7566C18.925 57.1035 13.5019 59.4294 10.779 64.2171C8.60065 68.0519 2.98466 74.7116 1.99761 86.0004C1.1694 95.5192 4.27804 100.704 5.60546 105.98C6.54713 109.724 17.2459 122.623 21.2054 125.494C24.3481 127.774 27.9446 129.238 32.426 131.11C36.0566 132.63 39.2673 136.136 43.919 137.282C47.7991 138.235 52.0423 139.154 56.7053 139.789C60.7215 140.334 65.0441 140.799 69.6844 141.06C74.3134 141.321 78.7721 141.264 82.6976 141.196C87.44 141.116 94.2019 140.027 98.0026 139.551C102.87 138.938 115.588 132.959 118.368 130.747C122.395 127.525 124.801 124.972 125.856 121.5C127.569 115.827 129.305 108.498 127.228 92.5353C125.47 79.0569 120.603 75.4037 121.726 66.0097C122.236 61.7211 133.4 54.392 133.4 37.6575C133.4 33.8341 131.642 30.1128 129.361 24.3833C127.557 19.8452 121.204 16.4642 117.403 14.9893C113.603 13.5144 108.043 14.1724 103.664 15.1255C99.5343 16.0331 96.4483 20.1628 93.0447 22.6702C89.4255 25.3363 86.7366 28.1046 85.3298 31.9394C83.7187 36.3528 77.8758 33.0285 73.2355 32.4613V32.4386H73.2242Z" fill="#D28693" stroke="#231815" stroke-width="3.40363" stroke-linecap="round" stroke-linejoin="round"/>
<path d="M55.7176 77.7858C58.5561 77.7858 60.8571 74.2555 60.8571 69.9007C60.8571 65.5459 58.5561 62.0156 55.7176 62.0156C52.8792 62.0156 50.5781 65.5459 50.5781 69.9007C50.5781 74.2555 52.8792 77.7858 55.7176 77.7858Z" fill="#231815" stroke="#231815" stroke-width="3.40363" stroke-linecap="round" stroke-linejoin="round"/>
<path d="M86.8504 79.9967C89.6889 79.9967 91.9899 76.4664 91.9899 72.1116C91.9899 67.7568 89.6889 64.2266 86.8504 64.2266C84.012 64.2266 81.7109 67.7568 81.7109 72.1116C81.7109 76.4664 84.012 79.9967 86.8504 79.9967Z" fill="#231815" stroke="#231815" stroke-width="3.40363" stroke-linecap="round" stroke-linejoin="round"/>
<path d="M68.655 113.794C76.4122 113.794 82.7007 107.506 82.7007 99.7488C82.7007 91.9916 76.4122 85.7031 68.655 85.7031C60.8978 85.7031 54.6094 91.9916 54.6094 99.7488C54.6094 107.506 60.8978 113.794 68.655 113.794Z" fill="#231815" stroke="#231815" stroke-width="3.40363" stroke-linecap="round" stroke-linejoin="round"/>
<path d="M43.2656 118.489C43.5833 114.734 54.7472 112.613 68.2029 113.747C81.6586 114.893 92.3006 118.853 91.9829 122.619" stroke="#231815" stroke-width="3.40363" stroke-linecap="round" stroke-linejoin="round"/>
<path d="M52.3572 33.0606C59.1645 17.1543 39.9453 12.5254 39.9453 12.5254" stroke="#231815" stroke-width="3.40363" stroke-miterlimit="10" stroke-linecap="round"/>
<path d="M104.641 27.3672C104.641 27.3672 123.871 31.9961 117.053 47.9024" stroke="#231815" stroke-width="3.40363" stroke-miterlimit="10" stroke-linecap="round"/>
<path d="M60.8594 53.7676L64.887 62.0157" stroke="#231815" stroke-width="3.40363" stroke-linecap="round" stroke-linejoin="round"/>
<path d="M84.9873 55.5801L78.4297 62.0129" stroke="#231815" stroke-width="3.40363" stroke-linecap="round" stroke-linejoin="round"/>
</g>
<defs>
<clipPath id="clip0_2236_5031">
<rect width="134.943" height="142.725" fill="white" transform="translate(0.15625 0.226562)"/>
</clipPath>
</defs>
</svg>
