<svg width="132" height="139" viewBox="0 0 132 139" fill="none" xmlns="http://www.w3.org/2000/svg">
<g clip-path="url(#clip0_2236_5079)">
<path d="M71.0038 31.2788C68.3487 30.9593 66.7622 30.3644 66.5088 27.6982C66.1562 23.8532 65.98 17.3309 63.2807 12.3181C60.9671 8.03235 56.1966 4.05512 50.699 2.52371C46.7548 1.42199 41.125 1.15757 34.9333 2.96441C28.7416 4.77124 26.2076 9.1451 24.2245 12.2189C21.5142 16.3945 22.01 20.7463 23.1888 25.3625C24.6872 31.1797 27.0669 36.6552 27.0229 39.068C26.9457 42.9241 24.544 47.2428 20.8312 51.9803C18.2751 55.2304 13.0089 57.4889 10.3647 62.1382C8.24942 65.862 2.79587 72.3292 1.83736 83.2914C1.0331 92.5349 4.05184 97.5698 5.34086 102.693C6.25529 106.328 16.6446 118.855 20.4896 121.643C23.5414 123.857 27.0339 125.278 31.3857 127.096C34.9112 128.572 38.0291 131.977 42.5462 133.089C46.3141 134.015 50.4346 134.907 54.9627 135.524C58.8628 136.053 63.0604 136.505 67.5664 136.758C72.0615 137.012 76.3913 136.957 80.2033 136.89C84.8085 136.813 91.3748 135.756 95.0656 135.293C99.792 134.698 112.142 128.892 114.842 126.744C118.753 123.615 121.088 121.136 122.113 117.764C123.777 112.256 125.462 105.139 123.446 89.6373C121.738 76.5488 117.012 73.0012 118.103 63.8789C118.598 59.7144 129.439 52.5972 129.439 36.3468C129.439 32.6339 127.732 29.0203 125.517 23.4565C123.766 19.0496 117.596 15.7665 113.905 14.3342C110.203 12.902 104.816 13.541 100.563 14.4664C96.5529 15.3478 93.5562 19.3581 90.251 21.7929C86.7365 24.382 84.1254 27.0702 82.7593 30.794C81.1948 35.0798 75.5209 31.8517 71.0148 31.3008L71.0038 31.2788Z" fill="#97B673" stroke="#231815" stroke-width="3.30518" stroke-linecap="round" stroke-linejoin="round"/>
<path d="M53.9908 75.316C56.7472 75.316 58.9817 71.8878 58.9817 67.659C58.9817 63.4301 56.7472 60.002 53.9908 60.002C51.2345 60.002 49 63.4301 49 67.659C49 71.8878 51.2345 75.316 53.9908 75.316Z" fill="#231815" stroke="#231815" stroke-width="3.30518" stroke-linecap="round" stroke-linejoin="round"/>
<path d="M84.233 77.4624C86.9894 77.4624 89.2238 74.0343 89.2238 69.8054C89.2238 65.5766 86.9894 62.1484 84.233 62.1484C81.4767 62.1484 79.2422 65.5766 79.2422 69.8054C79.2422 74.0343 81.4767 77.4624 84.233 77.4624Z" fill="#231815" stroke="#231815" stroke-width="3.30518" stroke-linecap="round" stroke-linejoin="round"/>
<path d="M66.5613 110.283C74.0941 110.283 80.2007 104.176 80.2007 96.6433C80.2007 89.1105 74.0941 83.0039 66.5613 83.0039C59.0284 83.0039 52.9219 89.1105 52.9219 96.6433C52.9219 104.176 59.0284 110.283 66.5613 110.283Z" fill="#231815" stroke="#231815" stroke-width="3.30518" stroke-linecap="round" stroke-linejoin="round"/>
<path d="M50.7404 31.8846C57.3508 16.4384 38.6875 11.9434 38.6875 11.9434" stroke="#231815" stroke-width="3.30518" stroke-miterlimit="10" stroke-linecap="round"/>
<path d="M101.5 26.3555C101.5 26.3555 120.174 30.8505 113.553 46.2967" stroke="#231815" stroke-width="3.30518" stroke-miterlimit="10" stroke-linecap="round"/>
<path d="M58.2891 119.602H72.8319" stroke="#231815" stroke-width="3.30518" stroke-linecap="round" stroke-linejoin="round"/>
</g>
<defs>
<clipPath id="clip0_2236_5079">
<rect width="131.039" height="138.586" fill="white" transform="translate(0.0390625)"/>
</clipPath>
</defs>
</svg>
