<svg width="132" height="139" viewBox="0 0 132 139" fill="none" xmlns="http://www.w3.org/2000/svg">
<g clip-path="url(#clip0_2236_5059)">
<path d="M71.082 31.2788C68.4268 30.9593 66.8403 30.3644 66.5869 27.6982C66.2344 23.8532 66.0581 17.3309 63.3588 12.3181C61.0452 8.03235 56.2747 4.05512 50.7771 2.52371C46.8329 1.42199 41.2031 1.15757 35.0114 2.96441C28.9078 4.7492 26.2857 9.1451 24.3026 12.2189C21.5923 16.3945 22.0881 20.7463 23.267 25.3625C24.7653 31.1797 27.1451 36.6552 27.101 39.068C27.0239 42.9241 24.6221 47.2428 20.9093 51.9803C18.3533 55.2304 13.087 57.4889 10.4429 62.1382C8.32754 65.862 2.87399 72.3292 1.91549 83.2914C1.11123 92.5349 4.12996 97.5698 5.41898 102.693C6.33342 106.328 16.7227 118.855 20.5677 121.643C23.6195 123.857 27.112 125.278 31.4638 127.096C34.9894 128.572 38.1072 131.977 42.6243 133.089C46.3922 134.015 50.5127 134.907 55.0408 135.524C58.9409 136.053 63.1385 136.505 67.6446 136.758C72.1396 137.012 76.4694 136.957 80.2814 136.89C84.8866 136.813 91.4529 135.756 95.1437 135.293C99.8701 134.698 112.22 128.892 114.92 126.744C118.831 123.615 121.167 121.136 122.191 117.764C123.855 112.256 125.54 105.139 123.524 89.6373C121.817 76.5488 117.09 73.0012 118.181 63.8789C118.677 59.7144 129.518 52.5972 129.518 36.3468C129.518 32.6339 127.81 29.0203 125.595 23.4565C123.844 19.0496 117.674 15.7665 113.983 14.3342C110.281 12.902 104.894 13.541 100.641 14.4664C96.631 15.3478 93.6343 19.3581 90.3291 21.7929C86.8146 24.382 84.2035 27.0702 82.8374 30.794C81.2729 35.0798 75.599 31.8517 71.093 31.3008L71.082 31.2788Z" fill="#9F8DC1" stroke="#231815" stroke-width="3.30518" stroke-linecap="round" stroke-linejoin="round"/>
<path d="M54.069 75.316C56.8253 75.316 59.0598 71.8878 59.0598 67.659C59.0598 63.4301 56.8253 60.002 54.069 60.002C51.3126 60.002 49.0781 63.4301 49.0781 67.659C49.0781 71.8878 51.3126 75.316 54.069 75.316Z" fill="#231815" stroke="#231815" stroke-width="3.30518" stroke-linecap="round" stroke-linejoin="round"/>
<path d="M84.3111 77.4624C87.0675 77.4624 89.302 74.0343 89.302 69.8054C89.302 65.5766 87.0675 62.1484 84.3111 62.1484C81.5548 62.1484 79.3203 65.5766 79.3203 69.8054C79.3203 74.0343 81.5548 77.4624 84.3111 77.4624Z" fill="#231815" stroke="#231815" stroke-width="3.30518" stroke-linecap="round" stroke-linejoin="round"/>
<path d="M66.6394 110.283C74.1722 110.283 80.2788 104.176 80.2788 96.6433C80.2788 89.1105 74.1722 83.0039 66.6394 83.0039C59.1066 83.0039 53 89.1105 53 96.6433C53 104.176 59.1066 110.283 66.6394 110.283Z" fill="#231815" stroke="#231815" stroke-width="3.30518" stroke-linecap="round" stroke-linejoin="round"/>
<path d="M53.2767 116.529C53.3097 116.187 52.4504 117.674 54.0699 118.468C54.6649 118.754 55.6013 118.027 56.7141 118.06C57.4743 118.082 58.3446 118.831 59.182 118.523C59.9311 118.247 60.471 117.179 61.2752 116.936C62.0795 116.694 63.0049 117.443 63.8312 117.52C64.6575 117.597 65.1974 118.192 65.9466 118.446C66.6957 118.699 67.8195 118.038 68.5356 118.313C69.3289 118.622 70.078 118.644 70.8162 118.754C72.0281 118.919 73.0747 120.054 73.89 119.944C75.8841 119.68 76.9418 118.192 76.9198 118.523" stroke="#231815" stroke-width="3.30518" stroke-linecap="round" stroke-linejoin="round"/>
<path d="M50.8185 31.8846C57.4289 16.4384 38.7656 11.9434 38.7656 11.9434" stroke="#231815" stroke-width="3.30518" stroke-miterlimit="10" stroke-linecap="round"/>
<path d="M101.578 26.3555C101.578 26.3555 120.252 30.8505 113.631 46.2967" stroke="#231815" stroke-width="3.30518" stroke-miterlimit="10" stroke-linecap="round"/>
<path d="M79.1719 50.3047L86.7738 54.976" stroke="#231815" stroke-width="3.30518" stroke-linecap="round" stroke-linejoin="round"/>
<path d="M63.8393 49.4238L55.1797 51.5612" stroke="#231815" stroke-width="3.30518" stroke-linecap="round" stroke-linejoin="round"/>
</g>
<defs>
<clipPath id="clip0_2236_5059">
<rect width="131.039" height="138.586" fill="white" transform="translate(0.117188)"/>
</clipPath>
</defs>
</svg>
