<svg width="132" height="139" viewBox="0 0 132 139" fill="none" xmlns="http://www.w3.org/2000/svg">
<g clip-path="url(#clip0_2236_5069)">
<path d="M71.0351 31.2788C68.3799 30.9593 66.7934 30.3644 66.54 27.6982C66.1875 23.8532 66.0112 17.3309 63.312 12.3181C60.9983 8.03235 56.2279 4.05512 50.7302 2.52371C46.7861 1.42199 41.1562 1.15757 34.9645 2.96441C28.7728 4.77124 26.2388 9.1451 24.2557 12.2189C21.5455 16.3945 22.0412 20.7463 23.2201 25.3625C24.7184 31.1797 27.0982 36.6552 27.0541 39.068C26.977 42.9241 24.5752 47.2428 20.8624 51.9803C18.3064 55.2304 13.0401 57.4889 10.396 62.1382C8.28067 65.862 2.82712 72.3292 1.86861 83.2914C1.06435 92.5349 4.08309 97.5698 5.37211 102.693C6.28654 106.328 16.6758 118.855 20.5209 121.643C23.5726 123.857 27.0651 125.278 31.417 127.096C34.9425 128.572 38.0604 131.977 42.5775 133.089C46.3454 134.015 50.4658 134.907 54.9939 135.524C58.894 136.053 63.0916 136.505 67.5977 136.758C72.0927 137.012 76.4225 136.957 80.2345 136.89C84.8397 136.813 91.406 135.756 95.0968 135.293C99.8232 134.698 112.174 128.892 114.873 126.744C118.784 123.615 121.12 121.136 122.144 117.764C123.808 112.256 125.493 105.139 123.477 89.6373C121.77 76.5488 117.043 73.0012 118.134 63.8789C118.63 59.7144 129.471 52.5972 129.471 36.3468C129.471 32.6339 127.763 29.0203 125.549 23.4565C123.797 19.0496 117.627 15.7665 113.936 14.3342C110.235 12.902 104.847 13.541 100.594 14.4664C96.5841 15.3478 93.5874 19.3581 90.2823 21.7929C86.7677 24.382 84.1567 27.0702 82.7905 30.794C81.2261 35.0798 75.5522 31.8517 71.0461 31.3008L71.0351 31.2788Z" fill="#6C99BD" stroke="#231815" stroke-width="3.30518" stroke-linecap="round" stroke-linejoin="round"/>
<path d="M54.0221 75.316C56.7784 75.316 59.0129 71.8878 59.0129 67.659C59.0129 63.4301 56.7784 60.002 54.0221 60.002C51.2657 60.002 49.0312 63.4301 49.0312 67.659C49.0312 71.8878 51.2657 75.316 54.0221 75.316Z" fill="#231815" stroke="#231815" stroke-width="3.30518" stroke-linecap="round" stroke-linejoin="round"/>
<path d="M84.2721 77.4624C87.0284 77.4624 89.2629 74.0343 89.2629 69.8054C89.2629 65.5766 87.0284 62.1484 84.2721 62.1484C81.5157 62.1484 79.2812 65.5766 79.2812 69.8054C79.2812 74.0343 81.5157 77.4624 84.2721 77.4624Z" fill="#231815" stroke="#231815" stroke-width="3.30518" stroke-linecap="round" stroke-linejoin="round"/>
<path d="M66.6003 110.283C74.1332 110.283 80.2397 104.176 80.2397 96.6433C80.2397 89.1105 74.1332 83.0039 66.6003 83.0039C59.0675 83.0039 52.9609 89.1105 52.9609 96.6433C52.9609 104.176 59.0675 110.283 66.6003 110.283Z" fill="#231815" stroke="#231815" stroke-width="3.30518" stroke-linecap="round" stroke-linejoin="round"/>
<path d="M41.875 115.593C42.2165 111.528 53.0906 109.137 66.1571 110.239C79.2236 111.341 89.5357 115.538 89.1832 119.604" stroke="#231815" stroke-width="3.30518" stroke-linecap="round" stroke-linejoin="round"/>
<path d="M50.7716 31.8846C57.382 16.4384 38.7188 11.9434 38.7188 11.9434" stroke="#231815" stroke-width="3.30518" stroke-miterlimit="10" stroke-linecap="round"/>
<path d="M101.539 26.3555C101.539 26.3555 120.213 30.8505 113.592 46.2967" stroke="#231815" stroke-width="3.30518" stroke-miterlimit="10" stroke-linecap="round"/>
<path d="M82.5156 46.2949L86.4268 54.3045" stroke="#231815" stroke-width="3.30518" stroke-linecap="round" stroke-linejoin="round"/>
<path d="M62.2039 46.2949L55.8359 52.5417" stroke="#231815" stroke-width="3.30518" stroke-linecap="round" stroke-linejoin="round"/>
</g>
<defs>
<clipPath id="clip0_2236_5069">
<rect width="131.039" height="138.586" fill="white" transform="translate(0.078125)"/>
</clipPath>
</defs>
</svg>
