<svg width="290" height="218" viewBox="0 0 290 218" fill="none" xmlns="http://www.w3.org/2000/svg">
<mask id="mask0_2465_4807" style="mask-type:luminance" maskUnits="userSpaceOnUse" x="0" y="0" width="290" height="218">
<path d="M290 0H0V218H290V0Z" fill="white"/>
</mask>
<g mask="url(#mask0_2465_4807)">
<path d="M254.83 128.355H58.9453V218.024H254.83V128.355Z" fill="#231815"/>
<path d="M121.193 213.906C126.435 204.319 136.115 197.859 147.185 197.859C158.253 197.859 167.934 204.319 173.176 213.906H273.093C273.093 213.906 273.093 213.723 273.069 213.643C269.29 182.441 258.829 173.983 261.244 152.236C262.34 142.308 286.332 125.341 286.332 86.5997C286.332 77.7485 282.554 69.1335 277.652 55.8697C273.776 45.3638 260.122 37.5367 251.954 34.1223C243.762 30.7079 231.839 32.2312 222.427 34.4375C213.553 36.5387 206.921 46.0991 199.606 51.9037C191.829 58.076 186.049 64.4846 183.026 73.3621C179.564 83.5792 167.007 75.8837 157.035 74.5703C151.158 73.8086 147.647 72.3904 147.086 66.0342C146.307 56.8678 145.917 41.3189 139.943 29.3684C134.823 19.1513 124.265 9.66956 112.099 6.01873C103.37 3.39224 90.9106 2.76188 77.2079 7.06934C63.7003 11.3243 57.8974 21.804 53.5086 29.132C47.5106 39.0864 48.6079 49.4611 51.2166 60.466C54.5326 74.3341 59.7992 87.3877 59.7016 93.1397C59.531 102.332 54.2156 112.628 45.9989 123.922C40.3423 131.67 28.6877 137.055 22.836 148.139C18.1546 157.016 6.08555 172.434 3.96431 198.568C3.50105 204.319 3.62296 209.362 4.08622 213.932H121.193V213.906ZM186.293 148.165C192.388 148.165 197.339 156.333 197.339 166.419C197.339 176.506 192.388 184.673 186.293 184.673C180.198 184.673 175.249 176.506 175.249 166.419C175.249 156.333 180.198 148.165 186.293 148.165ZM119.364 143.043C125.46 143.043 130.41 151.212 130.41 161.297C130.41 171.384 125.46 179.551 119.364 179.551C113.269 179.551 108.319 171.384 108.319 161.297C108.319 151.212 113.269 143.043 119.364 143.043Z" fill="#DFB089" stroke="#231815" stroke-width="5.4229" stroke-linecap="round" stroke-linejoin="round"/>
<path d="M116.369 67.9713C130.998 31.1478 89.6953 20.4316 89.6953 20.4316" stroke="#BB7950" stroke-width="5.4229" stroke-miterlimit="10" stroke-linecap="round"/>
<path d="M228.719 54.7871C228.719 54.7871 270.047 65.5032 255.393 102.327" stroke="#BB7950" stroke-width="5.4229" stroke-miterlimit="10" stroke-linecap="round"/>
</g>
</svg>
