<svg width="136" height="143" viewBox="0 0 136 143" fill="none" xmlns="http://www.w3.org/2000/svg">
<g clip-path="url(#clip0_2236_5023)">
<path d="M73.1995 32.2758C70.4632 31.9441 68.8214 31.3305 68.5726 28.5776C68.2078 24.614 68.0254 17.881 65.2393 12.7069C62.8512 8.27899 57.9258 4.18279 52.2708 2.60733C48.2077 1.47963 42.4034 1.19771 36.0186 3.05509C29.6339 4.91248 27.0302 9.43986 24.9738 12.6074C22.1877 16.9192 22.6853 21.4134 23.9125 26.1563C25.4547 32.1597 27.9091 37.7982 27.8594 40.3023C27.7765 44.2824 25.3055 48.7435 21.4746 53.6191C18.8378 56.969 13.3983 59.2908 10.6786 64.1001C8.48952 67.9475 2.86761 74.6142 1.87258 85.9244C1.04339 95.4601 4.16114 100.651 5.48785 105.941C6.43313 109.689 17.1463 122.608 21.1098 125.493C24.2607 127.765 27.8594 129.241 32.3536 131.132C35.9855 132.658 39.2027 136.173 43.8628 137.318C47.7434 138.279 52.0054 139.192 56.6821 139.822C60.6953 140.369 65.0403 140.833 69.6838 141.099C74.3272 141.364 78.7883 141.298 82.7186 141.231C87.4616 141.148 94.2444 140.054 98.0421 139.573C102.918 138.959 113.465 134.382 116.251 132.16C120.281 128.943 123.299 127.566 124.974 119.672C126.201 113.868 129.402 108.445 127.329 92.4584C125.571 78.9592 120.696 75.2942 121.823 65.8911C122.337 61.5959 133.515 54.2493 133.515 37.4831C133.515 33.6522 131.757 29.9374 129.468 24.1829C127.661 19.6389 121.293 16.2392 117.495 14.7798C113.697 13.3205 108.125 13.9507 103.73 14.9125C99.5844 15.8246 96.4998 19.954 93.1001 22.4747C89.4848 25.1447 86.7817 27.9142 85.372 31.7617C83.7634 36.173 77.9093 32.8562 73.2493 32.2923L73.1995 32.2758Z" fill="#DFB089" stroke="#231815" stroke-width="3.41626" stroke-linecap="round" stroke-linejoin="round"/>
<path d="M55.6566 77.6784C58.4959 77.6784 60.7976 74.1442 60.7976 69.7845C60.7976 65.4248 58.4959 61.8906 55.6566 61.8906C52.8173 61.8906 50.5156 65.4248 50.5156 69.7845C50.5156 74.1442 52.8173 77.6784 55.6566 77.6784Z" fill="#231815" stroke="#231815" stroke-width="3.41626" stroke-linecap="round" stroke-linejoin="round"/>
<path d="M86.8519 79.8972C89.6912 79.8972 91.9929 76.3629 91.9929 72.0033C91.9929 67.6436 89.6912 64.1094 86.8519 64.1094C84.0126 64.1094 81.7109 67.6436 81.7109 72.0033C81.7109 76.3629 84.0126 79.8972 86.8519 79.8972Z" fill="#231815" stroke="#231815" stroke-width="3.41626" stroke-linecap="round" stroke-linejoin="round"/>
<path d="M68.6021 113.743C76.3689 113.743 82.6652 107.447 82.6652 99.6803C82.6652 91.9134 76.3689 85.6172 68.6021 85.6172C60.8353 85.6172 54.5391 91.9134 54.5391 99.6803C54.5391 107.447 60.8353 113.743 68.6021 113.743Z" fill="#231815" stroke="#231815" stroke-width="3.41626" stroke-linecap="round" stroke-linejoin="round"/>
<path d="M93.096 96.0859C93.096 109.602 82.1341 120.564 68.6183 120.564C55.1025 120.564 44.1406 109.602 44.1406 96.0859" stroke="#231815" stroke-width="3.41626" stroke-linecap="round" stroke-linejoin="round"/>
<path d="M52.2894 32.8871C59.1054 16.9501 39.8516 12.3066 39.8516 12.3066" stroke="#231815" stroke-width="3.41626" stroke-miterlimit="10" stroke-linecap="round"/>
<path d="M104.641 27.1797C104.641 27.1797 123.894 31.8232 117.078 47.7602" stroke="#231815" stroke-width="3.41626" stroke-miterlimit="10" stroke-linecap="round"/>
</g>
<defs>
<clipPath id="clip0_2236_5023">
<rect width="135.158" height="142.952" fill="white"/>
</clipPath>
</defs>
</svg>
