<svg width="136" height="143" viewBox="0 0 136 143" fill="none" xmlns="http://www.w3.org/2000/svg">
<g clip-path="url(#clip0_2236_5041)">
<path d="M73.1773 32.4503C70.4431 32.1213 68.8093 31.5086 68.5484 28.763C68.1853 24.8035 68.0038 18.087 65.2242 12.9248C62.8417 8.51145 57.9291 4.41575 52.2677 2.83873C48.206 1.70419 42.4085 1.4319 36.0324 3.29255C29.6563 5.1532 27.0468 9.65733 25.0046 12.8227C22.2137 17.1226 22.7242 21.6041 23.9382 26.3578C25.4812 32.3482 27.9318 37.9869 27.8864 40.4715C27.807 44.4424 25.3337 48.8898 21.5103 53.7684C18.8781 57.1153 13.455 59.4411 10.7321 64.2288C8.55378 68.0636 2.93779 74.7234 1.95074 86.0121C1.12252 95.5309 4.23117 100.716 5.55858 105.991C6.50025 109.735 17.199 122.635 21.1585 125.506C24.3012 127.786 27.8977 129.249 32.3792 131.121C36.0097 132.642 39.2205 136.148 43.8721 137.293C47.7522 138.246 51.9954 139.165 56.6584 139.801C60.6747 140.345 64.9973 140.81 69.6376 141.071C74.2665 141.332 78.7253 141.276 82.6508 141.208C87.3932 141.128 94.155 140.039 97.9557 139.562C102.823 138.95 115.541 132.971 118.321 130.758C122.348 127.536 124.754 124.984 125.809 121.512C127.522 115.839 129.258 108.51 127.182 92.547C125.423 79.0687 120.556 75.4154 121.679 66.0214C122.19 61.7328 133.353 54.4037 133.353 37.6692C133.353 33.8458 131.595 30.1245 129.315 24.395C127.511 19.8569 121.157 16.4759 117.356 15.001C113.556 13.5261 107.996 14.1842 103.617 15.1372C99.4874 16.0448 96.4014 20.1745 92.9978 22.6819C89.3786 25.3481 86.6897 28.1163 85.2829 31.9511C83.6719 36.3645 77.829 33.0403 73.1887 32.473L73.1773 32.4503Z" fill="#F08E74" stroke="#231815" stroke-width="3.40363" stroke-linecap="round" stroke-linejoin="round"/>
<path d="M55.6629 77.7975C58.5014 77.7975 60.8024 74.2672 60.8024 69.9124C60.8024 65.5576 58.5014 62.0273 55.6629 62.0273C52.8245 62.0273 50.5234 65.5576 50.5234 69.9124C50.5234 74.2672 52.8245 77.7975 55.6629 77.7975Z" fill="#231815" stroke="#231815" stroke-width="3.40363" stroke-linecap="round" stroke-linejoin="round"/>
<path d="M86.8035 80.0084C89.642 80.0084 91.943 76.4782 91.943 72.1234C91.943 67.7685 89.642 64.2383 86.8035 64.2383C83.9651 64.2383 81.6641 67.7685 81.6641 72.1234C81.6641 76.4782 83.9651 80.0084 86.8035 80.0084Z" fill="#231815" stroke="#231815" stroke-width="3.40363" stroke-linecap="round" stroke-linejoin="round"/>
<path d="M68.6081 113.806C76.3653 113.806 82.6538 107.518 82.6538 99.7605C82.6538 92.0033 76.3653 85.7148 68.6081 85.7148C60.8509 85.7148 54.5625 92.0033 54.5625 99.7605C54.5625 107.518 60.8509 113.806 68.6081 113.806Z" fill="#231815" stroke="#231815" stroke-width="3.40363" stroke-linecap="round" stroke-linejoin="round"/>
<path d="M52.3103 33.0723C59.1176 17.166 39.8984 12.5371 39.8984 12.5371" stroke="#231815" stroke-width="3.40363" stroke-miterlimit="10" stroke-linecap="round"/>
<path d="M104.586 27.3789C104.586 27.3789 123.816 32.0078 116.998 47.9141" stroke="#231815" stroke-width="3.40363" stroke-miterlimit="10" stroke-linecap="round"/>
<path d="M58.2266 119.344C58.2266 119.344 65.0452 113.512 80.3955 119.344" stroke="#231815" stroke-width="3.40363" stroke-linecap="round" stroke-linejoin="round"/>
<path d="M82.3828 51.6797L89.1674 57.8743" stroke="#231815" stroke-width="3.40363" stroke-linecap="round" stroke-linejoin="round"/>
<path d="M60.1206 56.1367L51.2031 58.3491" stroke="#231815" stroke-width="3.40363" stroke-linecap="round" stroke-linejoin="round"/>
</g>
<defs>
<clipPath id="clip0_2236_5041">
<rect width="134.943" height="142.714" fill="white" transform="translate(0.101562 0.238281)"/>
</clipPath>
</defs>
</svg>
