<svg width="40" height="40" viewBox="0 0 40 40" fill="none" xmlns="http://www.w3.org/2000/svg">
<path d="M10.8668 13.8293C12.5018 13.8293 13.8273 12.5038 13.8273 10.8687C13.8273 9.23368 12.5018 7.9082 10.8668 7.9082C9.23172 7.9082 7.90625 9.23368 7.90625 10.8687C7.90625 12.5038 9.23172 13.8293 10.8668 13.8293Z" stroke="black" stroke-width="1.5" stroke-linecap="round" stroke-linejoin="round"/>
<path d="M1 19.75C1 10.9118 1 6.49079 3.7454 3.7454C6.49079 1 10.9099 1 19.75 1C28.5882 1 33.0092 1 35.7546 3.7454C38.5 6.49079 38.5 10.9099 38.5 19.75C38.5 28.5882 38.5 33.0092 35.7546 35.7546C33.0092 38.5 28.5901 38.5 19.75 38.5C10.9118 38.5 6.49079 38.5 3.7454 35.7546C1 33.0092 1 28.5901 1 19.75Z" stroke="black" stroke-width="1.5" stroke-linecap="round" stroke-linejoin="round"/>
<path d="M5.9375 37.5135C14.5664 27.201 24.2414 13.6003 38.4993 22.7937" stroke="black" stroke-width="1.5" stroke-linecap="round" stroke-linejoin="round"/>
</svg>
