<svg width="53" height="41" viewBox="0 0 53 41" fill="none" xmlns="http://www.w3.org/2000/svg">
<path fill-rule="evenodd" clip-rule="evenodd" d="M21.3342 0.605469H31.2178C35.6356 0.605469 39.1352 0.605469 41.8729 0.953011C44.6898 1.31191 46.9708 2.06605 48.7711 3.76515C50.569 5.46651 51.367 7.62219 51.7468 10.2844C52.1145 12.8739 52.1145 16.179 52.1145 20.354V20.6084C52.1145 24.7835 52.1145 28.0908 51.7468 30.6781C51.367 33.3403 50.569 35.496 48.7711 37.1973C46.9708 38.8964 44.6898 39.6506 41.8729 40.0095C39.1328 40.357 35.6356 40.357 31.2178 40.357H21.3342C16.9165 40.357 13.4168 40.357 10.6792 40.0095C7.86217 39.6506 5.58117 38.8964 3.78088 37.1973C1.983 35.496 1.18501 33.3403 0.805248 30.6781C0.4375 28.0886 0.4375 24.7835 0.4375 20.6084V20.354C0.4375 16.179 0.4375 12.8717 0.805248 10.2844C1.18501 7.62219 1.983 5.46651 3.78088 3.76515C5.58117 2.06605 7.86217 1.31191 10.6792 0.953011C13.4192 0.605469 16.9165 0.605469 21.3342 0.605469ZM11.1575 4.33076C8.73947 4.63741 7.3454 5.21438 6.32628 6.17523C5.31196 7.13608 4.70145 8.45356 4.37697 10.7387C4.04528 13.0738 4.04047 16.1495 4.04047 20.4812C4.04047 24.813 4.04528 27.8909 4.37697 30.2261C4.70145 32.5089 5.31196 33.8264 6.32868 34.7873C7.3454 35.7481 8.73947 36.3251 11.1575 36.6317C13.6284 36.9452 16.8828 36.9497 21.4664 36.9497H31.0808C35.6644 36.9497 38.9213 36.9452 41.3921 36.6317C43.8077 36.3251 45.2018 35.7481 46.2185 34.7873C47.2352 33.8264 47.8458 32.5089 48.1702 30.2238C48.5019 27.8887 48.5067 24.813 48.5067 20.4812C48.5067 16.1495 48.5019 13.0738 48.1702 10.7364C47.8458 8.45356 47.2352 7.13608 46.2185 6.17523C45.2018 5.21438 43.8077 4.63741 41.3897 4.33076C38.9213 4.01729 35.6644 4.01274 31.0808 4.01274H21.4664C16.8828 4.01274 13.6308 4.01729 11.1575 4.33076ZM10.4652 10.3048C10.7713 9.95795 11.2106 9.74012 11.6866 9.69922C12.1625 9.65833 12.6362 9.79773 13.0034 10.0868L18.2 14.1732C20.4425 15.9382 21.9976 17.1603 23.3148 17.9599C24.5863 18.7322 25.4492 18.9934 26.2784 18.9934C27.1076 18.9934 27.9705 18.7344 29.242 17.9599C30.5568 17.1603 32.1143 15.9382 34.3569 14.1732L39.5462 10.0845C39.7282 9.94133 39.9382 9.83342 40.1643 9.76694C40.3904 9.70047 40.6281 9.67673 40.8639 9.69708C41.0997 9.71744 41.329 9.78149 41.5386 9.88557C41.7482 9.98966 41.9341 10.1317 42.0856 10.3037C42.2371 10.4757 42.3513 10.6742 42.4216 10.8878C42.4919 11.1015 42.5171 11.3262 42.4955 11.549C42.474 11.7719 42.4062 11.9885 42.2961 12.1866C42.1859 12.3847 42.0356 12.5604 41.8536 12.7036L36.5754 16.8604C34.4434 18.5414 32.7176 19.8997 31.1913 20.8265C29.605 21.7919 28.0595 22.4007 26.2784 22.4007C24.4974 22.4007 22.9519 21.7896 21.3631 20.8265C19.8392 19.8997 18.1134 18.5391 15.9815 16.8627L10.7008 12.7058C10.5187 12.5626 10.3683 12.3868 10.2581 12.1886C10.1479 11.9904 10.0802 11.7735 10.0588 11.5505C10.0373 11.3276 10.0626 11.1028 10.1332 10.889C10.2038 10.6753 10.3182 10.4768 10.4701 10.3048" fill="black"/>
</svg>
