<svg width="854" height="95" viewBox="0 0 854 95" fill="none" xmlns="http://www.w3.org/2000/svg">
  <path d="M5.26 1.996h843.48c1.694 0 2.62 1.975 1.538 3.278L835.17 23.468a2 2 0 0 0 0 2.556l16.769 20.194a2 2 0 0 1 0 2.556L835.17 68.968a2 2 0 0 0 0 2.556l15.108 18.194c1.082 1.304.156 3.278-1.538 3.278H5.26c-1.694 0-2.62-1.974-1.538-3.278L18.83 71.524a2 2 0 0 0 0-2.556L2.06 48.774a2 2 0 0 1 0-2.556l16.77-20.194a2 2 0 0 0 0-2.556L3.722 5.274C2.639 3.97 3.566 1.996 5.26 1.996Z" fill="#EEEDE6" stroke="#000" stroke-width="3"/>
</svg>
