<svg width="36" height="36" viewBox="0 0 36 36" fill="none" xmlns="http://www.w3.org/2000/svg">
<circle cx="18" cy="18" r="18" fill="#747474" fill-opacity="0.16"/>
<path d="M16.8108 21.7422V21.5962C16.821 20.6435 16.9158 19.8854 17.095 19.3219C17.2794 18.7585 17.5407 18.3026 17.8787 17.9543C18.2168 17.606 18.624 17.2885 19.1004 17.0016C19.4077 16.807 19.6843 16.5893 19.9302 16.3485C20.176 16.1078 20.3707 15.8312 20.5141 15.5188C20.6575 15.2063 20.7292 14.8606 20.7292 14.4815C20.7292 14.0256 20.6216 13.6312 20.4065 13.2983C20.1914 12.9654 19.9045 12.7093 19.546 12.53C19.1926 12.3456 18.7982 12.2534 18.3628 12.2534C17.9684 12.2534 17.5919 12.3353 17.2333 12.4993C16.8748 12.6632 16.5777 12.9193 16.3421 13.2676C16.1065 13.6108 15.9707 14.0538 15.9349 14.5968H13.5992C13.635 13.6748 13.8681 12.8962 14.2984 12.2611C14.7286 11.6208 15.2972 11.1368 16.004 10.8089C16.716 10.4811 17.5023 10.3172 18.3628 10.3172C19.3053 10.3172 20.1299 10.4939 20.8368 10.8474C21.5436 11.1957 22.0917 11.6848 22.481 12.3149C22.8754 12.9398 23.0726 13.6697 23.0726 14.5046C23.0726 15.0783 22.983 15.5956 22.8037 16.0566C22.6244 16.5125 22.3683 16.9197 22.0354 17.2782C21.7075 17.6368 21.3131 17.9543 20.8521 18.2309C20.4168 18.5024 20.0633 18.7841 19.7919 19.0761C19.5255 19.368 19.3309 19.7138 19.2079 20.1133C19.085 20.5128 19.0184 21.0071 19.0082 21.5962V21.7422H16.8108ZM17.9709 26.4136C17.5509 26.4136 17.1898 26.265 16.8876 25.9679C16.5854 25.6657 16.4343 25.3021 16.4343 24.8769C16.4343 24.4569 16.5854 24.0983 16.8876 23.8013C17.1898 23.4991 17.5509 23.348 17.9709 23.348C18.3858 23.348 18.7444 23.4991 19.0466 23.8013C19.3539 24.0983 19.5076 24.4569 19.5076 24.8769C19.5076 25.1586 19.4359 25.4173 19.2924 25.6529C19.1542 25.8834 18.9698 26.0678 18.7393 26.2061C18.5088 26.3444 18.2527 26.4136 17.9709 26.4136Z" fill="#F7F3EF"/>
</svg>
