<svg width="37" height="37" viewBox="0 0 37 37" fill="none" xmlns="http://www.w3.org/2000/svg">
<path d="M18.5 36.002C28.165 36.002 36 28.1669 36 18.502C36 8.83697 28.165 1.00195 18.5 1.00195C8.83502 1.00195 1 8.83697 1 18.502C1 28.1669 8.83502 36.002 18.5 36.002Z" stroke="black" stroke-width="2"/>
<path d="M18.5035 31.1456C19.0404 31.1456 19.4757 30.7103 19.4757 30.1734C19.4757 29.6365 19.0404 29.2012 18.5035 29.2012C17.9665 29.2012 17.5312 29.6365 17.5312 30.1734C17.5312 30.7103 17.9665 31.1456 18.5035 31.1456Z" fill="black" stroke="black"/>
<path d="M18.4974 26.2793V23.5201C18.4974 21.6846 19.6718 20.0551 21.4141 19.4737C22.2633 19.1906 23.0019 18.6474 23.5254 17.9212C24.0488 17.195 24.3306 16.3226 24.3307 15.4274V14.4299C24.3307 11.3071 21.803 8.7793 18.6802 8.7793H18.4974C16.9503 8.7793 15.4666 9.39388 14.3726 10.4878C13.2786 11.5818 12.6641 13.0655 12.6641 14.6126" stroke="black" stroke-width="2"/>
</svg>
