<svg width="132" height="139" viewBox="0 0 132 139" fill="none" xmlns="http://www.w3.org/2000/svg">
<g clip-path="url(#clip0_2236_5051)">
<path d="M70.9648 31.2788C68.3096 30.9593 66.7231 30.3644 66.4697 27.6982C66.1172 23.8532 65.9409 17.3309 63.2417 12.3181C60.928 8.03235 56.1575 4.05512 50.6599 2.52371C46.7157 1.42199 41.0859 1.15757 34.8942 2.96441C28.7025 4.77124 26.1685 9.1451 24.1854 12.2189C21.4752 16.3945 21.9709 20.7463 23.1498 25.3625C24.6481 31.1797 27.0279 36.6552 26.9838 39.068C26.9067 42.9241 24.5049 47.2428 20.7921 51.9803C18.2361 55.2304 12.9698 57.4889 10.3257 62.1382C8.21036 65.862 2.7568 72.3292 1.7983 83.2914C0.99404 92.5349 4.01277 97.5698 5.3018 102.693C6.21623 106.328 16.6055 118.855 20.4506 121.643C23.5023 123.857 26.9948 125.278 31.3466 127.096C34.8722 128.572 37.9901 131.977 42.5071 133.089C46.2751 134.015 50.3955 134.907 54.9236 135.524C58.8237 136.053 63.0213 136.505 67.5274 136.758C72.0224 137.012 76.3522 136.957 80.1642 136.89C84.7694 136.813 91.3357 135.756 95.0265 135.293C99.7529 134.698 112.103 128.892 114.803 126.744C118.714 123.615 121.049 121.136 122.074 117.764C123.738 112.256 125.423 105.139 123.407 89.6373C121.699 76.5488 116.973 73.0012 118.064 63.8789C118.559 59.7144 129.4 52.5972 129.4 36.3468C129.4 32.6339 127.693 29.0203 125.478 23.4565C123.727 19.0496 117.557 15.7665 113.866 14.3342C110.164 12.902 104.777 13.541 100.524 14.4664C96.5138 15.3478 93.5171 19.3581 90.212 21.7929C86.6974 24.382 84.0863 27.0702 82.7202 30.794C81.1558 35.0798 75.4818 31.8517 70.9758 31.3008L70.9648 31.2788Z" fill="#E9C66B" stroke="#231815" stroke-width="3.30518" stroke-linecap="round" stroke-linejoin="round"/>
<path d="M53.9518 75.316C56.7081 75.316 58.9426 71.8878 58.9426 67.659C58.9426 63.4301 56.7081 60.002 53.9518 60.002C51.1954 60.002 48.9609 63.4301 48.9609 67.659C48.9609 71.8878 51.1954 75.316 53.9518 75.316Z" fill="#231815" stroke="#231815" stroke-width="3.30518" stroke-linecap="round" stroke-linejoin="round"/>
<path d="M84.194 77.4624C86.9503 77.4624 89.1848 74.0343 89.1848 69.8054C89.1848 65.5766 86.9503 62.1484 84.194 62.1484C81.4376 62.1484 79.2031 65.5766 79.2031 69.8054C79.2031 74.0343 81.4376 77.4624 84.194 77.4624Z" fill="#231815" stroke="#231815" stroke-width="3.30518" stroke-linecap="round" stroke-linejoin="round"/>
<path d="M66.5222 110.283C74.055 110.283 80.1616 104.176 80.1616 96.6433C80.1616 89.1105 74.055 83.0039 66.5222 83.0039C58.9894 83.0039 52.8828 89.1105 52.8828 96.6433C52.8828 104.176 58.9894 110.283 66.5222 110.283Z" fill="#231815" stroke="#231815" stroke-width="3.30518" stroke-linecap="round" stroke-linejoin="round"/>
<path d="M50.7013 31.8846C57.3117 16.4384 38.6484 11.9434 38.6484 11.9434" stroke="#231815" stroke-width="3.30518" stroke-miterlimit="10" stroke-linecap="round"/>
<path d="M101.461 26.3555C101.461 26.3555 120.135 30.8505 113.514 46.2967" stroke="#231815" stroke-width="3.30518" stroke-miterlimit="10" stroke-linecap="round"/>
<path d="M64.2563 124.583C65.9296 124.583 67.2861 121.934 67.2861 118.666C67.2861 115.399 65.9296 112.75 64.2563 112.75C62.583 112.75 61.2266 115.399 61.2266 118.666C61.2266 121.934 62.583 124.583 64.2563 124.583Z" stroke="#231815" stroke-width="3.30518" stroke-linecap="round" stroke-linejoin="round"/>
</g>
<defs>
<clipPath id="clip0_2236_5051">
<rect width="131.039" height="138.586" fill="white"/>
</clipPath>
</defs>
</svg>
