<svg width="35" height="35" viewBox="0 0 35 35" fill="none" xmlns="http://www.w3.org/2000/svg">
<path d="M4.375 2.19141C3.79484 2.19141 3.23844 2.42187 2.8282 2.83211C2.41797 3.24235 2.1875 3.79875 2.1875 4.37891V30.6289C2.1875 31.2091 2.41797 31.7655 2.8282 32.1757C3.23844 32.5859 3.79484 32.8164 4.375 32.8164H30.625C31.2052 32.8164 31.7616 32.5859 32.1718 32.1757C32.582 31.7655 32.8125 31.2091 32.8125 30.6289V4.37891C32.8125 3.79875 32.582 3.24235 32.1718 2.83211C31.7616 2.42187 31.2052 2.19141 30.625 2.19141H20.7813C20.2011 2.19141 19.6447 2.42187 19.2345 2.83211C18.8242 3.24235 18.5938 3.79875 18.5938 4.37891V20.3323L24.3819 14.542C24.5873 14.3367 24.8658 14.2213 25.1563 14.2213C25.4467 14.2213 25.7253 14.3367 25.9306 14.542C26.136 14.7474 26.2514 15.026 26.2514 15.3164C26.2514 15.6069 26.136 15.8854 25.9306 16.0908L18.2744 23.747C18.1728 23.8489 18.0521 23.9297 17.9192 23.9848C17.7863 24.04 17.6439 24.0684 17.5 24.0684C17.3561 24.0684 17.2137 24.04 17.0808 23.9848C16.9479 23.9297 16.8272 23.8489 16.7256 23.747L9.06938 16.0908C8.96768 15.9891 8.88702 15.8684 8.83198 15.7355C8.77695 15.6026 8.74862 15.4602 8.74862 15.3164C8.74862 15.1726 8.77695 15.0302 8.83198 14.8973C8.88702 14.7645 8.96768 14.6437 9.06938 14.542C9.17107 14.4403 9.29179 14.3597 9.42466 14.3046C9.55753 14.2496 9.69994 14.2213 9.84375 14.2213C9.98757 14.2213 10.13 14.2496 10.2628 14.3046C10.3957 14.3597 10.5164 14.4403 10.6181 14.542L16.4063 20.3323V4.37891C16.4063 3.21858 16.8672 2.10579 17.6877 1.28531C18.5081 0.464843 19.6209 0.00390625 20.7813 0.00390625L30.625 0.00390625C31.7853 0.00390625 32.8981 0.464843 33.7186 1.28531C34.5391 2.10579 35 3.21858 35 4.37891V30.6289C35 31.7892 34.5391 32.902 33.7186 33.7225C32.8981 34.543 31.7853 35.0039 30.625 35.0039H4.375C3.21468 35.0039 2.10188 34.543 1.28141 33.7225C0.460936 32.902 0 31.7892 0 30.6289V4.37891C0 3.21858 0.460936 2.10579 1.28141 1.28531C2.10188 0.464843 3.21468 0.00390625 4.375 0.00390625L9.84375 0.00390625C10.1338 0.00390625 10.412 0.11914 10.6171 0.324258C10.8223 0.529376 10.9375 0.807576 10.9375 1.09766C10.9375 1.38774 10.8223 1.66594 10.6171 1.87105C10.412 2.07617 10.1338 2.19141 9.84375 2.19141H4.375Z" fill="black"/>
</svg>
