<svg width="1920" height="617" viewBox="0 0 1920 617" fill="none" xmlns="http://www.w3.org/2000/svg">
<mask id="path-1-inside-1_2226_3529" fill="white">
<path fill-rule="evenodd" clip-rule="evenodd" d="M1284.65 67.7147C1284.65 75.1526 1282.63 82.1189 1279.11 88.095L1250.36 147.287C1248.08 151.992 1241.37 151.992 1239.09 147.287L1211.94 91.3837C1207.09 84.7434 1204.23 76.5628 1204.23 67.7147C1204.23 45.508 1222.24 27.5059 1244.44 27.5059C1266.65 27.5059 1284.65 45.508 1284.65 67.7147ZM1244.72 77.3428C1253.64 77.3428 1260.86 70.1166 1260.86 61.2026C1260.86 52.2886 1253.64 45.0624 1244.72 45.0624C1235.81 45.0624 1228.58 52.2886 1228.58 61.2026C1228.58 70.1166 1235.81 77.3428 1244.72 77.3428Z"/>
</mask>
<path fill-rule="evenodd" clip-rule="evenodd" d="M1284.65 67.7147C1284.65 75.1526 1282.63 82.1189 1279.11 88.095L1250.36 147.287C1248.08 151.992 1241.37 151.992 1239.09 147.287L1211.94 91.3837C1207.09 84.7434 1204.23 76.5628 1204.23 67.7147C1204.23 45.508 1222.24 27.5059 1244.44 27.5059C1266.65 27.5059 1284.65 45.508 1284.65 67.7147ZM1244.72 77.3428C1253.64 77.3428 1260.86 70.1166 1260.86 61.2026C1260.86 52.2886 1253.64 45.0624 1244.72 45.0624C1235.81 45.0624 1228.58 52.2886 1228.58 61.2026C1228.58 70.1166 1235.81 77.3428 1244.72 77.3428Z" fill="#D94B4B"/>
<path d="M1279.11 88.095L1275.51 85.9745L1275.43 86.119L1275.35 86.2698L1279.11 88.095ZM1250.36 147.287L1254.12 149.113L1254.12 149.113L1250.36 147.287ZM1239.09 147.287L1242.85 145.462L1242.85 145.462L1239.09 147.287ZM1211.94 91.3837L1215.69 89.5585L1215.53 89.2232L1215.31 88.922L1211.94 91.3837ZM1282.71 90.2155C1286.6 83.6144 1288.83 75.9186 1288.83 67.7147H1280.47C1280.47 74.3867 1278.66 80.6233 1275.51 85.9745L1282.71 90.2155ZM1254.12 149.113L1282.87 89.9201L1275.35 86.2698L1246.6 145.462L1254.12 149.113ZM1235.33 149.113C1239.14 156.954 1250.31 156.954 1254.12 149.113L1246.6 145.462C1245.84 147.031 1243.61 147.03 1242.85 145.462L1235.33 149.113ZM1208.18 93.2089L1235.33 149.113L1242.85 145.462L1215.69 89.5585L1208.18 93.2089ZM1200.06 67.7147C1200.06 77.477 1203.21 86.5143 1208.56 93.8454L1215.31 88.922C1210.97 82.9725 1208.41 75.6486 1208.41 67.7147H1200.06ZM1244.44 23.3283C1219.93 23.3283 1200.06 43.2008 1200.06 67.7147H1208.41C1208.41 47.8152 1224.54 31.6834 1244.44 31.6834V23.3283ZM1288.83 67.7147C1288.83 43.2008 1268.96 23.3283 1244.44 23.3283V31.6834C1264.34 31.6834 1280.47 47.8152 1280.47 67.7147H1288.83ZM1256.69 61.2026C1256.69 67.8094 1251.33 73.1652 1244.72 73.1652V81.5203C1255.95 81.5203 1265.04 72.4238 1265.04 61.2026H1256.69ZM1244.72 49.24C1251.33 49.24 1256.69 54.5958 1256.69 61.2026H1265.04C1265.04 49.9814 1255.95 40.8849 1244.72 40.8849V49.24ZM1232.76 61.2026C1232.76 54.5958 1238.12 49.24 1244.72 49.24V40.8849C1233.5 40.8849 1224.41 49.9814 1224.41 61.2026H1232.76ZM1244.72 73.1652C1238.12 73.1652 1232.76 67.8094 1232.76 61.2026H1224.41C1224.41 72.4238 1233.5 81.5203 1244.72 81.5203V73.1652Z" fill="black" mask="url(#path-1-inside-1_2226_3529)"/>
</svg>
