<svg width="1920" height="617" viewBox="0 0 1920 617" fill="none" xmlns="http://www.w3.org/2000/svg">
<g clip-path="url(#clip0_2249_3580)">
<circle cx="42" cy="364" r="58" fill="#D8B18E" fill-opacity="0.7"/>
<path d="M1024.89 218.032C1025.41 217.447 1027.63 216.137 1031.55 214.101C1035.46 212.064 1037.7 211.008 1038.27 210.93C1038.86 210.911 1039.43 210.834 1039.96 210.698C1041.57 210.289 1043.31 210.22 1045.21 210.49C1045.96 210.616 1046.81 210.724 1047.77 210.814C1048.64 210.876 1050.45 211.343 1053.2 212.215C1056.01 213.055 1057.61 213.633 1058.01 213.95C1058.5 214.293 1058.96 214.578 1059.39 214.804C1059.84 214.94 1060.21 215.198 1060.49 215.578C1060.77 215.958 1061.23 216.317 1061.87 216.656C1062.45 217.027 1062.88 217.403 1063.16 217.783C1063.47 218.072 1063.88 218.418 1064.4 218.821C1064.98 219.192 1065.33 219.495 1065.46 219.73C1065.59 219.966 1066.02 220.416 1066.76 221.081C1068.02 222.148 1068.76 222.888 1068.98 223.3C1069.17 223.653 1069.53 224.031 1070.05 224.433C1070.6 224.895 1071.22 225.548 1071.91 226.394C1072.37 226.978 1072.89 227.65 1073.45 228.41C1074.44 229.546 1075.52 231.472 1076.68 234.187C1077.9 236.871 1078.64 238.942 1078.89 240.4C1079.01 241.174 1079.16 241.887 1079.36 242.539C1080.02 244.463 1080.02 247.843 1079.36 252.679C1079.17 254.151 1078.76 255.779 1078.12 257.563C1077.46 259.289 1076.8 260.671 1076.15 261.708C1075.91 261.984 1075.76 262.258 1075.68 262.53C1075.51 262.924 1074.62 264.014 1073 265.799C1072.1 266.814 1071.61 267.383 1071.52 267.505C1070.77 268.366 1068.29 269.894 1064.08 272.089C1059.93 274.252 1057.37 275.334 1056.38 275.335C1055.15 275.313 1054.14 275.061 1053.35 274.577C1052.58 274.002 1051.84 273.039 1051.11 271.685C1050.63 270.952 1050.09 270.296 1049.47 269.717C1048.86 269.138 1047.87 267.658 1046.51 265.278C1045.12 262.988 1044.26 261.669 1043.92 261.32C1043.55 260.913 1042.64 259.506 1041.18 257.098C1039.67 254.573 1038.51 252.769 1037.7 251.688C1036.92 250.665 1035.13 247.565 1032.34 242.388C1029.51 237.151 1027.3 232.913 1025.7 229.672C1023.98 226.196 1023.08 223.756 1023.01 222.353C1022.9 220.89 1023.53 219.45 1024.89 218.032ZM1041.11 221.699C1040.25 221.936 1039.15 222.419 1037.79 223.149C1036.5 223.847 1035.83 224.362 1035.78 224.692C1035.7 224.964 1037.96 229.365 1042.56 237.897C1047.13 246.369 1049.7 250.91 1050.25 251.521C1050.81 252.132 1051.81 253.641 1053.27 256.049C1054.68 258.398 1055.72 259.891 1056.37 260.529C1056.98 261.108 1057.37 261.545 1057.53 261.839C1057.75 262.251 1058.1 262.404 1058.58 262.3C1059.11 262.163 1060.07 261.685 1061.45 260.864C1063.65 259.599 1065.44 257.913 1066.81 255.807C1068.15 253.641 1068.77 251.558 1068.68 249.557C1068.69 249.018 1068.74 248.613 1068.82 248.341C1068.9 247.92 1068.92 247.261 1068.89 246.365C1068.86 245.468 1068.78 244.828 1068.65 244.443C1068.43 243.881 1068.35 243.316 1068.42 242.745C1068.49 242.174 1067.73 240.344 1066.14 237.252C1064.55 234.161 1063.51 232.518 1063.03 232.324C1062.21 231.931 1061.56 231.293 1061.08 230.41C1060.92 230.116 1060.62 229.827 1060.16 229.542C1059.67 229.198 1059.19 228.809 1058.73 228.375C1058.33 227.909 1057.85 227.445 1057.3 226.984C1056.69 226.554 1056.25 226.179 1056.01 225.857C1054.73 224.342 1052.45 223.141 1049.16 222.257C1045.93 221.34 1043.25 221.154 1041.11 221.699Z" fill="#D8B18E" fill-opacity="0.41"/>
<path d="M562.518 328.156C564.653 327.365 566.55 327.603 568.211 328.867C569.95 330.053 570.82 331.793 570.82 334.085C570.82 335.508 570.385 336.931 569.515 338.354C568.725 339.777 565.957 343.849 561.214 350.569C560.582 351.438 560.107 352.071 559.791 352.466C559.554 352.861 559.119 353.494 558.487 354.364C557.617 355.549 557.064 356.34 556.826 356.735C556.352 357.447 555.917 358.04 555.522 358.514C555.206 358.83 554.731 359.463 554.099 360.411C553.625 361.202 552.873 362.111 551.846 363.139C550.976 364.088 550.502 364.76 550.423 365.155C550.344 365.471 550.344 370.333 550.423 379.741C550.502 389.07 550.581 394.564 550.66 396.225C551.055 403.261 548.921 406.818 544.256 406.897C542.991 406.897 541.963 406.66 541.173 406.186C540.382 405.712 539.552 404.763 538.683 403.34L537.971 402.035V385.315C537.971 384.05 537.971 382.35 537.971 380.215C537.971 373.97 537.932 370.294 537.852 369.187C537.773 368.08 537.536 367.289 537.141 366.815C536.983 366.657 536.864 366.499 536.785 366.341C536.153 365.55 535.52 364.72 534.888 363.85C534.334 363.06 533.623 362.111 532.753 361.004C531.884 359.977 531.212 359.067 530.737 358.277C530.342 357.644 529.789 356.972 529.077 356.261C527.891 354.68 526.508 352.743 524.927 350.45C524.531 349.818 524.176 349.343 523.859 349.027C523.306 348.316 522.239 346.774 520.657 344.402C519.076 342.031 518.167 340.568 517.93 340.015C517.06 338.354 516.902 336.299 517.456 333.848C517.772 332.188 518.721 331.042 520.302 330.409C521.883 329.698 523.504 329.619 525.164 330.172C526.903 330.646 528.207 331.674 529.077 333.255C529.472 334.046 529.828 334.678 530.144 335.153C530.223 335.311 530.421 335.666 530.737 336.22C531.054 336.694 531.291 337.05 531.449 337.287C531.923 337.999 532.753 339.105 533.939 340.608C535.046 342.189 535.757 343.177 536.074 343.572C537.734 345.944 539.038 347.644 539.987 348.671C540.303 349.067 540.54 349.462 540.699 349.857C540.857 350.173 540.975 350.332 541.054 350.332C541.212 350.332 541.529 350.766 542.003 351.636C542.556 352.822 543.07 353.296 543.545 353.059C544.019 352.822 544.968 351.636 546.391 349.502C547.181 348.237 547.695 347.406 547.932 347.011C548.249 346.458 548.565 345.983 548.881 345.588C549.197 345.114 549.79 344.244 550.66 342.979C551.213 342.189 552.043 340.963 553.15 339.303C554.573 337.248 555.799 335.39 556.826 333.73C558.724 330.646 560.621 328.788 562.518 328.156Z" fill="#D8B18E" fill-opacity="0.41"/>
</g>
<defs>
<clipPath id="clip0_2249_3580">
<rect width="1920" height="617" fill="white"/>
</clipPath>
</defs>
</svg>
