<!-- <svg width="1936" height="685" viewBox="0 0 1936 685" fill="none" xmlns="http://www.w3.org/2000/svg">
<circle cx="728" cy="264" r="58" fill="#D8B18E" fill-opacity="0.7"/>
<circle cx="392" cy="264" r="58" fill="#D8B18E" fill-opacity="0.7"/>
<circle cx="58" cy="380" r="58" fill="#D8B18E" fill-opacity="0.7"/>
<circle cx="1107" cy="627" r="58" fill="#D8B18E" fill-opacity="0.7"/>
<circle cx="1878" cy="58" r="58" fill="#D8B18E" fill-opacity="0.7"/>
<circle cx="1864" cy="484" r="58" fill="#D8B18E" fill-opacity="0.7"/>
<path d="M907.27 343.452C909.632 343.349 912.03 343.791 914.464 344.778C916.911 345.705 918.903 346.972 920.439 348.581C921.976 350.189 923.394 352.465 924.694 355.411C925.994 358.357 926.66 360.75 926.69 362.59C926.683 362.904 926.756 363.426 926.909 364.156C927.042 364.691 927.111 365.37 927.117 366.193C927.075 366.943 927.084 367.608 927.144 368.19C927.263 368.786 927.248 369.699 927.099 370.93C926.937 372.221 926.878 373.188 926.924 373.83C926.957 374.533 926.845 375.456 926.589 376.6C926.346 377.683 926.061 378.536 925.732 379.157C925.403 379.779 925.01 380.829 924.553 382.307C924.082 383.845 923.783 384.758 923.656 385.045C923.468 385.319 923.112 386.061 922.589 387.271C921.978 388.589 921.491 389.491 921.129 389.979C920.553 390.861 920.434 391.814 920.774 392.839C921.127 393.802 922.414 396.24 924.636 400.15C925.684 401.965 926.257 403.358 926.356 404.328C926.468 405.238 926.163 406.181 925.439 407.157C924.728 408.072 924.031 408.643 923.349 408.869C922.726 409.109 921.903 409.115 920.88 408.886C919.796 408.643 918.807 407.979 917.912 406.894C917.017 405.809 915.546 403.488 913.497 399.933C913.137 399.283 912.829 398.962 912.575 398.968C912.395 398.928 911.802 399.174 910.798 399.708C908.715 400.822 907.463 401.332 907.042 401.238C906.862 401.197 906.46 401.297 905.837 401.537C905.228 401.717 904.669 401.813 904.161 401.825C903.726 401.791 903.114 401.844 902.324 401.983C901.474 402.109 899.845 401.902 897.438 401.364C895.104 400.778 893.495 400.197 892.613 399.62C887.286 396.026 883.852 390.896 882.31 384.23C882.057 383.099 881.945 382.473 881.971 382.353C882.012 382.172 881.946 381.62 881.773 380.696C881.614 379.713 881.572 378.913 881.646 378.298C881.734 377.622 881.719 376.986 881.599 376.391C881.46 375.601 881.781 373.461 882.562 369.969C883.344 366.478 883.959 364.435 884.408 363.84C884.844 363.306 885.233 362.413 885.576 361.163C885.993 359.865 886.446 358.829 886.936 358.054C887.439 357.218 887.768 356.596 887.922 356.188C888.459 354.918 889.954 353.04 892.407 350.555C893.298 349.68 893.831 349.136 894.005 348.922C894.34 348.554 895.207 347.927 896.607 347.039C898.02 346.091 898.964 345.544 899.439 345.397C899.66 345.257 900.357 344.971 901.528 344.538C902.579 344.078 903.165 343.861 903.285 343.888C903.406 343.915 903.734 343.862 904.269 343.729C904.744 343.582 905.745 343.49 907.27 343.452ZM912.692 354.811C912.004 354.214 911.352 353.879 910.737 353.804C910.135 353.67 909.118 353.695 907.686 353.88C906.716 353.979 905.842 354.068 905.066 354.147C903.648 354.272 901.796 355.343 899.512 357.36C897.287 359.391 895.853 361.282 895.208 363.034C894.885 363.91 894.644 364.425 894.483 364.578C894.235 364.839 893.899 365.775 893.475 367.387C893.004 368.925 892.601 370.162 892.265 371.098C891.096 374.06 890.957 377.506 891.848 381.434C892.812 385.316 894.527 388.386 896.992 390.645C898.128 391.784 899.609 392.368 901.436 392.398C903.322 392.441 905.143 391.932 906.897 390.871C907.694 390.417 908.103 390.003 908.123 389.628C908.144 389.253 907.818 388.453 907.144 387.228C906.49 386.197 905.949 385.222 905.522 384.305C905.109 383.328 904.785 382.655 904.552 382.286C903.471 380.338 903.022 378.531 903.205 376.865C903.462 375.153 904.227 373.996 905.499 373.396C906.831 372.81 908.42 372.912 910.265 373.705C910.673 373.859 911.321 374.636 912.209 376.036C913.11 377.375 913.643 378.38 913.81 379.049C914.156 380.327 914.58 380.833 915.082 380.566C915.464 380.272 915.989 378.209 916.657 374.377C917.385 370.557 917.677 368.126 917.531 367.082C917.392 366.292 917.342 365.807 917.383 365.627C917.464 365.265 917.255 364.081 916.756 362.073C916.018 358.874 914.664 356.453 912.692 354.811Z" fill="#D8B18E" fill-opacity="0.41"/>
<path d="M1773.94 148.201C1776.83 148.647 1778.58 150.415 1779.19 153.503C1779.28 154.354 1779.27 154.972 1779.15 155.359C1779.08 155.676 1778.74 156.483 1778.15 157.779C1777.3 159.566 1776.92 160.796 1777.02 161.47C1777.07 162.214 1776.53 163.759 1775.39 166.106C1774.31 168.489 1771.7 173.636 1767.55 181.546C1763.69 188.896 1761.03 193.795 1759.57 196.241C1758.18 198.724 1757.07 200.241 1756.24 200.79C1755.67 201.203 1755.04 201.898 1754.35 202.875C1753.73 203.888 1753.07 204.618 1752.39 205.064C1751.75 205.617 1751.15 206.242 1750.61 206.939C1749.99 207.598 1749.36 208.116 1748.72 208.493C1748.01 208.832 1747.59 209.107 1747.48 209.317C1747.12 210.017 1745.26 210.829 1741.92 211.753C1738.61 212.608 1736.01 212.981 1734.1 212.872C1729.47 212.498 1725.64 211.38 1722.6 209.516C1719.59 207.759 1716.7 204.856 1713.91 200.805C1713.06 199.55 1712.24 197.607 1711.48 194.975C1710.76 192.273 1710.43 190.092 1710.5 188.431C1710.55 183.906 1710.81 180.87 1711.26 179.323C1711.45 178.619 1711.55 178.003 1711.56 177.472C1711.62 176.519 1712.16 174.885 1713.2 172.571C1714.05 170.608 1714.48 169.184 1714.5 168.301C1714.63 167.207 1716.7 162.845 1720.7 155.215C1724.74 147.515 1727.18 143.39 1728 142.84C1728.65 142.287 1729.87 140.384 1731.67 137.131C1733.17 134.261 1734.23 132.496 1734.85 131.836C1735.53 131.213 1736.78 130.796 1738.58 130.584C1739.05 130.557 1740.01 130.93 1741.48 131.702C1743.02 132.51 1743.95 133.129 1744.25 133.56C1746.28 136.5 1745.78 139.672 1742.74 143.078C1741.55 144.327 1738.38 149.852 1733.24 159.652C1728.16 169.489 1725.34 175.375 1724.77 177.308C1724.32 179.032 1724.1 180.124 1724.13 180.584C1724.19 180.975 1724.07 181.626 1723.77 182.54C1723.54 183.49 1723.49 184.267 1723.62 184.871C1723.64 185.508 1723.61 185.896 1723.54 186.036C1723.32 186.456 1723.44 187.679 1723.89 189.703C1724.35 191.728 1724.83 193.187 1725.35 194.081C1726.85 196.834 1729.18 198.683 1732.34 199.63C1735.54 200.506 1738.22 200.082 1740.38 198.356C1740.95 197.943 1741.36 197.668 1741.61 197.532C1742.76 196.882 1743.79 195.859 1744.7 194.463C1745.32 193.45 1745.94 192.701 1746.55 192.218C1747.16 191.735 1748.23 190.201 1749.77 187.614C1751.27 184.921 1752.09 183.522 1752.24 183.419C1752.59 183.249 1753.12 182.588 1753.81 181.435C1754.55 180.211 1755.03 179.125 1755.26 178.174C1755.64 176.944 1757.19 173.651 1759.91 168.294C1761.97 164.197 1763.15 161.78 1763.45 161.043C1763.78 160.237 1763.95 159.568 1763.96 159.038C1763.94 158.224 1764.65 156.452 1766.08 153.722C1767.44 151.132 1768.61 149.511 1769.57 148.858C1770.58 148.135 1772.03 147.916 1773.94 148.201Z" fill="#D8B18E" fill-opacity="0.41"/>
<path d="M1040.89 234.032C1041.41 233.447 1043.63 232.137 1047.55 230.101C1051.46 228.064 1053.7 227.008 1054.27 226.93C1054.86 226.911 1055.43 226.834 1055.96 226.698C1057.57 226.289 1059.31 226.22 1061.21 226.49C1061.96 226.616 1062.81 226.724 1063.77 226.814C1064.64 226.876 1066.45 227.343 1069.2 228.215C1072.01 229.055 1073.61 229.633 1074.01 229.95C1074.5 230.293 1074.96 230.578 1075.39 230.804C1075.84 230.94 1076.21 231.198 1076.49 231.578C1076.77 231.958 1077.23 232.317 1077.87 232.656C1078.45 233.027 1078.88 233.403 1079.16 233.783C1079.47 234.072 1079.88 234.418 1080.4 234.821C1080.98 235.192 1081.33 235.495 1081.46 235.73C1081.59 235.966 1082.02 236.416 1082.76 237.081C1084.02 238.148 1084.76 238.888 1084.98 239.3C1085.17 239.653 1085.53 240.031 1086.05 240.433C1086.6 240.895 1087.22 241.548 1087.91 242.394C1088.37 242.978 1088.89 243.65 1089.45 244.41C1090.44 245.546 1091.52 247.472 1092.68 250.187C1093.9 252.871 1094.64 254.942 1094.89 256.4C1095.01 257.174 1095.16 257.887 1095.36 258.539C1096.02 260.463 1096.02 263.843 1095.36 268.679C1095.17 270.151 1094.76 271.779 1094.12 273.563C1093.46 275.289 1092.8 276.671 1092.15 277.708C1091.91 277.984 1091.76 278.258 1091.68 278.53C1091.51 278.924 1090.62 280.014 1089 281.799C1088.1 282.814 1087.61 283.383 1087.52 283.505C1086.77 284.366 1084.29 285.894 1080.08 288.089C1075.93 290.252 1073.37 291.334 1072.38 291.335C1071.15 291.313 1070.14 291.061 1069.35 290.577C1068.58 290.002 1067.84 289.039 1067.11 287.685C1066.63 286.952 1066.09 286.296 1065.47 285.717C1064.86 285.138 1063.87 283.658 1062.51 281.278C1061.12 278.988 1060.26 277.669 1059.92 277.32C1059.55 276.913 1058.64 275.506 1057.18 273.098C1055.67 270.573 1054.51 268.769 1053.7 267.688C1052.92 266.665 1051.13 263.565 1048.34 258.388C1045.51 253.151 1043.3 248.913 1041.7 245.672C1039.98 242.196 1039.08 239.756 1039.01 238.353C1038.9 236.89 1039.53 235.45 1040.89 234.032ZM1057.11 237.699C1056.25 237.936 1055.15 238.419 1053.79 239.149C1052.5 239.847 1051.83 240.362 1051.78 240.692C1051.7 240.964 1053.96 245.365 1058.56 253.897C1063.13 262.369 1065.7 266.91 1066.25 267.521C1066.81 268.132 1067.81 269.641 1069.27 272.049C1070.68 274.398 1071.72 275.891 1072.37 276.529C1072.98 277.108 1073.37 277.545 1073.53 277.839C1073.75 278.251 1074.1 278.404 1074.58 278.3C1075.11 278.163 1076.07 277.685 1077.45 276.864C1079.65 275.599 1081.44 273.913 1082.81 271.807C1084.15 269.641 1084.77 267.558 1084.68 265.557C1084.69 265.018 1084.74 264.613 1084.82 264.341C1084.9 263.92 1084.92 263.261 1084.89 262.365C1084.86 261.468 1084.78 260.828 1084.65 260.443C1084.43 259.881 1084.35 259.316 1084.42 258.745C1084.49 258.174 1083.73 256.344 1082.14 253.252C1080.55 250.161 1079.51 248.518 1079.03 248.324C1078.21 247.931 1077.56 247.293 1077.08 246.41C1076.92 246.116 1076.62 245.827 1076.16 245.542C1075.67 245.198 1075.19 244.809 1074.73 244.375C1074.33 243.909 1073.85 243.445 1073.3 242.984C1072.69 242.554 1072.25 242.179 1072.01 241.857C1070.73 240.342 1068.45 239.141 1065.16 238.257C1061.93 237.34 1059.25 237.154 1057.11 237.699Z" fill="#D8B18E" fill-opacity="0.41"/>
<path d="M205.422 206.63C206.291 206.314 209.335 206.195 214.553 206.275C219.771 206.354 222.696 206.512 223.328 206.749C223.961 207.065 224.593 207.302 225.226 207.46C227.123 207.935 228.981 208.844 230.799 210.188C231.511 210.741 232.341 211.334 233.289 211.967C234.159 212.52 235.78 214.022 238.152 216.473C240.602 218.924 241.946 220.426 242.183 220.979C242.5 221.612 242.816 222.165 243.132 222.639C243.527 223.035 243.765 223.509 243.844 224.062C243.923 224.616 244.199 225.248 244.674 225.96C245.069 226.671 245.306 227.304 245.385 227.857C245.543 228.332 245.781 228.925 246.097 229.636C246.492 230.348 246.69 230.861 246.69 231.178C246.69 231.494 246.887 232.205 247.283 233.312C247.994 235.131 248.35 236.316 248.35 236.87C248.35 237.344 248.508 237.937 248.824 238.649C249.141 239.439 249.417 240.467 249.654 241.732C249.813 242.602 249.971 243.59 250.129 244.697C250.524 246.436 250.564 249.045 250.247 252.523C250.01 256.002 249.615 258.571 249.061 260.231C248.745 261.101 248.508 261.931 248.35 262.722C247.955 265.093 246.057 268.612 242.658 273.276C241.63 274.699 240.286 276.162 238.626 277.664C236.966 279.087 235.503 280.154 234.238 280.865C233.843 281.024 233.527 281.221 233.289 281.458C232.894 281.775 231.353 282.407 228.665 283.356C227.163 283.909 226.332 284.225 226.174 284.304C224.909 284.779 221.47 284.976 215.857 284.897C210.323 284.818 207.042 284.502 206.015 283.949C204.75 283.237 203.84 282.407 203.287 281.458C202.813 280.431 202.576 279.008 202.576 277.189C202.497 276.162 202.299 275.173 201.983 274.225C201.666 273.276 201.469 271.181 201.39 267.94C201.232 264.777 201.073 262.919 200.915 262.366C200.757 261.733 200.599 259.757 200.441 256.437C200.283 252.958 200.085 250.428 199.848 248.847C199.611 247.345 199.492 243.115 199.492 236.158C199.492 229.122 199.571 223.47 199.729 219.2C199.888 214.615 200.322 211.571 201.034 210.069C201.745 208.488 203.208 207.342 205.422 206.63ZM220.245 219.556C219.217 219.319 217.794 219.2 215.976 219.2C214.237 219.2 213.248 219.359 213.011 219.675C212.774 219.912 212.655 225.762 212.655 237.226C212.655 248.61 212.774 254.776 213.011 255.725C213.248 256.674 213.446 258.808 213.604 262.129C213.762 265.37 213.999 267.505 214.316 268.532C214.632 269.481 214.79 270.153 214.79 270.548C214.79 271.102 215.067 271.458 215.62 271.616C216.253 271.774 217.517 271.813 219.415 271.734C222.419 271.655 225.226 270.904 227.834 269.481C230.443 267.979 232.262 266.161 233.289 264.026C233.606 263.473 233.882 263.077 234.12 262.84C234.436 262.445 234.831 261.773 235.305 260.824C235.78 259.876 236.056 259.164 236.136 258.69C236.215 257.978 236.452 257.346 236.847 256.792C237.242 256.239 237.48 253.907 237.559 249.796C237.638 245.685 237.48 243.392 237.084 242.918C236.452 242.048 236.136 241.02 236.136 239.835C236.136 239.439 235.977 238.965 235.661 238.411C235.345 237.779 235.068 237.107 234.831 236.395C234.673 235.684 234.436 234.933 234.12 234.142C233.724 233.352 233.487 232.719 233.408 232.245C232.934 229.952 231.234 227.422 228.309 224.655C225.463 221.888 222.775 220.189 220.245 219.556Z" fill="#D8B18E" fill-opacity="0.41"/>
<path d="M578.518 344.156C580.653 343.365 582.55 343.603 584.211 344.867C585.95 346.053 586.82 347.793 586.82 350.085C586.82 351.508 586.385 352.931 585.515 354.354C584.725 355.777 581.957 359.849 577.214 366.569C576.582 367.438 576.107 368.071 575.791 368.466C575.554 368.861 575.119 369.494 574.487 370.364C573.617 371.549 573.064 372.34 572.826 372.735C572.352 373.447 571.917 374.04 571.522 374.514C571.206 374.83 570.731 375.463 570.099 376.411C569.625 377.202 568.873 378.111 567.846 379.139C566.976 380.088 566.502 380.76 566.423 381.155C566.344 381.471 566.344 386.333 566.423 395.741C566.502 405.07 566.581 410.564 566.66 412.225C567.055 419.261 564.921 422.818 560.256 422.897C558.991 422.897 557.963 422.66 557.173 422.186C556.382 421.712 555.552 420.763 554.683 419.34L553.971 418.035V401.315C553.971 400.05 553.971 398.35 553.971 396.215C553.971 389.97 553.932 386.294 553.852 385.187C553.773 384.08 553.536 383.289 553.141 382.815C552.983 382.657 552.864 382.499 552.785 382.341C552.153 381.55 551.52 380.72 550.888 379.85C550.334 379.06 549.623 378.111 548.753 377.004C547.884 375.977 547.212 375.067 546.737 374.277C546.342 373.644 545.789 372.972 545.077 372.261C543.891 370.68 542.508 368.743 540.927 366.45C540.531 365.818 540.176 365.343 539.859 365.027C539.306 364.316 538.239 362.774 536.657 360.402C535.076 358.031 534.167 356.568 533.93 356.015C533.06 354.354 532.902 352.299 533.456 349.848C533.772 348.188 534.721 347.042 536.302 346.409C537.883 345.698 539.504 345.619 541.164 346.172C542.903 346.646 544.207 347.674 545.077 349.255C545.472 350.046 545.828 350.678 546.144 351.153C546.223 351.311 546.421 351.666 546.737 352.22C547.054 352.694 547.291 353.05 547.449 353.287C547.923 353.999 548.753 355.105 549.939 356.608C551.046 358.189 551.757 359.177 552.074 359.572C553.734 361.944 555.038 363.644 555.987 364.671C556.303 365.067 556.54 365.462 556.699 365.857C556.857 366.173 556.975 366.332 557.054 366.332C557.212 366.332 557.529 366.766 558.003 367.636C558.556 368.822 559.07 369.296 559.545 369.059C560.019 368.822 560.968 367.636 562.391 365.502C563.181 364.237 563.695 363.406 563.932 363.011C564.249 362.458 564.565 361.983 564.881 361.588C565.197 361.114 565.79 360.244 566.66 358.979C567.213 358.189 568.043 356.963 569.15 355.303C570.573 353.248 571.799 351.39 572.826 349.73C574.724 346.646 576.621 344.788 578.518 344.156Z" fill="#D8B18E" fill-opacity="0.41"/>
</svg> -->
<svg width="1920" height="617" viewBox="0 0 1920 617" fill="none" xmlns="http://www.w3.org/2000/svg">
<g clip-path="url(#clip0_2230_3611)">
<circle cx="376" cy="248" r="58" fill="#D8B18E" fill-opacity="0.7"/>
<circle cx="1091" cy="611" r="58" fill="#D8B18E" fill-opacity="0.7"/>
<circle cx="1862" cy="42" r="58" fill="#D8B18E" fill-opacity="0.7"/>
<path d="M891.27 327.452C893.632 327.349 896.03 327.791 898.464 328.778C900.911 329.705 902.903 330.972 904.439 332.581C905.976 334.189 907.394 336.465 908.694 339.411C909.994 342.357 910.66 344.75 910.69 346.59C910.683 346.904 910.756 347.426 910.909 348.156C911.042 348.691 911.111 349.37 911.117 350.193C911.075 350.943 911.084 351.608 911.144 352.19C911.263 352.786 911.248 353.699 911.099 354.93C910.937 356.221 910.878 357.188 910.924 357.83C910.957 358.533 910.845 359.456 910.589 360.6C910.346 361.683 910.061 362.536 909.732 363.157C909.403 363.779 909.01 364.829 908.553 366.307C908.082 367.845 907.783 368.758 907.656 369.045C907.468 369.319 907.112 370.061 906.589 371.271C905.978 372.589 905.491 373.491 905.129 373.979C904.553 374.861 904.434 375.814 904.774 376.839C905.127 377.802 906.414 380.24 908.636 384.15C909.684 385.965 910.257 387.358 910.356 388.328C910.468 389.238 910.163 390.181 909.439 391.157C908.728 392.072 908.031 392.643 907.349 392.869C906.726 393.109 905.903 393.115 904.88 392.886C903.796 392.643 902.807 391.979 901.912 390.894C901.017 389.809 899.546 387.488 897.497 383.933C897.137 383.283 896.829 382.962 896.575 382.968C896.395 382.928 895.802 383.174 894.798 383.708C892.715 384.822 891.463 385.332 891.042 385.238C890.862 385.197 890.46 385.297 889.837 385.537C889.228 385.717 888.669 385.813 888.161 385.825C887.726 385.791 887.114 385.844 886.324 385.983C885.474 386.109 883.845 385.902 881.438 385.364C879.104 384.778 877.495 384.197 876.613 383.62C871.286 380.026 867.852 374.896 866.31 368.23C866.057 367.099 865.945 366.473 865.971 366.353C866.012 366.172 865.946 365.62 865.773 364.696C865.614 363.713 865.572 362.913 865.646 362.298C865.734 361.622 865.719 360.986 865.599 360.391C865.46 359.601 865.781 357.461 866.562 353.969C867.344 350.478 867.959 348.435 868.408 347.84C868.844 347.306 869.233 346.413 869.576 345.163C869.993 343.865 870.446 342.829 870.936 342.054C871.439 341.218 871.768 340.596 871.922 340.188C872.459 338.918 873.954 337.04 876.407 334.555C877.298 333.68 877.831 333.136 878.005 332.922C878.34 332.554 879.207 331.927 880.607 331.039C882.02 330.091 882.964 329.544 883.439 329.397C883.66 329.257 884.357 328.971 885.528 328.538C886.579 328.078 887.165 327.861 887.285 327.888C887.406 327.915 887.734 327.862 888.269 327.729C888.744 327.582 889.745 327.49 891.27 327.452ZM896.692 338.811C896.004 338.214 895.352 337.879 894.737 337.804C894.135 337.67 893.118 337.695 891.686 337.88C890.716 337.979 889.842 338.068 889.066 338.147C887.648 338.272 885.796 339.343 883.512 341.36C881.287 343.391 879.853 345.282 879.208 347.034C878.885 347.91 878.644 348.425 878.483 348.578C878.235 348.839 877.899 349.775 877.475 351.387C877.004 352.925 876.601 354.162 876.265 355.098C875.096 358.06 874.957 361.506 875.848 365.434C876.812 369.316 878.527 372.386 880.992 374.645C882.128 375.784 883.609 376.368 885.436 376.398C887.322 376.441 889.143 375.932 890.897 374.871C891.694 374.417 892.103 374.003 892.123 373.628C892.144 373.253 891.818 372.453 891.144 371.228C890.49 370.197 889.949 369.222 889.522 368.305C889.109 367.328 888.785 366.655 888.552 366.286C887.471 364.338 887.022 362.531 887.205 360.865C887.462 359.153 888.227 357.996 889.499 357.396C890.831 356.81 892.42 356.912 894.265 357.705C894.673 357.859 895.321 358.636 896.209 360.036C897.11 361.375 897.643 362.38 897.81 363.049C898.156 364.327 898.58 364.833 899.082 364.566C899.464 364.272 899.989 362.209 900.657 358.377C901.385 354.557 901.677 352.126 901.531 351.082C901.392 350.292 901.342 349.807 901.383 349.627C901.464 349.265 901.255 348.081 900.756 346.073C900.018 342.874 898.664 340.453 896.692 338.811Z" fill="#D8B18E" fill-opacity="0.41"/>
</g>
<defs>
<clipPath id="clip0_2230_3611">
<rect width="1920" height="617" fill="white"/>
</clipPath>
</defs>
</svg>
