<svg width="1920" height="617" viewBox="0 0 1920 617" fill="none" xmlns="http://www.w3.org/2000/svg">
<circle cx="712" cy="248" r="58" fill="#D8B18E" fill-opacity="0.7"/>
<circle cx="1848" cy="468" r="58" fill="#D8B18E" fill-opacity="0.7"/>
<path d="M1757.94 132.201C1760.83 132.647 1762.58 134.415 1763.19 137.503C1763.28 138.354 1763.27 138.972 1763.15 139.359C1763.08 139.676 1762.74 140.483 1762.15 141.779C1761.3 143.566 1760.92 144.796 1761.02 145.47C1761.07 146.214 1760.53 147.759 1759.39 150.106C1758.31 152.489 1755.7 157.636 1751.55 165.546C1747.69 172.896 1745.03 177.795 1743.57 180.241C1742.18 182.724 1741.07 184.241 1740.24 184.79C1739.67 185.203 1739.04 185.898 1738.35 186.875C1737.73 187.888 1737.07 188.618 1736.39 189.064C1735.75 189.617 1735.15 190.242 1734.61 190.939C1733.99 191.598 1733.36 192.116 1732.72 192.493C1732.01 192.832 1731.59 193.107 1731.48 193.317C1731.12 194.017 1729.26 194.829 1725.92 195.753C1722.61 196.608 1720.01 196.981 1718.1 196.872C1713.47 196.498 1709.64 195.38 1706.6 193.516C1703.59 191.759 1700.7 188.856 1697.91 184.805C1697.06 183.55 1696.24 181.607 1695.48 178.975C1694.76 176.273 1694.43 174.092 1694.5 172.431C1694.55 167.906 1694.81 164.87 1695.26 163.323C1695.45 162.619 1695.55 162.003 1695.56 161.472C1695.62 160.519 1696.16 158.885 1697.2 156.571C1698.05 154.608 1698.48 153.184 1698.5 152.301C1698.63 151.207 1700.7 146.845 1704.7 139.215C1708.74 131.515 1711.18 127.39 1712 126.84C1712.65 126.287 1713.87 124.384 1715.67 121.131C1717.17 118.261 1718.23 116.496 1718.85 115.836C1719.53 115.213 1720.78 114.796 1722.58 114.584C1723.05 114.557 1724.01 114.93 1725.48 115.702C1727.02 116.51 1727.95 117.129 1728.25 117.56C1730.28 120.5 1729.78 123.672 1726.74 127.078C1725.55 128.327 1722.38 133.852 1717.24 143.652C1712.16 153.489 1709.34 159.375 1708.77 161.308C1708.32 163.032 1708.1 164.124 1708.13 164.584C1708.19 164.975 1708.07 165.626 1707.77 166.54C1707.54 167.49 1707.49 168.267 1707.62 168.871C1707.64 169.508 1707.61 169.896 1707.54 170.036C1707.32 170.456 1707.44 171.679 1707.89 173.703C1708.35 175.728 1708.83 177.187 1709.35 178.081C1710.85 180.834 1713.18 182.683 1716.34 183.63C1719.54 184.506 1722.22 184.082 1724.38 182.356C1724.95 181.943 1725.36 181.668 1725.61 181.532C1726.76 180.882 1727.79 179.859 1728.7 178.463C1729.32 177.45 1729.94 176.701 1730.55 176.218C1731.16 175.735 1732.23 174.201 1733.77 171.614C1735.27 168.921 1736.09 167.522 1736.24 167.419C1736.59 167.249 1737.12 166.588 1737.81 165.435C1738.55 164.211 1739.03 163.125 1739.26 162.174C1739.64 160.944 1741.19 157.651 1743.91 152.294C1745.97 148.197 1747.15 145.78 1747.45 145.043C1747.78 144.237 1747.95 143.568 1747.96 143.038C1747.94 142.224 1748.65 140.452 1750.08 137.722C1751.44 135.132 1752.61 133.511 1753.57 132.858C1754.58 132.135 1756.03 131.916 1757.94 132.201Z" fill="#D8B18E" fill-opacity="0.41"/>
<path d="M189.422 190.63C190.291 190.314 193.335 190.195 198.553 190.275C203.771 190.354 206.696 190.512 207.328 190.749C207.961 191.065 208.593 191.302 209.226 191.46C211.123 191.935 212.981 192.844 214.799 194.188C215.511 194.741 216.341 195.334 217.289 195.967C218.159 196.52 219.78 198.022 222.152 200.473C224.602 202.924 225.946 204.426 226.183 204.979C226.5 205.612 226.816 206.165 227.132 206.639C227.527 207.035 227.765 207.509 227.844 208.062C227.923 208.616 228.199 209.248 228.674 209.96C229.069 210.671 229.306 211.304 229.385 211.857C229.543 212.332 229.781 212.925 230.097 213.636C230.492 214.348 230.69 214.861 230.69 215.178C230.69 215.494 230.887 216.205 231.283 217.312C231.994 219.131 232.35 220.316 232.35 220.87C232.35 221.344 232.508 221.937 232.824 222.649C233.141 223.439 233.417 224.467 233.654 225.732C233.813 226.602 233.971 227.59 234.129 228.697C234.524 230.436 234.564 233.045 234.247 236.523C234.01 240.002 233.615 242.571 233.061 244.231C232.745 245.101 232.508 245.931 232.35 246.722C231.955 249.093 230.057 252.612 226.658 257.276C225.63 258.699 224.286 260.162 222.626 261.664C220.966 263.087 219.503 264.154 218.238 264.865C217.843 265.024 217.527 265.221 217.289 265.458C216.894 265.775 215.353 266.407 212.665 267.356C211.163 267.909 210.332 268.225 210.174 268.304C208.909 268.779 205.47 268.976 199.857 268.897C194.323 268.818 191.042 268.502 190.015 267.949C188.75 267.237 187.84 266.407 187.287 265.458C186.813 264.431 186.576 263.008 186.576 261.189C186.497 260.162 186.299 259.173 185.983 258.225C185.666 257.276 185.469 255.181 185.39 251.94C185.232 248.777 185.073 246.919 184.915 246.366C184.757 245.733 184.599 243.757 184.441 240.437C184.283 236.958 184.085 234.428 183.848 232.847C183.611 231.345 183.492 227.115 183.492 220.158C183.492 213.122 183.571 207.47 183.729 203.2C183.888 198.615 184.322 195.571 185.034 194.069C185.745 192.488 187.208 191.342 189.422 190.63ZM204.245 203.556C203.217 203.319 201.794 203.2 199.976 203.2C198.237 203.2 197.248 203.359 197.011 203.675C196.774 203.912 196.655 209.762 196.655 221.226C196.655 232.61 196.774 238.776 197.011 239.725C197.248 240.674 197.446 242.808 197.604 246.129C197.762 249.37 197.999 251.505 198.316 252.532C198.632 253.481 198.79 254.153 198.79 254.548C198.79 255.102 199.067 255.458 199.62 255.616C200.253 255.774 201.517 255.813 203.415 255.734C206.419 255.655 209.226 254.904 211.834 253.481C214.443 251.979 216.262 250.161 217.289 248.026C217.606 247.473 217.882 247.077 218.12 246.84C218.436 246.445 218.831 245.773 219.305 244.824C219.78 243.876 220.056 243.164 220.136 242.69C220.215 241.978 220.452 241.346 220.847 240.792C221.242 240.239 221.48 237.907 221.559 233.796C221.638 229.685 221.48 227.392 221.084 226.918C220.452 226.048 220.136 225.02 220.136 223.835C220.136 223.439 219.977 222.965 219.661 222.411C219.345 221.779 219.068 221.107 218.831 220.395C218.673 219.684 218.436 218.933 218.12 218.142C217.724 217.352 217.487 216.719 217.408 216.245C216.934 213.952 215.234 211.422 212.309 208.655C209.463 205.888 206.775 204.189 204.245 203.556Z" fill="#D8B18E" fill-opacity="0.41"/>
</svg>
